<?xml version="1.0" encoding="UTF-8" standalone="no"?>
<!DOCTYPE svg PUBLIC "-//W3C//DTD SVG 1.1//EN"
"http://www.w3.org/Graphics/SVG/1.1/DTD/svg11.dtd">
<svg viewBox="0 0 1466 825" version="1.1" xmlns="http://www.w3.org/2000/svg" xmlns:xlink="http://www.w3.org/1999/xlink">
<defs>
<clipPath id="c0_12"><path d="M0,825V0H1466.6V825Z"/></clipPath>
<style type="text/css"><![CDATA[
.g0_12{
fill: #FFF;
}
.g1_12{
fill: #BFBFBF;
}
.g2_12{
fill: #EDEDED;
}
.g3_12{
fill: none;
stroke: #BFBFBF;
stroke-width: 0.779;
stroke-miterlimit: 3;
}
.g4_12{
fill: #DBDBDB;
}
.g5_12{
fill: none;
stroke: #A6A6A6;
stroke-width: 1.515;
stroke-miterlimit: 3;
}
]]></style>
</defs>
<g clip-path="url(#c0_12)">
<path fill-rule="evenodd" d="M0,0H1466.6V825H0V0Z" class="g0_12"/>
<path fill-rule="evenodd" d="M0,0H1466.7V825H0V0Z" class="g0_12"/>
</g>
<path fill-rule="evenodd" d="M260.1,220.3H434.4l16,12.6l-16,12.7H260.1l16,-12.7l-16,-12.6Z" class="g1_12"/>
<path fill-rule="evenodd" d="M457,220.3H631.2l16,12.6l-16,12.7H457l15.9,-12.7L457,220.3Z" class="g1_12"/>
<path fill-rule="evenodd" d="M747.9,510.6h-94V251.7H842V510.6H747.9Z" class="g2_12"/>
<path d="M747.9,510.6h-94V251.7H842V510.6H747.9Z" class="g3_12"/>
<path fill-rule="evenodd" d="M653.9,220.3H828.1l16,12.6l-16,12.7H653.9l15.9,-12.7L653.9,220.3Z" class="g1_12"/>
<path fill-rule="evenodd" d="M944.8,510.6H850.7V251.7h188.2V510.6H944.8Z" class="g2_12"/>
<path d="M944.8,510.6H850.7V251.7h188.2V510.6H944.8Z" class="g3_12"/>
<path fill-rule="evenodd" d="M850.7,220.3H1025l16,12.6l-16,12.7H850.7l16,-12.7l-16,-12.6Z" class="g1_12"/>
<path fill-rule="evenodd" d="M354.2,510.6H260.1V251.7H448.3V510.6H354.2Z" class="g2_12"/>
<path d="M354.2,510.6H260.1V251.7H448.3V510.6H354.2Z" class="g3_12"/>
<path fill-rule="evenodd" d="M551,510.6H457V251.7H645.1V510.6H551Z" class="g2_12"/>
<path d="M551,510.6H457V251.7H645.1V510.6H551Z" class="g3_12"/>
<path fill-rule="evenodd" d="M793.2,499.1H749.8V261.7h86.8V499.1H793.2Z" class="g4_12"/>
<path d="M793.2,499.1H749.8V261.7h86.8V499.1H793.2Z" class="g3_12"/>
<path fill-rule="evenodd" d="M898.4,499.1H855.1V261.7h86.7V499.1H898.4Z" class="g4_12"/>
<path d="M898.4,499.1H855.1V261.7h86.7V499.1H898.4Z" class="g3_12"/>
<path fill-rule="evenodd" d="M990.6,499.1H947.2V261.7H1034V499.1H990.6Z" class="g4_12"/>
<path d="M990.6,499.1H947.2V261.7H1034V499.1H990.6Z" class="g3_12"/>
<path fill-rule="evenodd" d="M701.8,338.4H658.4V261.7h86.8v76.7H701.8Z" class="g4_12"/>
<path d="M701.8,338.4H658.4V261.7h86.8v76.7H701.8Z" class="g3_12"/>
<path fill-rule="evenodd" d="M701.6,419H658.2V342.4H745V419H701.6Z" class="g4_12"/>
<path d="M701.6,419H658.2V342.4H745V419H701.6Z" class="g3_12"/>
<path fill-rule="evenodd" d="M701.4,500.2h-43V423.5h86v76.7h-43Z" class="g4_12"/>
<path d="M701.4,500.2h-43V423.5h86v76.7h-43Z" class="g3_12"/>
<path fill-rule="evenodd" d="M732.3,270.4h30.5v-3.1l6.2,6.2l-6.2,6.2v-3.1H732.3v-6.2Z" class="g1_12"/>
<path d="M732.3,270.4h30.5v-3.1l6.2,6.2l-6.2,6.2v-3.1H732.3v-6.2Z" class="g5_12"/>
<path fill-rule="evenodd" d="M762.8,406.9H732.3v3l-6.2,-6.1l6.2,-6.2v3.1h30.5v6.2Z" class="g1_12"/>
<path d="M762.8,406.9H732.3v3l-6.2,-6.1l6.2,-6.2v3.1h30.5v6.2Z" class="g5_12"/>
</svg>