<?xml version="1.0" encoding="UTF-8" standalone="no"?>
<!DOCTYPE svg PUBLIC "-//W3C//DTD SVG 1.1//EN"
"http://www.w3.org/Graphics/SVG/1.1/DTD/svg11.dtd">
<svg viewBox="0 0 1466 825" version="1.1" xmlns="http://www.w3.org/2000/svg" xmlns:xlink="http://www.w3.org/1999/xlink">
<defs>
<clipPath id="c0_23"><path d="M0,825V0H1466.6V825Z"/></clipPath>
<style type="text/css"><![CDATA[
.g0_23{
fill: #FFF;
}
.g1_23{
fill: #D9D9D9;
}
.g2_23{
fill: none;
stroke: #767171;
stroke-width: 0.779;
stroke-miterlimit: 3;
}
.g3_23{
fill: #BFBFBF;
}
.g4_23{
fill: none;
stroke: #AFABAB;
stroke-width: 0.692;
stroke-linejoin: round;
}
.g5_23{
fill: none;
stroke: #BFBFBF;
stroke-width: 0.779;
stroke-miterlimit: 3;
}
.g6_23{
fill: #F8CBAD;
}
.g7_23{
fill: #B4C7E7;
}
.g8_23{
fill: none;
stroke: #8FAADC;
stroke-width: 1.515;
stroke-miterlimit: 3;
}
.g9_23{
fill: none;
stroke: #4472C4;
stroke-width: 0.779;
stroke-miterlimit: 3;
}
.ga_23{
fill: #D0CECE;
}
.gb_23{
fill: #ED7D31;
}
.gc_23{
fill: #FFE699;
}
.gd_23{
fill: none;
stroke: #A6A6A6;
stroke-width: 0.779;
stroke-miterlimit: 10;
}
.ge_23{
fill: #A6A6A6;
}
.gf_23{
fill: none;
stroke: #A6A6A6;
stroke-width: 0.779;
stroke-miterlimit: 3;
}
.gg_23{
fill: #C5E0B4;
}
.gh_23{
fill: #548235;
}
.gi_23{
fill: none;
stroke: #000;
stroke-width: 0.909;
stroke-miterlimit: 10;
}
.gj_23{
fill: #E8D8F4;
}
.gk_23{
fill: none;
stroke: #A6A6A6;
stroke-width: 0.389;
stroke-miterlimit: 1;
}
.gl_23{
fill: none;
stroke: #AFABAB;
stroke-width: 0.779;
stroke-miterlimit: 3;
}
.gm_23{
fill: #C39BE1;
}
.gn_23{
fill: none;
stroke: #F00;
stroke-width: 0.779;
stroke-miterlimit: 10;
}
.go_23{
fill: none;
stroke: #0563C1;
stroke-width: 0.909;
stroke-miterlimit: 10;
}
]]></style>
</defs>
<g clip-path="url(#c0_23)">
<path fill-rule="evenodd" d="M0,0H1466.6V825H0V0Z" class="g0_23"/>
<path fill-rule="evenodd" d="M0,0H1466.7V825H0V0Z" class="g0_23"/>
</g>
<path fill-rule="evenodd" d="M1111,690.9c0,-.5,.2,-1,.4,-1.5c.3,-.4,.6,-.7,1.1,-1c.4,-.3,1,-.4,1.4,-.4h11.7c.5,0,1,.1,1.5,.4c.4,.3,.7,.6,1,1.1c.3,.4,.4,.9,.4,1.4v47.2c0,.5,-.1,1,-.4,1.5c-.2,.4,-.6,.7,-1,1c-.5,.3,-1,.4,-1.5,.4h-11.7c-.5,0,-1,-.1,-1.4,-.4c-.5,-.2,-.8,-.6,-1.1,-1c-.2,-.5,-.4,-1,-.4,-1.5V690.9Z" class="g1_23"/>
<path d="M1111,690.9c0,-.5,.2,-1,.4,-1.5c.3,-.4,.6,-.7,1.1,-1c.4,-.3,1,-.4,1.4,-.4h11.7c.5,0,1,.1,1.5,.4c.4,.3,.7,.6,1,1.1c.3,.4,.4,.9,.4,1.4v47.2c0,.5,-.1,1,-.4,1.5c-.2,.4,-.6,.7,-1,1c-.5,.3,-1,.4,-1.5,.4h-11.7c-.5,0,-1,-.1,-1.4,-.4c-.5,-.2,-.8,-.6,-1.1,-1c-.2,-.5,-.4,-1,-.4,-1.5V690.9Z" class="g2_23"/>
<path fill-rule="evenodd" d="M1167.3,37.9L1135.6,20.7c-2,-1,-.9,-3.3,1.6,-3.3H1356c.6,0,1.1,.1,1.5,.3l37.8,20.2c1.4,.7,1.4,2.2,0,2.9l-37.7,20.8c-.5,.2,-1,.4,-1.6,.4H1136.9c-2.3,0,-3.4,-2.3,-1.4,-3.4l31.8,-17.8c1.4,-.7,1.3,-2.2,0,-2.9Z" class="g3_23"/>
<path d="M132.1,367.2v12.2m0,3.8v12.2m0,3.8v12" class="g4_23"/>
<path d="M752.6,154.3H83.7V94H1421.4v60.3H752.6Z" class="g5_23"/>
<path fill-rule="evenodd" d="M1275.3,414.1c0,15,-12.1,27.2,-26.9,27.2c-14.8,0,-26.9,-12.2,-26.9,-27.2c0,-15.1,12.1,-27.2,26.9,-27.2c14.8,0,26.9,12.1,26.9,27.2Z" class="g6_23"/>
<path d="M132.1,410.2v12.2m0,3.8v11.5" class="g4_23"/>
<path fill-rule="evenodd" d="M1046.9,404.7c0,-.8,.2,-1.6,.6,-2.3c.4,-.7,1.1,-1.3,1.7,-1.7c.7,-.5,1.6,-.7,2.4,-.7l58,.1c.8,0,1.7,.2,2.4,.6c.6,.4,1.3,1,1.6,1.7c.5,.7,.7,1.5,.7,2.3v18.7c0,.8,-.2,1.7,-.6,2.4c-.4,.6,-1.1,1.3,-1.7,1.6c-.7,.5,-1.6,.7,-2.4,.7h-58.1c-.8,0,-1.6,-.2,-2.3,-.6c-.7,-.4,-1.3,-1.1,-1.7,-1.7c-.4,-.7,-.6,-1.6,-.6,-2.4V404.7Z" class="g7_23"/>
<path d="M1046.9,404.7c0,-.8,.2,-1.6,.6,-2.3c.4,-.7,1.1,-1.3,1.7,-1.7c.7,-.5,1.6,-.7,2.4,-.7l58,.1c.8,0,1.7,.2,2.4,.6c.6,.4,1.3,1,1.6,1.7c.5,.7,.7,1.5,.7,2.3v18.7c0,.8,-.2,1.7,-.6,2.4c-.4,.6,-1.1,1.3,-1.7,1.6c-.7,.5,-1.6,.7,-2.4,.7h-58.1c-.8,0,-1.6,-.2,-2.3,-.6c-.7,-.4,-1.3,-1.1,-1.7,-1.7c-.4,-.7,-.6,-1.6,-.6,-2.4V404.7Z" class="g8_23"/>
<path d="M1139.2,457.5c-1.9,0,-3.7,-.1,-5.2,-.2c-1.6,-.2,-3,-.4,-3.9,-.7c-1,-.2,-1.4,-.5,-1.4,-.8V415.7c0,-.3,-.5,-.6,-1.5,-.8c-.9,-.3,-2.2,-.5,-3.8,-.7c-1.6,-.1,-3.4,-.2,-5.3,-.2c1.9,0,3.7,-.1,5.3,-.2c1.6,-.2,2.9,-.4,3.8,-.7c1,-.3,1.5,-.6,1.5,-.9V372.3c0,-.3,.4,-.6,1.4,-.9c.9,-.3,2.3,-.5,3.9,-.6c1.5,-.2,3.3,-.3,5.2,-.3" class="g9_23"/>
<path fill-rule="evenodd" d="M1162.2,384h-20.8V361.7h41.7V384h-20.9Z" class="ga_23"/>
<path fill-rule="evenodd" d="M1161.7,367.7h-14.9v-3.8h29.8v3.8h-14.9Z" class="gb_23"/>
<path fill-rule="evenodd" d="M1161.7,373.1h-14.9v-3.8h29.8v3.8h-14.9Z" class="gb_23"/>
<path fill-rule="evenodd" d="M1159.1,378.9h-12.4V375h24.7v3.9h-12.3Z" class="gb_23"/>
<path fill-rule="evenodd" d="M1160.6,425.2h-20.9V402.9h41.8v22.3h-20.9Z" class="ga_23"/>
<path fill-rule="evenodd" d="M1160,408.9h-14.9v-3.8h29.8v3.8H1160Z" class="gb_23"/>
<path fill-rule="evenodd" d="M1160,414.4h-14.9v-3.9h29.8v3.9H1160Z" class="gb_23"/>
<path fill-rule="evenodd" d="M1157.4,420.1h-12.3v-3.9h24.6v3.9h-12.3Z" class="gb_23"/>
<path fill-rule="evenodd" d="M1162.2,466.5h-20.8V444.2h41.7v22.3h-20.9Z" class="ga_23"/>
<path fill-rule="evenodd" d="M1161.7,450.3h-14.9v-3.9h29.8v3.9h-14.9Z" class="gb_23"/>
<path fill-rule="evenodd" d="M1161.7,455.7h-14.9v-3.9h29.8v3.9h-14.9Z" class="gb_23"/>
<path fill-rule="evenodd" d="M1159.1,461.4h-12.4v-3.9h24.7v3.9h-12.3Z" class="gb_23"/>
<path fill-rule="evenodd" d="M1320.9,382.2H1300V364.5h41.7v17.7h-20.8Z" class="gc_23"/>
<path fill-rule="evenodd" d="M1320.3,371.9h-14.9V368h29.8v3.9h-14.9Z" class="gb_23"/>
<path fill-rule="evenodd" d="M1317.7,377.6h-12.3v-3.8H1330v3.8h-12.3Z" class="gb_23"/>
<path d="M1183.1,372.9c6.6,0,13.2,10.2,13.2,20.5c0,10.4,7.6,16.1,16.9,19.2" class="gd_23"/>
<path fill-rule="evenodd" d="M1221.5,414.1l-9.8,2.8l4.4,-3.8l-2.8,-5.1l8.2,6.1Z" class="ge_23"/>
<path d="M1183.1,455.4c5.5,0,11.1,-10.3,11.1,-20.7c0,-10.3,13.6,-20.7,27.3,-20.7m-40,.1c8.8,0,17.6,0,17.6,-.1c0,0,8.8,-.1,17.6,-.1" class="gf_23"/>
<path fill-rule="evenodd" d="M1364.3,382.2h-20.9V364.5h41.7v17.7h-20.8Z" class="gg_23"/>
<path fill-rule="evenodd" d="M1363.7,371.9h-14.9V368h29.8v3.9h-14.9Z" class="gh_23"/>
<path fill-rule="evenodd" d="M1361.1,377.6h-12.3v-3.8h24.6v3.8h-12.3Z" class="gh_23"/>
<path fill-rule="evenodd" d="M1320.8,422.2h-20.9V404.4h41.8v17.8h-20.9Z" class="gc_23"/>
<path fill-rule="evenodd" d="M1320.2,411.9h-14.9V408h29.8v3.9h-14.9Z" class="gb_23"/>
<path fill-rule="evenodd" d="M1317.6,417.6h-12.3v-3.8h24.6v3.8h-12.3Z" class="gb_23"/>
<path fill-rule="evenodd" d="M1364.2,422.2h-20.9V404.4H1385v17.8h-20.8Z" class="gg_23"/>
<path fill-rule="evenodd" d="M1363.6,411.9h-14.9V408h29.8v3.9h-14.9Z" class="gh_23"/>
<path fill-rule="evenodd" d="M1361,417.6h-12.3v-3.8h24.6v3.8H1361Z" class="gh_23"/>
<path fill-rule="evenodd" d="M1320.8,468.2h-20.9V450.5h41.8v17.7h-20.9Z" class="gc_23"/>
<path fill-rule="evenodd" d="M1320.2,457.9h-14.9v-3.8h29.8v3.8h-14.9Z" class="gb_23"/>
<path fill-rule="evenodd" d="M1318.4,464.6H1306v-3.9h24.7v3.9h-12.3Z" class="gb_23"/>
<path fill-rule="evenodd" d="M1364.2,468.2h-20.9V450.5H1385v17.7h-20.8Z" class="gg_23"/>
<path fill-rule="evenodd" d="M1363.6,457.9h-14.9v-3.8h29.8v3.8h-14.9Z" class="gh_23"/>
<path fill-rule="evenodd" d="M1361.7,464.6h-12.3v-3.9H1374v3.9h-12.3Z" class="gh_23"/>
<path d="M268.1,473H483.2" class="gi_23"/>
<path d="M132.1,455.8V468m0,3.8v12.3m0,3.8v12.2m0,3.8v12.2" class="g4_23"/>
<path d="M90.1,361H394" class="gi_23"/>
<path d="M132.1,518.2v12.2m0,3.8v12.2m0,3.9v12.2m0,3.8v12.2" class="g4_23"/>
<path fill-rule="evenodd" d="M1148.6,571.2c0,13.6,-12,24.7,-26.9,24.7c-14.8,0,-26.9,-11.1,-26.9,-24.7c0,-13.7,12.1,-24.8,26.9,-24.8c14.9,0,26.9,11.1,26.9,24.8Z" class="g6_23"/>
<path fill-rule="evenodd" d="M1254.3,548.7h-75.6V513.8H1330v34.9h-75.7Z" class="gc_23"/>
<path fill-rule="evenodd" d="M1254,587.2h-76.4V552.4h152.8v34.8H1254Z" class="gg_23"/>
<path fill-rule="evenodd" d="M1253.3,626h-75.7V591.1h151.3V626h-75.6Z" class="gj_23"/>
<path d="M1078.5,571.3l7.9,-.1" class="gk_23"/>
<path fill-rule="evenodd" d="M1094.8,571.2l-9,4.6l3.6,-4.6l-3.7,-4.5l9.1,4.5Z" class="ge_23"/>
<path d="M1148.6,571.2c7.5,0,15.1,-10,15.1,-19.9c0,-10,3.1,-13,7.4,-16.8" class="gk_23"/>
<path fill-rule="evenodd" d="M1178.7,531.3l-6.4,7.9l1.5,-5.7l-5.2,-2.6l10.1,.4Z" class="ge_23"/>
<path d="M1148.6,571.3c7.2,0,14.5,9.3,14.5,18.6c0,9.4,2.9,11.9,6.9,15.4" class="gk_23"/>
<path fill-rule="evenodd" d="M1177.6,608.6l-10.2,.4l5.3,-2.7l-1.5,-5.6l6.4,7.9Z" class="ge_23"/>
<path d="M1148.6,571.2l20.5,-1" class="gk_23"/>
<path fill-rule="evenodd" d="M1177.6,569.8l-8.9,5l3.4,-4.7l-3.8,-4.4l9.3,4.1Z" class="ge_23"/>
<path fill-rule="evenodd" d="M1008.8,563.1c0,-.7,.1,-1.5,.5,-2.1c.4,-.6,.9,-1.1,1.5,-1.4c.6,-.4,1.3,-.6,2,-.6l61,.1c.6,0,1.4,.1,2,.5c.6,.4,1.1,.9,1.5,1.5c.3,.6,.5,1.3,.5,2v16.3c0,.7,-.1,1.4,-.5,2c-.4,.6,-.9,1.1,-1.5,1.5c-.6,.3,-1.3,.5,-2,.5h-61c-.7,0,-1.4,-.1,-2.1,-.5c-.6,-.4,-1.1,-.9,-1.4,-1.5c-.4,-.6,-.6,-1.3,-.6,-2l.1,-16.3Z" class="g7_23"/>
<path d="M1008.8,563.1c0,-.7,.1,-1.5,.5,-2.1c.4,-.6,.9,-1.1,1.5,-1.4c.6,-.4,1.3,-.6,2,-.6l61,.1c.6,0,1.4,.1,2,.5c.6,.4,1.1,.9,1.5,1.5c.3,.6,.5,1.3,.5,2v16.3c0,.7,-.1,1.4,-.5,2c-.4,.6,-.9,1.1,-1.5,1.5c-.6,.3,-1.3,.5,-2,.5h-61c-.7,0,-1.4,-.1,-2.1,-.5c-.6,-.4,-1.1,-.9,-1.4,-1.5c-.4,-.6,-.6,-1.3,-.6,-2l.1,-16.3Z" class="g8_23"/>
<g clip-path="url(#c0_23)">
<image preserveAspectRatio="none" x="1332" y="495" width="18" height="19" xlink:href="img/1.png"/>
<image preserveAspectRatio="none" x="1377" y="495" width="19" height="18" xlink:href="img/2.png"/>
<image preserveAspectRatio="none" x="1355" y="495" width="18" height="18" xlink:href="img/3.png"/>
</g>
<path d="M1354.4,519v12.2m0,3.8v11.5M1377.2,519v12.2m0,3.8v11.5m-20,8v12.2m0,3.8V582m22.4,-27.5v12.2m0,3.8V582m-23.6,5.3v12.2m0,3.9v11.5m22.7,-27.6v12.2m0,3.9v11.5M132.6,591.9v12.2m0,3.8v12.3m0,3.8v12.2m0,3.8v12.2" class="g4_23"/>
<path d="M1220.8,693.5c0,-1,.2,-1.9,.7,-2.8c.5,-.8,1.2,-1.5,2,-1.9c.8,-.5,1.8,-.8,2.7,-.8l21.8,.1c.9,0,1.9,.2,2.7,.7c.8,.5,1.5,1.2,2,2c.5,.8,.7,1.8,.7,2.7v44.1c0,1,-.2,2,-.7,2.8c-.5,.8,-1.2,1.5,-2,2c-.8,.4,-1.8,.7,-2.7,.7h-21.8c-1,0,-1.9,-.3,-2.7,-.7c-.9,-.5,-1.5,-1.2,-2,-2c-.5,-.8,-.8,-1.8,-.8,-2.8l.1,-44.1Zm-85.2,3.7c0,-1.6,.5,-3.2,1.3,-4.6c.8,-1.4,1.9,-2.5,3.3,-3.3c1.4,-.8,3,-1.3,4.6,-1.3l61.8,.1c1.6,0,3.2,.4,4.6,1.2c1.4,.8,2.5,2,3.3,3.4c.8,1.3,1.3,2.9,1.3,4.5v36.7c0,1.6,-.5,3.2,-1.3,4.6c-.8,1.4,-1.9,2.6,-3.3,3.4c-1.4,.8,-3,1.2,-4.6,1.2h-61.8c-1.6,0,-3.2,-.4,-4.6,-1.2c-1.4,-.8,-2.6,-2,-3.3,-3.4c-.9,-1.4,-1.3,-3,-1.3,-4.6V697.2Z" class="gl_23"/>
<path fill-rule="evenodd" d="M1156,706h-17.2V692.7h34.5V706H1156Z" class="gc_23"/>
<path fill-rule="evenodd" d="M1155.5,700.2h-12.4v-3.9h24.7v3.9h-12.3Z" class="gb_23"/>
<path fill-rule="evenodd" d="M1193.3,706h-17.2V692.7h34.5V706h-17.3Z" class="gj_23"/>
<path fill-rule="evenodd" d="M1192.8,700.2h-12.4v-3.9h24.7v3.9h-12.3Z" class="gm_23"/>
<path fill-rule="evenodd" d="M1156,723.6h-17.2V710.3h34.5v13.3H1156Z" class="gg_23"/>
<path fill-rule="evenodd" d="M1155.5,717.8h-12.4v-3.9h24.7v3.9h-12.3Z" class="gh_23"/>
<path fill-rule="evenodd" d="M1193.3,723.6h-17.2V710.3h34.5v13.3h-17.3Z" class="gj_23"/>
<path fill-rule="evenodd" d="M1192.8,717.8h-12.4v-3.9h24.7v3.9h-12.3Z" class="gm_23"/>
<path fill-rule="evenodd" d="M1156,739.6h-17.2V726.3h34.5v13.3H1156Z" class="gj_23"/>
<path fill-rule="evenodd" d="M1155.5,733.8h-12.4v-3.9h24.7v3.9h-12.3Z" class="gm_23"/>
<path fill-rule="evenodd" d="M1193.3,739.6h-17.2V726.3h34.5v13.3h-17.3Z" class="gg_23"/>
<path fill-rule="evenodd" d="M1192.8,733.8h-12.4v-3.9h24.7v3.9h-12.3Z" class="gh_23"/>
<path d="M1346,693.4c0,-1,.3,-1.9,.8,-2.7c.4,-.9,1.1,-1.6,2,-2c.8,-.5,1.7,-.8,2.7,-.8l21.7,.1c1,0,1.9,.2,2.8,.7c.8,.5,1.5,1.2,1.9,2c.5,.8,.8,1.8,.8,2.7v44.2c0,.9,-.3,1.9,-.8,2.7c-.4,.8,-1.1,1.5,-1.9,2c-.9,.5,-1.8,.7,-2.8,.7h-21.8c-.9,0,-1.9,-.2,-2.7,-.7c-.8,-.5,-1.5,-1.2,-2,-2c-.5,-.8,-.7,-1.8,-.7,-2.7V693.4Zm-84,3.7c0,-1.6,.4,-3.2,1.2,-4.6c.8,-1.4,2,-2.5,3.4,-3.3c1.3,-.8,2.9,-1.3,4.5,-1.3l61.8,.1c1.6,0,3.2,.4,4.6,1.2c1.4,.8,2.6,2,3.3,3.4c.9,1.4,1.3,3,1.3,4.6v36.6c0,1.6,-.4,3.2,-1.2,4.6c-.8,1.4,-2,2.6,-3.4,3.4c-1.4,.8,-3,1.2,-4.6,1.2h-61.8c-1.6,0,-3.2,-.4,-4.6,-1.2c-1.4,-.8,-2.5,-2,-3.3,-3.4c-.8,-1.4,-1.3,-3,-1.3,-4.6l.1,-36.7Z" class="gl_23"/>
<path fill-rule="evenodd" d="M1282.4,705.9h-17.3V692.7h34.5v13.2h-17.2Z" class="gj_23"/>
<path fill-rule="evenodd" d="M1281.8,700.1h-12.3v-3.8h24.6v3.8h-12.3Z" class="gm_23"/>
<path fill-rule="evenodd" d="M1319.7,705.9h-17.3V692.7h34.5v13.2h-17.2Z" class="gc_23"/>
<path fill-rule="evenodd" d="M1319.1,700.1h-12.4v-3.8h24.7v3.8h-12.3Z" class="gb_23"/>
<path fill-rule="evenodd" d="M1282.4,723.5h-17.3V710.2h34.5v13.3h-17.2Z" class="gg_23"/>
<path fill-rule="evenodd" d="M1281.8,717.7h-12.3v-3.9h24.6v3.9h-12.3Z" class="gh_23"/>
<path fill-rule="evenodd" d="M1319.7,723.5h-17.3V710.2h34.5v13.3h-17.2Z" class="gj_23"/>
<path fill-rule="evenodd" d="M1319.1,717.7h-12.4v-3.9h24.7v3.9h-12.3Z" class="gm_23"/>
<path fill-rule="evenodd" d="M1282.4,739.5h-17.3V726.2h34.5v13.3h-17.2Z" class="gj_23"/>
<path fill-rule="evenodd" d="M1281.8,733.7h-12.3v-3.8h24.6v3.8h-12.3Z" class="gm_23"/>
<path fill-rule="evenodd" d="M1319.7,739.5h-17.3V726.2h34.5v13.3h-17.2Z" class="gg_23"/>
<path fill-rule="evenodd" d="M1319.1,733.7h-12.4v-3.8h24.7v3.8h-12.3Z" class="gh_23"/>
<path d="M1194.5,747.4h-1.6m-1.2,0h-1.5m-1.2,0h-1.6m-1.1,0h-1.6m-1.2,0H1182m-1.2,0h-1.5m-1.2,0h-1.6m-1.1,0h-1.6m-1.2,0h-1.5m-1.2,0h-1.6m-1.1,0h-1.6m-1.2,0h-1.5m-1.2,0h-1.5m-1.2,0h-1.6m-1.1,0h-1.6m-1.2,0H1152m-1.2,0h-1.6m-1.1,0h-1.6m-1.2,0h-1.5m-1.2,0h-1.5m-1.2,0h-1.6m-1.1,0h-1.6m-1.2,0h-1.5m-.5,-.7v-1.6m0,-1.2v-1.5m0,-1.2v-1.6m0,-1.1v-1.6m0,-1.2v-1.5m0,-1.2v-1.5m0,-1.2v-1.6m0,-1.1V726m0,-1.2v-1.5m0,-1.2v-1.6m0,-1.1v-1.6m0,-1.2v-1.5m0,-1.2v-1.5m0,-1.2v-1.6m0,-1.1v-1.6m0,-1.2v-1.5m0,-1.2v-1.6m0,-1.1v-1.6m0,-1.2V696m0,-1.2v-1.5m0,-1.2v-1.6m0,-1.1v-1.6m0,-1.2v-1.5m0,-1.2v-1.6m0,-1.1v-1.6m0,-1.2v-1.5m0,-1.2v-1.5m0,-1.2v-1h.6m1.1,0h1.6m1.2,0h1.5m1.2,0h1.5m1.2,0h1.6m1.1,0h1.6m1.2,0h1.5m1.2,0h1.6m1.1,0h1.6m1.2,0h1.5m1.2,0h1.5m1.2,0h1.6m1.1,0h1.6m1.2,0h1.5m1.2,0h1.6m1.1,0h1.6m1.2,0h1.5m1.2,0h1.5m1.2,0h1.6m1.1,0h1.6m1.2,0h1.5m1.2,0h1.6m1.1,0h1.6m1.1,0h1.6m1.2,0h1.5m1.2,0h1.6m1.1,0h1.6m1.2,0h1.5m1.2,0h1.6m1.1,0h1.6m1.1,0h1.6m1.2,0h1.5m1.2,0h1.6m1.1,0h1.6m1.2,0h1.5m1.2,0h1.5m1.2,0h1.6m1.1,0h1.6m1.2,0h1.5m1.2,0h1.6m1.1,0h1.6m1.2,0h1.5m1.2,0h1.5m1.2,0h1.6m1.1,0h1.6m1.2,0h1.5m.8,.4v1.5m0,1.2v1.6m0,1.1v1.6m0,1.2v1.5m0,1.2v1.6m0,1.1v1.6m0,1.2v1.5m0,1.2V693m0,1.2v1.6m0,1.1v1.6m0,1.2v1.5m0,1.2V704m0,1.1v1.6m0,1.2v1.5m0,1.2v1.5m0,1.2v1.6m0,1.1v1.6m0,1.2v1.5m0,1.2v1.6m0,1.1v1.6m0,1.2v1.5m0,1.2v1.5m0,1.2V734m0,1.1v1.6m0,1.2v1.5m0,1.2v1.6m0,1.1v1.6m0,1.2v1.3h-.2m-1.2,0h-1.6m-1.1,0h-1.6m-1.2,0h-1.5m-1.2,0h-1.6m-1.1,0h-1.6m-1.2,0h-1.5m-1.2,0h-1.5m-1.2,0h-1.6m-1.1,0h-1.6m-1.2,0H1229m-1.2,0h-1.6m-1.1,0h-1.6m-1.2,0h-1.5m-1.2,0h-1.5m-1.2,0h-1.6m-1.1,0h-1.6m-1.2,0h-1.5m-1.2,0h-1.6m-1.1,0h-1.6m-1.2,0h-1.5m-1.2,0H1199m-1.2,0h-1.6m-1.1,0h-.6m127.1,0H1320m-1.1,0h-1.6m-1.2,0h-1.5m-1.2,0h-1.5m-1.2,0h-1.6m-1.1,0h-1.6m-1.2,0h-1.5m-1.2,0h-1.6m-1.1,0h-1.6m-1.2,0h-1.5m-1.2,0h-1.5m-1.2,0H1290m-1.1,0h-1.6m-1.2,0h-1.5m-1.2,0h-1.6m-1.1,0h-1.6m-1.2,0h-1.5m-1.2,0h-1.5m-1.2,0h-1.6m-1.1,0h-1.6m-1.2,0h-1.5m-1.2,0h-1.6m-1.1,0H1260m-.4,-.7v-1.6m0,-1.2v-1.5m0,-1.2v-1.6m0,-1.1v-1.6m0,-1.2v-1.5m0,-1.2v-1.5m0,-1.2v-1.6m0,-1.1V726m0,-1.2v-1.5m0,-1.2v-1.6m0,-1.1v-1.6m0,-1.2v-1.5m0,-1.2v-1.5m0,-1.2v-1.6m0,-1.1v-1.6m0,-1.2v-1.5m0,-1.2v-1.6m0,-1.1v-1.6m0,-1.2V696m0,-1.2v-1.5m0,-1.2v-1.6m0,-1.1v-1.6m0,-1.2v-1.5m0,-1.2v-1.6m0,-1.1v-1.6m0,-1.2v-1.5m0,-1.2v-1.5m0,-1.2v-1h.5m1.2,0h1.5m1.2,0h1.6m1.1,0h1.6m1.2,0h1.5m1.2,0h1.5m1.2,0h1.6m1.1,0h1.6m1.2,0h1.5m1.2,0h1.6m1.1,0h1.6m1.2,0h1.5m1.2,0h1.5m1.2,0h1.6m1.1,0h1.6m1.2,0h1.5m1.2,0h1.6m1.1,0h1.6m1.2,0h1.5m1.2,0h1.5m1.2,0h1.6m1.1,0h1.6m1.2,0h1.5m1.2,0h1.6m1.1,0h1.6m1.2,0h1.5m1.2,0h1.5m1.2,0h1.6m1.1,0h1.6m1.2,0h1.5m1.2,0h1.6m1.1,0h1.6m1.2,0h1.5m1.2,0h1.5m1.2,0h1.6m1.1,0h1.6m1.2,0h1.5m1.2,0h1.6m1.1,0h1.6m1.2,0h1.5m1.2,0h1.5m1.2,0h1.6m1.1,0h1.6m1.2,0h1.5m1.2,0h1.6m1.1,0h1.6m.7,.4v1.5m0,1.2v1.6m0,1.1v1.6m0,1.2v1.5m0,1.2v1.6m0,1.1v1.6m0,1.2v1.5m0,1.2V693m0,1.2v1.6m0,1.1v1.6m0,1.2v1.5m0,1.2V704m0,1.1v1.6m0,1.2v1.5m0,1.2v1.5m0,1.2v1.6m0,1.1v1.6m0,1.2v1.5m0,1.2v1.6m0,1.1v1.6m0,1.2v1.5m0,1.2v1.5m0,1.2V734m0,1.1v1.6m0,1.2v1.5m0,1.2v1.6m0,1.1v1.6m0,1.2v1.3h-.2m-1.2,0h-1.5m-1.2,0h-1.6m-1.1,0h-1.6m-1.2,0h-1.5m-1.2,0h-1.5m-1.2,0H1367m-1.1,0h-1.6m-1.2,0h-1.5m-1.2,0h-1.6m-1.1,0h-1.6m-1.2,0h-1.5m-1.2,0h-1.5m-1.2,0h-1.6m-1.1,0h-1.6m-1.2,0h-1.5m-1.2,0h-1.6m-1.1,0H1337m-1.1,0h-1.6m-1.2,0h-1.5m-1.2,0h-1.6m-1.1,0h-1.6m-1.2,0h-1.5m-1.2,0h-.6" class="gk_23"/>
<path d="M133,655.6v12.2m0,3.8v12.3m0,3.8v12.2m-.5,1v12.2m0,3.8v12.3m0,3.8v12.2m0,3.8v12.3" class="g4_23"/>
<path d="M753.2,759.9H84.8V335.3H1421.5V759.9H753.2Z" class="g5_23"/>
<path d="M1275.3,414c6.1,0,12.3,-10.2,12.3,-20.3c0,-10.2,2.2,-12.3,5.3,-16.1" class="gd_23"/>
<path fill-rule="evenodd" d="M1299.9,373.3l-5.2,8.7l.7,-5.7l-5.6,-2l10.1,-1Z" class="ge_23"/>
<path d="M1275.3,414c6.1,0,12.3,-.2,12.3,-.4c0,-.1,1.5,-.1,3.8,-.2" class="gd_23"/>
<path fill-rule="evenodd" d="M1299.9,413.3l-9.1,4.7l3.6,-4.6l-3.7,-4.5l9.2,4.4Z" class="ge_23"/>
<path d="M1275.3,414c6.1,0,12.3,11.4,12.3,22.7c0,11.4,2.3,13.9,5.4,18.2" class="gd_23"/>
<path fill-rule="evenodd" d="M1299.9,459.4l-10.1,-1.5l5.6,-1.6l-.4,-5.8l4.9,8.9Z" class="ge_23"/>
<path d="M131.7,431.1v12.2m0,3.8v11.5m.6,111.9v12.2m0,3.8V598" class="g4_23"/>
<path d="M1331.4,490.9c0,-.9,.5,-2,1.4,-2.7m2.1,-.9c1.1,-.2,2.1,-.4,3.1,-.4m2.3,0c1.1,0,2.1,.1,3.1,.2m2.3,.3c1.1,.1,2.1,.1,3.1,0m2.3,.2c.9,.4,1.5,1.3,1.6,2.5m.4,2.4c.2,1,.5,2,.6,3.1m.4,2.2c.1,1.1,.2,2.1,.3,3.1m.2,2.4c0,1,0,2.1,0,3m0,2.4c0,1.1,0,2.1,-.1,3.1m-.1,2.3c-.1,1.1,-.2,2.2,-.3,3.2m-.3,2.3c-.1,1,-.3,2.1,-.4,3.1m-.4,2.3c-.1,1.1,-.3,2,-.4,3.1m-.4,2.3c-.2,1,-.3,2,-.5,3.1m-.3,2.3c-.1,1,-.2,2.1,-.3,3.1m-.2,2.3c-.1,1,-.1,2.1,-.1,3.1m0,2.4c.1,1,.2,2,.3,3m.4,2.3c.2,1.1,.5,2.1,.8,3.1m.7,2.2c.3,1,.6,2,.9,3m.4,2.3c.1,1,.2,2,.3,3.1m.1,2.4c0,1,0,2,0,3m-.1,2.4c-.1,1,-.2,2.1,-.3,3.1m-.2,2.3c-.1,1.1,-.2,2.1,-.4,3.1m-.3,2.4c-.1,1,-.3,2,-.4,3.1m-.3,2.3c-.2,1,-.3,2,-.5,3.1m-.3,2.3c-.2,1,-.3,2,-.4,3.1m-.2,2.3c-.2,1.1,-.2,2.1,-.3,3.1m-.2,2.4c0,1,-.1,2.1,-.1,3.1m.1,2.3c.1,1.1,.1,2.1,.3,3.2m.3,2.3c.2,1,.4,2,.6,3m.7,2.2q.1,0,.1,.1c0,1.1,-.4,2.1,-1.1,2.7m-2.1,.9c-.2,0,-.3,0,-.4,0c-.9,.1,-1.8,.1,-2.7,0m-2.4,-.2c-1,-.1,-2,-.2,-3.1,-.3m-2.3,0c-1,0,-2.1,0,-3.1,.3m-2.3,-.2c-1,-.4,-1.8,-1.2,-2,-2.2m-.4,-2.2c-.3,-.9,-.6,-1.9,-.9,-3m-.5,-2.3c-.1,-1,-.3,-2,-.4,-3m-.2,-2.4c-.1,-1,-.1,-2.1,-.2,-3.1m0,-2.4c.1,-1,.1,-2,.1,-3.1m.2,-2.3c.1,-1,.1,-2.1,.2,-3.2m.2,-2.3c.1,-1,.2,-2,.3,-3.1m.2,-2.3c.1,-1.1,.2,-2.1,.4,-3.1m.2,-2.4c.1,-1,.2,-2,.3,-3m.2,-2.4c.1,-1,.3,-2.1,.3,-3.1m.2,-2.3c.1,-1.1,.1,-2.1,.2,-3.2m.1,-2.3c.1,-1,.1,-2.1,.1,-3.1m0,-2.3c-.1,-1.1,-.1,-2.2,-.2,-3.2m-.2,-2.3c-.1,-.2,-.1,-.4,-.1,-.6c-.1,-.8,-.2,-1.6,-.3,-2.4m-.1,-2.3c-.1,-1.1,-.2,-2.1,-.2,-3.2m0,-2.3c0,-1,0,-2.1,0,-3.2m.1,-2.3c0,-1,.1,-2.1,.1,-3.1m.1,-2.4c.1,-1,.2,-2,.2,-3.1m.2,-2.3c.1,-1,.1,-2.1,.2,-3.1m.2,-2.4c.1,-1,.2,-2,.3,-3m.1,-2.4c.1,-1.1,.2,-2.1,.3,-3.1m.1,-2.3c.1,-1.1,.1,-2.2,.2,-3.2m0,-2.3c.1,-1.1,.1,-2.2,.1,-3.2m0,-2.3c-.1,-1.1,-.1,-2.1,-.2,-3.2m-.2,-2.2c-.2,-1.1,-.4,-2.2,-.6,-3.1" class="gn_23"/>
<image clip-path="url(#c0_23)" preserveAspectRatio="none" x="1108" y="161" width="227" height="161" xlink:href="img/4.jpg"/>
<path d="M569.9,242.9H902.8" class="go_23"/>
<path d="M221.6,198.2v12.2m0,3.8v12.3m0,3.8v12.2m0,3.8v12.2m0,3.9v12.2m0,3.8v12.2" class="g4_23"/>
<path d="M752.9,331.7H84.1V160.1H1421.8V331.7H752.9Z" class="g5_23"/>
</svg>