<?xml version="1.0" encoding="UTF-8" standalone="no"?>
<!DOCTYPE svg PUBLIC "-//W3C//DTD SVG 1.1//EN"
"http://www.w3.org/Graphics/SVG/1.1/DTD/svg11.dtd">
<svg viewBox="0 0 1466 825" version="1.1" xmlns="http://www.w3.org/2000/svg" xmlns:xlink="http://www.w3.org/1999/xlink">
<defs>
<clipPath id="c0_19"><path d="M0,825V0H1466.6V825Z"/></clipPath>
<style type="text/css"><![CDATA[
.g0_19{
fill: #FFF;
}
.g1_19{
fill: none;
stroke: #BFBFBF;
stroke-width: 0.779;
stroke-linejoin: round;
}
.g2_19{
fill: none;
stroke: #AFABAB;
stroke-width: 0.692;
stroke-linejoin: round;
}
.g3_19{
fill: none;
stroke: #BFBFBF;
stroke-width: 0.779;
stroke-miterlimit: 3;
}
.g4_19{
fill: none;
stroke: #000;
stroke-width: 0.909;
stroke-miterlimit: 10;
}
.g5_19{
fill: #F8CBAD;
}
.g6_19{
fill: #C5E0B4;
}
.g7_19{
fill: none;
stroke: #AFABAB;
stroke-width: 0.389;
stroke-linejoin: round;
}
.g8_19{
fill: none;
stroke: #808080;
stroke-width: 0.779;
stroke-miterlimit: 10;
}
.g9_19{
fill: #808080;
}
.ga_19{
fill: none;
stroke: #BFBFBF;
stroke-width: 0.779;
stroke-miterlimit: 10;
}
.gb_19{
fill: #BFBFBF;
}
.gc_19{
fill: #C0C0C0;
}
.gd_19{
fill: none;
stroke: #D9D9D9;
stroke-width: 0.152;
stroke-linejoin: round;
}
.ge_19{
fill: none;
stroke: #A6A6A6;
stroke-width: 0.779;
stroke-miterlimit: 10;
}
.gf_19{
fill: none;
stroke: #0563C1;
stroke-width: 0.909;
stroke-miterlimit: 10;
}
]]></style>
</defs>
<g clip-path="url(#c0_19)">
<path fill-rule="evenodd" d="M0,0H1466.6V825H0V0Z" class="g0_19"/>
<path fill-rule="evenodd" d="M0,0H1466.7V825H0V0Z" class="g0_19"/>
</g>
<path d="M757.4,143.3H111.9V88.5h1291v54.8H757.4Zm0,105.2H111.9V149.8h1291v98.7H757.4Z" class="g1_19"/>
<path d="M242.1,293.7v12.2m0,3.8v11.5" class="g2_19"/>
<path d="M757.4,583.3H111.9V254.5h1291V583.3H757.4Z" class="g3_19"/>
<path d="M124.1,273.1H293.5" class="g4_19"/>
<path fill-rule="evenodd" d="M1111.7,315.2c0,17.8,-15.3,32.3,-34.2,32.3c-18.8,0,-34.1,-14.5,-34.1,-32.3c0,-17.9,15.3,-32.3,34.1,-32.3c18.9,0,34.2,14.4,34.2,32.3Z" class="g5_19"/>
<path fill-rule="evenodd" d="M1366,315.6c0,17.8,-15.3,32.3,-34.2,32.3c-18.8,0,-34.1,-14.5,-34.1,-32.3c0,-17.8,15.3,-32.2,34.1,-32.2c18.9,0,34.2,14.4,34.2,32.2Z" class="g6_19"/>
<image clip-path="url(#c0_19)" preserveAspectRatio="none" x="1122" y="303" width="23" height="23" xlink:href="img/1.png"/>
<path d="M1153.2,287.4c26.7,-3.6,32.7,4.3,56.2,0c23.6,-4.3,31.5,1,54.1,0c4.7,20.6,-.4,38.4,0,49.4c-16.4,1.2,-41,-1.5,-54.1,0c-13,1.5,-42.9,-4.2,-56.2,0c-4,-11.3,1.9,-35,0,-49.4Z" class="g7_19"/>
<path d="M1111.7,313.8l33,.3" class="g8_19"/>
<path fill-rule="evenodd" d="M1153.2,314.1l-9.2,4.5l3.7,-4.5l-3.6,-4.6l9.1,4.6Z" class="g9_19"/>
<path d="M1266.1,313.5l22.7,.3" class="g8_19"/>
<path fill-rule="evenodd" d="M1297.3,313.8l-9.2,4.5l3.7,-4.5l-3.6,-4.6l9.1,4.6Z" class="g9_19"/>
<path d="M242.1,322v12.2m0,3.8v12.3m0,3.8V366" class="g2_19"/>
<path fill-rule="evenodd" d="M1111.3,392.1c0,17.8,-15.3,32.2,-34.2,32.2c-18.8,0,-34.1,-14.4,-34.1,-32.2c0,-17.9,15.3,-32.3,34.1,-32.3c18.9,0,34.2,14.4,34.2,32.3Z" class="g5_19"/>
<path fill-rule="evenodd" d="M1365.6,392.5c0,17.8,-15.3,32.3,-34.2,32.3c-18.8,0,-34.1,-14.5,-34.1,-32.3c0,-17.9,15.3,-32.3,34.1,-32.3c18.9,0,34.2,14.4,34.2,32.3Z" class="g6_19"/>
<image clip-path="url(#c0_19)" preserveAspectRatio="none" x="1112" y="377" width="23" height="23" xlink:href="img/2.png"/>
<path d="M1133.9,365.2c24.4,-5.8,29.1,5.9,50.5,0c21.5,-5.9,31.4,2.8,49.1,0c17.8,-2.8,25.1,.4,47.7,0c3.8,20.8,-4,34.6,0,49.4c-10.9,.8,-26.5,-.2,-46.2,0c-19.7,.1,-33.4,-1.4,-49.1,0c-15.7,1.3,-36.6,-2.8,-52,0c-.6,-11.4,2.8,-37.7,0,-49.4Z" class="g7_19"/>
<path d="M1111.3,390.7l16.4,-.2" class="g8_19"/>
<path fill-rule="evenodd" d="M1136.2,390.4l-9.1,4.6l3.6,-4.5L1127,386l9.2,4.4Z" class="g9_19"/>
<path d="M1281.2,390.2l7.2,.3" class="g8_19"/>
<path fill-rule="evenodd" d="M1296.9,390.7l-9.2,4.3l3.8,-4.5l-3.5,-4.6l8.9,4.8Z" class="g9_19"/>
<path d="M1207.5,415.2c0,7.2,12.3,12,26.6,13.8" class="ga_19"/>
<path fill-rule="evenodd" d="M1242.5,429.6l-9.4,3.9l4,-4.3l-3.3,-4.8l8.7,5.2Z" class="gb_19"/>
<path fill-rule="evenodd" d="M745.9,520.2H871.3V506.3H745.9v13.9Z" class="gc_19"/>
<path d="M745.9,518.1H871.3" class="g4_19"/>
<path fill-rule="evenodd" d="M871.3,520.2h3.5V506.3h-3.5v13.9Z" class="gc_19"/>
<path d="M242.1,459.6v12.2m0,3.8v12.3m0,3.8v12.2m0,3.8v12.2m0,3.9V536m0,3.8V552" class="g2_19"/>
<path fill-rule="evenodd" d="M1116.5,485.3c0,17.8,-15.4,32.3,-34.2,32.3c-18.9,0,-34.1,-14.5,-34.1,-32.3c0,-17.8,15.2,-32.2,34.1,-32.2c18.8,0,34.2,14.4,34.2,32.2Z" class="g5_19"/>
<path fill-rule="evenodd" d="M1370.8,485.8c0,17.8,-15.4,32.2,-34.2,32.2c-18.9,0,-34.1,-14.4,-34.1,-32.2c0,-17.9,15.2,-32.3,34.1,-32.3c18.8,0,34.2,14.4,34.2,32.3Z" class="g6_19"/>
<image clip-path="url(#c0_19)" preserveAspectRatio="none" x="1117" y="489" width="19" height="19" xlink:href="img/3.png"/>
<path d="M1117.5,484l14.2,-.2" class="g8_19"/>
<path fill-rule="evenodd" d="M1140.1,483.7l-9,4.6l3.6,-4.6l-3.7,-4.5l9.1,4.5Z" class="g9_19"/>
<path d="M1285.6,483.5l8.8,.2" class="g8_19"/>
<path fill-rule="evenodd" d="M1302.9,484l-9.3,4.3l3.8,-4.5l-3.5,-4.6l9,4.8Z" class="g9_19"/>
<path d="M1281.2,580.4H1175.7V543.9h210.9v36.5H1281.2Z" class="gd_19"/>
<path d="M1209,525.7c0,4.6,-15.2,9.1,-30.4,9.1c-15.2,0,-30.3,6.9,-30.3,13.9c0,6.9,8.6,11,19,13" class="ga_19"/>
<path fill-rule="evenodd" d="M1175.7,562.5l-9.5,3.6l4.1,-4.1l-3.1,-4.9l8.5,5.4Z" class="gb_19"/>
<path d="M1135.1,447.4c16.2,-1.2,35.7,3.9,50.8,0c15.1,-3.9,25.7,1.6,49.3,0c23.5,-1.6,35.9,.7,47.8,0c.2,9.8,-2.5,21.2,0,36.5c-21,1.8,-29,-5,-46.4,0c-17.3,5,-30.2,-4.5,-49.2,0c-19,4.5,-38.5,-3,-52.3,0c-1.1,-12.4,3.4,-18.8,0,-36.5Zm0,40.5c16.2,-1.1,35.7,3.9,50.8,0c15.1,-3.9,25.7,1.6,49.3,0c23.5,-1.6,35.9,.8,47.8,0c.2,9.9,-2.5,21.3,0,36.6c-21,1.8,-29,-5,-46.4,0c-17.3,5,-30.2,-4.5,-49.2,0c-19,4.5,-38.5,-3,-52.3,0c-1.1,-12.4,3.4,-18.8,0,-36.6Z" class="g7_19"/>
<path d="M1131.9,445.2c1.1,0,2.2,-.1,3.3,-.1m2.3,-.1c1,0,2,0,3,0m2.4,0c1.1,0,2.1,0,3.1,0m2.3,.1c1.1,0,2.1,.1,3.1,.1m2.3,.1c1.1,0,2.2,.1,3.2,.2m2.3,.1c1,0,2.1,.1,3.1,.2m2.3,.1c1.1,.1,2.1,.2,3.1,.2m2.4,.1c1,.1,2,.1,3.1,.2m2.3,.1c1,0,2.1,0,3.1,0m2.4,.1c1,0,2,0,3,0m2.4,-.1c1,0,2,0,3.1,0m2.3,-.2c1,0,2,-.1,3.1,-.2m2.4,-.1c1,-.1,2,-.2,3,-.2m2.3,-.3c1.1,-.1,2.1,-.2,3.2,-.3h.1m2.4,-.3c1.1,-.1,2.1,-.2,3.1,-.3m2.3,-.2c1,-.1,2.1,-.2,3.1,-.3m2.3,-.2c1.1,-.1,2.1,-.2,3.1,-.3m2.3,-.2c1.1,-.1,2.1,-.2,3.2,-.2m2.3,-.2c1,-.1,2,-.1,3.1,-.2m2.3,-.1c1.1,0,2.1,-.1,3.1,-.1m2.3,-.1c1.1,0,2.2,0,3.2,-.1m2.3,0c1.1,0,2.1,0,3.1,0m2.4,0c1,0,2,.1,3.1,.1m2.3,.1c1,0,2.1,0,3.1,.1m2.4,.2c1,0,2,.1,3,.1m2.4,.2c1,.1,2.1,.2,3.1,.3m2.3,.2c1,.1,2.1,.2,3.1,.3m2.3,.3c1,.1,2.1,.2,3.1,.4m2.4,.3c.5,.1,1,.1,1.5,.2c0,.6,0,1.1,-.1,1.6m-.1,2.4c-.1,1.1,-.1,2.1,-.2,3.1m-.1,2.3c-.1,1.1,-.1,2.1,-.2,3.2m-.1,2.3c0,1.1,-.1,2.1,-.1,3.1m-.2,2.3c0,1,-.1,2.1,-.1,3.2m-.1,2.3c0,1,-.1,2,-.1,3m-.1,2.4c0,1.1,0,2.1,0,3.1m-.1,2.3c0,1.1,-.1,2.2,-.1,3.2m0,2.3c0,1,0,2.1,0,3.1m0,2.3c0,1.1,0,2.1,0,3.2m.1,2.3c0,1,0,2,.1,3.1m0,2.3c.1,1.1,.1,2.1,.2,3.1m.1,2.4c0,1,.1,2,.2,3m.1,2.4c.1,1,.2,2.1,.2,3.1m.2,2.3c.1,1,.2,2.1,.3,3.1m.2,2.4c0,.1,0,.2,0,.3c-.8,.1,-1.8,.2,-2.7,.2m-2.4,.2c-1,0,-2,0,-3.1,0m-2.3,0c-1,0,-2.1,0,-3.1,0m-2.4,0c-1,0,-2,0,-3.1,-.1m-2.3,0c-1.1,-.1,-2.1,-.1,-3.2,-.2m-2.3,-.1c-1,0,-2.1,0,-3.1,0m-2.4,-.1c-1,-.1,-2,-.1,-3.1,-.2m-2.3,0c-1,-.1,-2.1,-.1,-3.2,-.1m-2.3,-.1c-1,0,-2,-.1,-3.1,-.1m-2.3,0c-1.1,0,-2.1,0,-3.2,0m-2.3,0c-1,0,-2.1,0,-3.1,0m-2.4,0c-1,0,-2,0,-3.1,0m-2.3,0c-1.1,.1,-2.1,.1,-3.1,.2m-2.4,.1c-1,0,-2.1,0,-3.1,.1m-2.3,.2c-.3,0,-.7,0,-1,0c-.8,0,-1.5,.1,-2.2,.1m-2.4,.2c-1,.1,-2.1,.1,-3,.2m-2.4,.2c-1,0,-2.1,.1,-3.1,.2m-2.3,.1c-1.1,.1,-2.1,.1,-3.1,.2m-2.4,.1c-1,.1,-2,.1,-3,.2m-2.4,.1c-1.1,.1,-2.1,.1,-3.1,.1m-2.3,.1c-1.1,.1,-2.1,.1,-3.1,.1m-2.4,.1c-1,0,-2.1,0,-3.1,0m-2.3,0c-1,0,-2.1,0,-3.2,0m-2.3,0c-1,0,-2,-.1,-3.1,-.1m-2.3,-.1c-1,-.1,-2,-.1,-3.1,-.1m-2.4,-.2c-1,0,-2,-.1,-3,-.2m-2.3,-.2c-1.1,0,-2.2,-.1,-3.2,-.2m-2.3,-.2c-1,-.1,-2,-.2,-3.1,-.3m-2.4,-.2c-.5,-.1,-1.1,-.2,-1.7,-.2c.1,-.5,.1,-.9,.1,-1.4m.2,-2.3c.1,-1.1,.2,-2.1,.2,-3.1m.1,-2.4c.1,-1,.1,-2.1,.1,-3.1m.1,-2.3c0,-1.1,0,-2.1,0,-3.2m0,-2.3c0,-1,0,-2,0,-3.1m0,-2.3c0,-1.1,0,-2.1,0,-3.1m0,-2.4c0,-1,-.1,-2.1,-.1,-3.1m0,-2.3c0,-1.1,-.1,-2.1,-.1,-3.1m-.1,-2.4c0,-1,0,-2.1,0,-3.1m0,-2.3c-.1,-1.1,-.1,-2.1,-.1,-3.2m-.1,-2.3c0,-1,0,-2,0,-3.1m-.1,-2.3c0,-1.1,0,-2.1,0,-3.2M1132,462c0,-1,0,-2,0,-3.1m0,-2.4c0,-1,0,-2,0,-3.1m-.1,-2.3c0,-1,0,-2,0,-3.1m0,-2.4c0,-.1,0,-.3,0,-.4" class="ge_19"/>
<path d="M1209.1,484.4c0,14.8,-15.2,29.7,-30.4,29.7c-15.2,0,-30.4,12.1,-30.4,24.2c0,12.1,8.7,19.3,19.1,22.8" class="ga_19"/>
<path fill-rule="evenodd" d="M1175.7,562.5l-9.7,2.9l4.4,-3.9l-2.8,-5.1l8.1,6.1Z" class="gb_19"/>
<path d="M255.3,607.8h45.4" class="g4_19"/>
<path d="M244.3,590.6v12.2m0,3.8v12.3m0,3.8v12.2m0,3.8v12.2m0,3.9V667m0,3.8V683" class="g2_19"/>
<path d="M255.3,696.4h45.4" class="g4_19"/>
<path d="M244.3,679.3v12.2m0,3.8v12.3m0,3.8v12.2m0,3.8v12.2" class="g2_19"/>
<path d="M757.4,758.8H111.9V587.3h1291V758.8H757.4Z" class="g3_19"/>
<path fill-rule="evenodd" d="M1183.3,37L1151.6,19.8c-1.9,-1,-.9,-3.3,1.6,-3.3h218.9c.5,0,1,0,1.5,.3L1411.3,37c1.4,.7,1.4,2.2,0,2.9l-37.7,20.8c-.5,.2,-1,.4,-1.5,.4H1153c-2.4,0,-3.5,-2.3,-1.5,-3.4l31.8,-17.8c1.4,-.7,1.4,-2.2,0,-2.9Z" class="gb_19"/>
<path d="M99,796.1h40.6" class="gf_19"/>
</svg>