<?xml version="1.0" encoding="UTF-8" standalone="no"?>
<!DOCTYPE svg PUBLIC "-//W3C//DTD SVG 1.1//EN"
"http://www.w3.org/Graphics/SVG/1.1/DTD/svg11.dtd">
<svg viewBox="0 0 1466 825" version="1.1" xmlns="http://www.w3.org/2000/svg" xmlns:xlink="http://www.w3.org/1999/xlink">
<defs>
<clipPath id="c0_9"><path d="M0,825V0H1466.6V825Z"/></clipPath>
<style type="text/css"><![CDATA[
.g0_9{
fill: #FFF;
}
.g1_9{
fill: none;
stroke: #808080;
stroke-width: 0.692;
stroke-linejoin: round;
}
.g2_9{
fill: #D9D9D9;
}
.g3_9{
fill: #808080;
}
.g4_9{
fill: #AFABAB;
}
.g5_9{
fill: none;
stroke: #AFABAB;
stroke-width: 0.152;
stroke-linejoin: round;
}
.g6_9{
fill: none;
stroke: #D9D9D9;
stroke-width: 1.515;
stroke-miterlimit: 3;
}
.g7_9{
fill: none;
stroke: #A6A6A6;
stroke-width: 0.996;
stroke-linejoin: round;
}
]]></style>
</defs>
<g clip-path="url(#c0_9)">
<path fill-rule="evenodd" d="M0,0H1466.6V825H0V0Z" class="g0_9"/>
<path fill-rule="evenodd" d="M0,0H1466.7V825H0V0Z" class="g0_9"/>
</g>
<path d="M731.7,193.5v12.2m0,3.8v12.2m0,3.8v12.3m0,3.8v12.2m0,3.8v12.2m0,3.9v12.2m0,3.8v12.2m0,3.8V318m0,3.8V334m0,3.8v12.3m0,3.8v12.2m0,3.8v12.2m0,3.9v12.2m0,3.8v12.2M109.6,238.1h12.2m3.8,0h12.2m3.9,0h12.2m3.8,0h12.2m3.8,0H186m3.8,0H202m3.8,0h12.3m3.8,0h12.2m3.8,0h12.2m3.9,0h12.2m3.8,0h12.2m3.8,0h12.3m3.8,0h12.2m3.8,0h12.2m3.9,0h12.2m3.8,0h12.2m3.8,0h12.3m3.8,0h12.2m3.8,0h12.3m3.8,0h12.2m3.8,0h12.2m3.9,0h12.2m3.8,0h12.2m3.8,0h12.3m3.8,0h12.2m3.8,0h12.2m3.9,0h12.2m3.8,0h12.2m3.8,0H571m3.8,0H587m3.8,0h12.3m3.8,0h12.2m3.8,0h12.2m3.9,0h12.2m3.8,0h12.2m3.8,0h12.3m3.8,0h12.2m3.8,0h12.2m3.9,0h12.2m3.8,0h12.2m3.8,0h12.3m3.8,0h12.2m3.8,0h12.3m3.8,0h12.2m3.8,0h12.2m3.9,0h12.2m3.8,0h12.2m3.8,0h12.3m3.8,0h12.2m3.8,0h12.2m3.9,0h12.2m3.8,0h12.2m3.8,0H956m3.8,0H972m3.8,0h12.3m3.8,0h12.2m3.8,0h12.2m3.9,0h12.2m3.8,0h12.2m3.8,0h12.3m3.8,0h12.2m3.8,0h12.2m3.9,0h12.2m3.8,0h12.2m3.8,0h12.3m3.8,0h12.2m3.8,0h12.3m3.8,0h12.2m3.8,0h12.2m3.9,0h12.2m3.8,0h12.2m3.8,0h12.3m3.8,0h12.2m3.8,0h12.2m3.9,0h12.2m3.8,0h12.2m3.8,0h.8M109.6,414.1h12.2m3.8,0h12.2m3.9,0h12.2m3.8,0h12.2m3.8,0H186m3.8,0H202m3.8,0h12.3m3.8,0h12.2m3.8,0h12.2m3.9,0h12.2m3.8,0h12.2m3.8,0h12.3m3.8,0h12.2m3.8,0h12.2m3.9,0h12.2m3.8,0h12.2m3.8,0h12.3m3.8,0h12.2m3.8,0h12.3m3.8,0h12.2m3.8,0h12.2m3.9,0h12.2m3.8,0h12.2m3.8,0h12.3m3.8,0h12.2m3.8,0h12.2m3.9,0h12.2m3.8,0h12.2m3.8,0H571m3.8,0H587m3.8,0h12.3m3.8,0h12.2m3.8,0h12.2m3.9,0h12.2m3.8,0h12.2m3.8,0h12.3m3.8,0h12.2m3.8,0h12.2m3.9,0h12.2m3.8,0h12.2m3.8,0h12.3m3.8,0h12.2m3.8,0h12.3m3.8,0h12.2m3.8,0h12.2m3.9,0h12.2m3.8,0h12.2m3.8,0h12.3m3.8,0h12.2m3.8,0h12.2m3.9,0h12.2m3.8,0h12.2m3.8,0H956m3.8,0H972m3.8,0h12.3m3.8,0h12.2m3.8,0h12.2m3.9,0h12.2m3.8,0h12.2m3.8,0h12.3m3.8,0h12.2m3.8,0h12.2m3.9,0h12.2m3.8,0h12.2m3.8,0h12.3m3.8,0h12.2m3.8,0h12.3m3.8,0h12.2m3.8,0h12.2m3.9,0h12.2m3.8,0h12.2m3.8,0h12.3m3.8,0h12.2m3.8,0h12.2m3.9,0h12.2m3.8,0h12.2m3.8,0h.8" class="g1_9"/>
<path fill-rule="evenodd" d="M1026.1,411.6H747.5V240.3h557.1V411.6H1026.1Z" class="g2_9"/>
<path fill-rule="evenodd" d="M1026.1,272.7H747.5V241.3h557.1v31.4H1026.1Z" class="g3_9"/>
<path fill-rule="evenodd" d="M1002.9,306.8H809.7V279.1H1196v27.7H1002.9Z" class="g0_9"/>
<path fill-rule="evenodd" d="M1250.3,307.4h-36.7V280h73.3v27.4h-36.6Z" class="g4_9"/>
<path d="M1250.3,307.4h-36.7V280h73.3v27.4h-36.6Z" class="g5_9"/>
<path d="M809.7,317.6c30.9,0,36,3.3,65.7,0c29.6,-3.2,41.4,4,73.4,0c31.9,-3.9,38.6,.4,69.5,0c30.9,-.3,57.6,5.2,81.1,0c23.6,-5.2,50.4,6.8,96.6,0c3,14.3,-1.9,22.8,0,39.8c1.9,17.1,-4.9,21.6,0,43.2c-27.1,8.3,-52.8,-5.3,-85,0c-32.2,5.3,-35.1,-4.2,-69.5,0c-34.4,4.1,-38,-3.3,-65.7,0c-27.6,3.3,-48.6,-5.6,-77.3,0c-28.6,5.5,-59,-7.5,-88.8,0c-1.4,-12.2,3.6,-26.9,0,-40.7c-3.5,-13.8,1.8,-26.2,0,-42.3Z" class="g6_9"/>
<path fill-rule="evenodd" d="M809.7,317.6c31.6,-2.3,59,1.6,85,0c25.9,-1.5,40.9,4.1,77.2,0c36.4,-4.1,36.4,5.8,69.6,0c33.2,-5.7,51.5,1.4,81.1,0c29.6,-1.3,55.7,5,73.4,0c2.8,16.6,-1.4,34.3,0,43.1c1.4,8.9,-5.6,20.3,0,39.9c-20.8,8,-46.8,-2.8,-81.1,0c-34.4,2.7,-41.2,-1.6,-69.6,0c-28.3,1.5,-48.9,-.2,-69.5,0c-20.6,.1,-35.9,-.1,-65.7,0c-29.8,.1,-68.6,-4.3,-100.4,0c-1.4,-16.8,1.8,-22,0,-39c-1.8,-17,4.5,-29.1,0,-44Z" class="g0_9"/>
<path d="M109.6,566.9h12.2m3.8,0h12.2m3.9,0h12.2m3.8,0h12.2m3.8,0H186m3.8,0H202m3.8,0h12.3m3.8,0h12.2m3.8,0h12.2m3.9,0h12.2m3.8,0h12.2m3.8,0h12.3m3.8,0h12.2m3.8,0h12.2m3.9,0h12.2m3.8,0h12.2m3.8,0h12.3m3.8,0h12.2m3.8,0h12.3m3.8,0h12.2m3.8,0h12.2m3.9,0h12.2m3.8,0h12.2m3.8,0h12.3m3.8,0h12.2m3.8,0h12.2m3.9,0h12.2m3.8,0h12.2m3.8,0H571m3.8,0H587m3.8,0h12.3m3.8,0h12.2m3.8,0h12.2m3.9,0h12.2m3.8,0h12.2m3.8,0h12.3m3.8,0h12.2m3.8,0h12.2m3.9,0h12.2m3.8,0h12.2m3.8,0h12.3m3.8,0h12.2m3.8,0h12.3m3.8,0h12.2m3.8,0h12.2m3.9,0h12.2m3.8,0h12.2m3.8,0h12.3m3.8,0h12.2m3.8,0h12.2m3.9,0h12.2m3.8,0h12.2m3.8,0H956m3.8,0H972m3.8,0h12.3m3.8,0h12.2m3.8,0h12.2m3.9,0h12.2m3.8,0h12.2m3.8,0h12.3m3.8,0h12.2m3.8,0h12.2m3.9,0h12.2m3.8,0h12.2m3.8,0h12.3m3.8,0h12.2m3.8,0h12.3m3.8,0h12.2m3.8,0h12.2m3.9,0h12.2m3.8,0h12.2m3.8,0h12.3m3.8,0h12.2m3.8,0h12.2m3.9,0h12.2m3.8,0h12.2m3.8,0h.8M731.7,417.5v12.2m0,3.8v12.3m0,3.8v12.2m0,3.8v12.3m0,3.8v12.2m0,3.8v12.2m0,3.9V526m0,3.8V542m0,3.8v12.3m0,3.8v5.5" class="g7_9"/>
<path fill-rule="evenodd" d="M1026.1,576.4H747.5V416.9h557.1V576.4H1026.1Z" class="g2_9"/>
<path fill-rule="evenodd" d="M1026.1,447H747.5V417.7h557.1V447H1026.1Z" class="g3_9"/>
<path fill-rule="evenodd" d="M1250.3,481.1h-36.7V453.8h73.3v27.3h-36.6Z" class="g4_9"/>
<path d="M1250.3,481.1h-36.7V453.8h73.3v27.3h-36.6Z" class="g5_9"/>
<path d="M809.7,488.8c23.5,-.3,45.7,1.2,77.3,0c31.5,-1.3,64.8,3.6,84.9,0c20.2,-3.7,65.6,4.1,85,0c19.5,-4.2,93,4.1,139.1,0c2.2,12.7,-2.1,34.9,0,62.2c-29.8,4.9,-59.6,-1,-81.1,0c-21.5,1.1,-40.3,-4.7,-65.7,0c-25.4,4.8,-44.3,-2.3,-65.7,0c-21.3,2.3,-50.6,-1.2,-73.4,0c-22.8,1.2,-58.3,-4.5,-100.4,0c-2.1,-15,5.3,-40.9,0,-62.2Z" class="g6_9"/>
<path fill-rule="evenodd" d="M809.7,488.8c31.6,-2.2,59,1.4,85,0c25.9,-1.5,40.9,3.7,77.2,0c36.4,-3.8,36.4,5.3,69.6,0c33.2,-5.4,51.5,1.2,81.1,0c29.6,-1.3,55.7,4.6,73.4,0c0,24.8,-7.7,49,0,62.2c-36.2,6,-50.7,-2.4,-77.2,0c-26.6,2.5,-39,-2.5,-65.7,0c-26.8,2.6,-40.1,-.6,-69.6,0c-29.4,.6,-48.9,-.1,-69.5,0c-20.6,.1,-75.1,-3.6,-104.3,0c-2.6,-22.5,.8,-44.3,0,-62.2Z" class="g0_9"/>
<image clip-path="url(#c0_9)" preserveAspectRatio="none" x="809" y="455" width="26" height="25" xlink:href="img/1.png"/>
<path d="M109.6,736.6h12.2m3.8,0h12.2m3.9,0h12.2m3.8,0h12.2m3.8,0H186m3.8,0H202m3.8,0h12.3m3.8,0h12.2m3.8,0h12.2m3.9,0h12.2m3.8,0h12.2m3.8,0h12.3m3.8,0h12.2m3.8,0h12.2m3.9,0h12.2m3.8,0h12.2m3.8,0h12.3m3.8,0h12.2m3.8,0h12.3m3.8,0h12.2m3.8,0h12.2m3.9,0h12.2m3.8,0h12.2m3.8,0h12.3m3.8,0h12.2m3.8,0h12.2m3.9,0h12.2m3.8,0h12.2m3.8,0H571m3.8,0H587m3.8,0h12.3m3.8,0h12.2m3.8,0h12.2m3.9,0h12.2m3.8,0h12.2m3.8,0h12.3m3.8,0h12.2m3.8,0h12.2m3.9,0h12.2m3.8,0h12.2m3.8,0h12.3m3.8,0h12.2m3.8,0h12.3m3.8,0h12.2m3.8,0h12.2m3.9,0h12.2m3.8,0h12.2m3.8,0h12.3m3.8,0h12.2m3.8,0h12.2m3.9,0h12.2m3.8,0h12.2m3.8,0H956m3.8,0H972m3.8,0h12.3m3.8,0h12.2m3.8,0h12.2m3.9,0h12.2m3.8,0h12.2m3.8,0h12.3m3.8,0h12.2m3.8,0h12.2m3.9,0h12.2m3.8,0h12.2m3.8,0h12.3m3.8,0h12.2m3.8,0h12.3m3.8,0h12.2m3.8,0h12.2m3.9,0h12.2m3.8,0h12.2m3.8,0h12.3m3.8,0h12.2m3.8,0h12.2m3.9,0h12.2m3.8,0h12.2m3.8,0h.8M731.7,593.5v12.2m0,3.8v12.3m0,3.8v12.2m0,3.8v12.3m0,3.8v12.2m0,3.8v12.2m0,3.9V702m0,3.8V718m0,3.8v12.3" class="g7_9"/>
<path fill-rule="evenodd" d="M1026.1,715.5H747.5V600.2h557.1V715.5H1026.1Z" class="g2_9"/>
<path fill-rule="evenodd" d="M1026.1,627.4H747.5V601h557.1v26.4H1026.1Z" class="g3_9"/>
<path fill-rule="evenodd" d="M1250.3,660.8h-36.7V633.5h73.3v27.3h-36.6Z" class="g4_9"/>
<path d="M1250.3,660.8h-36.7V633.5h73.3v27.3h-36.6Z" class="g5_9"/>
<path d="M809.7,669c15.4,-4.4,37.8,1.7,52.8,0c15,-1.7,41.1,5.5,60.5,0c19.4,-5.5,29.4,2.8,56.6,0c27.3,-2.9,36.6,2.4,68.3,0c31.7,-2.5,35.6,2.2,56.6,0c21.1,-2.3,53.9,.7,91.5,0c.7,12.4,-3.2,21,0,29c-16.8,1.5,-44.1,-5.7,-72.1,0c-28,5.7,-29.2,-6,-56.7,0c-27.5,6,-35,-5.2,-52.8,0c-17.7,5.1,-49.7,-4.9,-64.4,0c-14.6,4.8,-46.1,-1.7,-64.3,0c-18.3,1.6,-47.7,-1.7,-76,0c-3,-14.1,1.2,-20.8,0,-29Z" class="g6_9"/>
<path fill-rule="evenodd" d="M809.7,669c16.1,-3.9,38.7,.5,72.1,0c33.4,-.6,48.7,4,64.4,0c15.7,-4.1,34.4,3,56.7,0c22.1,-3.1,36.7,6,68.2,0c31.5,-6.1,39.9,5.4,64.4,0c24.4,-5.5,31.7,3.6,60.5,0c2.4,7.8,-2.6,22.3,0,29c-20.7,7.5,-47.9,-2.4,-68.2,0c-20.4,2.4,-33.3,-6.6,-56.7,0c-23.4,6.5,-36,-6,-56.7,0c-20.6,5.9,-36,-3.7,-52.8,0c-16.8,3.7,-43.5,-6.3,-56.6,0c-13.1,6.2,-68.8,-9.6,-95.3,0c-3.2,-8.9,3,-16.8,0,-29Z" class="g0_9"/>
<path fill-rule="evenodd" d="M1000.9,663.2H807.8V635.5H1194v27.7H1000.9Z" class="g0_9"/>
</svg>