<?xml version="1.0" encoding="UTF-8" standalone="no"?>
<!DOCTYPE svg PUBLIC "-//W3C//DTD SVG 1.1//EN"
"http://www.w3.org/Graphics/SVG/1.1/DTD/svg11.dtd">
<svg viewBox="0 0 1466 825" version="1.1" xmlns="http://www.w3.org/2000/svg" xmlns:xlink="http://www.w3.org/1999/xlink">
<defs>
<clipPath id="c0_21"><path d="M0,825V0H1466.6V825Z"/></clipPath>
<style type="text/css"><![CDATA[
.g0_21{
fill: #FFF;
}
.g1_21{
fill: #BFBFBF;
}
.g2_21{
fill: none;
stroke: #BFBFBF;
stroke-width: 0.779;
stroke-linejoin: round;
}
.g3_21{
fill: none;
stroke: #AFABAB;
stroke-width: 0.692;
stroke-linejoin: round;
}
.g4_21{
fill: none;
stroke: #BFBFBF;
stroke-width: 0.779;
stroke-miterlimit: 3;
}
.g5_21{
fill: none;
stroke: #A6A6A6;
stroke-width: 0.389;
stroke-miterlimit: 1;
}
.g6_21{
fill: #C39BE1;
}
]]></style>
</defs>
<g clip-path="url(#c0_21)">
<path fill-rule="evenodd" d="M0,0H1466.6V825H0V0Z" class="g0_21"/>
<path fill-rule="evenodd" d="M0,0H1466.7V825H0V0Z" class="g0_21"/>
</g>
<path fill-rule="evenodd" d="M1167.3,37.9L1135.6,20.7c-2,-1,-.9,-3.3,1.6,-3.3H1356c.6,0,1.1,.1,1.5,.3l37.8,20.2c1.4,.7,1.4,2.2,0,2.9l-37.7,20.8c-.5,.2,-1,.4,-1.6,.4H1136.9c-2.3,0,-3.4,-2.3,-1.4,-3.4l31.8,-17.8c1.4,-.7,1.3,-2.2,0,-2.9Z" class="g1_21"/>
<path d="M757.4,187.2H111.9V88.5h1291v98.7H757.4Z" class="g2_21"/>
<path d="M246,201.6v12.2m0,3.8v12.3m0,3.8v12.2m0,3.8v12.2m0,3.9V278" class="g3_21"/>
<path d="M757.4,284.5H111.9V196.4h1291v88.1H757.4Zm0,123.1H111.9V292.5h1291V407.6H757.4Z" class="g4_21"/>
<image clip-path="url(#c0_21)" preserveAspectRatio="none" x="1165" y="215" width="144" height="29" xlink:href="img/1.jpg"/>
<path d="M246,292.9v12.2m0,3.9v12.2m0,3.8v12" class="g3_21"/>
<g clip-path="url(#c0_21)">
<image preserveAspectRatio="none" x="1168" y="317" width="21" height="21" xlink:href="img/2.png"/>
<image preserveAspectRatio="none" x="1141" y="319" width="23" height="23" xlink:href="img/3.png"/>
<image preserveAspectRatio="none" x="1302" y="316" width="21" height="21" xlink:href="img/4.png"/>
<image preserveAspectRatio="none" x="1275" y="318" width="23" height="23" xlink:href="img/5.png"/>
</g>
<path d="M246,347.1v12.3m0,3.8v12.2m0,3.8v12" class="g3_21"/>
<g clip-path="url(#c0_21)">
<image preserveAspectRatio="none" x="1174" y="371" width="23" height="23" xlink:href="img/6.png"/>
<image preserveAspectRatio="none" x="1148" y="371" width="21" height="21" xlink:href="img/7.png"/>
<image preserveAspectRatio="none" x="1311" y="371" width="23" height="23" xlink:href="img/8.png"/>
<image preserveAspectRatio="none" x="1285" y="371" width="21" height="21" xlink:href="img/9.png"/>
</g>
<path d="M245.4,341.6H247m1.1,0h1.6m1.2,0h1.5m1.2,0h1.6m1.1,0h1.6m1.2,0h1.5m1.2,0h1.6m1.1,0h1.6m1.1,0h1.6m1.2,0h1.5m1.2,0h1.6m1.1,0H277m1.2,0h1.5m1.2,0h1.5m1.2,0h1.6m1.1,0h1.6m1.2,0h1.5m1.2,0h1.6m1.1,0h1.6m1.2,0h1.5m1.2,0h1.5m1.2,0h1.6m1.1,0H307m1.2,0h1.5m1.2,0h1.6m1.1,0h1.6m1.2,0h1.5m1.2,0h1.5m1.2,0h1.6m1.1,0h1.6m1.2,0h1.5m1.2,0h1.6m1.1,0h1.6m1.2,0H337m1.2,0h1.5m1.2,0h1.6m1.1,0h1.6m1.2,0h1.5m1.2,0h1.6m1.1,0h1.6m1.2,0h1.5m1.2,0h1.5m1.2,0h1.6m1.1,0h1.6m1.2,0l1.5,.1m1.2,0h1.6m1.1,0h1.6m1.2,0h1.5m1.2,0h1.5m1.2,0h1.6m1.1,0h1.6m1.2,0h1.5m1.2,0h1.6m1.1,0h1.6m1.2,0h1.5m1.2,0H397m1.2,0h1.6m1.1,0h1.6m1.2,0h1.5m1.2,0H408m1.1,0h1.6m1.2,0h1.5m1.2,0h1.5m1.2,0h1.6m1.1,0h1.6m1.2,0h1.5m1.2,0h1.6m1.1,0h1.6m1.1,0h1.6m1.2,0h1.5m1.2,0H438m1.1,0h1.6m1.2,0h1.5m1.2,0h1.5m1.2,0h1.6m1.1,0h1.6m1.2,0h1.5m1.2,0h1.6m1.1,0h1.6m1.2,0h1.5m1.2,.1h1.5m1.2,0H468m1.1,0h1.6m1.2,0h1.5m1.2,0h1.6m1.1,0h1.6m1.2,0h1.5m1.2,0h1.5m1.2,0h1.6m1.1,0h1.6m1.2,0h1.5m1.2,0h1.6m1.1,0H498m1.2,0h1.5m1.2,0h1.5m1.2,0h1.6m1.1,0h1.6m1.2,0h1.5m1.2,0h1.6m1.1,0h1.6m1.2,0h1.5m1.2,0h1.5m1.2,0h1.6m1.1,0H528m1.2,0h1.5m1.2,0h1.6m1.1,0h1.6m1.2,0h1.5m1.2,0h1.5m1.2,0h1.6m1.1,0h1.6m1.2,0h1.5m1.2,0h1.6m1.1,0h1.6m1.2,0H558m1.2,.1h1.5m1.2,0h1.6m1.1,0h1.6m1.2,0h1.5m1.2,0h1.6m1.1,0h1.6m1.2,0h1.5m1.2,0h1.5m1.2,0h1.6m1.1,0h1.6m1.2,0H588m1.2,0h1.6m1.1,0h1.6m1.1,0h1.6m1.2,0h1.5m1.2,0h1.6m1.1,0h1.6m1.2,0h1.5m1.2,0h1.6m1.1,0h1.6m1.1,0h1.6m1.2,0H618m1.2,0h1.6m1.1,0h1.6m1.2,0h1.5m1.2,0h1.5m1.2,0h1.6m1.1,0h1.6m1.2,0h1.5m1.2,0h1.6m1.1,0h1.6m1.2,0h1.5m1.2,0H648m1.2,0h1.6m1.1,0h1.6m1.2,0l1.5,.1m1.2,0H659m1.1,0h1.6m1.2,0h1.5m1.2,0h1.5m1.2,0h1.6m1.1,0h1.6m1.2,0h1.5m1.2,0h1.6m1.1,0h1.6m1.2,0h1.5m1.2,0h1.5m1.2,0H689m1.1,0h1.6m1.2,0h1.5m1.2,0h1.6m1.1,0h1.6m1.2,0h1.5m1.2,0h1.5m1.2,0h1.6m1.1,0h1.6m1.2,0h1.5m1.2,0h1.6m1.1,0H719m1.2,0h1.5m1.2,0h1.5m1.2,0h1.6m1.1,0h1.6m1.2,0h1.5m1.2,0h1.6m1.1,0h1.6m1.2,0h1.5m1.2,0h1.5m1.2,0h1.6m1.1,0H749m1.2,0h1.5m1.2,0h1.6m1.1,0h1.6m1.2,0h1.5m1.2,0h1.5m1.2,0h1.6m1.1,0h1.6m1.2,0h1.5m1.2,0h1.6m1.1,0h1.6m1.1,0H779m1.2,0h1.5m1.2,0h1.6m1.1,0h1.6m1.2,0h1.5m1.2,0h1.5m1.2,0h1.6m1.1,0h1.6m1.2,0l1.5,.1m1.2,0h1.6m1.1,0h1.6m1.2,0H809m1.2,0h1.5m1.2,0h1.6m1.1,0h1.6m1.2,0h1.5m1.2,0h1.6m1.1,0h1.6m1.2,0h1.5m1.2,0h1.5m1.2,0h1.6m1.1,0h1.6m1.2,0H839m1.2,0h1.6m1.1,0h1.6m1.2,0h1.5m1.2,0h1.5m1.2,0h1.6m1.1,0h1.6m1.2,0h1.5m1.2,0h1.6m1.1,0h1.6m1.2,0h1.5m1.2,0H869m1.2,0h1.6m1.1,0h1.6m1.2,0h1.5m1.2,0H880m1.1,0h1.6m1.2,0h1.5m1.2,0h1.5m1.2,0h1.6m1.1,0h1.6m1.2,0h1.5m1.2,.1h1.6m1.1,0h1.6m1.2,0h1.5m1.2,0h1.5m1.2,0H910m1.1,0h1.6m1.2,0h1.5m1.2,0h1.6m1.1,0h1.6m1.2,0h1.5m1.2,0h1.5m1.2,0h1.6m1.1,0h1.6m1.2,0h1.5m1.2,0h1.6m1.1,0H940m1.1,0h1.6m1.2,0h1.5m1.2,0h1.6m1.1,0h1.6m1.2,0h1.5m1.2,0h1.6m1.1,0h1.6m1.1,0h1.6m1.2,0h1.5m1.2,0h1.6m1.1,0H970m1.2,0h1.5m1.2,0h1.5m1.2,0h1.6m1.1,0h1.6m1.2,0h1.5m1.2,0h1.6m1.1,0h1.6m1.2,0h1.5m1.2,0l1.5,.1m1.2,0h1.6m1.1,0h1.6m1.2,0h1.5m1.2,0h1.6m1.1,0h1.6m1.2,0h1.5m1.2,0h1.5m1.2,0h1.6m1.1,0h1.6m1.2,0h1.5m1.2,0h1.6m1.1,0h1.6m1.2,0h1.5m1.2,0h1.5m1.2,0h1.6m1.1,0h1.6m1.2,0h1.5m1.2,0h1.6m1.1,0h1.6m1.2,0h1.5m1.2,0h1.5m1.2,0h1.6m1.1,0h1.6m1.2,0h1.5m1.2,0h1.6m1.1,0h1.6m1.2,0h1.5m1.2,0h1.5m1.2,0h1.6m1.1,0h1.6m1.2,0h1.5m1.2,0h1.6m1.1,0h1.6m1.2,0h1.5m1.2,0h1.5m1.2,0h1.6m1.1,0h1.6m1.2,0h1.5m1.2,0h1.6m1.1,0h1.6m1.2,0h1.5m1.2,0h1.5m1.2,0h1.6m1.1,0h1.6m1.2,0h1.5m1.2,0h1.6m1.1,0h1.6m1.1,0h1.6m1.2,0h1.5m1.2,0h1.6m1.1,0h1.6m1.2,0h1.5m1.2,0l1.5,.1m1.2,0h1.6m1.1,0h1.6m1.2,0h1.5m1.2,0h1.6m1.1,0h1.6m1.2,0h1.5m1.2,0h1.5m1.2,0h1.6m1.1,0h1.6m1.2,0h1.5m1.2,0h1.6m1.1,0h1.6m1.2,0h1.5m1.2,0h1.5m1.2,0h1.6m1.1,0h1.6m1.2,0h1.5m1.2,0h1.6m1.1,0h1.6m1.2,0h1.5m1.2,0h1.5m1.2,0h1.6m1.1,0h1.6m1.2,0h1.5m1.2,0h1.6m1.1,0h1.6m1.2,0h1.5m1.2,0h1.5m1.2,0h1.6m1.1,0h1.6m1.2,0h1.5m1.2,0h1.6m1.1,0h1.6m1.2,0h1.5m1.2,0l1.5,.1m1.2,0h1.6m1.1,0h1.6m1.2,0h1.5m1.2,0h1.6m1.1,0h1.6m1.2,0h1.5m1.2,0h1.5m1.2,0h1.6m1.1,0h1.6m1.2,0h1.5m1.2,0h1.6m1.1,0h1.6m1.2,0h1.5m1.2,0h1.5m1.2,0h1.6m1.1,0h1.6m1.2,0h1.5m1.2,0h1.6m1.1,0h1.6m1.1,0h1.6m1.2,0h1.5m1.2,0h1.6m1.1,0h1.6m1.2,0h1.5m1.2,0h1.6m1.1,0h1.6m1.1,0h1.6m1.2,0h1.5m1.2,0h1.6m1.1,0h1.6m1.2,0h1.5m1.2,0h1.5m1.2,0h1.6m1.1,0h1.6m1.2,0h1.5m1.2,.1h1.6m1.1,0h1.6m1.2,0h1.5m1.2,0h1.5m1.2,0h1.6m1.1,0h1.6m1.2,0h1.5m1.2,0h1.6m1.1,0h1.6m1.2,0h1.5m1.2,0h1.5m1.2,0h1.6m1.1,0h1.6m1.2,0h1.5m1.2,0h1.6m1.1,0h1.6m1.2,0h1.5m1.2,0h1.5m1.2,0h1.6m1.1,0h1.6m1.2,0h1.5m1.2,0h1.6m1.1,0h1.6m1.2,0h1.5m1.2,0h1.5m1.2,0h1.6m1.1,0h1.3" class="g5_21"/>
<path d="M246,413.9v12.2m0,3.8v12.3m0,3.8v12.2m0,3.8v12.2" class="g3_21"/>
<path fill-rule="evenodd" d="M1169.2,486.5c0,16.5,-13.2,29.9,-29.5,29.9c-16.4,0,-29.6,-13.4,-29.6,-29.9c0,-16.6,13.2,-30,29.6,-30c16.3,0,29.5,13.4,29.5,30Z" class="g6_21"/>
<path d="M246,475.3v12.2m0,3.8v12.2m0,3.8v12m0,14.1v12.2m0,3.8v12.2m0,3.9v11.9" class="g3_21"/>
<path fill-rule="evenodd" d="M1170.4,552.1c0,16.5,-13.2,29.9,-29.6,29.9c-16.3,0,-29.5,-13.4,-29.5,-29.9c0,-16.5,13.2,-29.9,29.5,-29.9c16.4,0,29.6,13.4,29.6,29.9Z" class="g6_21"/>
<path d="M757.4,601.4H111.9V413.1h1291V601.4H757.4Z" class="g4_21"/>
</svg>