<?xml version="1.0" encoding="UTF-8" standalone="no"?>
<!DOCTYPE svg PUBLIC "-//W3C//DTD SVG 1.1//EN"
"http://www.w3.org/Graphics/SVG/1.1/DTD/svg11.dtd">
<svg viewBox="0 0 1466 825" version="1.1" xmlns="http://www.w3.org/2000/svg" xmlns:xlink="http://www.w3.org/1999/xlink">
<defs>
<clipPath id="c0_11"><path d="M0,825V0H1466.6V825Z"/></clipPath>
<style type="text/css"><![CDATA[
.g0_11{
fill: #FFF;
}
.g1_11{
fill: none;
stroke: #AFABAB;
stroke-width: 0.389;
stroke-miterlimit: 1;
}
.g2_11{
fill: none;
stroke: #0563C1;
stroke-width: 1.083;
stroke-miterlimit: 10;
}
.g3_11{
fill: none;
stroke: #C55A11;
stroke-width: 0.779;
stroke-miterlimit: 3;
}
.g4_11{
fill: #ED7D31;
}
.g5_11{
fill: #2F5597;
}
.g6_11{
fill: #548235;
}
.g7_11{
fill: none;
stroke: #C55A11;
stroke-width: 1.515;
stroke-miterlimit: 3;
}
.g8_11{
fill: none;
stroke: #ED7D31;
stroke-width: 1.515;
stroke-miterlimit: 3;
}
.g9_11{
fill: none;
stroke: #4472C4;
stroke-width: 0.779;
stroke-miterlimit: 3;
}
.ga_11{
fill: none;
stroke: #548235;
stroke-width: 0.779;
stroke-miterlimit: 3;
}
.gb_11{
fill: none;
stroke: #70AD47;
stroke-width: 0.779;
stroke-miterlimit: 3;
}
.gc_11{
fill: #385623;
}
.gd_11{
fill: none;
stroke: #548235;
stroke-width: 1.515;
stroke-miterlimit: 3;
}
.ge_11{
fill: none;
stroke: #ED7D31;
stroke-width: 0.779;
stroke-miterlimit: 3;
}
.gf_11{
fill: #E2F0D9;
}
.gg_11{
fill: none;
stroke: #A9D18E;
stroke-width: 1.515;
stroke-miterlimit: 3;
}
.gh_11{
fill: #DEEBF7;
}
.gi_11{
fill: none;
stroke: #BDD7EE;
stroke-width: 1.515;
stroke-miterlimit: 3;
}
.gj_11{
fill: none;
stroke: #A6A6A6;
stroke-width: 0.779;
stroke-miterlimit: 3;
}
.gk_11{
fill: none;
stroke: #AFABAB;
stroke-width: 0.779;
stroke-miterlimit: 10;
}
.gl_11{
fill: #AFABAB;
}
.gm_11{
fill: #F8CBAD;
}
.gn_11{
fill: none;
stroke: #F4B183;
stroke-width: 1.515;
stroke-miterlimit: 3;
}
.go_11{
fill: #4472C4;
}
.gp_11{
fill: none;
stroke: #325490;
stroke-width: 1.515;
stroke-miterlimit: 3;
}
.gq_11{
fill: #FFD966;
}
.gr_11{
fill: none;
stroke: #BF9000;
stroke-width: 1.515;
stroke-miterlimit: 3;
}
.gs_11{
fill: none;
stroke: #D9D9D9;
stroke-width: 0.152;
stroke-linejoin: round;
}
.gt_11{
fill: #F2F2F2;
}
.gu_11{
fill: none;
stroke: #4472C4;
stroke-width: 1.515;
stroke-miterlimit: 3;
}
.gv_11{
fill: none;
stroke: #767171;
stroke-width: 0.389;
stroke-miterlimit: 1;
}
.gw_11{
fill: none;
stroke: #767171;
stroke-width: 0.779;
stroke-miterlimit: 3;
}
.gx_11{
fill: #9DC3E6;
}
.gy_11{
fill: none;
stroke: #2E75B6;
stroke-width: 1.515;
stroke-miterlimit: 3;
}
.gz_11{
fill: none;
stroke: #D9D9D9;
stroke-width: 1.515;
stroke-miterlimit: 3;
}
.g10_11{
fill: none;
stroke: #0563C1;
stroke-width: 0.909;
stroke-miterlimit: 10;
}
]]></style>
</defs>
<g clip-path="url(#c0_11)">
<path fill-rule="evenodd" d="M0,0H1466.6V825H0V0Z" class="g0_11"/>
<path fill-rule="evenodd" d="M0,0H1466.7V825H0V0Z" class="g0_11"/>
</g>
<path d="M752.9,787.8h-1.6m-1.2,0h-1.5m-1.2,0h-1.6m-1.1,0h-1.6m-1.2,0h-1.5m-1.2,0h-1.6m-1.1,0h-1.6m-1.1,0h-1.6m-1.2,0h-1.5m-1.2,0h-1.6m-1.1,0H724m-1.2,0h-1.5m-1.2,0h-1.5m-1.2,0h-1.6m-1.1,0h-1.6m-1.2,0h-1.5m-1.2,0h-1.6m-1.1,0h-1.6m-1.2,0h-1.5m-1.2,0h-1.5m-1.2,0h-1.6m-1.1,0H694m-1.2,0h-1.5m-1.2,0h-1.6m-1.1,0h-1.6m-1.2,0h-1.5m-1.2,0h-1.5m-1.2,0h-1.6m-1.1,0h-1.6m-1.2,0h-1.5m-1.2,0h-1.6m-1.1,0h-1.6m-1.2,0H664m-1.2,0h-1.5m-1.2,0h-1.6m-1.1,0h-1.6m-1.2,0h-1.5m-1.2,0h-1.6m-1.1,0h-1.6m-1.2,0h-1.5m-1.2,0h-1.5m-1.2,0h-1.6m-1.1,0h-1.6m-1.2,0H634m-1.2,0h-1.6m-1.1,0h-1.6m-1.2,0h-1.5m-1.2,0h-1.5m-1.2,0h-1.6m-1.1,0h-1.6m-1.2,0h-1.5m-1.2,0h-1.6m-1.1,0h-1.6m-1.2,0h-1.5m-1.2,0H604m-1.2,0h-1.6m-1.1,0h-1.6m-1.2,0h-1.5m-1.2,0H593m-1.1,0h-1.6m-1.2,0h-1.5m-1.2,0h-1.5m-1.2,0h-1.6m-1.1,0h-1.6m-1.2,0h-1.5m-1.2,0h-1.6m-1.1,0h-1.6m-1.1,0h-1.6m-1.2,0h-1.5m-1.2,0H563m-1.1,0h-1.6m-1.2,0h-1.5m-1.2,0h-1.5m-1.2,0h-1.6m-1.1,0h-1.6m-1.2,0h-1.5m-1.2,0h-1.6m-1.1,0h-1.6m-1.2,0h-1.5m-1.2,0h-1.5m-1.2,0H533m-1.1,0h-1.6m-1.2,0h-1.5m-1.2,0h-1.6m-1.1,0h-1.6m-1.2,0h-1.5m-1.2,0h-1.5m-1.2,0h-1.6m-1.1,0h-1.6m-1.2,0h-1.5m-1.2,0h-1.6m-1.1,0H503m-1.2,0h-1.5m-1.2,0h-1.5m-1.2,0h-1.6m-1.1,0h-1.6m-1.2,0h-1.5m-1.2,0h-1.6m-1.1,0h-1.6m-1.2,0h-1.5m-1.2,0h-1.5m-1.2,0h-1.6m-1.1,0H473m-1.2,0h-1.5m-1.2,0h-1.6m-1.1,0h-1.6m-1.2,0h-1.5m-1.2,0h-1.5m-1.2,0h-1.6m-1.1,0h-1.6m-1.2,0h-1.5m-1.2,0h-1.6m-1.1,0h-1.6m-1.2,0H443m-1.2,0h-1.5m-1.2,0h-1.6m-1.1,0h-1.6m-1.2,0h-1.5m-1.2,0h-1.6m-1.1,0h-1.6m-1.2,0h-1.5m-1.2,0h-1.5m-1.2,0h-1.6m-1.1,0h-1.6m-1.2,0H413m-1.2,0h-1.6m-1.1,0h-1.6m-1.1,0h-1.6m-1.2,0h-1.5m-1.2,0h-1.6m-1.1,0h-1.6m-1.2,0h-1.5m-1.2,0h-1.6m-1.1,0h-1.6m-1.1,0h-1.6m-1.2,0H383m-1.2,0h-1.6m-1.1,0h-1.6m-1.2,0h-1.5m-1.2,0h-1.5m-1.2,0h-1.6m-1.1,0h-1.6m-1.2,0h-1.5m-1.2,0h-1.6m-1.1,0h-1.6m-1.2,0h-1.5m-1.2,0H353m-1.2,0h-1.6m-1.1,0h-1.6m-1.2,0h-1.5m-1.2,0H342m-1.1,0h-1.6m-1.2,0h-1.5m-1.2,0h-1.5m-1.2,0h-1.6m-1.1,0h-1.6m-1.2,0h-1.5m-1.2,0h-1.6m-1.1,0h-1.6m-1.2,0h-1.5m-1.2,0h-1.5m-1.2,0H312m-1.1,0h-1.6m-1.2,0h-1.5m-1.2,0h-1.6m-1.1,0h-1.6m-1.2,0h-1.5m-1.2,0h-1.5m-1.2,0h-1.6m-1.1,0h-1.6m-1.2,0h-1.5m-1.2,0h-1.6m-1.1,0H282m-1.2,0h-1.5m-1.2,0h-1.5m-1.2,0h-1.6m-1.1,0h-1.6m-1.2,0h-1.5m-1.2,0h-1.6m-1.1,0h-1.6m-1.2,0h-1.5m-1.2,0h-1.5m-1.2,0h-1.6m-1.1,0H252m-1.2,0h-1.5m-1.2,0h-1.6m-1.1,0h-1.6m-1.2,0h-1.5m-1.2,0h-1.5m-1.2,0h-1.6m-1.1,0h-1.6m-1.2,0h-1.5m-1.2,0h-1.6m-1.1,0h-1.6m-1.1,0H222m-1.2,0h-1.5m-1.2,0h-1.6m-1.1,0h-1.6m-1.2,0h-1.5m-1.2,0h-1.5m-1.2,0h-1.6m-1.1,0h-1.6m-1.2,0h-1.5m-1.2,0h-1.6m-1.1,0h-1.6m-1.2,0H192m-1.2,0h-1.5m-1.2,0h-1.6m-1.1,0h-1.6m-1.2,0h-1.5m-1.2,0h-1.6m-1.1,0h-1.6m-1.2,0h-1.5m-1.2,0h-1.5m-1.2,0h-1.6m-1.1,0h-1.6m-1.2,0H162m-1.2,0h-1.6m-1.1,0h-1.6m-1.2,0h-1.5m-1.2,0h-1.5m-1.2,0h-1.6m-1.1,0h-1.6m-1.2,0h-1.5m-1.2,0h-1.6m-1.1,0h-1.6m-1.2,0h-1.5m-1.2,0H132m-1.2,0h-1.6m-1.1,0h-1.6m-1.2,0h-1.5m-1.2,0H121m-1.1,0h-1.6m-1.2,0h-1.5m-1.2,0h-1.5m-1.2,0h-1.6m-1.1,0h-1.6m-1.2,0h-1.5m-1.2,0h-1.6m-1.1,0H99.2m-1.2,0H96.5m-1.2,0H93.8m-1.2,0H91m-1.1,0H88.3m-1.2,0H85.6m-1.2,0H82.8m-1.1,0H80.1m-1.2,0H77.4m-1.2,0H74.7m-1.2,0H71.9m-1.1,0H69.2m-1.2,0H66.5m-.8,-.4v-1.5m0,-1.2v-1.6m0,-1.1v-1.6m0,-1.2v-1.5m0,-1.2v-1.6m0,-1.1v-1.6m0,-1.2v-1.5m0,-1.2v-1.5m0,-1.2V764m0,-1.1v-1.6m0,-1.2v-1.5m0,-1.2v-1.6m0,-1.1v-1.6m0,-1.2v-1.5m0,-1.2v-1.5m0,-1.2v-1.6m0,-1.1v-1.6m0,-1.2v-1.5m0,-1.2v-1.6m0,-1.1V734m0,-1.2v-1.5m0,-1.2v-1.5m0,-1.2v-1.6m0,-1.1v-1.6m0,-1.2v-1.5m0,-1.2v-1.6m0,-1.1v-1.6m0,-1.2v-1.5m0,-1.2v-1.5m0,-1.2v-1.6m0,-1.1V704m0,-1.2v-1.5m0,-1.2v-1.6m0,-1.1v-1.6m0,-1.2v-1.5m0,-1.2v-1.5m0,-1.2v-1.6m0,-1.1v-1.6m0,-1.2v-1.5m0,-1.2v-1.6m0,-1.1v-1.6m0,-1.2V674m0,-1.2v-1.5m0,-1.2v-1.6m0,-1.1v-1.6m0,-1.2v-1.5m0,-1.2v-1.6m0,-1.1v-1.6m0,-1.2v-1.5m0,-1.2v-1.5m0,-1.2v-1.6m0,-1.1v-1.6m0,-1.2V644m0,-1.2v-1.6m0,-1.1v-1.6m0,-1.1v-1.6m0,-1.2v-1.5m0,-1.2v-1.6m0,-1.1v-1.6m0,-1.2v-1.5m0,-1.2v-1.6m0,-1.1v-1.6m0,-1.1v-1.6m0,-1.2V614m0,-1.2v-1.6m0,-1.1v-1.6m0,-1.2v-1.5m0,-1.2v-1.5m0,-1.2v-1.6m0,-1.1v-1.6m0,-1.2v-1.5m0,-1.2v-1.6m0,-1.1v-1.6m0,-1.2v-1.5m0,-1.2V584m0,-1.2v-1.6m0,-1.1v-1.6m0,-1.2v-1.5m0,-1.2V573m0,-1.1v-1.6m0,-1.2v-1.5m0,-1.2v-1.5m0,-1.2v-1.6m0,-1.1v-1.6m0,-1.2v-1.5m0,-1.2v-1.6m0,-1.1v-1.6m0,-1.2v-1.5m0,-1.2v-1.5m0,-1.2V543m0,-1.1v-1.6m0,-1.2v-1.5m0,-1.2v-1.6m0,-1.1v-1.6m0,-1.2v-1.5m0,-1.2v-1.5m0,-1.2v-1.6m0,-1.1v-1.6m0,-1.2v-1.5m0,-1.2v-1.6m0,-1.1V513m0,-1.2v-1.5m0,-1.2v-1.5m0,-1.2v-1.6m0,-1.1v-1.6m0,-1.2v-1.5m0,-1.2v-1.6m0,-1.1v-1.6m0,-1.2v-1.5m0,-1.2v-1.5m0,-1.2v-1.6m0,-1.1V483m0,-1.2v-1.5m0,-1.2v-1.6m0,-1.1v-1.6m0,-1.2v-1.5m0,-1.2v-1.5m0,-1.2v-1.6m0,-1.1v-1.6m0,-1.2v-1.5m0,-1.2v-1.6m0,-1.1v-1.6m0,-1.1V453m0,-1.2v-1.5m0,-1.2v-1.6m0,-1.1v-1.6m0,-1.2v-1.5m0,-1.2v-1.5m0,-1.2v-1.6m0,-1.1v-1.6m0,-1.2v-1.5m0,-1.2v-1.6m0,-1.1v-1.6m0,-1.2V423m0,-1.2v-1.5m0,-1.2v-1.6m0,-1.1v-1.6m0,-1.2v-1.5m0,-1.2v-1.6m0,-1.1v-1.6m0,-1.2v-1.5m0,-1.2v-1.5m0,-1.2v-1.6m0,-1.1v-1.6m0,-1.2V393m0,-1.2v-1.6m0,-1.1v-1.6m0,-1.2v-1.5m0,-1.2v-1.5m0,-1.2v-1.6m0,-1.1v-1.6m0,-1.2v-1.5m0,-1.2v-1.6m0,-1.1v-1.6m0,-1.2v-1.5m0,-1.2V363m0,-1.2v-1.6m0,-1.1v-1.6m.5,-.6h1.5m1.2,0h1.6m1.1,0h1.6m1.2,0h1.5m1.2,0h1.5m1.2,0h1.6m1.1,0h1.6m1.2,0h1.5m1.2,0h1.6m1.1,0h1.6m1.2,0H95m1.2,0h1.5m1.2,0h1.6m1.1,0h1.6m1.2,0h1.5m1.2,0h1.6m1.1,0h1.6m1.2,0h1.5m1.2,0h1.5m1.2,0h1.6m1.1,0h1.6m1.2,0H125m1.2,0h1.6m1.1,0h1.6m1.2,0h1.5m1.2,0h1.5m1.2,0h1.6m1.1,0h1.6m1.2,0h1.5m1.2,0h1.6m1.1,0h1.6m1.2,0h1.5m1.2,0H155m1.2,0h1.6m1.1,0h1.6m1.2,0h1.5m1.2,0H166m1.1,0h1.6m1.2,0h1.5m1.2,0h1.5m1.2,0h1.6m1.1,0h1.6m1.2,0h1.5m1.2,0h1.6m1.1,0h1.6m1.1,0h1.6m1.2,0h1.5m1.2,0H196m1.1,0h1.6m1.2,0h1.5m1.2,0h1.5m1.2,0h1.6m1.1,0h1.6m1.2,0h1.5m1.2,0h1.6m1.1,0h1.6m1.2,0h1.5m1.2,0h1.5m1.2,0H226m1.1,0h1.6m1.2,0h1.5m1.2,0h1.6m1.1,0h1.6m1.2,0h1.5m1.2,0h1.5m1.2,0h1.6m1.1,0h1.6m1.2,0h1.5m1.2,0h1.6m1.1,0H256m1.2,0h1.5m1.2,0h1.5m1.2,0h1.6m1.1,0h1.6m1.2,0h1.5m1.2,0h1.6m1.1,0h1.6m1.2,0h1.5m1.2,0h1.5m1.2,0h1.6m1.1,0H286m1.2,0h1.5m1.2,0h1.6m1.1,0h1.6m1.2,0h1.5m1.2,0h1.5m1.2,0h1.6m1.1,0h1.6m1.2,0h1.5m1.2,0h1.6m1.1,0h1.6m1.2,0H316m1.2,0h1.5m1.2,0h1.6m1.1,0h1.6m1.2,0h1.5m1.2,0h1.6m1.1,0h1.6m1.2,0h1.5m1.2,0h1.5m1.2,0h1.6m1.1,0h1.6m1.2,0H346m1.2,0h1.6m1.1,0h1.6m1.1,0h1.6m1.2,0h1.5m1.2,0h1.6m1.1,0h1.6m1.2,0h1.5m1.2,0h1.6m1.1,0h1.6m1.1,0h1.6m1.2,0H376m1.2,0h1.6m1.1,0h1.6m1.2,0h1.5m1.2,0h1.5m1.2,0h1.6m1.1,0h1.6m1.2,0h1.5m1.2,0h1.6m1.1,0h1.6m1.2,0h1.5m1.2,0H406m1.2,0h1.6m1.1,0h1.6m1.2,0h1.5m1.2,0H417m1.1,0h1.6m1.2,0h1.5m1.2,0h1.5m1.2,0h1.6m1.1,0h1.6m1.2,0h1.5m1.2,0h1.6m1.1,0h1.6m1.2,0h1.5m1.2,0h1.5m1.2,0H447m1.1,0h1.6m1.2,0h1.5m1.2,0h1.6m1.1,0h1.6m1.2,0h1.5m1.2,0h1.5m1.2,0h1.6m1.1,0h1.6m1.2,0h1.5m1.2,0h1.6m1.1,0H477m1.2,0h1.5m1.2,0h1.5m1.2,0h1.6m1.1,0h1.6m1.2,0h1.5m1.2,0h1.6m1.1,0h1.6m1.2,0h1.5m1.2,0h1.5m1.2,0h1.6m1.1,0H507m1.2,0h1.5m1.2,0h1.6m1.1,0h1.6m1.2,0h1.5m1.2,0h1.5m1.2,0h1.6m1.1,0h1.6m1.2,0h1.5m1.2,0h1.6m1.1,0h1.6m1.1,0H537m1.2,0h1.5m1.2,0h1.6m1.1,0h1.6m1.2,0h1.5m1.2,0h1.5m1.2,0h1.6m1.1,0h1.6m1.2,0h1.5m1.2,0h1.6m1.1,0h1.6m1.2,0H567m1.2,0h1.5m1.2,0h1.6m1.1,0h1.6m1.2,0h1.5m1.2,0h1.6m1.1,0h1.6m1.2,0h1.5m1.2,0h1.5m1.2,0h1.6m1.1,0h1.6m1.2,0H597m1.2,0h1.6m1.1,0h1.6m1.2,0h1.5m1.2,0h1.5m1.2,0h1.6m1.1,0h1.6m1.2,0h1.5m1.2,0h1.6m1.1,0h1.6m1.2,0h1.5m1.2,0H627m1.2,0h1.6m1.1,0h1.6m1.2,0h1.5m1.2,0H638m1.1,0h1.6m1.2,0h1.5m1.2,0h1.5m1.2,0h1.6m1.1,0h1.6m1.2,0h1.5m1.2,0h1.6m1.1,0h1.6m1.2,0h1.5m1.2,0h1.5m1.2,0H668m1.1,0h1.6m1.2,0h1.5m1.2,0h1.6m1.1,0h1.6m1.2,0h1.5m1.2,0h1.5m1.2,0h1.6m1.1,0h1.6m1.2,0h1.5m1.2,0h1.6m1.1,0H698m1.1,0h1.6m1.2,0h1.5m1.2,0h1.6m1.1,0h1.6m1.2,0h1.5m1.2,0h1.6m1.1,0h1.6m1.1,0h1.6m1.2,0h1.5m1.2,0h1.6m1.1,0H728m1.2,0h1.5m1.2,0h1.5m1.2,0h1.6m1.1,0h1.6m1.2,0h1.5m1.2,0h1.6m1.1,0h1.6m1.2,0h1.5m1.2,0h1.5m1.2,0h1.6m1.1,0H758m1.2,0h1.5m1.2,0h1.6m1.1,0h1.6m1.2,0h1.5m1.2,0h1.5m1.2,0h1.6m1.1,0h1.6m1.2,0h1.5m1.2,0h1.6m1.1,0h1.6m1.2,0H788m1.2,0h1.5m1.2,0h1.6m1.1,0h1.6m1.2,0h1.5m1.2,0h1.6m1.1,0h1.6m1.2,0h1.5m1.2,0h1.5m1.2,0h1.6m1.1,0h1.6m1.2,0H818m1.2,0h1.6m1.1,0h1.6m1.2,0h1.5m1.2,0h1.5m1.2,0h1.6m1.1,0h1.6m1.2,0h1.5m1.2,0h1.6m1.1,0h1.6m1.2,0h1.5m1.2,0H848m1.2,0h1.6m1.1,0h1.6m1.2,0h1.5m1.2,0H859m1.1,0h1.6m1.2,0h1.5m1.2,0h1.5m1.2,0h1.6m1.1,0h1.6m1.2,0h1.5m1.2,0h1.6m1.1,0h1.6m1.1,0h1.6m1.2,0h1.5m1.2,0H889m1.1,0h1.6m1.2,0h1.5m1.2,0h1.5m1.2,0h1.6m1.1,0h1.6m1.2,0h1.5m1.2,0h1.6m1.1,0h1.6m1.2,0h1.5m1.2,0h1.5m1.2,0H919m1.1,0h1.6m1.2,0h1.5m1.2,0h1.6m1.1,0h1.6m1.2,0h1.5m1.2,0h1.5m1.2,0h1.6m1.1,0h1.6m1.2,0h1.5m1.2,0h1.6m1.1,0H949m1.2,0h1.5m1.2,0h1.5m1.2,0h1.6m1.1,0h1.6m1.2,0h1.5m1.2,0h1.6m1.1,0h1.6m1.2,0h1.5m1.2,0h1.5m1.2,0h1.6m1.1,0H979m1.2,0h1.5m1.2,0h1.6m1.1,0h1.6m1.2,0h1.5m1.2,0h1.5m1.2,0h1.6m1.1,0h1.6m1.2,0h1.5m1.2,0h1.6m1.1,0h1.6m1.2,0h1.5m1.2,0h1.5m1.2,0h1.6m1.1,0h1.6m1.2,0h1.5m1.2,0h1.6m1.1,0h1.6m1.2,0h1.5m1.2,0h1.5m1.2,0h1.6m1.1,0h1.6m1.2,0h1.5m1.2,0h1.6m1.1,0h1.6m1.1,0h1.6m1.2,0h1.5m1.2,0h1.6m1.1,0h1.6m1.2,0h1.5m1.2,0h1.6m1.1,0h1.6m1.1,0h1.6m1.2,0h1.5m1.2,0h1.6m1.1,0h1.6m1.2,0h1.5m1.2,0h1.5m1.2,0h1.6m1.1,0h1.6m1.2,0h1.5m1.2,0h1.6m1.1,0h1.6m1.2,0h1.5m1.2,0h1.5m1.2,0h1.6m1.1,0h1.6m1.2,0h1.5m1.2,0h1.6m1.1,0h1.6m1.2,0h1.5m1.2,0h1.5m1.2,0h1.6m1.1,0h1.6m1.2,0h1.5m1.2,0h1.6m1.1,0h1.6m1.2,0h1.5m1.2,0h1.5m1.2,0h1.6m1.1,0h1.6m1.2,0h1.5m1.2,0h1.6m1.1,0h1.6m1.2,0h1.5m1.2,0h1.5m1.2,0h1.6m1.1,0h1.6m1.2,0h1.5m1.2,0h1.6m1.1,0h1.6m1.2,0h1.5m1.2,0h1.5m1.2,0h1.6m1.1,0h1.6m1.2,0h1.5m1.2,0h1.6m1.1,0h1.6m1.2,0h1.5m1.2,0h1.5m1.2,0h1.6m1.1,0h1.6m1.2,0h1.5m1.2,0h1.6m1.1,0h1.6m1.2,0h1.5m1.2,0h1.5m1.2,0h1.6m1.1,0h1.6m1.2,0h1.5m1.2,0h1.6m1.1,0h1.6m1.1,0h1.6m1.2,0h1.5m1.2,0h1.6m1.1,0h1.6m1.2,0h1.5m1.2,0h1.5m1.2,0h1.6m1.1,0h1.6m1.2,0h1.5m1.2,0h1.6m1.1,0h1.6m1.2,0h1.5m1.2,0h1.5m1.2,0h1.6m1.1,0h1.6m1.2,0h1.5m1.2,0h1.6m1.1,0h1.6m1.2,0h1.5m1.2,0h1.5m1.2,0h1.6m1.1,0h1.6m1.2,0h1.5m1.2,0h1.6m1.1,0h1.6m1.2,0h1.5m1.2,0h1.5m1.2,0h1.6m1.1,0h1.6m1.2,0h1.5m1.2,0h1.6m1.1,0h1.6m1.2,0h1.5m1.2,0h1.5m1.2,0h1.6m1.1,0h1.6m1.2,0h1.5m1.2,0h1.6m1.1,0h1.6m1.2,0h1.5m1.2,0h1.5m1.2,0h1.6m1.1,0h1.6m1.2,0h1.5m1.2,0h1.6m1.1,0h1.6m1.2,0h1.5m1.2,0h1.5m1.2,0h1.6m1.1,0h1.6m1.2,0h1.5m1.2,0h1.6m1.1,0h1.6m1.2,0h1.5m1.2,0h1.5m1.2,0h1.6m1.1,0h1.6m1.2,0h1.5m1.2,0h1.6m1.1,0h1.6m1.1,0h1.6m1.2,0h1.5m1.2,0h1.6m1.1,0h1.6m1.2,0h1.5m1.2,0h1.6m1.1,0h1.6m1.1,0h1.6m1.2,0h1.5m1.2,0h1.6m1.1,0h1.6m1.2,0h1.5m1.2,0h1.5m1.2,0h1.6m1.1,0h1.6m1.2,0h1.5m1.2,0h1.6m1.1,0h1.5m0,1.2v1.5m0,1.2v1.6m0,1.1v1.6m0,1.1v1.6m0,1.2v1.5m0,1.2v1.6m0,1.1V376m0,1.2v1.5m0,1.2v1.5m0,1.2v1.6m0,1.1v1.6m0,1.2v1.5m0,1.2v1.6m0,1.1v1.6m0,1.2v1.5m0,1.2v1.5m0,1.2v1.6m0,1.1V406m0,1.2v1.5m0,1.2v1.6m0,1.1v1.6m0,1.2v1.5m0,1.2v1.5m0,1.2v1.6m0,1.1v1.6m0,1.2v1.5m0,1.2v1.6m0,1.1v1.6m0,1.2V436m0,1.2v1.5m0,1.2v1.6m0,1.1v1.6m0,1.2v1.5m0,1.2v1.6m0,1.1v1.6m0,1.2v1.5m0,1.2v1.5m0,1.2v1.6m0,1.1v1.6m0,1.2V466m0,1.2v1.6m0,1.1v1.6m0,1.2v1.5m0,1.2v1.5m0,1.2v1.6m0,1.1v1.6m0,1.2v1.5m0,1.2v1.6m0,1.1v1.6m0,1.2v1.5m0,1.2V496m0,1.2v1.6m0,1.1v1.6m0,1.2v1.5m0,1.2V507m0,1.1v1.6m0,1.2v1.5m0,1.2v1.5m0,1.2v1.6m0,1.1v1.6m0,1.2v1.5m0,1.2v1.6m0,1.1v1.6m0,1.1v1.6m0,1.2v1.5m0,1.2V537m0,1.1v1.6m0,1.2v1.5m0,1.2v1.5m0,1.2v1.6m0,1.1v1.6m0,1.2v1.5m0,1.2v1.6m0,1.1v1.6m0,1.2v1.5m0,1.2v1.5m0,1.2V567m0,1.1v1.6m0,1.2v1.5m0,1.2v1.6m0,1.1v1.6m0,1.2v1.5m0,1.2v1.5m0,1.2v1.6m0,1.1v1.6m0,1.2v1.5m0,1.2v1.6m0,1.1V597m0,1.2v1.5m0,1.2v1.5m0,1.2v1.6m0,1.1v1.6m0,1.2v1.5m0,1.2v1.6m0,1.1v1.6m0,1.2v1.5m0,1.2v1.5m0,1.2v1.6m0,1.1V627m0,1.2v1.5m0,1.2v1.6m0,1.1v1.6m0,1.2v1.5m0,1.2v1.5m0,1.2v1.6m0,1.1v1.6m0,1.2v1.5m0,1.2v1.6m0,1.1v1.6m0,1.2V657m0,1.2v1.5m0,1.2v1.6m0,1.1v1.6m0,1.2v1.5m0,1.2v1.6m0,1.1v1.6m0,1.2v1.5m0,1.2v1.5m0,1.2v1.6m0,1.1v1.6m0,1.2V687m0,1.2v1.6m0,1.1v1.6m0,1.1v1.6m0,1.2v1.5m0,1.2v1.6m0,1.1v1.6m0,1.2v1.5m0,1.2v1.6m0,1.1v1.6m0,1.1v1.6m0,1.2V717m0,1.2v1.6m0,1.1v1.6m0,1.2v1.5m0,1.2v1.5m0,1.2v1.6m0,1.1v1.6m0,1.2v1.5m0,1.2v1.6m0,1.1v1.6m0,1.2v1.5m0,1.2V747m0,1.2v1.6m0,1.1v1.6m0,1.2v1.5m0,1.2V758m0,1.1v1.6m0,1.2v1.5m0,1.2v1.5m0,1.2v1.6m0,1.1v1.6m0,1.2v1.5m0,1.2v1.6m0,1.1v1.6m0,1.2v1.5m0,1.2v1.5m0,1.2v1.4h-.2m-1.1,0h-1.6m-1.2,0h-1.5m-1.2,0h-1.6m-1.1,0h-1.6m-1.2,0h-1.5m-1.2,0h-1.5m-1.2,0h-1.6m-1.1,0H1418m-1.2,0h-1.5m-1.2,0h-1.6m-1.1,0h-1.6m-1.2,0h-1.5m-1.2,0h-1.5m-1.2,0h-1.6m-1.1,0h-1.6m-1.2,0h-1.5m-1.2,0h-1.6m-1.1,0h-1.6m-1.1,0H1388m-1.2,0h-1.5m-1.2,0h-1.6m-1.1,0h-1.6m-1.2,0h-1.5m-1.2,0h-1.5m-1.2,0h-1.6m-1.1,0h-1.6m-1.2,0h-1.5m-1.2,0h-1.6m-1.1,0h-1.6m-1.2,0H1358m-1.2,0h-1.5m-1.2,0h-1.6m-1.1,0h-1.6m-1.2,0h-1.5m-1.2,0h-1.6m-1.1,0h-1.6m-1.2,0h-1.5m-1.2,0h-1.5m-1.2,0h-1.6m-1.1,0h-1.6m-1.2,0H1328m-1.2,0h-1.6m-1.1,0h-1.6m-1.2,0h-1.5m-1.2,0h-1.5m-1.2,0h-1.6m-1.1,0h-1.6m-1.2,0h-1.5m-1.2,0h-1.6m-1.1,0h-1.6m-1.2,0h-1.5m-1.2,0H1298m-1.2,0h-1.6m-1.1,0h-1.6m-1.2,0h-1.5m-1.2,0H1287m-1.1,0h-1.6m-1.2,0h-1.5m-1.2,0h-1.5m-1.2,0h-1.6m-1.1,0h-1.6m-1.2,0h-1.5m-1.2,0h-1.6m-1.1,0h-1.6m-1.2,0h-1.5m-1.2,0h-1.5m-1.2,0H1257m-1.1,0h-1.6m-1.2,0h-1.5m-1.2,0h-1.6m-1.1,0h-1.6m-1.2,0h-1.5m-1.2,0h-1.5m-1.2,0h-1.6m-1.1,0h-1.6m-1.2,0h-1.5m-1.2,0h-1.6m-1.1,0H1227m-1.1,0h-1.6m-1.2,0h-1.5m-1.2,0h-1.6m-1.1,0h-1.6m-1.2,0h-1.5m-1.2,0h-1.6m-1.1,0h-1.6m-1.1,0h-1.6m-1.2,0h-1.5m-1.2,0h-1.6m-1.1,0H1197m-1.2,0h-1.5m-1.2,0h-1.5m-1.2,0h-1.6m-1.1,0h-1.6m-1.2,0h-1.5m-1.2,0h-1.6m-1.1,0h-1.6m-1.2,0h-1.5m-1.2,0h-1.5m-1.2,0h-1.6m-1.1,0H1167m-1.2,0h-1.5m-1.2,0h-1.6m-1.1,0h-1.6m-1.2,0h-1.5m-1.2,0h-1.5m-1.2,0h-1.6m-1.1,0h-1.6m-1.2,0h-1.5m-1.2,0h-1.6m-1.1,0h-1.6m-1.2,0H1137m-1.2,0h-1.5m-1.2,0h-1.6m-1.1,0h-1.6m-1.2,0h-1.5m-1.2,0h-1.6m-1.1,0h-1.6m-1.2,0h-1.5m-1.2,0h-1.5m-1.2,0h-1.6m-1.1,0h-1.6m-1.2,0H1107m-1.2,0h-1.6m-1.1,0h-1.6m-1.2,0h-1.5m-1.2,0h-1.5m-1.2,0h-1.6m-1.1,0h-1.6m-1.2,0h-1.5m-1.2,0h-1.6m-1.1,0h-1.6m-1.2,0h-1.5m-1.2,0H1077m-1.2,0h-1.6m-1.1,0h-1.6m-1.2,0h-1.5m-1.2,0H1066m-1.1,0h-1.6m-1.2,0h-1.5m-1.2,0h-1.5m-1.2,0h-1.6m-1.1,0h-1.6m-1.2,0h-1.5m-1.2,0h-1.6m-1.1,0h-1.6m-1.1,0h-1.6m-1.2,0h-1.5m-1.2,0H1036m-1.1,0h-1.6m-1.2,0h-1.5m-1.2,0h-1.5m-1.2,0h-1.6m-1.1,0h-1.6m-1.2,0h-1.5m-1.2,0h-1.6m-1.1,0h-1.6m-1.2,0h-1.5m-1.2,0h-1.5m-1.2,0H1006m-1.1,0h-1.6m-1.2,0h-1.5m-1.2,0h-1.6m-1.1,0h-1.6m-1.2,0h-1.5m-1.2,0h-1.5m-1.2,0h-1.6m-1.1,0h-1.6m-1.2,0h-1.5m-1.2,0h-1.6m-1.1,0H976m-1.2,0h-1.5m-1.2,0h-1.5m-1.2,0h-1.6m-1.1,0h-1.6m-1.2,0h-1.5m-1.2,0h-1.6m-1.1,0h-1.6m-1.2,0h-1.5m-1.2,0h-1.5m-1.2,0h-1.6m-1.1,0H946m-1.2,0h-1.5m-1.2,0h-1.6m-1.1,0h-1.6m-1.2,0h-1.5m-1.2,0h-1.5m-1.2,0h-1.6m-1.1,0h-1.6m-1.2,0h-1.5m-1.2,0h-1.6m-1.1,0h-1.6m-1.2,0H916m-1.2,0h-1.5m-1.2,0h-1.6m-1.1,0h-1.6m-1.2,0h-1.5m-1.2,0h-1.6m-1.1,0h-1.6m-1.2,0h-1.5m-1.2,0h-1.5m-1.2,0h-1.6m-1.1,0h-1.6m-1.2,0H886m-1.2,0h-1.6m-1.1,0h-1.6m-1.1,0h-1.6m-1.2,0h-1.5m-1.2,0h-1.6m-1.1,0h-1.6m-1.2,0h-1.5m-1.2,0h-1.6m-1.1,0h-1.6m-1.1,0h-1.6m-1.2,0H856m-1.2,0h-1.6m-1.1,0h-1.6m-1.2,0h-1.5m-1.2,0h-1.5m-1.2,0h-1.6m-1.1,0h-1.6m-1.2,0h-1.5m-1.2,0h-1.6m-1.1,0h-1.6m-1.2,0h-1.5m-1.2,0H826m-1.2,0h-1.6m-1.1,0h-1.6m-1.2,0h-1.5m-1.2,0H815m-1.1,0h-1.6m-1.2,0h-1.5m-1.2,0h-1.5m-1.2,0h-1.6m-1.1,0h-1.6m-1.2,0h-1.5m-1.2,0h-1.6m-1.1,0h-1.6m-1.2,0h-1.5m-1.2,0h-1.5m-1.2,0H785m-1.1,0h-1.6m-1.2,0h-1.5m-1.2,0h-1.6m-1.1,0h-1.6m-1.2,0h-1.5m-1.2,0h-1.5m-1.2,0h-1.6m-1.1,0h-1.6m-1.2,0h-1.5m-1.2,0h-1.6m-1.1,0H755m-1.2,0h-.9M751.6,349.9H750m-1.2,0h-1.5m-1.2,0h-1.6m-1.1,0h-1.6m-1.2,0h-1.5m-1.2,0h-1.5m-1.2,0h-1.6m-1.1,0h-1.6m-1.2,0h-1.5m-1.2,0h-1.6m-1.1,0h-1.6m-1.2,0H720m-1.2,0h-1.5m-1.2,0h-1.6m-1.1,0h-1.6m-1.2,0h-1.5m-1.2,0h-1.6m-1.1,0h-1.6m-1.2,0h-1.5m-1.2,0h-1.5m-1.2,0h-1.6m-1.1,0h-1.6m-1.2,0H690m-1.2,0h-1.6m-1.1,0h-1.6m-1.2,0h-1.5m-1.2,0h-1.5m-1.2,0h-1.6m-1.1,0h-1.6m-1.2,0h-1.5m-1.2,0h-1.6m-1.1,0h-1.6m-1.2,0h-1.5m-1.2,0H660m-1.2,0h-1.6m-1.1,0h-1.6m-1.2,0h-1.5m-1.2,0H649m-1.1,0h-1.6m-1.2,0h-1.5m-1.2,0h-1.5m-1.2,0h-1.6m-1.1,0h-1.6m-1.2,0h-1.5m-1.2,0h-1.6m-1.1,0h-1.6m-1.2,0h-1.5m-1.2,0h-1.5m-1.2,0H619m-1.1,0h-1.6m-1.2,0h-1.5m-1.2,0h-1.6m-1.1,0h-1.6m-1.2,0h-1.5m-1.2,0h-1.5m-1.2,0h-1.6m-1.1,0h-1.6m-1.2,0h-1.5m-1.2,0h-1.6m-1.1,0H589m-1.1,0h-1.6m-1.2,0h-1.5m-1.2,0h-1.6m-1.1,0h-1.6m-1.2,0h-1.5m-1.2,0h-1.6m-1.1,0h-1.6m-1.1,0h-1.6m-1.2,0h-1.5m-1.2,0h-1.6m-1.1,0H559m-1.2,0h-1.5m-1.2,0h-1.5m-1.2,0h-1.6m-1.1,0h-1.6m-1.2,0h-1.5m-1.2,0h-1.6m-1.1,0h-1.6m-1.2,0h-1.5m-1.2,0h-1.5m-1.2,0h-1.6m-1.1,0H529m-1.2,0h-1.5m-1.2,0h-1.6m-1.1,0h-1.6m-1.2,0h-1.5m-1.2,0h-1.5m-1.2,0h-1.6m-1.1,0h-1.6m-1.2,0h-1.5m-1.2,0h-1.6m-1.1,0h-1.6m-1.2,0H499m-1.2,0h-1.5m-1.2,0h-1.6m-1.1,0h-1.6m-1.2,0h-1.5m-1.2,0h-1.6m-1.1,0h-1.6m-1.2,0h-1.5m-1.2,0h-1.5m-1.2,0h-1.6m-1.1,0h-1.6m-1.2,0H469m-1.2,0h-1.6m-1.1,0h-1.6m-1.2,0h-1.5m-1.2,0h-1.5m-1.2,0h-1.6m-1.1,0h-1.6m-1.2,0h-1.5m-1.2,0h-1.6m-1.1,0h-1.6m-1.2,0h-1.5m-1.2,0H439m-1.2,0h-1.6m-1.1,0h-1.6m-1.2,0h-1.5m-1.2,0H428m-1.1,0h-1.6m-1.2,0h-1.5m-1.2,0h-1.5m-1.2,0h-1.6m-1.1,0h-1.6m-1.2,0h-1.5m-1.2,0h-1.6m-1.1,0h-1.6m-1.1,0h-1.6m-1.2,0h-1.5m-1.2,0H398m-1.1,0h-1.6m-1.2,0h-1.5m-1.2,0h-1.5m-1.2,0h-1.6m-1.1,0h-1.6m-1.2,0h-1.5m-1.2,0h-1.6m-1.1,0h-1.6m-1.2,0h-1.5m-1.2,0h-1.5m-1.2,0H368m-1.1,0h-1.6m-1.2,0h-1.5m-1.2,0h-1.6m-1.1,0h-1.6m-1.2,0h-1.5m-1.2,0h-1.5m-1.2,0h-1.6m-1.1,0h-1.6m-1.2,0h-1.5m-1.2,0h-1.6m-1.1,0H338m-1.2,0h-1.5m-1.2,0h-1.5m-1.2,0h-1.6m-1.1,0h-1.6m-1.2,0h-1.5m-1.2,0h-1.6m-1.1,0h-1.6m-1.2,0h-1.5m-1.2,0h-1.5m-1.2,0h-1.6m-1.1,0H308m-1.2,0h-1.5m-1.2,0h-1.6m-1.1,0h-1.6m-1.2,0h-1.5m-1.2,0h-1.5m-1.2,0h-1.6m-1.1,0h-1.6m-1.2,0h-1.5m-1.2,0h-1.6m-1.1,0h-1.6m-1.2,0H278m-1.2,0h-1.5m-1.2,0h-1.6m-1.1,0h-1.6m-1.2,0h-1.5m-1.2,0h-1.6m-1.1,0h-1.6m-1.2,0h-1.5m-1.2,0h-1.5m-1.2,0h-1.6m-1.1,0h-1.6m-1.2,0H248m-1.2,0h-1.6m-1.1,0h-1.6m-1.1,0h-1.6m-1.2,0h-1.5m-1.2,0h-1.6m-1.1,0h-1.6m-1.2,0h-1.5m-1.2,0h-1.6m-1.1,0h-1.6m-1.1,0h-1.6m-1.2,0H218m-1.2,0h-1.6m-1.1,0h-1.6m-1.2,0h-1.5m-1.2,0h-1.5m-1.2,0h-1.6m-1.1,0h-1.6m-1.2,0h-1.5m-1.2,0h-1.6m-1.1,0h-1.6m-1.2,0h-1.5m-1.2,0H188m-1.2,0h-1.6m-1.1,0h-1.6m-1.2,0h-1.5m-1.2,0H177m-1.1,0h-1.6m-1.2,0h-1.5m-1.2,0h-1.5m-1.2,0h-1.6m-1.1,0h-1.6m-1.2,0h-1.5m-1.2,0h-1.6m-1.1,0h-1.6m-1.2,0h-1.5m-1.2,0h-1.5m-1.2,0H147m-1.1,0h-1.6m-1.2,0h-1.5m-1.2,0h-1.6m-1.1,0h-1.6m-1.2,0h-1.5m-1.2,0h-1.5m-1.2,0h-1.6m-1.1,0h-1.6m-1.2,0h-1.5m-1.2,0h-1.6m-1.1,0H117m-1.2,0h-1.5m-1.2,0h-1.5m-1.2,0h-1.6m-1.1,0h-1.6m-1.2,0h-1.5m-1.2,0h-1.6m-1.1,0H97.9m-1.2,0H95.2m-1.2,0H92.5m-1.2,0H89.7m-1.1,0H87m-1.2,0H84.3m-1.2,0H81.5m-1.1,0H78.8m-1.2,0H76.1m-1.2,0H73.4m-1.2,0H70.6m-1.1,0H67.9m-1.2,0H65.2m-.8,-.3V348m0,-1.2v-1.5m0,-1.2v-1.5m0,-1.2v-1.6m0,-1.1v-1.6m0,-1.2v-1.5m0,-1.2v-1.6m0,-1.1v-1.6m0,-1.2v-1.5m0,-1.2v-1.5m0,-1.2v-1.6m0,-1.1V318m0,-1.2v-1.5m0,-1.2v-1.6m0,-1.1v-1.6m0,-1.2v-1.5m0,-1.2v-1.5m0,-1.2v-1.6m0,-1.1v-1.6m0,-1.2v-1.5m0,-1.2v-1.6m0,-1.1v-1.6m0,-1.1V288m0,-1.2v-1.5m0,-1.2v-1.6m0,-1.1v-1.6m0,-1.2v-1.5m0,-1.2v-1.5m0,-1.2v-1.6m0,-1.1v-1.6m0,-1.2v-1.5m0,-1.2v-1.6m0,-1.1v-1.6m0,-1.2V258m0,-1.2v-1.5m0,-1.2v-1.6m0,-1.1v-1.6m0,-1.2v-1.5m0,-1.2v-1.6m0,-1.1v-1.6m0,-1.2v-1.5m0,-1.2v-1.5m0,-1.2v-1.6m0,-1.1v-1.6m0,-1.2v-.8h.7m1.2,0h1.5m1.2,0h1.5m1.2,0h1.6m1.1,0H76m1.2,0h1.5m1.2,0h1.6m1.1,0h1.6m1.2,0h1.5m1.2,0h1.5m1.2,0h1.6m1.1,0h1.6m1.2,0h1.5m1.2,0h1.6m1.1,0h1.6m1.2,0H106m1.2,0h1.5m1.2,0h1.6m1.1,0h1.6m1.2,0h1.5m1.2,0h1.6m1.1,0h1.6m1.2,0h1.5m1.2,0h1.5m1.2,0h1.6m1.1,0h1.6m1.2,0H136m1.2,0h1.6m1.1,0h1.6m1.2,0h1.5m1.2,0h1.5m1.2,0h1.6m1.1,0h1.6m1.2,0h1.5m1.2,0h1.6m1.1,0h1.6m1.2,0h1.5m1.2,0H166m1.2,0h1.6m1.1,0h1.6m1.2,0h1.5m1.2,0H177m1.1,0h1.6m1.2,0h1.5m1.2,0h1.5m1.2,0h1.6m1.1,0h1.6m1.2,0h1.5m1.2,0h1.6m1.1,0h1.6m1.1,0h1.6m1.2,0h1.5m1.2,0H207m1.1,0h1.6m1.2,0h1.5m1.2,0h1.5m1.2,0h1.6m1.1,0h1.6m1.2,0h1.5m1.2,0h1.6m1.1,0h1.6m1.2,0h1.5m1.2,0h1.5m1.2,0H237m1.1,0h1.6m1.2,0h1.5m1.2,0h1.6m1.1,0h1.6m1.2,0h1.5m1.2,0h1.5m1.2,0h1.6m1.1,0h1.6m1.2,0h1.5m1.2,0h1.6m1.1,0H267m1.2,0h1.5m1.2,0h1.5m1.2,0h1.6m1.1,0h1.6m1.2,0h1.5m1.2,0h1.6m1.1,0h1.6m1.2,0h1.5m1.2,0h1.5m1.2,0h1.6m1.1,0H297m1.2,0h1.5m1.2,0h1.6m1.1,0h1.6m1.2,0h1.5m1.2,0h1.5m1.2,0h1.6m1.1,0h1.6m1.2,0h1.5m1.2,0h1.6m1.1,0h1.6m1.2,0H327m1.2,0h1.5m1.2,0h1.6m1.1,0h1.6m1.2,0h1.5m1.2,0h1.6m1.1,0h1.6m1.2,0h1.5m1.2,0h1.5m1.2,0h1.6m1.1,0h1.6m1.2,0H357m1.2,0h1.6m1.1,0h1.6m1.1,0h1.6m1.2,0h1.5m1.2,0h1.6m1.1,0h1.6m1.2,0h1.5m1.2,0h1.6m1.1,0h1.6m1.1,0h1.6m1.2,0H387m1.2,0h1.6m1.1,0h1.6m1.2,0h1.5m1.2,0h1.5m1.2,0h1.6m1.1,0h1.6m1.2,0h1.5m1.2,0h1.6m1.1,0h1.6m1.2,0h1.5m1.2,0H417m1.2,0h1.6m1.1,0h1.6m1.2,0h1.5m1.2,0H428m1.1,0h1.6m1.2,0h1.5m1.2,0h1.5m1.2,0h1.6m1.1,0h1.6m1.2,0h1.5m1.2,0h1.6m1.1,0h1.6m1.2,0h1.5m1.2,0h1.5m1.2,0H458m1.1,0h1.6m1.2,0h1.5m1.2,0h1.6m1.1,0h1.6m1.2,0h1.5m1.2,0h1.5m1.2,0h1.6m1.1,0h1.6m1.2,0h1.5m1.2,0h1.6m1.1,0H488m1.2,0h1.5m1.2,0h1.5m1.2,0h1.6m1.1,0h1.6m1.2,0h1.5m1.2,0h1.6m1.1,0h1.6m1.2,0h1.5m1.2,0h1.5m1.2,0h1.6m1.1,0H518m1.2,0h1.5m1.2,0h1.6m1.1,0h1.6m1.2,0h1.5m1.2,0h1.5m1.2,0h1.6m1.1,0h1.6m1.2,0h1.5m1.2,0h1.6m1.1,0h1.6m1.1,0H548m1.2,0h1.5m1.2,0h1.6m1.1,0h1.6m1.2,0h1.5m1.2,0h1.5m1.2,0h1.6m1.1,0h1.6m1.2,0h1.5m1.2,0h1.6m1.1,0h1.6m1.2,0H578m1.2,0h1.5m1.2,0h1.6m1.1,0h1.6m1.2,0h1.5m1.2,0h1.6m1.1,0h1.6m1.2,0h1.5m1.2,0h1.5m1.2,0h1.6m1.1,0h1.6m1.2,0H608m1.2,0h1.6m1.1,0h1.6m1.2,0h1.5m1.2,0h1.5m1.2,0h1.6m1.1,0h1.6m1.2,0h1.5m1.2,0h1.6m1.1,0h1.6m1.2,0h1.5m1.2,0H638m1.2,0h1.6m1.1,0h1.6m1.2,0h1.5m1.2,0H649m1.1,0h1.6m1.2,0h1.5m1.2,0h1.5m1.2,0h1.6m1.1,0h1.6m1.2,0h1.5m1.2,0h1.6m1.1,0h1.6m1.2,0h1.5m1.2,0h1.5m1.2,0H679m1.1,0h1.6m1.2,0h1.5m1.2,0h1.6m1.1,0h1.6m1.2,0h1.5m1.2,0h1.5m1.2,0h1.6m1.1,0h1.6m1.2,0h1.5m1.2,0h1.6m1.1,0H709m1.1,0h1.6m1.2,0h1.5m1.2,0h1.6m1.1,0h1.6m1.2,0h1.5m1.2,0h1.6m1.1,0h1.6m1.1,0h1.6m1.2,0h1.5m1.2,0h1.6m1.1,0H739m1.2,0h1.5m1.2,0h1.5m1.2,0h1.6m1.1,0h1.6m1.2,0h1.5m1.2,0h1.6m1.1,0h1.6m1.2,0h1.5m1.2,0h1.5m1.2,0h1.6m1.1,0H769m1.2,0h1.5m1.2,0h1.6m1.1,0h1.6m1.2,0h1.5m1.2,0h1.5m1.2,0h1.6m1.1,0h1.6m1.2,0h1.5m1.2,0h1.6m1.1,0h1.6m1.2,0H799m1.2,0h1.5m1.2,0h1.6m1.1,0h1.6m1.2,0h1.5m1.2,0h1.6m1.1,0h1.6m1.2,0h1.5m1.2,0h1.5m1.2,0h1.6m1.1,0h1.6m1.2,0H829m1.2,0h1.6m1.1,0h1.6m1.2,0h1.5m1.2,0h1.5m1.2,0h1.6m1.1,0h1.6m1.2,0h1.5m1.2,0h1.6m1.1,0h1.6m1.2,0h1.5m1.2,0H859m1.2,0h1.6m1.1,0h1.6m1.2,0h1.5m1.2,0H870m1.1,0h1.6m1.2,0h1.5m1.2,0h1.5m1.2,0h1.6m1.1,0h1.6m1.2,0h1.5m1.2,0h1.6m1.1,0h1.6m1.1,0h1.6m1.2,0h1.5m1.2,0H900m1.1,0h1.6m1.2,0h1.5m1.2,0h1.5m1.2,0h1.6m1.1,0h1.6m1.2,0h1.5m1.2,0h1.6m1.1,0h1.6m1.2,0h1.5m1.2,0h1.5m1.2,0H930m1.1,0h1.6m1.2,0h1.5m1.2,0h1.6m1.1,0h1.6m1.2,0h1.5m1.2,0h1.5m1.2,0h1.6m1.1,0h1.6m1.2,0h1.5m1.2,0h1.6m1.1,0H960m1.2,0h1.5m1.2,0h1.5m1.2,0h1.6m1.1,0h1.6m1.2,0h1.5m1.2,0h1.6m1.1,0h1.6m1.2,0h1.5m1.2,0h1.5m1.2,0h1.6m1.1,0H990m1.2,0h1.5m1.2,0h1.6m1.1,0h1.6m1.2,0h1.5m1.2,0h1.5m1.2,0h1.6m1.1,0h1.6m1.2,0h1.5m1.2,0h1.6m1.1,0h1.6m1.2,0h1.5m1.2,0h1.5m1.2,0h1.6m1.1,0h1.6m1.2,0h1.5m1.2,0h1.6m1.1,0h1.6m1.2,0h1.5m1.2,0h1.5m1.2,0h1.6m1.1,0h1.6m1.2,0h1.5m1.2,0h1.6m1.1,0h1.6m1.1,0h1.6m1.2,0h1.5m1.2,0h1.6m1.1,0h1.6m1.2,0h1.5m1.2,0h1.6m1.1,0h1.6m1.1,0h1.6m1.2,0h1.5m1.2,0h1.6m1.1,0h1.6m1.2,0h1.5m1.2,0h1.5m1.2,0h1.6m1.1,0h1.6m1.2,0h1.5m1.2,0h1.6m1.1,0h1.6m1.2,0h1.5m1.2,0h1.5m1.2,0h1.6m1.1,0h1.6m1.2,0h1.5m1.2,0h1.6m1.1,0h1.6m1.2,0h1.5m1.2,0h1.5m1.2,0h1.6m1.1,0h1.6m1.2,0h1.5m1.2,0h1.6m1.1,0h1.6m1.2,0h1.5m1.2,0h1.5m1.2,0h1.6m1.1,0h1.6m1.2,0h1.5m1.2,0h1.6m1.1,0h1.6m1.2,0h1.5m1.2,0h1.5m1.2,0h1.6m1.1,0h1.6m1.2,0h1.5m1.2,0h1.6m1.1,0h1.6m1.2,0h1.5m1.2,0h1.5m1.2,0h1.6m1.1,0h1.6m1.2,0h1.5m1.2,0h1.6m1.1,0h1.6m1.2,0h1.5m1.2,0h1.5m1.2,0h1.6m1.1,0h1.6m1.2,0h1.5m1.2,0h1.6m1.1,0h1.6m1.2,0h1.5m1.2,0h1.5m1.2,0h1.6m1.1,0h1.6m1.2,0h1.5m1.2,0h1.6m1.1,0h1.6m1.1,0h1.6m1.2,0h1.5m1.2,0h1.6m1.1,0h1.6m1.2,0h1.5m1.2,0h1.5m1.2,0h1.6m1.1,0h1.6m1.2,0h1.5m1.2,0h1.6m1.1,0h1.6m1.2,0h1.5m1.2,0h1.5m1.2,0h1.6m1.1,0h1.6m1.2,0h1.5m1.2,0h1.6m1.1,0h1.6m1.2,0h1.5m1.2,0h1.5m1.2,0h1.6m1.1,0h1.6m1.2,0h1.5m1.2,0h1.6m1.1,0h1.6m1.2,0h1.5m1.2,0h1.5m1.2,0h1.6m1.1,0h1.6m1.2,0h1.5m1.2,0h1.6m1.1,0h1.6m1.2,0h1.5m1.2,0h1.5m1.2,0h1.6m1.1,0h1.6m1.2,0h1.5m1.2,0h1.6m1.1,0h1.6m1.2,0h1.5m1.2,0h1.5m1.2,0h1.6m1.1,0h1.6m1.2,0h1.5m1.2,0h1.6m1.1,0h1.6m1.2,0h1.5m1.2,0h1.5m1.2,0h1.6m1.1,0h1.6m1.2,0h1.5m1.2,0h1.6m1.1,0h1.6m1.2,0h1.5m1.2,0h1.5m1.2,0h1.6m1.1,0h1.6m1.2,0h1.5m1.2,0h1.6m1.1,0h1.6m1.1,0h1.6m1.2,0h1.5m1.2,0h1.6m1.1,0h1.6m1.2,0h1.5m1.2,0h1.6m1.1,0h1.6m1.1,0h1.6m1.2,0h1.5m1.2,0h1.6m1.1,0h1.6m1.2,0h1.5m1.2,0h1.5m1.2,0h.1v1.4m0,1.2v1.6m0,1.1v1.6m0,1.2v1.5m0,1.2V241m0,1.2v1.6m0,1.1v1.6m0,1.2v1.5m0,1.2V252m0,1.1v1.6m0,1.2v1.5m0,1.2v1.5m0,1.2v1.6m0,1.1v1.6m0,1.2v1.5m0,1.2v1.6m0,1.1v1.6m0,1.2v1.5m0,1.2v1.5m0,1.2V282m0,1.1v1.6m0,1.2v1.5m0,1.2v1.6m0,1.1v1.6m0,1.2v1.5m0,1.2v1.5m0,1.2v1.6m0,1.1v1.6m0,1.2v1.5m0,1.2v1.6m0,1.1V312m0,1.2v1.5m0,1.2v1.5m0,1.2v1.6m0,1.1v1.6m0,1.2v1.5m0,1.2v1.6m0,1.1v1.6m0,1.2v1.5m0,1.2v1.5m0,1.2v1.6m0,1.1V342m0,1.2v1.5m0,1.2v1.6m0,1.1v1.3h-.2m-1.2,0h-1.5m-1.2,0H1433m-1.1,0h-1.6m-1.2,0h-1.5m-1.2,0h-1.6m-1.1,0h-1.6m-1.2,0h-1.5m-1.2,0h-1.5m-1.2,0h-1.6m-1.1,0h-1.6m-1.2,0h-1.5m-1.2,0h-1.6m-1.1,0H1403m-1.1,0h-1.6m-1.2,0h-1.5m-1.2,0h-1.6m-1.1,0h-1.6m-1.2,0h-1.5m-1.2,0h-1.6m-1.1,0h-1.6m-1.1,0h-1.6m-1.2,0h-1.5m-1.2,0h-1.6m-1.1,0H1373m-1.2,0h-1.5m-1.2,0h-1.5m-1.2,0h-1.6m-1.1,0h-1.6m-1.2,0h-1.5m-1.2,0h-1.6m-1.1,0h-1.6m-1.2,0h-1.5m-1.2,0h-1.5m-1.2,0h-1.6m-1.1,0H1343m-1.2,0h-1.5m-1.2,0h-1.6m-1.1,0h-1.6m-1.2,0h-1.5m-1.2,0h-1.5m-1.2,0h-1.6m-1.1,0h-1.6m-1.2,0h-1.5m-1.2,0h-1.6m-1.1,0h-1.6m-1.2,0H1313m-1.2,0h-1.5m-1.2,0h-1.6m-1.1,0h-1.6m-1.2,0h-1.5m-1.2,0h-1.6m-1.1,0h-1.6m-1.2,0h-1.5m-1.2,0h-1.5m-1.2,0h-1.6m-1.1,0h-1.6m-1.2,0H1283m-1.2,0h-1.6m-1.1,0h-1.6m-1.2,0h-1.5m-1.2,0h-1.5m-1.2,0h-1.6m-1.1,0h-1.6m-1.2,0h-1.5m-1.2,0h-1.6m-1.1,0h-1.6m-1.2,0h-1.5m-1.2,0H1253m-1.2,0h-1.6m-1.1,0h-1.6m-1.2,0h-1.5m-1.2,0H1242m-1.1,0h-1.6m-1.2,0h-1.5m-1.2,0h-1.5m-1.2,0h-1.6m-1.1,0h-1.6m-1.2,0h-1.5m-1.2,0h-1.6m-1.1,0h-1.6m-1.1,0h-1.6m-1.2,0h-1.5m-1.2,0H1212m-1.1,0h-1.6m-1.2,0h-1.5m-1.2,0h-1.5m-1.2,0h-1.6m-1.1,0h-1.6m-1.2,0h-1.5m-1.2,0h-1.6m-1.1,0h-1.6m-1.2,0h-1.5m-1.2,0h-1.5m-1.2,0H1182m-1.1,0h-1.6m-1.2,0h-1.5m-1.2,0h-1.6m-1.1,0h-1.6m-1.2,0h-1.5m-1.2,0h-1.5m-1.2,0h-1.6m-1.1,0h-1.6m-1.2,0h-1.5m-1.2,0h-1.6m-1.1,0H1152m-1.2,0h-1.5m-1.2,0h-1.5m-1.2,0h-1.6m-1.1,0h-1.6m-1.2,0h-1.5m-1.2,0h-1.6m-1.1,0h-1.6m-1.2,0h-1.5m-1.2,0h-1.5m-1.2,0h-1.6m-1.1,0H1122m-1.2,0h-1.5m-1.2,0h-1.6m-1.1,0h-1.6m-1.2,0h-1.5m-1.2,0h-1.5m-1.2,0h-1.6m-1.1,0h-1.6m-1.2,0h-1.5m-1.2,0h-1.6m-1.1,0h-1.6m-1.2,0H1092m-1.2,0h-1.5m-1.2,0h-1.6m-1.1,0h-1.6m-1.2,0h-1.5m-1.2,0h-1.6m-1.1,0h-1.6m-1.2,0h-1.5m-1.2,0h-1.5m-1.2,0h-1.6m-1.1,0h-1.6m-1.2,0H1062m-1.2,0h-1.6m-1.1,0h-1.6m-1.1,0h-1.6m-1.2,0h-1.5m-1.2,0h-1.6m-1.1,0h-1.6m-1.2,0h-1.5m-1.2,0h-1.6m-1.1,0h-1.6m-1.1,0h-1.6m-1.2,0H1032m-1.2,0h-1.6m-1.1,0h-1.6m-1.2,0h-1.5m-1.2,0h-1.5m-1.2,0h-1.6m-1.1,0h-1.6m-1.2,0h-1.5m-1.2,0h-1.6m-1.1,0h-1.6m-1.2,0h-1.5m-1.2,0H1002m-1.2,0h-1.6m-1.1,0h-1.6m-1.2,0h-1.5m-1.2,0H991m-1.1,0h-1.6m-1.2,0h-1.5m-1.2,0h-1.5m-1.2,0h-1.6m-1.1,0h-1.6m-1.2,0h-1.5m-1.2,0h-1.6m-1.1,0h-1.6m-1.2,0h-1.5m-1.2,0h-1.5m-1.2,0H961m-1.1,0h-1.6m-1.2,0h-1.5m-1.2,0h-1.6m-1.1,0h-1.6m-1.2,0h-1.5m-1.2,0h-1.5m-1.2,0h-1.6m-1.1,0h-1.6m-1.2,0h-1.5m-1.2,0h-1.6m-1.1,0H931m-1.2,0h-1.5m-1.2,0h-1.5m-1.2,0h-1.6m-1.1,0h-1.6m-1.2,0h-1.5m-1.2,0h-1.6m-1.1,0h-1.6m-1.2,0h-1.5m-1.2,0h-1.5m-1.2,0h-1.6m-1.1,0H901m-1.2,0h-1.5m-1.2,0h-1.6m-1.1,0h-1.6m-1.2,0h-1.5m-1.2,0h-1.5m-1.2,0h-1.6m-1.1,0h-1.6m-1.2,0h-1.5m-1.2,0h-1.6m-1.1,0h-1.6m-1.1,0H871m-1.2,0h-1.5m-1.2,0h-1.6m-1.1,0h-1.6m-1.2,0h-1.5m-1.2,0h-1.5m-1.2,0h-1.6m-1.1,0h-1.6m-1.2,0h-1.5m-1.2,0h-1.6m-1.1,0h-1.6m-1.2,0H841m-1.2,0h-1.5m-1.2,0h-1.6m-1.1,0h-1.6m-1.2,0h-1.5m-1.2,0h-1.6m-1.1,0h-1.6m-1.2,0h-1.5m-1.2,0h-1.5m-1.2,0h-1.6m-1.1,0h-1.6m-1.2,0H811m-1.2,0h-1.6m-1.1,0h-1.6m-1.2,0h-1.5m-1.2,0h-1.5m-1.2,0h-1.6m-1.1,0h-1.6m-1.2,0h-1.5m-1.2,0h-1.6m-1.1,0h-1.6m-1.2,0h-1.5m-1.2,0H781m-1.2,0h-1.6m-1.1,0h-1.6m-1.2,0h-1.5m-1.2,0H770m-1.1,0h-1.6m-1.2,0h-1.5m-1.2,0h-1.5m-1.2,0h-1.6m-1.1,0h-1.6m-1.2,0h-1.5m-1.2,0h-.9m0,-126.7H750m-1.2,0h-1.5m-1.2,0h-1.6m-1.1,0h-1.6m-1.2,0h-1.5m-1.2,0h-1.5m-1.2,0h-1.6m-1.1,0h-1.6m-1.2,0h-1.5m-1.2,0h-1.6m-1.1,0h-1.6m-1.2,0H720m-1.2,0h-1.5m-1.2,0h-1.6m-1.1,0h-1.6m-1.2,0h-1.5m-1.2,0h-1.6m-1.1,0h-1.6m-1.2,0h-1.5m-1.2,0h-1.5m-1.2,0h-1.6m-1.1,0h-1.6m-1.2,0H690m-1.2,0h-1.6m-1.1,0h-1.6m-1.2,0h-1.5m-1.2,0h-1.5m-1.2,0h-1.6m-1.1,0h-1.6m-1.2,0h-1.5m-1.2,0h-1.6m-1.1,0h-1.6m-1.2,0h-1.5m-1.2,0H660m-1.2,0h-1.6m-1.1,0h-1.6m-1.2,0h-1.5m-1.2,0H649m-1.1,0h-1.6m-1.2,0h-1.5m-1.2,0h-1.5m-1.2,0h-1.6m-1.1,0h-1.6m-1.2,0h-1.5m-1.2,0h-1.6m-1.1,0h-1.6m-1.2,0h-1.5m-1.2,0h-1.5m-1.2,0H619m-1.1,0h-1.6m-1.2,0h-1.5m-1.2,0h-1.6m-1.1,0h-1.6m-1.2,0h-1.5m-1.2,0h-1.5m-1.2,0h-1.6m-1.1,0h-1.6m-1.2,0h-1.5m-1.2,0h-1.6m-1.1,0H589m-1.1,0h-1.6m-1.2,0h-1.5m-1.2,0h-1.6m-1.1,0h-1.6m-1.2,0h-1.5m-1.2,0h-1.6m-1.1,0h-1.6m-1.1,0h-1.6m-1.2,0h-1.5m-1.2,0h-1.6m-1.1,0H559m-1.2,0h-1.5m-1.2,0h-1.5m-1.2,0h-1.6m-1.1,0h-1.6m-1.2,0h-1.5m-1.2,0h-1.6m-1.1,0h-1.6m-1.2,0h-1.5m-1.2,0h-1.5m-1.2,0h-1.6m-1.1,0H529m-1.2,0h-1.5m-1.2,0h-1.6m-1.1,0h-1.6m-1.2,0h-1.5m-1.2,0h-1.5m-1.2,0h-1.6m-1.1,0h-1.6m-1.2,0h-1.5m-1.2,0h-1.6m-1.1,0h-1.6m-1.2,0H499m-1.2,0h-1.5m-1.2,0h-1.6m-1.1,0h-1.6m-1.2,0h-1.5m-1.2,0h-1.6m-1.1,0h-1.6m-1.2,0h-1.5m-1.2,0h-1.5m-1.2,0h-1.6m-1.1,0h-1.6m-1.2,0H469m-1.2,0h-1.6m-1.1,0h-1.6m-1.2,0h-1.5m-1.2,0h-1.5m-1.2,0h-1.6m-1.1,0h-1.6m-1.2,0h-1.5m-1.2,0h-1.6m-1.1,0h-1.6m-1.2,0h-1.5m-1.2,0H439m-1.2,0h-1.6m-1.1,0h-1.6m-1.2,0h-1.5m-1.2,0H428m-1.1,0h-1.6m-1.2,0h-1.5m-1.2,0h-1.5m-1.2,0h-1.6m-1.1,0h-1.6m-1.2,0h-1.5m-1.2,0h-1.6m-1.1,0h-1.6m-1.1,0h-1.6m-1.2,0h-1.5m-1.2,0H398m-1.1,0h-1.6m-1.2,0h-1.5m-1.2,0h-1.5m-1.2,0h-1.6m-1.1,0h-1.6m-1.2,0h-1.5m-1.2,0h-1.6m-1.1,0h-1.6m-1.2,0h-1.5m-1.2,0h-1.5m-1.2,0H368m-1.1,0h-1.6m-1.2,0h-1.5m-1.2,0h-1.6m-1.1,0h-1.6m-1.2,0h-1.5m-1.2,0h-1.5m-1.2,0h-1.6m-1.1,0h-1.6m-1.2,0h-1.5m-1.2,0h-1.6m-1.1,0H338m-1.2,0h-1.5m-1.2,0h-1.5m-1.2,0h-1.6m-1.1,0h-1.6m-1.2,0h-1.5m-1.2,0h-1.6m-1.1,0h-1.6m-1.2,0h-1.5m-1.2,0h-1.5m-1.2,0h-1.6m-1.1,0H308m-1.2,0h-1.5m-1.2,0h-1.6m-1.1,0h-1.6m-1.2,0h-1.5m-1.2,0h-1.5m-1.2,0h-1.6m-1.1,0h-1.6m-1.2,0h-1.5m-1.2,0h-1.6m-1.1,0h-1.6m-1.2,0H278m-1.2,0h-1.5m-1.2,0h-1.6m-1.1,0h-1.6m-1.2,0h-1.5m-1.2,0h-1.6m-1.1,0h-1.6m-1.2,0h-1.5m-1.2,0h-1.5m-1.2,0h-1.6m-1.1,0h-1.6m-1.2,0H248m-1.2,0h-1.6m-1.1,0h-1.6m-1.1,0h-1.6m-1.2,0h-1.5m-1.2,0h-1.6m-1.1,0h-1.6m-1.2,0h-1.5m-1.2,0h-1.6m-1.1,0h-1.6m-1.1,0h-1.6m-1.2,0H218m-1.2,0h-1.6m-1.1,0h-1.6m-1.2,0h-1.5m-1.2,0h-1.5m-1.2,0h-1.6m-1.1,0h-1.6m-1.2,0h-1.5m-1.2,0h-1.6m-1.1,0h-1.6m-1.2,0h-1.5m-1.2,0H188m-1.2,0h-1.6m-1.1,0h-1.6m-1.2,0h-1.5m-1.2,0H177m-1.1,0h-1.6m-1.2,0h-1.5m-1.2,0h-1.5m-1.2,0h-1.6m-1.1,0h-1.6m-1.2,0h-1.5m-1.2,0h-1.6m-1.1,0h-1.6m-1.2,0h-1.5m-1.2,0h-1.5m-1.2,0H147m-1.1,0h-1.6m-1.2,0h-1.5m-1.2,0h-1.6m-1.1,0h-1.6m-1.2,0h-1.5m-1.2,0h-1.5m-1.2,0h-1.6m-1.1,0h-1.6m-1.2,0h-1.5m-1.2,0h-1.6m-1.1,0H117m-1.2,0h-1.5m-1.2,0h-1.5m-1.2,0h-1.6m-1.1,0h-1.6m-1.2,0h-1.5m-1.2,0h-1.6m-1.1,0H97.9m-1.2,0H95.2m-1.2,0H92.5m-1.2,0H89.7m-1.1,0H87m-1.2,0H84.3m-1.2,0H81.5m-1.1,0H78.8m-1.2,0H76.1m-1.2,0H73.4m-1.2,0H70.6m-1.1,0H67.9m-1.2,0H65.2m-.8,-.3v-1.6m0,-1.2v-1.5m0,-1.2v-1.6m0,-1.1v-1.6m0,-1.2v-1.5m0,-1.2v-1.5m0,-1.2v-1.6m0,-1.1v-1.6m0,-1.2v-1.5m0,-1.2v-1.6m0,-1.1V194m0,-1.2v-1.5m0,-1.2v-1.5m0,-1.2v-1.6m0,-1.1v-1.6m0,-1.2v-1.5m0,-1.2v-1.6m0,-1.1v-1.6m0,-1.2v-1.5m0,-1.2v-1.5m0,-1.2v-1.6m0,-1.1V164m0,-1.2v-1.5m0,-1.2v-1.6m0,-1.1v-1.6m0,-1.2v-1.5m0,-1.2v-1.5m0,-1.2v-1.6m0,-1.1v-1.2h.3m1.2,0h1.6m1.1,0h1.6m1.2,0h1.5m1.2,0h1.6m1.1,0h1.6m1.2,0h1.5m1.2,0h1.5m1.2,0h1.6m1.1,0h1.6m1.2,0H92m1.2,0h1.6m1.1,0h1.6m1.2,0h1.5m1.2,0h1.5m1.2,0h1.6m1.1,0h1.6m1.2,0h1.5m1.2,0h1.6m1.1,0h1.6m1.2,0h1.5m1.2,0H122m1.2,0h1.6m1.1,0h1.6m1.2,0h1.5m1.2,0H133m1.1,0h1.6m1.2,0h1.5m1.2,0h1.5m1.2,0h1.6m1.1,0h1.6m1.2,0h1.5m1.2,0h1.6m1.1,0h1.6m1.1,0h1.6m1.2,0h1.5m1.2,0H163m1.1,0h1.6m1.2,0h1.5m1.2,0h1.5m1.2,0h1.6m1.1,0h1.6m1.2,0h1.5m1.2,0h1.6m1.1,0h1.6m1.2,0h1.5m1.2,0h1.5m1.2,0H193m1.1,0h1.6m1.2,0h1.5m1.2,0h1.6m1.1,0h1.6m1.2,0h1.5m1.2,0h1.5m1.2,0h1.6m1.1,0h1.6m1.2,0h1.5m1.2,0h1.6m1.1,0H223m1.2,0h1.5m1.2,0h1.5m1.2,0h1.6m1.1,0h1.6m1.2,0h1.5m1.2,0h1.6m1.1,0h1.6m1.2,0h1.5m1.2,0h1.5m1.2,0h1.6m1.1,0H253m1.2,0h1.5m1.2,0h1.6m1.1,0h1.6m1.2,0h1.5m1.2,0h1.5m1.2,0h1.6m1.1,0h1.6m1.2,0h1.5m1.2,0h1.6m1.1,0h1.6m1.2,0H283m1.2,0h1.5m1.2,0h1.6m1.1,0h1.6m1.2,0h1.5m1.2,0h1.6m1.1,0h1.6m1.2,0h1.5m1.2,0h1.5m1.2,0h1.6m1.1,0h1.6m1.2,0H313m1.2,0h1.6m1.1,0h1.6m1.1,0h1.6m1.2,0h1.5m1.2,0h1.6m1.1,0h1.6m1.2,0h1.5m1.2,0h1.6m1.1,0h1.6m1.1,0h1.6m1.2,0H343m1.2,0h1.6m1.1,0h1.6m1.2,0h1.5m1.2,0h1.5m1.2,0h1.6m1.1,0h1.6m1.2,0h1.5m1.2,0h1.6m1.1,0h1.6m1.2,0h1.5m1.2,0H373m1.2,0h1.6m1.1,0h1.6m1.2,0h1.5m1.2,0H384m1.1,0h1.6m1.2,0h1.5m1.2,0h1.5m1.2,0h1.6m1.1,0h1.6m1.2,0h1.5m1.2,0h1.6m1.1,0h1.6m1.2,0h1.5m1.2,0h1.5m1.2,0H414m1.1,0h1.6m1.2,0h1.5m1.2,0h1.6m1.1,0h1.6m1.2,0h1.5m1.2,0h1.5m1.2,0h1.6m1.1,0h1.6m1.2,0h1.5m1.2,0h1.6m1.1,0H444m1.2,0h1.5m1.2,0h1.5m1.2,0h1.6m1.1,0h1.6m1.2,0h1.5m1.2,0h1.6m1.1,0h1.6m1.2,0h1.5m1.2,0h1.5m1.2,0h1.6m1.1,0H474m1.2,0h1.5m1.2,0h1.6m1.1,0h1.6m1.2,0h1.5m1.2,0h1.5m1.2,0h1.6m1.1,0h1.6m1.2,0h1.5m1.2,0h1.6m1.1,0h1.6m1.1,0H504m1.2,0h1.5m1.2,0h1.6m1.1,0h1.6m1.2,0h1.5m1.2,0h1.5m1.2,0h1.6m1.1,0h1.6m1.2,0h1.5m1.2,0h1.6m1.1,0h1.6m1.2,0H534m1.2,0h1.5m1.2,0h1.6m1.1,0h1.6m1.2,0h1.5m1.2,0h1.6m1.1,0h1.6m1.2,0h1.5m1.2,0h1.5m1.2,0h1.6m1.1,0h1.6m1.2,0H564m1.2,0h1.6m1.1,0h1.6m1.2,0h1.5m1.2,0h1.5m1.2,0h1.6m1.1,0h1.6m1.2,0h1.5m1.2,0h1.6m1.1,0h1.6m1.2,0h1.5m1.2,0H594m1.2,0h1.6m1.1,0h1.6m1.2,0h1.5m1.2,0H605m1.1,0h1.6m1.2,0h1.5m1.2,0h1.5m1.2,0h1.6m1.1,0h1.6m1.2,0h1.5m1.2,0h1.6m1.1,0h1.6m1.2,0h1.5m1.2,0h1.5m1.2,0H635m1.1,0h1.6m1.2,0h1.5m1.2,0h1.6m1.1,0h1.6m1.2,0h1.5m1.2,0h1.5m1.2,0h1.6m1.1,0h1.6m1.2,0h1.5m1.2,0h1.6m1.1,0H665m1.1,0h1.6m1.2,0h1.5m1.2,0h1.6m1.1,0h1.6m1.2,0h1.5m1.2,0h1.6m1.1,0h1.6m1.1,0h1.6m1.2,0h1.5m1.2,0h1.6m1.1,0H695m1.2,0h1.5m1.2,0h1.5m1.2,0h1.6m1.1,0h1.6m1.2,0h1.5m1.2,0h1.6m1.1,0h1.6m1.2,0h1.5m1.2,0h1.5m1.2,0h1.6m1.1,0H725m1.2,0h1.5m1.2,0h1.6m1.1,0h1.6m1.2,0h1.5m1.2,0h1.5m1.2,0h1.6m1.1,0h1.6m1.2,0h1.5m1.2,0h1.6m1.1,0h1.6m1.2,0H755m1.2,0h1.5m1.2,0h1.6m1.1,0h1.6m1.2,0h1.5m1.2,0h1.6m1.1,0h1.6m1.2,0h1.5m1.2,0h1.5m1.2,0h1.6m1.1,0h1.6m1.2,0H785m1.2,0h1.6m1.1,0h1.6m1.2,0h1.5m1.2,0h1.5m1.2,0h1.6m1.1,0h1.6m1.2,0h1.5m1.2,0h1.6m1.1,0h1.6m1.2,0h1.5m1.2,0H815m1.2,0h1.6m1.1,0h1.6m1.2,0h1.5m1.2,0H826m1.1,0h1.6m1.2,0h1.5m1.2,0h1.5m1.2,0h1.6m1.1,0h1.6m1.2,0h1.5m1.2,0h1.6m1.1,0h1.6m1.1,0h1.6m1.2,0h1.5m1.2,0H856m1.1,0h1.6m1.2,0h1.5m1.2,0h1.5m1.2,0h1.6m1.1,0h1.6m1.2,0h1.5m1.2,0h1.6m1.1,0h1.6m1.2,0h1.5m1.2,0h1.5m1.2,0H886m1.1,0h1.6m1.2,0h1.5m1.2,0h1.6m1.1,0h1.6m1.2,0h1.5m1.2,0h1.5m1.2,0h1.6m1.1,0h1.6m1.2,0h1.5m1.2,0h1.6m1.1,0H916m1.2,0h1.5m1.2,0h1.5m1.2,0h1.6m1.1,0h1.6m1.2,0h1.5m1.2,0h1.6m1.1,0h1.6m1.2,0h1.5m1.2,0h1.5m1.2,0h1.6m1.1,0H946m1.2,0h1.5m1.2,0h1.6m1.1,0h1.6m1.2,0h1.5m1.2,0h1.5m1.2,0h1.6m1.1,0h1.6m1.2,0h1.5m1.2,0h1.6m1.1,0h1.6m1.2,0H976m1.2,0h1.5m1.2,0h1.6m1.1,0h1.6m1.2,0h1.5m1.2,0h1.6m1.1,0h1.6m1.2,0h1.5m1.2,0h1.5m1.2,0h1.6m1.1,0h1.6m1.2,0h1.5m1.2,0h1.6m1.1,0h1.6m1.1,0h1.6m1.2,0h1.5m1.2,0h1.6m1.1,0h1.6m1.2,0h1.5m1.2,0h1.6m1.1,0h1.6m1.1,0h1.6m1.2,0h1.5m1.2,0h1.6m1.1,0h1.6m1.2,0h1.5m1.2,0h1.5m1.2,0h1.6m1.1,0h1.6m1.2,0h1.5m1.2,0h1.6m1.1,0h1.6m1.2,0h1.5m1.2,0h1.5m1.2,0h1.6m1.1,0h1.6m1.2,0h1.5m1.2,0h1.6m1.1,0h1.6m1.2,0h1.5m1.2,0h1.5m1.2,0h1.6m1.1,0h1.6m1.2,0h1.5m1.2,0h1.6m1.1,0h1.6m1.2,0h1.5m1.2,0h1.5m1.2,0h1.6m1.1,0h1.6m1.2,0h1.5m1.2,0h1.6m1.1,0h1.6m1.2,0h1.5m1.2,0h1.5m1.2,0h1.6m1.1,0h1.6m1.2,0h1.5m1.2,0h1.6m1.1,0h1.6m1.2,0h1.5m1.2,0h1.5m1.2,0h1.6m1.1,0h1.6m1.2,0h1.5m1.2,0h1.6m1.1,0h1.6m1.2,0h1.5m1.2,0h1.5m1.2,0h1.6m1.1,0h1.6m1.2,0h1.5m1.2,0h1.6m1.1,0h1.6m1.2,0h1.5m1.2,0h1.5m1.2,0h1.6m1.1,0h1.6m1.2,0h1.5m1.2,0h1.6m1.1,0h1.6m1.1,0h1.6m1.2,0h1.5m1.2,0h1.6m1.1,0h1.6m1.2,0h1.5m1.2,0h1.5m1.2,0h1.6m1.1,0h1.6m1.2,0h1.5m1.2,0h1.6m1.1,0h1.6m1.2,0h1.5m1.2,0h1.5m1.2,0h1.6m1.1,0h1.6m1.2,0h1.5m1.2,0h1.6m1.1,0h1.6m1.2,0h1.5m1.2,0h1.5m1.2,0h1.6m1.1,0h1.6m1.2,0h1.5m1.2,0h1.6m1.1,0h1.6m1.2,0h1.5m1.2,0h1.5m1.2,0h1.6m1.1,0h1.6m1.2,0h1.5m1.2,0h1.6m1.1,0h1.6m1.2,0h1.5m1.2,0h1.5m1.2,0h1.6m1.1,0h1.6m1.2,0h1.5m1.2,0h1.6m1.1,0h1.6m1.2,0h1.5m1.2,0h1.5m1.2,0h1.6m1.1,0h1.6m1.2,0h1.5m1.2,0h1.6m1.1,0h1.6m1.2,0h1.5m1.2,0h1.5m1.2,0h1.6m1.1,0h1.6m1.2,0h1.5m1.2,0h1.6m1.1,0h1.6m1.2,0h1.5m1.2,0h1.5m1.2,0h1.6m1.1,0h1.6m1.2,0h1.5m1.2,0h1.6m1.1,0h1.6m1.1,0h1.6m1.2,0h1.5m1.2,0h1.6m1.1,0h1.6m1.2,0h1.5m1.2,0h1.6m1.1,0h1.6m1.1,0h1.6m1.2,0h1.5m1.2,0h1.6m1.1,0h1.6m1.2,0h1.5m1.2,0h1.5m1.2,0h1.6m1.1,0h1.6m1.2,0h1.5m1.2,0h1.6m1.1,0h1.6m1.2,0h1.5m1.2,0h1.5m1.2,0h1.6m1.1,0h1.6m1.2,0h1.5m1.2,0h1.6m1.1,0h1.6m1.2,0h1.5m1.2,0h1.5m1.2,0h1.6m1.1,0h1.6m1.2,0h.4v1.1m0,1.1v1.6m0,1.2v1.5m0,1.2v1.6m0,1.1v1.6m0,1.2V160m0,1.2v1.5m0,1.2v1.6m0,1.1v1.6m0,1.2v1.5m0,1.2v1.6m0,1.1v1.6m0,1.2v1.5m0,1.2v1.5m0,1.2v1.6m0,1.1v1.6m0,1.2V190m0,1.2v1.6m0,1.1v1.6m0,1.2v1.5m0,1.2v1.5m0,1.2v1.6m0,1.1v1.6m0,1.2v1.5m0,1.2v1.6m0,1.1v1.6m0,1.2v1.5m0,1.2V220m0,1.2v1.6m-.7,.4h-1.5m-1.2,0h-1.6m-1.1,0H1431m-1.2,0h-1.5m-1.2,0h-1.6m-1.1,0h-1.6m-1.2,0h-1.5m-1.2,0h-1.5m-1.2,0h-1.6m-1.1,0h-1.6m-1.2,0h-1.5m-1.2,0h-1.6m-1.1,0h-1.6m-1.2,0H1401m-1.2,0h-1.5m-1.2,0h-1.6m-1.1,0h-1.6m-1.2,0h-1.5m-1.2,0h-1.6m-1.1,0h-1.6m-1.2,0h-1.5m-1.2,0h-1.5m-1.2,0h-1.6m-1.1,0h-1.6m-1.2,0H1371m-1.2,0h-1.6m-1.1,0h-1.6m-1.2,0h-1.5m-1.2,0h-1.5m-1.2,0h-1.6m-1.1,0h-1.6m-1.2,0h-1.5m-1.2,0h-1.6m-1.1,0h-1.6m-1.2,0h-1.5m-1.2,0H1341m-1.2,0h-1.6m-1.1,0h-1.6m-1.2,0h-1.5m-1.2,0H1330m-1.1,0h-1.6m-1.2,0h-1.5m-1.2,0h-1.5m-1.2,0h-1.6m-1.1,0h-1.6m-1.2,0h-1.5m-1.2,0h-1.6m-1.1,0h-1.6m-1.1,0h-1.6m-1.2,0h-1.5m-1.2,0H1300m-1.1,0h-1.6m-1.2,0h-1.5m-1.2,0h-1.5m-1.2,0h-1.6m-1.1,0h-1.6m-1.2,0h-1.5m-1.2,0h-1.6m-1.1,0h-1.6m-1.2,0h-1.5m-1.2,0h-1.5m-1.2,0H1270m-1.1,0h-1.6m-1.2,0h-1.5m-1.2,0h-1.6m-1.1,0h-1.6m-1.2,0h-1.5m-1.2,0h-1.5m-1.2,0h-1.6m-1.1,0h-1.6m-1.2,0h-1.5m-1.2,0h-1.6m-1.1,0H1240m-1.2,0h-1.5m-1.2,0h-1.5m-1.2,0h-1.6m-1.1,0h-1.6m-1.2,0h-1.5m-1.2,0h-1.6m-1.1,0h-1.6m-1.2,0h-1.5m-1.2,0h-1.5m-1.2,0h-1.6m-1.1,0H1210m-1.2,0h-1.5m-1.2,0h-1.6m-1.1,0h-1.6m-1.2,0h-1.5m-1.2,0h-1.5m-1.2,0h-1.6m-1.1,0h-1.6m-1.2,0h-1.5m-1.2,0h-1.6m-1.1,0h-1.6m-1.2,0H1180m-1.2,0h-1.5m-1.2,0h-1.6m-1.1,0h-1.6m-1.2,0h-1.5m-1.2,0h-1.6m-1.1,0h-1.6m-1.2,0h-1.5m-1.2,0h-1.5m-1.2,0h-1.6m-1.1,0h-1.6m-1.2,0H1150m-1.2,0h-1.6m-1.1,0h-1.6m-1.1,0h-1.6m-1.2,0h-1.5m-1.2,0h-1.6m-1.1,0h-1.6m-1.2,0h-1.5m-1.2,0h-1.6m-1.1,0h-1.6m-1.1,0h-1.6m-1.2,0H1120m-1.2,0h-1.6m-1.1,0h-1.6m-1.2,0h-1.5m-1.2,0h-1.5m-1.2,0h-1.6m-1.1,0h-1.6m-1.2,0h-1.5m-1.2,0h-1.6m-1.1,0h-1.6m-1.2,0h-1.5m-1.2,0H1090m-1.2,0h-1.6m-1.1,0h-1.6m-1.2,0h-1.5m-1.2,0H1079m-1.1,0h-1.6m-1.2,0h-1.5m-1.2,0h-1.5m-1.2,0h-1.6m-1.1,0h-1.6m-1.2,0h-1.5m-1.2,0h-1.6m-1.1,0h-1.6m-1.2,0h-1.5m-1.2,0h-1.5m-1.2,0H1049m-1.1,0h-1.6m-1.2,0h-1.5m-1.2,0h-1.6m-1.1,0h-1.6m-1.2,0h-1.5m-1.2,0h-1.5m-1.2,0h-1.6m-1.1,0h-1.6m-1.2,0h-1.5m-1.2,0h-1.6m-1.1,0H1019m-1.2,0h-1.5m-1.2,0h-1.5m-1.2,0h-1.6m-1.1,0h-1.6m-1.2,0h-1.5m-1.2,0h-1.6m-1.1,0h-1.6m-1.2,0h-1.5m-1.2,0h-1.5m-1.2,0h-1.6m-1.1,0H989m-1.2,0h-1.5m-1.2,0h-1.6m-1.1,0h-1.6m-1.2,0h-1.5m-1.2,0h-1.5m-1.2,0h-1.6m-1.1,0h-1.6m-1.2,0h-1.5m-1.2,0h-1.6m-1.1,0h-1.6m-1.1,0H959m-1.2,0h-1.5m-1.2,0h-1.6m-1.1,0h-1.6m-1.2,0h-1.5m-1.2,0h-1.5m-1.2,0h-1.6m-1.1,0h-1.6m-1.2,0h-1.5m-1.2,0h-1.6m-1.1,0h-1.6m-1.2,0H929m-1.2,0h-1.5m-1.2,0h-1.6m-1.1,0h-1.6m-1.2,0h-1.5m-1.2,0h-1.6m-1.1,0h-1.6m-1.2,0h-1.5m-1.2,0h-1.5m-1.2,0h-1.6m-1.1,0h-1.6m-1.2,0H899m-1.2,0h-1.6m-1.1,0h-1.6m-1.2,0h-1.5m-1.2,0h-1.5m-1.2,0h-1.6m-1.1,0h-1.6m-1.2,0h-1.5m-1.2,0h-1.6m-1.1,0h-1.6m-1.2,0h-1.5m-1.2,0H869m-1.2,0h-1.6m-1.1,0h-1.6m-1.2,0h-1.5m-1.2,0H858m-1.1,0h-1.6m-1.2,0h-1.5m-1.2,0h-1.5m-1.2,0h-1.6m-1.1,0h-1.6m-1.2,0h-1.5m-1.2,0h-1.6m-1.1,0h-1.6m-1.2,0h-1.5m-1.2,0h-1.5m-1.2,0H828m-1.1,0h-1.6m-1.2,0h-1.5m-1.2,0h-1.6m-1.1,0h-1.6m-1.2,0h-1.5m-1.2,0h-1.5m-1.2,0h-1.6m-1.1,0h-1.6m-1.2,0h-1.5m-1.2,0h-1.6m-1.1,0H798m-1.1,0h-1.6m-1.2,0h-1.5m-1.2,0h-1.6m-1.1,0h-1.6m-1.2,0h-1.5m-1.2,0h-1.6m-1.1,0h-1.6m-1.1,0h-1.6m-1.2,0h-1.5m-1.2,0h-1.6m-1.1,0H768m-1.2,0h-1.5m-1.2,0h-1.5m-1.2,0h-1.6m-1.1,0h-1.6m-1.2,0h-1.5m-1.2,0h-1.6" class="g1_11"/>
<path d="M287.7,219.4H477.6" class="g2_11"/>
<path fill-rule="evenodd" d="M1097.1,194.8c0,-.5,.1,-1,.4,-1.4c.2,-.4,.6,-.8,1,-1c.4,-.3,.9,-.4,1.4,-.4c.4,0,.9,.1,1.3,.4c.4,.2,.8,.6,1,1c.3,.4,.4,.9,.4,1.4c0,.4,-.1,.9,-.4,1.3c-.2,.4,-.6,.8,-1,1c-.4,.3,-.9,.4,-1.3,.4c-.5,0,-1,-.1,-1.4,-.4c-.4,-.2,-.8,-.6,-1,-1c-.3,-.4,-.4,-.9,-.4,-1.3Z" class="g0_11"/>
<path fill-rule="evenodd" d="M1126.9,194.8c0,-.5,.1,-1,.4,-1.4c.2,-.4,.5,-.8,1,-1c.4,-.3,.8,-.4,1.4,-.4c.4,0,.9,.1,1.3,.4c.4,.2,.8,.6,1,1c.3,.4,.4,.9,.4,1.4c0,.4,-.1,.9,-.4,1.3c-.2,.4,-.6,.8,-1,1c-.4,.3,-.9,.4,-1.3,.4c-.6,0,-1,-.1,-1.4,-.4c-.5,-.2,-.8,-.6,-1,-1c-.3,-.4,-.4,-.9,-.4,-1.3Z" class="g0_11"/>
<path fill-rule="evenodd" d="M1151.2,194.8c0,-.5,.2,-1,.4,-1.4c.2,-.4,.6,-.8,1,-1c.4,-.3,.9,-.4,1.4,-.4c.5,0,1,.1,1.3,.4c.5,.2,.8,.6,1,1c.3,.4,.4,.9,.4,1.4c0,.4,-.1,.9,-.4,1.3c-.2,.4,-.5,.8,-1,1c-.3,.3,-.8,.4,-1.3,.4c-.5,0,-1,-.1,-1.4,-.4c-.4,-.2,-.8,-.6,-1,-1c-.2,-.4,-.4,-.9,-.4,-1.3Z" class="g0_11"/>
<path fill-rule="evenodd" d="M1184.3,194.8c0,-.5,.1,-1,.4,-1.4c.2,-.4,.6,-.8,1,-1c.4,-.3,.9,-.4,1.4,-.4c.5,0,.9,.1,1.3,.4c.5,.2,.8,.6,1,1c.3,.4,.4,.9,.4,1.4c0,.4,-.1,.9,-.4,1.3c-.2,.4,-.5,.8,-1,1c-.4,.3,-.8,.4,-1.3,.4c-.5,0,-1,-.1,-1.4,-.4c-.4,-.2,-.8,-.6,-1,-1c-.3,-.4,-.4,-.9,-.4,-1.3Z" class="g0_11"/>
<path fill-rule="evenodd" d="M1229.3,194.8c0,-.5,.1,-1,.4,-1.4c.2,-.4,.5,-.8,1,-1c.3,-.3,.8,-.4,1.3,-.4c.5,0,1,.1,1.4,.4c.4,.2,.8,.6,1,1c.2,.4,.4,.9,.4,1.4c0,.4,-.2,.9,-.4,1.3c-.2,.4,-.6,.8,-1,1c-.4,.3,-.9,.4,-1.4,.4c-.5,0,-1,-.1,-1.3,-.4c-.5,-.2,-.8,-.6,-1,-1c-.3,-.4,-.4,-.9,-.4,-1.3Z" class="g0_11"/>
<path fill-rule="evenodd" d="M1265,193.4c0,-.5,.1,-1,.3,-1.4c.3,-.4,.6,-.8,1,-1c.4,-.3,.9,-.4,1.4,-.4c.5,0,1,.1,1.4,.4c.4,.2,.8,.6,1,1c.2,.4,.4,.9,.4,1.4c0,.4,-.2,.9,-.4,1.4c-.2,.3,-.6,.7,-1,.9c-.4,.3,-.9,.4,-1.4,.4c-.5,0,-1,-.1,-1.4,-.4c-.4,-.2,-.7,-.6,-1,-.9c-.2,-.5,-.3,-1,-.3,-1.4Z" class="g0_11"/>
<path d="M1099.9,192c0,-14,7.9,-28,15.9,-28c7.9,0,15.9,14.4,15.9,28.8m-.1,0c0,-14.4,5.6,-28.9,11.1,-28.9c5.6,0,11.2,14,11.2,28.1m.1,0c0,-14,8.8,-28,17.5,-28c8.7,0,17.5,14.4,17.5,28.8m.7,.7c0,-14,10.3,-28,20.6,-28c10.2,0,20.5,13.3,20.5,26.5m1.2,-.1c0,-14.5,8.9,-29.1,17.8,-29.1c9,0,17.9,13.9,17.9,27.8" class="g3_11"/>
<path fill-rule="evenodd" d="M1100.7,282.8c0,-.5,.1,-1,.4,-1.4c.2,-.4,.5,-.7,1,-1c.4,-.2,.8,-.3,1.4,-.3c.4,0,.9,.1,1.3,.3c.4,.3,.8,.6,1,1c.3,.4,.4,.9,.4,1.4c0,.5,-.1,.9,-.4,1.4c-.2,.4,-.6,.7,-1,1c-.4,.2,-.9,.4,-1.3,.4c-.6,0,-1,-.2,-1.4,-.4c-.5,-.3,-.8,-.6,-1,-1c-.3,-.5,-.4,-.9,-.4,-1.4Z" class="g4_11"/>
<path fill-rule="evenodd" d="M1130.5,282.8c0,-.5,.1,-1,.4,-1.4c.2,-.4,.5,-.7,1,-1c.4,-.2,.8,-.3,1.4,-.3c.4,0,.9,.1,1.3,.3c.4,.3,.8,.6,1,1c.3,.4,.4,.9,.4,1.4c0,.5,-.1,.9,-.4,1.4c-.2,.4,-.6,.7,-1,1c-.4,.2,-.9,.4,-1.3,.4c-.6,0,-1,-.2,-1.4,-.4c-.5,-.3,-.8,-.6,-1,-1c-.3,-.5,-.4,-.9,-.4,-1.4Z" class="g5_11"/>
<path fill-rule="evenodd" d="M1154.8,282.8c0,-.5,.1,-1,.4,-1.4c.2,-.4,.5,-.7,1,-1c.4,-.2,.8,-.3,1.4,-.3c.4,0,.9,.1,1.3,.3c.4,.3,.8,.6,1,1c.3,.4,.4,.9,.4,1.4c0,.5,-.1,.9,-.4,1.4c-.2,.4,-.6,.7,-1,1c-.4,.2,-.9,.4,-1.3,.4c-.6,0,-1,-.2,-1.4,-.4c-.5,-.3,-.8,-.6,-1,-1c-.3,-.5,-.4,-.9,-.4,-1.4Z" class="g4_11"/>
<path fill-rule="evenodd" d="M1190.6,283.9c0,-.8,.2,-1.5,.5,-2.1c.4,-.7,.8,-1.2,1.4,-1.6c.6,-.3,1.3,-.5,2,-.5c.6,0,1.3,.2,1.9,.5c.6,.4,1,.9,1.4,1.6c.3,.6,.5,1.3,.5,2.1c0,.7,-.2,1.5,-.5,2.1c-.4,.6,-.8,1.1,-1.4,1.5c-.6,.4,-1.3,.6,-1.9,.6c-.7,0,-1.4,-.2,-2,-.6c-.6,-.4,-1,-.9,-1.4,-1.5c-.3,-.6,-.5,-1.4,-.5,-2.1Z" class="g6_11"/>
<path d="M1190.6,283.9c0,-.8,.2,-1.5,.5,-2.1c.4,-.7,.8,-1.2,1.4,-1.6c.6,-.3,1.3,-.5,2,-.5c.6,0,1.3,.2,1.9,.5c.6,.4,1,.9,1.4,1.6c.3,.6,.5,1.3,.5,2.1c0,.7,-.2,1.5,-.5,2.1c-.4,.6,-.8,1.1,-1.4,1.5c-.6,.4,-1.3,.6,-1.9,.6c-.7,0,-1.4,-.2,-2,-.6c-.6,-.4,-1,-.9,-1.4,-1.5c-.3,-.6,-.5,-1.4,-.5,-2.1Z" class="g7_11"/>
<path fill-rule="evenodd" d="M1232.5,282.8c0,-.5,.1,-1,.4,-1.5c.3,-.5,.7,-.8,1.1,-1.1c.5,-.3,1,-.4,1.6,-.4c.5,0,1,.1,1.5,.4c.4,.3,.8,.6,1.1,1.1c.3,.5,.4,1,.4,1.5c0,.5,-.1,1,-.4,1.5c-.3,.5,-.7,.8,-1.1,1.1c-.5,.3,-1,.4,-1.5,.4c-.6,0,-1.1,-.1,-1.6,-.4c-.4,-.3,-.8,-.6,-1.1,-1.1c-.3,-.5,-.4,-1,-.4,-1.5Z" class="g6_11"/>
<path d="M1232.5,282.8c0,-.5,.1,-1,.4,-1.5c.3,-.5,.7,-.8,1.1,-1.1c.5,-.3,1,-.4,1.6,-.4c.5,0,1,.1,1.5,.4c.4,.3,.8,.6,1.1,1.1c.3,.5,.4,1,.4,1.5c0,.5,-.1,1,-.4,1.5c-.3,.5,-.7,.8,-1.1,1.1c-.5,.3,-1,.4,-1.5,.4c-.6,0,-1.1,-.1,-1.6,-.4c-.4,-.3,-.8,-.6,-1.1,-1.1c-.3,-.5,-.4,-1,-.4,-1.5Z" class="g8_11"/>
<path fill-rule="evenodd" d="M1268.5,282.8c0,-.7,.2,-1.4,.6,-2c.4,-.7,.9,-1.2,1.6,-1.6c.6,-.3,1.4,-.5,2.1,-.5c.8,0,1.6,.2,2.2,.5c.7,.4,1.2,.9,1.6,1.6c.4,.6,.6,1.3,.6,2c0,.8,-.2,1.5,-.6,2.1c-.4,.7,-.9,1.2,-1.6,1.6c-.6,.3,-1.4,.5,-2.2,.5c-.7,0,-1.5,-.2,-2.1,-.5c-.7,-.4,-1.2,-.9,-1.6,-1.6c-.4,-.6,-.6,-1.3,-.6,-2.1Z" class="g6_11"/>
<path d="M1268.5,282.8c0,-.7,.2,-1.4,.6,-2c.4,-.7,.9,-1.2,1.6,-1.6c.6,-.3,1.4,-.5,2.1,-.5c.8,0,1.6,.2,2.2,.5c.7,.4,1.2,.9,1.6,1.6c.4,.6,.6,1.3,.6,2c0,.8,-.2,1.5,-.6,2.1c-.4,.7,-.9,1.2,-1.6,1.6c-.6,.3,-1.4,.5,-2.2,.5c-.7,0,-1.5,-.2,-2.1,-.5c-.7,-.4,-1.2,-.9,-1.6,-1.6c-.4,-.6,-.6,-1.3,-.6,-2.1Z" class="g8_11"/>
<path d="M1103.5,280.1c0,-14.1,7.9,-28.1,15.8,-28.1c7.9,0,15.9,14.5,15.9,28.9m0,-.1c0,-14.4,5.6,-28.8,11.1,-28.8c5.6,0,11.2,14,11.2,28m.1,.1c0,-14.2,9.9,-28.4,19.8,-28.4c9.9,0,19.9,14.6,19.9,29.3m-.1,-.2c0,-13.2,9,-26.5,18.1,-26.5c9,0,18.1,13.2,18.1,26.3m2.2,-.9c0,-14.1,9.3,-28.1,18.7,-28.1c9.3,0,18.6,13.5,18.6,27" class="g3_11"/>
<path d="M1103.5,280c0,-16.5,43.1,-33,86.2,-33c43.1,0,86.3,16.4,86.3,32.8m-172.6,.2c0,-13.7,32.5,-27.5,65,-27.5c32.5,0,65,14.1,65,28.1m-129.9,-.5c0,-14.1,13,-28.1,26,-28.1c13.1,0,26.1,14.5,26.1,28.9" class="g9_11"/>
<path d="M1135.3,280.8c0,-14.8,34.3,-29.5,68.8,-29.5c34.4,0,68.8,13.7,68.8,27.3" class="ga_11"/>
<path d="M1135.9,282.1c2.6,0,5.1,-7.4,5.1,-14.9c0,-7.6,23.7,-15.1,47.3,-15.1c23.6,0,47.3,13.8,47.3,27.6m-99.7,1.9c0,-7.9,-7.4,-15.9,-14.9,-15.9c-7.4,0,-14.9,7.2,-14.9,14.4" class="gb_11"/>
<path fill-rule="evenodd" d="M1100.7,310c0,-.4,.1,-.9,.4,-1.4c.2,-.3,.5,-.7,1,-.9c.4,-.3,.8,-.4,1.4,-.4c.4,0,.9,.1,1.3,.4c.4,.2,.8,.6,1,.9c.3,.5,.4,1,.4,1.4c0,.5,-.1,1,-.4,1.4c-.2,.4,-.6,.8,-1,1c-.4,.3,-.9,.4,-1.3,.4c-.6,0,-1,-.1,-1.4,-.4c-.5,-.2,-.8,-.6,-1,-1c-.3,-.4,-.4,-.9,-.4,-1.4Z" class="g5_11"/>
<path fill-rule="evenodd" d="M1127.7,310c0,-.4,.1,-.9,.4,-1.4c.2,-.3,.6,-.7,1,-.9c.4,-.3,.9,-.4,1.4,-.4c.5,0,.9,.1,1.3,.4c.5,.2,.8,.6,1,.9c.3,.5,.4,1,.4,1.4c0,.5,-.1,1,-.4,1.4c-.2,.4,-.5,.8,-1,1c-.4,.3,-.8,.4,-1.3,.4c-.5,0,-1,-.1,-1.4,-.4c-.4,-.2,-.8,-.6,-1,-1c-.3,-.4,-.4,-.9,-.4,-1.4Z" class="g4_11"/>
<path fill-rule="evenodd" d="M1157.6,309.3c0,-.5,.1,-1,.3,-1.4c.3,-.4,.6,-.8,1,-1c.4,-.3,.9,-.4,1.4,-.4c.5,0,1,.1,1.4,.4c.4,.2,.7,.6,1,1c.2,.4,.4,.9,.4,1.4c0,.4,-.2,.9,-.4,1.3c-.3,.4,-.6,.8,-1,1c-.4,.3,-.9,.4,-1.4,.4c-.5,0,-1,-.1,-1.4,-.4c-.4,-.2,-.7,-.6,-1,-1c-.2,-.4,-.3,-.9,-.3,-1.3Z" class="gc_11"/>
<path fill-rule="evenodd" d="M1190.6,311.9c0,-.8,.2,-1.5,.6,-2.2c.5,-.7,1.1,-1.2,1.9,-1.6c.7,-.4,1.6,-.6,2.5,-.6c.9,0,1.8,.2,2.5,.6c.8,.4,1.4,.9,1.9,1.6c.4,.7,.6,1.4,.6,2.2c0,.8,-.2,1.5,-.6,2.2c-.5,.7,-1.1,1.2,-1.9,1.6c-.7,.4,-1.6,.6,-2.5,.6c-.9,0,-1.8,-.2,-2.5,-.6c-.8,-.4,-1.4,-.9,-1.9,-1.6c-.4,-.7,-.6,-1.4,-.6,-2.2Z" class="g4_11"/>
<path d="M1190.6,311.9c0,-.8,.2,-1.5,.6,-2.2c.5,-.7,1.1,-1.2,1.9,-1.6c.7,-.4,1.6,-.6,2.5,-.6c.9,0,1.8,.2,2.5,.6c.8,.4,1.4,.9,1.9,1.6c.4,.7,.6,1.4,.6,2.2c0,.8,-.2,1.5,-.6,2.2c-.5,.7,-1.1,1.2,-1.9,1.6c-.7,.4,-1.6,.6,-2.5,.6c-.9,0,-1.8,-.2,-2.5,-.6c-.8,-.4,-1.4,-.9,-1.9,-1.6c-.4,-.7,-.6,-1.4,-.6,-2.2Z" class="gd_11"/>
<path fill-rule="evenodd" d="M1232.7,309.3c0,-.5,.2,-1,.5,-1.4c.4,-.4,.8,-.8,1.4,-1c.5,-.3,1.2,-.4,1.8,-.4c.6,0,1.3,.1,1.8,.4c.6,.2,1,.6,1.4,1c.3,.4,.5,.9,.5,1.4c0,.4,-.2,.9,-.5,1.3c-.4,.4,-.8,.8,-1.4,1c-.5,.3,-1.2,.4,-1.8,.4c-.6,0,-1.3,-.1,-1.8,-.4c-.6,-.2,-1,-.6,-1.4,-1c-.3,-.4,-.5,-.9,-.5,-1.3Z" class="g4_11"/>
<path d="M1232.7,309.3c0,-.5,.2,-1,.5,-1.4c.4,-.4,.8,-.8,1.4,-1c.5,-.3,1.2,-.4,1.8,-.4c.6,0,1.3,.1,1.8,.4c.6,.2,1,.6,1.4,1c.3,.4,.5,.9,.5,1.4c0,.4,-.2,.9,-.5,1.3c-.4,.4,-.8,.8,-1.4,1c-.5,.3,-1.2,.4,-1.8,.4c-.6,0,-1.3,-.1,-1.8,-.4c-.6,-.2,-1,-.6,-1.4,-1c-.3,-.4,-.5,-.9,-.5,-1.3Z" class="gd_11"/>
<path fill-rule="evenodd" d="M1271.7,310.9c0,-.9,.2,-1.7,.6,-2.4c.5,-.8,1.1,-1.4,1.9,-1.8c.7,-.4,1.6,-.6,2.5,-.6c.9,0,1.7,.2,2.5,.6c.7,.4,1.3,1,1.8,1.8c.5,.7,.7,1.5,.7,2.4c0,.9,-.2,1.7,-.7,2.4c-.5,.8,-1.1,1.4,-1.8,1.8c-.8,.4,-1.6,.6,-2.5,.6c-.9,0,-1.8,-.2,-2.5,-.6c-.8,-.4,-1.4,-1,-1.9,-1.8c-.4,-.7,-.6,-1.5,-.6,-2.4Z" class="g4_11"/>
<path d="M1271.7,310.9c0,-.9,.2,-1.7,.6,-2.4c.5,-.8,1.1,-1.4,1.9,-1.8c.7,-.4,1.6,-.6,2.5,-.6c.9,0,1.7,.2,2.5,.6c.7,.4,1.3,1,1.8,1.8c.5,.7,.7,1.5,.7,2.4c0,.9,-.2,1.7,-.7,2.4c-.5,.8,-1.1,1.4,-1.8,1.8c-.8,.4,-1.6,.6,-2.5,.6c-.9,0,-1.8,-.2,-2.5,-.6c-.8,-.4,-1.4,-1,-1.9,-1.8c-.4,-.7,-.6,-1.5,-.6,-2.4Z" class="gd_11"/>
<path d="M1276.6,315.8c0,13.7,-43.3,27.5,-86.7,27.5c-43.3,0,-86.6,-15.3,-86.6,-30.5m173.3,3c0,13.8,-36,27.6,-72.1,27.6c-36,0,-72.1,-15.7,-72.1,-31.4m144.2,3.8c0,13.7,-29.1,27.5,-58.2,27.5c-29.1,0,-58.2,-15.6,-58.2,-31.3m116.4,3.7c0,14.4,-20.2,28.8,-40.5,28.8c-20.3,0,-40.5,-14.1,-40.5,-28.2m84.2,-.6c0,13.7,-11.8,27.4,-23.5,27.4c-11.8,0,-23.7,-16.9,-23.7,-33.7" class="g9_11"/>
<path d="M1236.4,312c0,14.4,-26.5,28.7,-53,28.7c-26.5,0,-53,-13.9,-53,-27.8m106.8,-1.7c0,13.7,-19.1,27.3,-38.1,27.3c-19,0,-38,-12.9,-38,-25.7m75.3,-.8c0,15.8,-10.2,31.7,-20.4,31.7c-10.2,0,-20.4,-13.7,-20.4,-27.4" class="gb_11"/>
<path d="M1132.4,312c0,207.9,6.9,415.9,13.9,415.9c7,0,13.9,-208,13.9,-416m.1,.1c0,15.8,8.8,31.7,17.7,31.7c8.8,0,17.6,-13.7,17.6,-27.4m0,0c0,13.7,9.5,27.5,19.1,27.5c9.5,0,19.1,-16.3,19.1,-32.6m2.5,.8c0,15.7,10.1,31.4,20.2,31.4c10,0,20.1,-13.8,20.1,-27.6m-143.4,-4.6c0,14.1,-7.7,28.1,-15.5,28.1c-7.7,0,-15.4,-13.3,-15.4,-26.5" class="ge_11"/>
<path fill-rule="evenodd" d="M1043.1,521.5c0,-1.9,.5,-3.8,1.4,-5.4c1,-1.7,2.4,-3.1,4,-4c1.7,-1,3.6,-1.5,5.5,-1.5h43.7c1.9,0,3.8,.6,5.5,1.5c1.7,1,3,2.3,4,4c.9,1.7,1.5,3.5,1.5,5.5v65.6c0,1.9,-.6,3.8,-1.5,5.5c-1,1.6,-2.3,3,-4,4c-1.7,.9,-3.5,1.5,-5.5,1.5H1054c-1.9,0,-3.8,-.6,-5.5,-1.5c-1.7,-1,-3.1,-2.4,-4,-4c-1,-1.7,-1.5,-3.6,-1.5,-5.5l.1,-65.7Z" class="gf_11"/>
<path d="M1043.1,521.5c0,-1.9,.5,-3.8,1.4,-5.4c1,-1.7,2.4,-3.1,4,-4c1.7,-1,3.6,-1.5,5.5,-1.5h43.7c1.9,0,3.8,.6,5.5,1.5c1.7,1,3,2.3,4,4c.9,1.7,1.5,3.5,1.5,5.5v65.6c0,1.9,-.6,3.8,-1.5,5.5c-1,1.6,-2.3,3,-4,4c-1.7,.9,-3.5,1.5,-5.5,1.5H1054c-1.9,0,-3.8,-.6,-5.5,-1.5c-1.7,-1,-3.1,-2.4,-4,-4c-1,-1.7,-1.5,-3.6,-1.5,-5.5l.1,-65.7Z" class="gg_11"/>
<path fill-rule="evenodd" d="M1123.3,481.4c0,-1.9,.5,-3.8,1.4,-5.5c1,-1.6,2.4,-3,4,-4c1.7,-.9,3.6,-1.5,5.5,-1.5l43.7,.1c1.9,0,3.8,.5,5.5,1.5c1.7,.9,3,2.3,4,3.9c.9,1.7,1.5,3.6,1.5,5.5V587.2c0,1.9,-.6,3.9,-1.5,5.5c-1,1.7,-2.3,3.1,-4,4c-1.7,1,-3.5,1.5,-5.5,1.5h-43.7c-1.9,0,-3.8,-.5,-5.5,-1.5c-1.7,-.9,-3.1,-2.3,-4,-4c-1,-1.6,-1.5,-3.5,-1.5,-5.5l.1,-105.8Z" class="gh_11"/>
<path d="M1123.3,481.4c0,-1.9,.5,-3.8,1.4,-5.5c1,-1.6,2.4,-3,4,-4c1.7,-.9,3.6,-1.5,5.5,-1.5l43.7,.1c1.9,0,3.8,.5,5.5,1.5c1.7,.9,3,2.3,4,3.9c.9,1.7,1.5,3.6,1.5,5.5V587.2c0,1.9,-.6,3.9,-1.5,5.5c-1,1.7,-2.3,3.1,-4,4c-1.7,1,-3.5,1.5,-5.5,1.5h-43.7c-1.9,0,-3.8,-.5,-5.5,-1.5c-1.7,-.9,-3.1,-2.3,-4,-4c-1,-1.6,-1.5,-3.5,-1.5,-5.5l.1,-105.8Z" class="gi_11"/>
<path d="M1075.9,510.6v-14h38.2v37.7h9.2" class="gj_11"/>
<path d="M1156,470.4V393.8" class="gk_11"/>
<path fill-rule="evenodd" d="M1156,385.3l4.5,9.1l-4.5,-3.6l-4.6,3.6l4.6,-9.1Z" class="gl_11"/>
<path fill-rule="evenodd" d="M1156,450.8h-32.7V416.1h65.5v34.7H1156Z" class="gm_11"/>
<path d="M1156,450.8h-32.7V416.1h65.5v34.7H1156Z" class="gn_11"/>
<path fill-rule="evenodd" d="M1043.1,620.7c0,-.7,.1,-1.4,.5,-2c.3,-.6,.8,-1.1,1.4,-1.4c.6,-.4,1.3,-.6,2,-.6h57.7c.7,0,1.4,.2,2,.6c.5,.3,1.1,.8,1.4,1.4c.3,.6,.5,1.3,.5,2l.1,15.7c0,.7,-.2,1.4,-.6,2c-.3,.6,-.8,1.1,-1.4,1.5c-.6,.3,-1.3,.5,-2,.5H1047c-.7,0,-1.4,-.1,-2,-.5c-.6,-.3,-1.1,-.9,-1.4,-1.5c-.4,-.5,-.5,-1.2,-.5,-1.9V620.7Z" class="go_11"/>
<path d="M1043.1,620.7c0,-.7,.1,-1.4,.5,-2c.3,-.6,.8,-1.1,1.4,-1.4c.6,-.4,1.3,-.6,2,-.6h57.7c.7,0,1.4,.2,2,.6c.5,.3,1.1,.8,1.4,1.4c.3,.6,.5,1.3,.5,2l.1,15.7c0,.7,-.2,1.4,-.6,2c-.3,.6,-.8,1.1,-1.4,1.5c-.6,.3,-1.3,.5,-2,.5H1047c-.7,0,-1.4,-.1,-2,-.5c-.6,-.3,-1.1,-.9,-1.4,-1.5c-.4,-.5,-.5,-1.2,-.5,-1.9V620.7Z" class="gp_11"/>
<path fill-rule="evenodd" d="M1123.2,620.7c0,-.7,.2,-1.4,.5,-2c.4,-.6,.9,-1.1,1.5,-1.4c.6,-.4,1.3,-.6,2,-.6h57.6c.7,0,1.4,.2,2,.6c.6,.3,1.1,.8,1.5,1.4c.3,.6,.5,1.3,.5,2v15.7c0,.7,-.2,1.4,-.5,2c-.3,.6,-.9,1.1,-1.5,1.5c-.5,.3,-1.2,.5,-1.9,.5h-57.7c-.7,0,-1.4,-.1,-2,-.5c-.6,-.3,-1.1,-.9,-1.5,-1.5c-.3,-.5,-.5,-1.2,-.5,-1.9V620.7Z" class="go_11"/>
<path d="M1123.2,620.7c0,-.7,.2,-1.4,.5,-2c.4,-.6,.9,-1.1,1.5,-1.4c.6,-.4,1.3,-.6,2,-.6h57.6c.7,0,1.4,.2,2,.6c.6,.3,1.1,.8,1.5,1.4c.3,.6,.5,1.3,.5,2v15.7c0,.7,-.2,1.4,-.5,2c-.3,.6,-.9,1.1,-1.5,1.5c-.5,.3,-1.2,.5,-1.9,.5h-57.7c-.7,0,-1.4,-.1,-2,-.5c-.6,-.3,-1.1,-.9,-1.5,-1.5c-.3,-.5,-.5,-1.2,-.5,-1.9V620.7Z" class="gp_11"/>
<path d="M1076.4,671.4V650.1" class="gk_11"/>
<path fill-rule="evenodd" d="M1076.4,641.6l4.5,9.1l-4.5,-3.6l-4.5,3.6l4.5,-9.1Z" class="gl_11"/>
<path d="M1156,669.5V648.2" class="gk_11"/>
<path fill-rule="evenodd" d="M1155.9,639.7l4.6,9.1l-4.6,-3.6l-4.5,3.6l4.5,-9.1Z" class="gl_11"/>
<path d="M1075.9,615.7l-.1,-10.1" class="gk_11"/>
<path fill-rule="evenodd" d="M1075.8,597.2l4.6,9.1l-4.6,-3.7l-4.5,3.7l4.5,-9.1Z" class="gl_11"/>
<path d="M1156,616.7v-10" class="gk_11"/>
<path fill-rule="evenodd" d="M1155.9,598.2l4.6,9.1l-4.5,-3.6l-4.6,3.6l4.5,-9.1Z" class="gl_11"/>
<path fill-rule="evenodd" d="M1072.3,663.1c0,-.8,.2,-1.5,.6,-2.2c.5,-.7,1.1,-1.2,1.9,-1.6c.7,-.4,1.6,-.6,2.4,-.6c.9,0,1.8,.2,2.5,.6c.7,.4,1.4,.9,1.8,1.6c.4,.7,.7,1.4,.7,2.2c0,.8,-.3,1.5,-.7,2.1c-.4,.7,-1.1,1.3,-1.8,1.6c-.7,.4,-1.6,.6,-2.5,.6c-.8,0,-1.7,-.2,-2.4,-.6c-.8,-.3,-1.4,-.9,-1.9,-1.6c-.4,-.6,-.6,-1.3,-.6,-2.1Z" class="gq_11"/>
<path d="M1072.3,663.1c0,-.8,.2,-1.5,.6,-2.2c.5,-.7,1.1,-1.2,1.9,-1.6c.7,-.4,1.6,-.6,2.4,-.6c.9,0,1.8,.2,2.5,.6c.7,.4,1.4,.9,1.8,1.6c.4,.7,.7,1.4,.7,2.2c0,.8,-.3,1.5,-.7,2.1c-.4,.7,-1.1,1.3,-1.8,1.6c-.7,.4,-1.6,.6,-2.5,.6c-.8,0,-1.7,-.2,-2.4,-.6c-.8,-.3,-1.4,-.9,-1.9,-1.6c-.4,-.6,-.6,-1.3,-.6,-2.1Z" class="gr_11"/>
<path d="M1070.7,701.3h6.5V667.4" class="g9_11"/>
<path fill-rule="evenodd" d="M1070.6,571.1c0,-.8,.3,-1.5,.7,-2.2c.4,-.7,1.1,-1.2,1.8,-1.6c.7,-.4,1.6,-.5,2.5,-.5c.8,0,1.7,.1,2.4,.5c.8,.4,1.4,.9,1.9,1.6c.4,.7,.6,1.4,.6,2.2c0,.8,-.2,1.5,-.6,2.2c-.5,.6,-1.1,1.2,-1.9,1.6c-.7,.3,-1.6,.6,-2.4,.6c-.9,0,-1.8,-.3,-2.5,-.6c-.7,-.4,-1.4,-1,-1.8,-1.6c-.4,-.7,-.7,-1.4,-.7,-2.2Z" class="gq_11"/>
<path d="M1070.6,571.1c0,-.8,.3,-1.5,.7,-2.2c.4,-.7,1.1,-1.2,1.8,-1.6c.7,-.4,1.6,-.5,2.5,-.5c.8,0,1.7,.1,2.4,.5c.8,.4,1.4,.9,1.9,1.6c.4,.7,.6,1.4,.6,2.2c0,.8,-.2,1.5,-.6,2.2c-.5,.6,-1.1,1.2,-1.9,1.6c-.7,.3,-1.6,.6,-2.4,.6c-.9,0,-1.8,-.3,-2.5,-.6c-.7,-.4,-1.4,-1,-1.8,-1.6c-.4,-.7,-.7,-1.4,-.7,-2.2Z" class="gr_11"/>
<path d="M1076.5,598.2l-.2,-22.7" class="g9_11"/>
<path d="M987.1,586.6H945.6V553.7h83v32.9H987.1Z" class="gs_11"/>
<path fill-rule="evenodd" d="M1069.9,532.3c0,-.7,.3,-1.5,.7,-2.1c.4,-.7,1.1,-1.2,1.8,-1.6c.7,-.4,1.6,-.6,2.5,-.6c.8,0,1.7,.2,2.5,.6c.7,.4,1.3,.9,1.8,1.6c.4,.6,.6,1.4,.6,2.1c0,.8,-.2,1.5,-.6,2.2c-.5,.7,-1.1,1.2,-1.8,1.6c-.8,.4,-1.7,.6,-2.5,.6c-.9,0,-1.8,-.2,-2.5,-.6c-.7,-.4,-1.4,-.9,-1.8,-1.6c-.4,-.7,-.7,-1.4,-.7,-2.2Z" class="gq_11"/>
<path d="M1069.9,532.3c0,-.7,.3,-1.5,.7,-2.1c.4,-.7,1.1,-1.2,1.8,-1.6c.7,-.4,1.6,-.6,2.5,-.6c.8,0,1.7,.2,2.5,.6c.7,.4,1.3,.9,1.8,1.6c.4,.6,.6,1.4,.6,2.1c0,.8,-.2,1.5,-.6,2.2c-.5,.7,-1.1,1.2,-1.8,1.6c-.8,.4,-1.7,.6,-2.5,.6c-.9,0,-1.8,-.2,-2.5,-.6c-.7,-.4,-1.4,-.9,-1.8,-1.6c-.4,-.7,-.7,-1.4,-.7,-2.2Z" class="gr_11"/>
<path d="M1128,526.8c0,-.7,.2,-1.5,.6,-2.2c.4,-.6,.9,-1.2,1.6,-1.5c.7,-.4,1.4,-.6,2.2,-.6h43.4c.8,0,1.5,.2,2.2,.6c.7,.3,1.3,.9,1.6,1.6c.4,.6,.6,1.4,.6,2.1v17.5c0,.8,-.2,1.5,-.6,2.2c-.3,.6,-.9,1.2,-1.6,1.6c-.6,.3,-1.3,.6,-2.1,.6h-43.5c-.8,0,-1.5,-.2,-2.2,-.6c-.7,-.4,-1.2,-.9,-1.6,-1.6c-.4,-.7,-.6,-1.4,-.6,-2.2V526.8Z" class="gp_11"/>
<path fill-rule="evenodd" d="M1151.9,664.8c0,-.8,.2,-1.6,.6,-2.2c.5,-.7,1.1,-1.2,1.9,-1.6c.7,-.4,1.6,-.6,2.4,-.6c.9,0,1.8,.2,2.5,.6c.7,.4,1.4,.9,1.8,1.6c.4,.6,.7,1.4,.7,2.2c0,.7,-.3,1.5,-.7,2.1c-.4,.7,-1.1,1.2,-1.8,1.6c-.7,.4,-1.6,.6,-2.5,.6c-.8,0,-1.7,-.2,-2.4,-.6c-.8,-.4,-1.4,-.9,-1.9,-1.6c-.4,-.6,-.6,-1.4,-.6,-2.1Z" class="gq_11"/>
<path d="M1151.9,664.8c0,-.8,.2,-1.6,.6,-2.2c.5,-.7,1.1,-1.2,1.9,-1.6c.7,-.4,1.6,-.6,2.4,-.6c.9,0,1.8,.2,2.5,.6c.7,.4,1.4,.9,1.8,1.6c.4,.6,.7,1.4,.7,2.2c0,.7,-.3,1.5,-.7,2.1c-.4,.7,-1.1,1.2,-1.8,1.6c-.7,.4,-1.6,.6,-2.5,.6c-.8,0,-1.7,-.2,-2.4,-.6c-.8,-.4,-1.4,-.9,-1.9,-1.6c-.4,-.6,-.6,-1.4,-.6,-2.1Z" class="gr_11"/>
<path fill-rule="evenodd" d="M1150.4,570.6c0,-.8,.2,-1.5,.7,-2.2c.4,-.6,1,-1.2,1.8,-1.6c.7,-.3,1.6,-.5,2.4,-.5c.9,0,1.8,.2,2.5,.5c.8,.4,1.4,1,1.8,1.6c.5,.7,.7,1.4,.7,2.2c0,.8,-.2,1.5,-.7,2.2c-.4,.7,-1,1.2,-1.8,1.6c-.7,.4,-1.6,.6,-2.5,.6c-.8,0,-1.7,-.2,-2.4,-.6c-.8,-.4,-1.4,-.9,-1.8,-1.6c-.5,-.7,-.7,-1.4,-.7,-2.2Z" class="gq_11"/>
<path d="M1150.4,570.6c0,-.8,.2,-1.5,.7,-2.2c.4,-.6,1,-1.2,1.8,-1.6c.7,-.3,1.6,-.5,2.4,-.5c.9,0,1.8,.2,2.5,.5c.8,.4,1.4,1,1.8,1.6c.5,.7,.7,1.4,.7,2.2c0,.8,-.2,1.5,-.7,2.2c-.4,.7,-1,1.2,-1.8,1.6c-.7,.4,-1.6,.6,-2.5,.6c-.8,0,-1.7,-.2,-2.4,-.6c-.8,-.4,-1.4,-.9,-1.8,-1.6c-.5,-.7,-.7,-1.4,-.7,-2.2Z" class="gr_11"/>
<path fill-rule="evenodd" d="M1215.7,404.4c0,-.8,.2,-1.6,.6,-2.4c.5,-.7,1.1,-1.3,1.8,-1.7c.7,-.4,1.6,-.7,2.4,-.7h136.1c.8,0,1.6,.3,2.4,.7c.7,.4,1.3,1,1.7,1.8c.4,.7,.7,1.5,.7,2.3v19.3c0,.8,-.2,1.7,-.6,2.4c-.5,.7,-1.1,1.3,-1.8,1.7c-.7,.5,-1.6,.7,-2.4,.7H1220.5c-.9,0,-1.7,-.2,-2.4,-.6c-.7,-.5,-1.4,-1.1,-1.8,-1.8c-.4,-.7,-.6,-1.6,-.6,-2.4V404.4Z" class="gt_11"/>
<path d="M1215.7,404.4c0,-.8,.2,-1.6,.6,-2.4c.5,-.7,1.1,-1.3,1.8,-1.7c.7,-.4,1.6,-.7,2.4,-.7h136.1c.8,0,1.6,.3,2.4,.7c.7,.4,1.3,1,1.7,1.8c.4,.7,.7,1.5,.7,2.3v19.3c0,.8,-.2,1.7,-.6,2.4c-.5,.7,-1.1,1.3,-1.8,1.7c-.7,.5,-1.6,.7,-2.4,.7H1220.5c-.9,0,-1.7,-.2,-2.4,-.6c-.7,-.5,-1.4,-1.1,-1.8,-1.8c-.4,-.7,-.6,-1.6,-.6,-2.4V404.4Z" class="gu_11"/>
<path d="M1249.9,424.6h-11.5V404.5h23v20.1h-11.5Zm27.1,-.7h-11.5V403.8h23v20.1H1277Zm26.7,-.6h-11.5V403.2h22.9v20.1h-11.4Zm27.9,0h-11.5V403.2h23v20.1h-11.5Z" class="g8_11"/>
<path d="M1292.2,428v1.5m0,1.2v1.5m0,1.2V435m0,1.1v1.6m0,1.2v1.5m0,1.2v1.6m0,1.1v1.6m0,1.2v1.5m0,1.2v1.5m0,1.2v1.6m0,1.1v1.6m0,1.2v1.5m0,1.2v1.6m0,1.1V465m0,1.2v1.5m0,1.2v1.5m0,1.2v1.6m0,1.1v1.6m0,1.2v1.5m0,1.2v1.6m0,1.1v1.6m0,1.2v1.5m0,1.2v1.5m0,1.2v1.6m0,1.1V495m0,1.2v1.5m0,1.2v1.6m0,1.1v1.6m0,1.2v1.5m0,1.2v1.5m0,1.2v1.6m0,1.1v1.6m0,1.2v1.5m0,1.2v1.6m0,1.1v1.6m0,1.2V525m0,1.2v1.5m0,1.2v1.6m0,1.1v1.6m0,1.2v1.5m0,1.2v1.6m0,1.1v1.6m0,1.2v1.5m0,1.2v1.5m0,1.2v1.6m0,1.1v1.6m0,1.2V555m0,1.2v1.6m0,1.1v1.6m0,1.1v1.6m0,1.2v1.5m0,1.2v1.6m0,1.1v1.6m0,1.2v1.5m0,1.2v1.6m0,1.1v1.6m0,1.1v1.6m0,1.2V585m0,1.2v1.6m0,1.1v1.6m0,1.2v1.5m0,1.2v1.5m0,1.2v1.6m0,1.1v1.6m0,1.2v1.5m0,1.2v1.6m0,1.1v1.6m0,1.2v1.5m0,1.2V615m0,1.2v1.6m0,1.1v1.6m0,1.2v1.5m0,1.2V626m0,1.1v1.6m0,1.2v1.5m0,1.2v1.5m0,1.2v1.6m0,1.1v1.6m0,1.2v1.5m0,1.2v1.6m0,1.1v1.6m0,1.2v1.5m0,1.2v1.5m0,1.2V656m0,1.1v1.6m0,1.2v1.5m0,1.2v1.6m0,1.1v1.6m0,1.2v1.5m0,1.2v1.5m0,1.2v1.6m0,1.1v1.6m0,1.2v1.5m0,1.2v1.6m0,1.1V686m0,1.2v1.5m0,1.2v1.5m0,1.2v1.6m0,1.1v1.6m0,1.2v1.5m0,1.2v.3H1291m-1.2,0h-1.5m-1.2,0h-1.6m-1.1,0h-1.6m-1.2,0h-1.5m-1.2,0h-1.6m-1.1,0h-1.6m-1.2,0h-1.5m-1.2,0h-1.5m-1.2,0h-1.6m-1.1,0h-1.6m-1.2,0H1261m-1.2,0h-1.6m-1.1,0h-1.6m-1.2,0h-1.5m-1.2,0h-1.5m-1.2,0h-1.6m-1.1,0h-1.6m-1.2,0h-1.5m-1.2,0h-1.6m-1.1,0h-1.6m-1.2,0h-1.5m-1.2,0H1231m-1.2,0h-1.6m-1.1,0h-1.6m-1.2,0h-1.5m-1.2,0H1220m-1.1,0h-1.6m-1.2,0h-1.5m-1.2,0h-1.5m-1.2,0h-1.6m-1.1,0h-1.6m-1.2,0h-1.5m-1.2,0h-1.6m-1.1,0h-1.6m-1.1,0h-1.6m-1.2,0h-1.5m-1.2,0H1190m-1.1,0h-1.6m-1.2,0h-1.5m-1.2,0h-1.5m-1.2,0h-1.6m-1.1,0h-1.6m-1.2,0h-1.5m-1.2,0h-1.6m-1.1,0h-1.6m-1.2,0h-1.5m-1.2,0h-1.5m-1.2,0H1160m-1.1,0h-1.6m-1.2,0h-.5v-1m0,-1.1v-1.6m0,-1.2v-1.5m0,-1.2V692m0,-1.2v-1.6m0,-1.1v-1.6m0,-1.2v-1.5m0,-1.2V681m0,-1.1v-1.6" class="gv_11"/>
<path fill-rule="evenodd" d="M925.1,694.5c0,-.9,.2,-1.7,.6,-2.4c.5,-.7,1.1,-1.4,1.8,-1.7c.7,-.5,1.6,-.7,2.4,-.7H1066c.8,0,1.6,.2,2.4,.7c.7,.4,1.3,1,1.7,1.7c.5,.7,.7,1.6,.7,2.4v19.2c0,.9,-.2,1.7,-.6,2.5c-.5,.7,-1.1,1.3,-1.8,1.7c-.7,.4,-1.6,.7,-2.4,.7H929.9c-.9,0,-1.7,-.2,-2.4,-.7c-.7,-.4,-1.4,-1,-1.8,-1.7c-.4,-.7,-.6,-1.6,-.6,-2.4V694.5Z" class="gt_11"/>
<path d="M925.1,694.5c0,-.9,.2,-1.7,.6,-2.4c.5,-.7,1.1,-1.4,1.8,-1.7c.7,-.5,1.6,-.7,2.4,-.7H1066c.8,0,1.6,.2,2.4,.7c.7,.4,1.3,1,1.7,1.7c.5,.7,.7,1.6,.7,2.4v19.2c0,.9,-.2,1.7,-.6,2.5c-.5,.7,-1.1,1.3,-1.8,1.7c-.7,.4,-1.6,.7,-2.4,.7H929.9c-.9,0,-1.7,-.2,-2.4,-.7c-.7,-.4,-1.4,-1,-1.8,-1.7c-.4,-.7,-.6,-1.6,-.6,-2.4V694.5Z" class="gu_11"/>
<path d="M953.7,725.4l-.1,-8.4" class="gk_11"/>
<path fill-rule="evenodd" d="M953.6,708.5l4.6,9.1L953.6,714l-4.5,3.7l4.5,-9.2Z" class="gl_11"/>
<path d="M982.8,724.4l-.1,-8.4" class="gk_11"/>
<path fill-rule="evenodd" d="M982.7,707.5l4.6,9.1L982.7,713l-4.5,3.6l4.5,-9.1Z" class="gl_11"/>
<path d="M1021,725.1v-8.4" class="gk_11"/>
<path fill-rule="evenodd" d="M1020.9,708.2l4.6,9.1l-4.5,-3.6l-4.6,3.7l4.5,-9.2Z" class="gl_11"/>
<path d="M1052.4,723.7v-8.4" class="gk_11"/>
<path fill-rule="evenodd" d="M1052.4,706.8l4.6,9.1l-4.6,-3.6l-4.5,3.7l4.5,-9.2Z" class="gl_11"/>
<path d="M925.1,704.1l-6.6,-31.8" class="gw_11"/>
<path d="M999.8,708.6H936.9V696.4h125.8v12.2H999.8Z" class="gn_11"/>
<path d="M1227.4,579.5h-37.5V546.7h75v32.8h-37.5Z" class="gs_11"/>
<path d="M987.6,594.3c6.1,10.6,18.9,19.4,40.1,19.4c21.2,0,42.5,-20.2,42.5,-40.3" class="g1_11"/>
<path fill-rule="evenodd" d="M985.3,586.2l7,7.4l-5.4,-2.2l-3.3,4.9l1.7,-10.1Z" class="gl_11"/>
<path d="M1225.9,588.3c-3.9,10.5,-11.6,19.2,-24.7,19.2c-13.1,0,-26.1,-9.2,-26.1,-18.4c0,-9.2,-7.5,-18.5,-14.9,-18.5" class="g1_11"/>
<path fill-rule="evenodd" d="M1227.4,580l2.7,9.8l-3.8,-4.4l-5.2,2.7l6.3,-8.1Z" class="gl_11"/>
<path fill-rule="evenodd" d="M1151.6,497.9c0,-.8,.2,-1.6,.6,-2.2c.5,-.7,1.1,-1.2,1.8,-1.6c.8,-.4,1.6,-.6,2.5,-.6c.9,0,1.7,.2,2.5,.6c.7,.4,1.4,.9,1.8,1.6c.4,.6,.7,1.4,.7,2.2c0,.7,-.3,1.5,-.7,2.1c-.4,.7,-1.1,1.2,-1.8,1.6c-.8,.4,-1.6,.6,-2.5,.6c-.9,0,-1.7,-.2,-2.5,-.6c-.7,-.4,-1.3,-.9,-1.8,-1.6c-.4,-.6,-.6,-1.4,-.6,-2.1Z" class="gq_11"/>
<path d="M1151.6,497.9c0,-.8,.2,-1.6,.6,-2.2c.5,-.7,1.1,-1.2,1.8,-1.6c.8,-.4,1.6,-.6,2.5,-.6c.9,0,1.7,.2,2.5,.6c.7,.4,1.4,.9,1.8,1.6c.4,.6,.7,1.4,.7,2.2c0,.7,-.3,1.5,-.7,2.1c-.4,.7,-1.1,1.2,-1.8,1.6c-.8,.4,-1.6,.6,-2.5,.6c-.9,0,-1.7,-.2,-2.5,-.6c-.7,-.4,-1.3,-.9,-1.8,-1.6c-.4,-.6,-.6,-1.4,-.6,-2.1Z" class="gr_11"/>
<path fill-rule="evenodd" d="M1151.9,380.9c0,-.8,.2,-1.5,.6,-2.2c.5,-.7,1.1,-1.2,1.9,-1.6c.7,-.4,1.6,-.5,2.4,-.5c.9,0,1.8,.1,2.5,.5c.7,.4,1.4,.9,1.8,1.6c.4,.7,.7,1.4,.7,2.2c0,.8,-.3,1.5,-.7,2.2c-.4,.6,-1.1,1.2,-1.8,1.6c-.7,.3,-1.6,.6,-2.5,.6c-.8,0,-1.7,-.3,-2.4,-.6c-.8,-.4,-1.4,-1,-1.9,-1.6c-.4,-.7,-.6,-1.4,-.6,-2.2Z" class="gq_11"/>
<path d="M1151.9,380.9c0,-.8,.2,-1.5,.6,-2.2c.5,-.7,1.1,-1.2,1.9,-1.6c.7,-.4,1.6,-.5,2.4,-.5c.9,0,1.8,.1,2.5,.5c.7,.4,1.4,.9,1.8,1.6c.4,.7,.7,1.4,.7,2.2c0,.8,-.3,1.5,-.7,2.2c-.4,.6,-1.1,1.2,-1.8,1.6c-.7,.3,-1.6,.6,-2.5,.6c-.8,0,-1.7,-.3,-2.4,-.6c-.8,-.4,-1.4,-1,-1.9,-1.6c-.4,-.7,-.6,-1.4,-.6,-2.2Z" class="gr_11"/>
<path d="M1161.8,380.9h32v33.2h21.8" class="g9_11"/>
<path fill-rule="evenodd" d="M1302,457h12.4V428.8h24.7V457h12.4l-24.7,24.7L1302,457Z" class="gx_11"/>
<path d="M1302,457h12.4V428.8h24.7V457h12.4l-24.7,24.7L1302,457Z" class="gy_11"/>
<path d="M1270.8,483.7c16.8,-5.5,27.5,4.6,46.6,0c19,-4.6,24.5,1.1,45.1,0c20.6,-1.1,31.3,2.8,57,0c7.1,20.5,-4.1,43.4,0,67.6c4.1,24.1,-.7,36.4,0,62.4c-11.7,4,-36.2,-.9,-48.1,0c-11.9,.9,-33,-5.1,-45.1,0c-12.1,5.1,-42.6,-.2,-55.5,0c-3.8,-19.7,.3,-36.5,0,-61.1c-.4,-24.6,4.9,-37.6,0,-68.9Z" class="gz_11"/>
<path fill-rule="evenodd" d="M1270.8,483.7c11,-1.1,34.5,4.2,52.5,0c18,-4.2,29.9,1.2,49.6,0c19.6,-1.2,32,5.5,46.6,0c5.5,22,-3.9,43.2,0,66.3c3.9,23.1,-7.3,36.9,0,63.7c-12.8,1.7,-29.8,-5.8,-48.1,0c-18.4,5.7,-31.5,-.3,-51.1,0c-19.5,.2,-30.5,-5.2,-49.5,0c-3.6,-18.4,3.1,-36.2,0,-62.4c-3.2,-26.2,6.7,-53.6,0,-67.6Z" class="g0_11"/>
<path d="M1155.9,598.9l-.3,-22.7m1,-82.9l-.3,-22.7m38.8,-192c0,-16.5,-22.9,-33,-45.8,-33c-23,0,-45.9,17.2,-45.9,34.4" class="g9_11"/>
<path d="M63.3,816.9h40.6" class="g10_11"/>
</svg>