<?xml version="1.0" encoding="UTF-8" standalone="no"?>
<!DOCTYPE svg PUBLIC "-//W3C//DTD SVG 1.1//EN"
"http://www.w3.org/Graphics/SVG/1.1/DTD/svg11.dtd">
<svg viewBox="0 0 1466 825" version="1.1" xmlns="http://www.w3.org/2000/svg" xmlns:xlink="http://www.w3.org/1999/xlink">
<defs>
<clipPath id="c0_7"><path d="M0,825V0H1466.6V825Z"/></clipPath>
<style type="text/css"><![CDATA[
.g0_7{
fill: #FFF;
}
.g1_7{
fill: #A6A6A6;
}
.g2_7{
fill: #359CDB;
}
.g3_7{
fill: #CFD5E9;
}
.g4_7{
fill: #E8EBF4;
}
.g5_7{
fill: none;
stroke: #FFF;
stroke-width: 1.298;
stroke-linejoin: round;
}
.g6_7{
fill: none;
stroke: #FFF;
stroke-width: 4.048;
stroke-linejoin: round;
}
.g7_7{
fill: none;
stroke: #000;
stroke-width: 0.303;
stroke-linejoin: round;
}
.g8_7{
fill: #8FAADC;
}
.g9_7{
fill: none;
stroke: #325490;
stroke-width: 1.515;
stroke-miterlimit: 3;
}
.ga_7{
fill: none;
stroke: #0563C1;
stroke-width: 0.909;
stroke-miterlimit: 10;
}
]]></style>
</defs>
<g clip-path="url(#c0_7)">
<path fill-rule="evenodd" d="M0,0H1466.6V825H0V0Z" class="g0_7"/>
<path fill-rule="evenodd" d="M0,0H1466.7V825H0V0Z" class="g0_7"/>
</g>
<path fill-rule="evenodd" d="M160.6,93.5V424.2l-47.5,33.7L65.8,424.2V93.5h94.8Z" class="g1_7"/>
<g clip-path="url(#c0_7)">
<image preserveAspectRatio="none" x="114" y="113" width="34" height="33" xlink:href="img/1.png"/>
<image preserveAspectRatio="none" x="77" y="113" width="33" height="33" xlink:href="img/2.png"/>
</g>
<path fill-rule="evenodd" d="M205,93.5h800.3v40.2H205V93.5Z" class="g2_7"/>
<path fill-rule="evenodd" d="M205,133.7h800.3v27.6H205V133.7Z" class="g3_7"/>
<path fill-rule="evenodd" d="M205,161.3h800.3v27.5H205V161.3Z" class="g4_7"/>
<path fill-rule="evenodd" d="M205,188.8h800.3v27.6H205V188.8Z" class="g3_7"/>
<path d="M204.3,93.5h801.6M205,92.9V217M1005.3,92.9V217" class="g5_7"/>
<path d="M204.3,133.7h801.6" class="g6_7"/>
<path d="M204.3,161.3h801.6M204.3,188.8h801.6M204.3,216.4h801.6" class="g5_7"/>
<path fill-rule="evenodd" d="M267.1,274.6H640.7v40.2H267.1V274.6Z" class="g2_7"/>
<path fill-rule="evenodd" d="M205,314.8h62.1v66H205v-66Z" class="g2_7"/>
<path fill-rule="evenodd" d="M267.1,314.8H372.5v66H267.1v-66Z" class="g2_7"/>
<path fill-rule="evenodd" d="M372.5,314.8H506v66H372.5v-66Z" class="g2_7"/>
<path fill-rule="evenodd" d="M506,314.8H640.7v66H506v-66Z" class="g2_7"/>
<path d="M204.3,274.6H640.7M205,274V381M267.1,274V381" class="g5_7"/>
<path d="M204.3,314.8H641.4" class="g6_7"/>
<path d="M372.5,312.8V381M506,312.8V381M640.7,312.8V381" class="g5_7"/>
<path d="M204.8,380.8h12.3m3.8,0h12.2m3.8,0h12.2m3.9,0h12.2m3.8,0h12.2m3.8,0h12.3m3.8,0h12.2m3.8,0h12.3m3.8,0h12.2m3.8,0h12.2m3.9,0h12.2m3.8,0h12.2m3.8,0h12.3m3.8,0h12.2m3.8,0h12.2m3.9,0h12.2m3.8,0h12.2m3.8,0h12.3m3.8,0h12.2m3.8,0h12.3m3.8,0h12.2m3.8,0h12.2m3.9,0H570m3.8,0H586m3.8,0h12.3m3.8,0h12.2m3.8,0h12.2m3.9,0h2.9M205,380.6v12.3m0,3.8v12.2m0,3.8V425m0,3.8V441m0,3.8V457m0,3.9v8.2m62.1,-88.5v12.3m0,3.8v12.2m0,3.8V425m0,3.8V441m0,3.8V457m0,3.9v8.2M372.5,380.6v12.3m0,3.8v12.2m0,3.8V425m0,3.8V441m0,3.8V457m0,3.9v8.2M506,380.6v12.3m0,3.8v12.2m0,3.8V425m0,3.8V441m0,3.8V457m0,3.9v8.2M640.7,380.6v12.3m0,3.8v12.2m0,3.8V425m0,3.8V441m0,3.8V457m0,3.9v8.2M204.8,424.8h12.3m3.8,0h12.2m3.8,0h12.2m3.9,0h12.2m3.8,0h12.2m3.8,0h12.3m3.8,0h12.2m3.8,0h12.3m3.8,0h12.2m3.8,0h12.2m3.9,0h12.2m3.8,0h12.2m3.8,0h12.3m3.8,0h12.2m3.8,0h12.2m3.9,0h12.2m3.8,0h12.2m3.8,0h12.3m3.8,0h12.2m3.8,0h12.3m3.8,0h12.2m3.8,0h12.2m3.9,0H570m3.8,0H586m3.8,0h12.3m3.8,0h12.2m3.8,0h12.2m3.9,0h2.9M204.8,468.9h12.3m3.8,0h12.2m3.8,0h12.2m3.9,0h12.2m3.8,0h12.2m3.8,0h12.3m3.8,0h12.2m3.8,0h12.3m3.8,0h12.2m3.8,0h12.2m3.9,0h12.2m3.8,0h12.2m3.8,0h12.3m3.8,0h12.2m3.8,0h12.2m3.9,0h12.2m3.8,0h12.2m3.8,0h12.3m3.8,0h12.2m3.8,0h12.3m3.8,0h12.2m3.8,0h12.2m3.9,0H570m3.8,0H586m3.8,0h12.3m3.8,0h12.2m3.8,0h12.2m3.9,0h2.9" class="g7_7"/>
<g clip-path="url(#c0_7)">
<image preserveAspectRatio="none" x="300" y="384" width="37" height="37" xlink:href="img/3.png"/>
<image preserveAspectRatio="none" x="423" y="384" width="37" height="37" xlink:href="img/4.png"/>
<image preserveAspectRatio="none" x="560" y="384" width="37" height="37" xlink:href="img/5.png"/>
<image preserveAspectRatio="none" x="300" y="426" width="37" height="37" xlink:href="img/6.png"/>
<image preserveAspectRatio="none" x="423" y="426" width="37" height="37" xlink:href="img/7.png"/>
<image preserveAspectRatio="none" x="560" y="426" width="37" height="37" xlink:href="img/8.png"/>
</g>
<path fill-rule="evenodd" d="M640.8,274.6H968v40.2H640.8V274.6Z" class="g2_7"/>
<path fill-rule="evenodd" d="M640.8,314.8H744.1v66H640.8v-66Z" class="g2_7"/>
<path fill-rule="evenodd" d="M744.1,314.8H858.9v66H744.1v-66Z" class="g2_7"/>
<path fill-rule="evenodd" d="M858.9,314.8H968v66H858.9v-66Z" class="g2_7"/>
<path d="M640.1,274.6H968M640.8,274V381" class="g5_7"/>
<path d="M640.1,314.8H968.6" class="g6_7"/>
<path d="M744.1,312.8V381M858.9,312.8V381M968,312.8V381" class="g5_7"/>
<path d="M640.6,380.8h12.3m3.8,0h12.2m3.8,0h12.2m3.9,0H701m3.8,0H717m3.8,0h12.3m3.8,0h12.2m3.8,0h12.2m3.9,0h12.2m3.8,0h12.2m3.9,0h12.2m3.8,0h12.2m3.8,0h12.3m3.8,0h12.2m3.8,0h12.2m3.9,0h12.2m3.8,0h12.2m3.8,0h12.3m3.8,0h12.2m3.8,0h12.2m3.9,0h6.6m-327.3,-.2v12.3m0,3.8v12.2m0,3.8V425m0,3.8V441m0,3.8V457m0,3.9v8.2M744.1,380.6v12.3m0,3.8v12.2m0,3.8V425m0,3.8V441m0,3.8V457m0,3.9v8.2M858.9,380.6v12.3m0,3.8v12.2m0,3.8V425m0,3.8V441m0,3.8V457m0,3.9v8.2M968,380.6v12.3m0,3.8v12.2m0,3.8V425m0,3.8V441m0,3.8V457m0,3.9v8.2M640.6,424.8h12.3m3.8,0h12.2m3.8,0h12.2m3.9,0H701m3.8,0H717m3.8,0h12.3m3.8,0h12.2m3.8,0h12.2m3.9,0h12.2m3.8,0h12.2m3.9,0h12.2m3.8,0h12.2m3.8,0h12.3m3.8,0h12.2m3.8,0h12.2m3.9,0h12.2m3.8,0h12.2m3.8,0h12.3m3.8,0h12.2m3.8,0h12.2m3.9,0h6.6M640.6,468.9h12.3m3.8,0h12.2m3.8,0h12.2m3.9,0H701m3.8,0H717m3.8,0h12.3m3.8,0h12.2m3.8,0h12.2m3.9,0h12.2m3.8,0h12.2m3.9,0h12.2m3.8,0h12.2m3.8,0h12.3m3.8,0h12.2m3.8,0h12.2m3.9,0h12.2m3.8,0h12.2m3.8,0h12.3m3.8,0h12.2m3.8,0h12.2m3.9,0h6.6" class="g7_7"/>
<g clip-path="url(#c0_7)">
<image preserveAspectRatio="none" x="678" y="387" width="37" height="37" xlink:href="img/9.png"/>
<image preserveAspectRatio="none" x="793" y="384" width="37" height="37" xlink:href="img/10.png"/>
<image preserveAspectRatio="none" x="907" y="383" width="37" height="37" xlink:href="img/11.png"/>
<image preserveAspectRatio="none" x="678" y="427" width="37" height="37" xlink:href="img/12.png"/>
<image preserveAspectRatio="none" x="795" y="426" width="37" height="37" xlink:href="img/13.png"/>
<image preserveAspectRatio="none" x="907" y="429" width="37" height="37" xlink:href="img/14.png"/>
</g>
<path fill-rule="evenodd" d="M968,274.6h388.3v40.2H968V274.6Z" class="g2_7"/>
<path fill-rule="evenodd" d="M968,314.8h121.5v65.1H968V314.8Z" class="g2_7"/>
<path fill-rule="evenodd" d="M1089.5,314.8h137.7v65.1H1089.5V314.8Z" class="g2_7"/>
<path fill-rule="evenodd" d="M1227.2,314.8h129.1v65.1H1227.2V314.8Z" class="g2_7"/>
<path d="M967.4,274.6h388.9M968,274V380.1" class="g5_7"/>
<path d="M967.4,314.8h389.5" class="g6_7"/>
<path d="M1089.5,312.8v67.3m137.7,-67.3v67.3m129.1,-67.3v67.3" class="g5_7"/>
<path d="M967.8,379.9h12.3m3.8,0h12.2m3.8,0h12.3m3.8,0h12.2m3.8,0h12.2m3.9,0h12.2m3.8,0h12.2m3.8,0h12.3m3.8,0h12.2m3.8,0h12.2m3.9,0h12.2m3.8,0h12.2m3.8,0h12.3m3.8,0h12.2m3.8,0h12.3m3.8,0h12.2m3.8,0h12.2m3.9,0h12.2m3.8,0h12.2m3.8,0h12.3m3.8,0h12.2m3.8,0h12.2m3.9,0H1333m3.8,0H1349m3.8,0h3.7M968,379.7V392m0,3.8V408m0,3.8v12.3m0,3.8v12.2m0,3.8v12.2m0,3.9v8.1m121.5,-88.4V392m0,3.8V408m0,3.8v12.3m0,3.8v12.2m0,3.8v12.2m0,3.9v8.1m137.7,-88.4V392m0,3.8V408m0,3.8v12.3m0,3.8v12.2m0,3.8v12.2m0,3.9v8.1m129.1,-88.4V392m0,3.8V408m0,3.8v12.3m0,3.8v12.2m0,3.8v12.2m0,3.9v8.1M967.8,423.9h12.3m3.8,0h12.2m3.8,0h12.3m3.8,0h12.2m3.8,0h12.2m3.9,0h12.2m3.8,0h12.2m3.8,0h12.3m3.8,0h12.2m3.8,0h12.2m3.9,0h12.2m3.8,0h12.2m3.8,0h12.3m3.8,0h12.2m3.8,0h12.3m3.8,0h12.2m3.8,0h12.2m3.9,0h12.2m3.8,0h12.2m3.8,0h12.3m3.8,0h12.2m3.8,0h12.2m3.9,0H1333m3.8,0H1349m3.8,0h3.7M967.8,468h12.3m3.8,0h12.2m3.8,0h12.3m3.8,0h12.2m3.8,0h12.2m3.9,0h12.2m3.8,0h12.2m3.8,0h12.3m3.8,0h12.2m3.8,0h12.2m3.9,0h12.2m3.8,0h12.2m3.8,0h12.3m3.8,0h12.2m3.8,0h12.3m3.8,0h12.2m3.8,0h12.2m3.9,0h12.2m3.8,0h12.2m3.8,0h12.3m3.8,0h12.2m3.8,0h12.2m3.9,0H1333m3.8,0H1349m3.8,0h3.7" class="g7_7"/>
<g clip-path="url(#c0_7)">
<image preserveAspectRatio="none" x="1141" y="389" width="26" height="25" xlink:href="img/15.png"/>
<image preserveAspectRatio="none" x="1016" y="387" width="25" height="26" xlink:href="img/16.png"/>
<image preserveAspectRatio="none" x="1014" y="429" width="28" height="27" xlink:href="img/17.png"/>
<image preserveAspectRatio="none" x="1144" y="434" width="23" height="23" xlink:href="img/18.png"/>
</g>
<path fill-rule="evenodd" d="M205,531.7H399.8v69.7H205V531.7Z" class="g2_7"/>
<path fill-rule="evenodd" d="M399.8,531.7H649.4v69.7H399.8V531.7Z" class="g2_7"/>
<path fill-rule="evenodd" d="M649.4,531.7h241v69.7h-241V531.7Z" class="g2_7"/>
<path fill-rule="evenodd" d="M890.4,531.7h157.8v69.7H890.4V531.7Z" class="g2_7"/>
<path fill-rule="evenodd" d="M1048.2,531.7h134.9v69.7H1048.2V531.7Z" class="g2_7"/>
<path fill-rule="evenodd" d="M1183.1,531.7h174.3v69.7H1183.1V531.7Z" class="g2_7"/>
<path d="M204.3,531.7H1358.1" class="g5_7"/>
<path d="M204.3,601.4H1358.1" class="g6_7"/>
<path d="M205,531.1v72.3M399.8,531.1v72.3M649.4,531.1v72.3m241,-72.3v72.3m157.8,-72.3v72.3m134.9,-72.3v72.3m174.3,-72.3v72.3" class="g5_7"/>
<path d="M204.8,596.7h12.3m3.8,0h12.2m3.8,0h12.2m3.9,0h12.2m3.8,0h12.2m3.8,0h12.3m3.8,0h12.2m3.8,0h12.3m3.8,0h12.2m3.8,0h12.2m3.9,0h12.2m3.8,0h12.2m3.8,0h12.3m3.8,0h12.2m3.8,0h12.2m3.9,0h12.2m3.8,0h12.2m3.8,0h12.3m3.8,0h12.2m3.8,0h12.3m3.8,0h12.2m3.8,0h12.2m3.9,0H570m3.8,0H586m3.8,0h12.3m3.8,0h12.2m3.8,0h12.2m3.9,0h12.2m3.8,0h12.2m3.8,0h12.3m3.8,0h12.2m3.8,0h12.3m3.8,0h12.2m3.8,0h12.2m3.9,0h12.2m3.8,0h12.2m3.8,0h12.3m3.8,0h12.2m3.8,0h12.2m3.9,0h12.2m3.8,0h12.2m3.8,0h12.3m3.8,0h12.2m3.8,0h12.3m3.8,0h12.2m3.8,0h12.2m3.9,0H955m3.8,0H971m3.8,0h12.3m3.8,0h12.2m3.8,0h12.2m3.9,0h12.2m3.8,0h12.2m3.8,0h12.3m3.8,0h12.2m3.8,0h12.3m3.8,0h12.2m3.8,0h12.2m3.9,0h12.2m3.8,0h12.2m3.8,0h12.3m3.8,0h12.2m3.8,0h12.2m3.9,0h12.2m3.8,0h12.2m3.8,0h12.3m3.8,0h12.2m3.8,0h12.3m3.8,0h12.2m3.8,0h12.2m3.9,0H1340m3.8,0h10.8M205,596.5v12.3m0,3.8v12.2m0,3.8v12.3m0,3.8v12.2m0,3.8v12.2m0,3.9V689m0,3.8V705m0,3.8v12.3m0,3.8v12.2m0,3.8v12.2m0,3.9v10.6M400.8,596.5v12.3m0,3.8v12.2m0,3.8v12.3m0,3.8v12.2m0,3.8v12.2m0,3.9V689m0,3.8V705m0,3.8v12.3m0,3.8v12.2m0,3.8v12.2m0,3.9v10.6M650.4,596.5v12.3m0,3.8v12.2m0,3.8v12.3m0,3.8v12.2m0,3.8v12.2m0,3.9V689m0,3.8V705m0,3.8v12.3m0,3.8v12.2m0,3.8v12.2m0,3.9v10.6M889.5,596.5v12.3m0,3.8v12.2m0,3.8v12.3m0,3.8v12.2m0,3.8v12.2m0,3.9V689m0,3.8V705m0,3.8v12.3m0,3.8v12.2m0,3.8v12.2m0,3.9v10.6M1048.2,596.5v12.3m0,3.8v12.2m0,3.8v12.3m0,3.8v12.2m0,3.8v12.2m0,3.9V689m0,3.8V705m0,3.8v12.3m0,3.8v12.2m0,3.8v12.2m0,3.9v10.6m134,-171.1v12.3m0,3.8v12.2m0,3.8v12.3m0,3.8v12.2m0,3.8v12.2m0,3.9V689m0,3.8V705m0,3.8v12.3m0,3.8v12.2m0,3.8v12.2m0,3.9v10.6M1354.4,596.5v12.3m0,3.8v12.2m0,3.8v12.3m0,3.8v12.2m0,3.8v12.2m0,3.9V689m0,3.8V705m0,3.8v12.3m0,3.8v12.2m0,3.8v12.2m0,3.9v10.6M204.8,624.2h12.3m3.8,0h12.2m3.8,0h12.2m3.9,0h12.2m3.8,0h12.2m3.8,0h12.3m3.8,0h12.2m3.8,0h12.3m3.8,0h12.2m3.8,0h12.2m3.9,0h12.2m3.8,0h12.2m3.8,0h12.3m3.8,0h12.2m3.8,0h12.2m3.9,0h12.2m3.8,0h12.2m3.8,0h12.3m3.8,0h12.2m3.8,0h12.3m3.8,0h12.2m3.8,0h12.2m3.9,0H570m3.8,0H586m3.8,0h12.3m3.8,0h12.2m3.8,0h12.2m3.9,0h12.2m3.8,0h12.2m3.8,0h12.3m3.8,0h12.2m3.8,0h12.3m3.8,0h12.2m3.8,0h12.2m3.9,0h12.2m3.8,0h12.2m3.8,0h12.3m3.8,0h12.2m3.8,0h12.2m3.9,0h12.2m3.8,0h12.2m3.8,0h12.3m3.8,0h12.2m3.8,0h12.3m3.8,0h12.2m3.8,0h12.2m3.9,0H955m3.8,0H971m3.8,0h12.3m3.8,0h12.2m3.8,0h12.2m3.9,0h12.2m3.8,0h12.2m3.8,0h12.3m3.8,0h12.2m3.8,0h12.3m3.8,0h12.2m3.8,0h12.2m3.9,0h12.2m3.8,0h12.2m3.8,0h12.3m3.8,0h12.2m3.8,0h12.2m3.9,0h12.2m3.8,0h12.2m3.8,0h12.3m3.8,0h12.2m3.8,0h12.3m3.8,0h12.2m3.8,0h12.2m3.9,0H1340m3.8,0h10.8M204.8,668.3h12.3m3.8,0h12.2m3.8,0h12.2m3.9,0h12.2m3.8,0h12.2m3.8,0h12.3m3.8,0h12.2m3.8,0h12.3m3.8,0h12.2m3.8,0h12.2m3.9,0h12.2m3.8,0h12.2m3.8,0h12.3m3.8,0h12.2m3.8,0h12.2m3.9,0h12.2m3.8,0h12.2m3.8,0h12.3m3.8,0h12.2m3.8,0h12.3m3.8,0h12.2m3.8,0h12.2m3.9,0H570m3.8,0H586m3.8,0h12.3m3.8,0h12.2m3.8,0h12.2m3.9,0h12.2m3.8,0h12.2m3.8,0h12.3m3.8,0h12.2m3.8,0h12.3m3.8,0h12.2m3.8,0h12.2m3.9,0h12.2m3.8,0h12.2m3.8,0h12.3m3.8,0h12.2m3.8,0h12.2m3.9,0h12.2m3.8,0h12.2m3.8,0h12.3m3.8,0h12.2m3.8,0h12.3m3.8,0h12.2m3.8,0h12.2m3.9,0H955m3.8,0H971m3.8,0h12.3m3.8,0h12.2m3.8,0h12.2m3.9,0h12.2m3.8,0h12.2m3.8,0h12.3m3.8,0h12.2m3.8,0h12.3m3.8,0h12.2m3.8,0h12.2m3.9,0h12.2m3.8,0h12.2m3.8,0h12.3m3.8,0h12.2m3.8,0h12.2m3.9,0h12.2m3.8,0h12.2m3.8,0h12.3m3.8,0h12.2m3.8,0h12.3m3.8,0h12.2m3.8,0h12.2m3.9,0H1340m3.8,0h10.8M204.8,695.8h12.3m3.8,0h12.2m3.8,0h12.2m3.9,0h12.2m3.8,0h12.2m3.8,0h12.3m3.8,0h12.2m3.8,0h12.3m3.8,0h12.2m3.8,0h12.2m3.9,0h12.2m3.8,0h12.2m3.8,0h12.3m3.8,0h12.2m3.8,0h12.2m3.9,0h12.2m3.8,0h12.2m3.8,0h12.3m3.8,0h12.2m3.8,0h12.3m3.8,0h12.2m3.8,0h12.2m3.9,0H570m3.8,0H586m3.8,0h12.3m3.8,0h12.2m3.8,0h12.2m3.9,0h12.2m3.8,0h12.2m3.8,0h12.3m3.8,0h12.2m3.8,0h12.3m3.8,0h12.2m3.8,0h12.2m3.9,0h12.2m3.8,0h12.2m3.8,0h12.3m3.8,0h12.2m3.8,0h12.2m3.9,0h12.2m3.8,0h12.2m3.8,0h12.3m3.8,0h12.2m3.8,0h12.3m3.8,0h12.2m3.8,0h12.2m3.9,0H955m3.8,0H971m3.8,0h12.3m3.8,0h12.2m3.8,0h12.2m3.9,0h12.2m3.8,0h12.2m3.8,0h12.3m3.8,0h12.2m3.8,0h12.3m3.8,0h12.2m3.8,0h12.2m3.9,0h12.2m3.8,0h12.2m3.8,0h12.3m3.8,0h12.2m3.8,0h12.2m3.9,0h12.2m3.8,0h12.2m3.8,0h12.3m3.8,0h12.2m3.8,0h12.3m3.8,0h12.2m3.8,0h12.2m3.9,0H1340m3.8,0h10.8M204.8,739.9h12.3m3.8,0h12.2m3.8,0h12.2m3.9,0h12.2m3.8,0h12.2m3.8,0h12.3m3.8,0h12.2m3.8,0h12.3m3.8,0h12.2m3.8,0h12.2m3.9,0h12.2m3.8,0h12.2m3.8,0h12.3m3.8,0h12.2m3.8,0h12.2m3.9,0h12.2m3.8,0h12.2m3.8,0h12.3m3.8,0h12.2m3.8,0h12.3m3.8,0h12.2m3.8,0h12.2m3.9,0H570m3.8,0H586m3.8,0h12.3m3.8,0h12.2m3.8,0h12.2m3.9,0h12.2m3.8,0h12.2m3.8,0h12.3m3.8,0h12.2m3.8,0h12.3m3.8,0h12.2m3.8,0h12.2m3.9,0h12.2m3.8,0h12.2m3.8,0h12.3m3.8,0h12.2m3.8,0h12.2m3.9,0h12.2m3.8,0h12.2m3.8,0h12.3m3.8,0h12.2m3.8,0h12.3m3.8,0h12.2m3.8,0h12.2m3.9,0H955m3.8,0H971m3.8,0h12.3m3.8,0h12.2m3.8,0h12.2m3.9,0h12.2m3.8,0h12.2m3.8,0h12.3m3.8,0h12.2m3.8,0h12.3m3.8,0h12.2m3.8,0h12.2m3.9,0h12.2m3.8,0h12.2m3.8,0h12.3m3.8,0h12.2m3.8,0h12.2m3.9,0h12.2m3.8,0h12.2m3.8,0h12.3m3.8,0h12.2m3.8,0h12.3m3.8,0h12.2m3.8,0h12.2m3.9,0H1340m3.8,0h10.8M204.8,767.4h12.3m3.8,0h12.2m3.8,0h12.2m3.9,0h12.2m3.8,0h12.2m3.8,0h12.3m3.8,0h12.2m3.8,0h12.3m3.8,0h12.2m3.8,0h12.2m3.9,0h12.2m3.8,0h12.2m3.8,0h12.3m3.8,0h12.2m3.8,0h12.2m3.9,0h12.2m3.8,0h12.2m3.8,0h12.3m3.8,0h12.2m3.8,0h12.3m3.8,0h12.2m3.8,0h12.2m3.9,0H570m3.8,0H586m3.8,0h12.3m3.8,0h12.2m3.8,0h12.2m3.9,0h12.2m3.8,0h12.2m3.8,0h12.3m3.8,0h12.2m3.8,0h12.3m3.8,0h12.2m3.8,0h12.2m3.9,0h12.2m3.8,0h12.2m3.8,0h12.3m3.8,0h12.2m3.8,0h12.2m3.9,0h12.2m3.8,0h12.2m3.8,0h12.3m3.8,0h12.2m3.8,0h12.3m3.8,0h12.2m3.8,0h12.2m3.9,0H955m3.8,0H971m3.8,0h12.3m3.8,0h12.2m3.8,0h12.2m3.9,0h12.2m3.8,0h12.2m3.8,0h12.3m3.8,0h12.2m3.8,0h12.3m3.8,0h12.2m3.8,0h12.2m3.9,0h12.2m3.8,0h12.2m3.8,0h12.3m3.8,0h12.2m3.8,0h12.2m3.9,0h12.2m3.8,0h12.2m3.8,0h12.3m3.8,0h12.2m3.8,0h12.3m3.8,0h12.2m3.8,0h12.2m3.9,0H1340m3.8,0h10.8" class="g7_7"/>
<path fill-rule="evenodd" d="M892,532.1h290v31.2H892V532.1Z" class="g2_7"/>
<path d="M892,563.3h12.2m3.8,0h12.2m3.8,0h12.3m3.8,0h12.2m3.8,0h12.2m3.9,0h12.2m3.8,0h12.2m3.8,0h12.3m3.8,0h12.2m3.8,0h12.3m3.8,0h12.2m3.8,0h12.2m3.9,0h12.2m3.8,0h12.2m3.8,0h12.3m3.8,0h12.2m3.8,0h12.2m3.9,0h12.2m3.8,0h1.3" class="g7_7"/>
<path fill-rule="evenodd" d="M206.6,517.9h44.1v-3.1l6.1,6.1l-6.1,6.2V524H206.6v-6.1Z" class="g8_7"/>
<path d="M206.6,517.9h44.1v-3.1l6.1,6.1l-6.1,6.2V524H206.6v-6.1Z" class="g9_7"/>
<path fill-rule="evenodd" d="M198.1,601.4V749.8H201l-5.9,5.8l-5.8,-5.8h2.9V601.4h5.9Z" class="g8_7"/>
<path d="M198.1,601.4V749.8H201l-5.9,5.8l-5.8,-5.8h2.9V601.4h5.9Z" class="g9_7"/>
<path d="M99,796.1h40.6" class="ga_7"/>
</svg>