<?xml version="1.0" encoding="UTF-8" standalone="no"?>
<!DOCTYPE svg PUBLIC "-//W3C//DTD SVG 1.1//EN"
"http://www.w3.org/Graphics/SVG/1.1/DTD/svg11.dtd">
<svg viewBox="0 0 1466 825" version="1.1" xmlns="http://www.w3.org/2000/svg" xmlns:xlink="http://www.w3.org/1999/xlink">
<defs>
<clipPath id="c0_24"><path d="M0,825V0H1466.6V825Z"/></clipPath>
<style type="text/css"><![CDATA[
.g0_24{
fill: #FFF;
}
.g1_24{
fill: none;
stroke: #C00000;
stroke-width: 0.779;
stroke-miterlimit: 10;
}
.g2_24{
fill: #C00000;
}
.g3_24{
fill: #BFBFBF;
}
.g4_24{
fill: none;
stroke: #AFABAB;
stroke-width: 0.692;
stroke-linejoin: round;
}
.g5_24{
fill: none;
stroke: #BFBFBF;
stroke-width: 0.779;
stroke-miterlimit: 3;
}
.g6_24{
fill: none;
stroke: #000;
stroke-width: 0.909;
stroke-miterlimit: 10;
}
.g7_24{
fill: #F8CBAD;
}
.g8_24{
fill: #B4C7E7;
}
.g9_24{
fill: none;
stroke: #8FAADC;
stroke-width: 1.515;
stroke-miterlimit: 3;
}
.ga_24{
fill: none;
stroke: #A6A6A6;
stroke-width: 0.779;
stroke-miterlimit: 10;
}
.gb_24{
fill: #A6A6A6;
}
.gc_24{
fill: #D8BDED;
}
.gd_24{
fill: none;
stroke: #A6A6A6;
stroke-width: 0.779;
stroke-miterlimit: 3;
}
.ge_24{
fill: #D9D9D9;
}
.gf_24{
fill: none;
stroke: #BFBFBF;
stroke-width: 1.515;
stroke-miterlimit: 3;
}
.gg_24{
fill: none;
stroke: #325490;
stroke-width: 0.779;
stroke-miterlimit: 3;
}
.gh_24{
fill: #F2F2F2;
}
.gi_24{
fill: none;
stroke: #808080;
stroke-width: 1.515;
stroke-miterlimit: 3;
}
.gj_24{
fill: #BDD7EE;
}
.gk_24{
fill: none;
stroke: #A6A6A6;
stroke-width: 1.125;
stroke-miterlimit: 10;
}
.gl_24{
fill: #C5E0B4;
}
.gm_24{
fill: none;
stroke: #0563C1;
stroke-width: 0.909;
stroke-miterlimit: 10;
}
]]></style>
</defs>
<g clip-path="url(#c0_24)">
<path fill-rule="evenodd" d="M0,0H1466.6V825H0V0Z" class="g0_24"/>
<path fill-rule="evenodd" d="M0,0H1466.7V825H0V0Z" class="g0_24"/>
</g>
<path d="M1228.2,681.5V692h134.6V603.2" class="g1_24"/>
<path fill-rule="evenodd" d="M1362.8,594.7l4.6,9.1l-4.6,-3.7l-4.5,3.7l4.5,-9.1Z" class="g2_24"/>
<path fill-rule="evenodd" d="M1167.3,37.9L1135.6,20.7c-2,-1,-.9,-3.3,1.6,-3.3H1356c.6,0,1.1,.1,1.5,.3l37.8,20.2c1.4,.7,1.4,2.2,0,2.9l-37.7,20.8c-.5,.2,-1,.4,-1.6,.4H1136.9c-2.3,0,-3.4,-2.3,-1.4,-3.4l31.8,-17.8c1.4,-.7,1.3,-2.2,0,-2.9Z" class="g3_24"/>
<path d="M140.3,212.2v12.3m0,3.8v11.5" class="g4_24"/>
<path d="M745.7,175H83.7V94h1324v81h-662Zm0,590.3H83.7V179.4h1324V765.3h-662Z" class="g5_24"/>
<path d="M94,201.3H492.6" class="g6_24"/>
<path d="M140.3,239.4v12.3m0,3.8V267m0,-1.2V278m0,3.8v12.3m0,3.8v12m0,-5.5v12.2m0,3.8v12.2m0,3.9v12.2m0,3.8v12.2" class="g4_24"/>
<path fill-rule="evenodd" d="M1195.6,289.7c0,15,-12.1,27.2,-26.9,27.2c-14.9,0,-26.9,-12.2,-26.9,-27.2c0,-15,12,-27.2,26.9,-27.2c14.8,0,26.9,12.2,26.9,27.2Z" class="g7_24"/>
<path fill-rule="evenodd" d="M1051,281c0,-.8,.2,-1.7,.6,-2.4c.4,-.7,1,-1.3,1.7,-1.7c.7,-.4,1.5,-.6,2.4,-.6h58c.8,0,1.6,.3,2.3,.6c.7,.5,1.3,1.1,1.7,1.8c.4,.7,.7,1.5,.7,2.3v18.7c0,.8,-.3,1.6,-.6,2.3c-.5,.7,-1.1,1.3,-1.8,1.7c-.7,.4,-1.5,.7,-2.3,.7h-58.1c-.8,0,-1.6,-.3,-2.3,-.6c-.7,-.5,-1.3,-1.1,-1.7,-1.8c-.5,-.7,-.7,-1.5,-.7,-2.3L1051,281Z" class="g8_24"/>
<path d="M1051,281c0,-.8,.2,-1.7,.6,-2.4c.4,-.7,1,-1.3,1.7,-1.7c.7,-.4,1.5,-.6,2.4,-.6h58c.8,0,1.6,.3,2.3,.6c.7,.5,1.3,1.1,1.7,1.8c.4,.7,.7,1.5,.7,2.3v18.7c0,.8,-.3,1.6,-.6,2.3c-.5,.7,-1.1,1.3,-1.8,1.7c-.7,.4,-1.5,.7,-2.3,.7h-58.1c-.8,0,-1.6,-.3,-2.3,-.6c-.7,-.5,-1.3,-1.1,-1.7,-1.8c-.5,-.7,-.7,-1.5,-.7,-2.3L1051,281Z" class="g9_24"/>
<path d="M1118.3,290.3l15.3,.1" class="ga_24"/>
<path fill-rule="evenodd" d="M1142.1,290.4l-9.1,4.5l3.7,-4.5l-3.7,-4.6l9.1,4.6Z" class="gb_24"/>
<path fill-rule="evenodd" d="M1261.6,333.5c0,13.6,-11,24.7,-24.5,24.7c-13.5,0,-24.4,-11.1,-24.4,-24.7c0,-13.7,10.9,-24.8,24.4,-24.8c13.5,0,24.5,11.1,24.5,24.8Z" class="gc_24"/>
<path d="M1168.7,316.9v16.9" class="gd_24"/>
<path d="M1168.1,333.5l36.1,.1" class="ga_24"/>
<path fill-rule="evenodd" d="M1212.6,333.6l-9.1,4.5l3.7,-4.5l-3.7,-4.6l9.1,4.6Z" class="gb_24"/>
<path fill-rule="evenodd" d="M1308.8,300.8h-33.7V277h67.3v23.8h-33.6Z" class="ge_24"/>
<path d="M1308.8,300.8h-33.7V277h67.3v23.8h-33.6Z" class="gf_24"/>
<path d="M1261.5,333.5h47.3V309.3" class="ga_24"/>
<path fill-rule="evenodd" d="M1308.8,300.8l4.5,9.1l-4.5,-3.7l-4.6,3.7l4.6,-9.1Z" class="gb_24"/>
<path d="M1275,288.9l-71,.7" class="ga_24"/>
<path fill-rule="evenodd" d="M1195.5,289.6l9,-4.6l-3.6,4.6l3.7,4.5l-9.1,-4.5Z" class="gb_24"/>
<path d="M140.1,368.9v12.2m0,3.9v11.5" class="g4_24"/>
<path d="M1240.5,362.4h-110V254.9h220V362.4h-110Z" class="gg_24"/>
<path fill-rule="evenodd" d="M1171.6,373.7h-30.3V351.9h60.6v21.8h-30.3Z" class="g0_24"/>
<path fill-rule="evenodd" d="M1294.5,373.7h-32.8V351.9h65.6v21.8h-32.8Z" class="g0_24"/>
<path d="M140.1,394.9v12.2m0,3.8v12.3m0,3.8v11.9" class="g4_24"/>
<path fill-rule="evenodd" d="M1269,315.6l2.1,-2l2,2h-1v6.2H1270v-6.2h-1Z" class="gh_24"/>
<path d="M1269,315.6l2.1,-2l2,2h-1v6.2H1270v-6.2h-1Z" class="gi_24"/>
<path fill-rule="evenodd" d="M1215.9,360.3h4.8v-2.1l4.3,4.3l-4.3,4.3v-2.2h-4.8v-4.3Z" class="gj_24"/>
<path d="M1215.9,360.3h4.8v-2.1l4.3,4.3l-4.3,4.3v-2.2h-4.8v-4.3Z" class="g9_24"/>
<path fill-rule="evenodd" d="M1329.2,359.9h4.8v-2.1l4.3,4.3l-4.3,4.3v-2.2h-4.8v-4.3Z" class="gj_24"/>
<path d="M1329.2,359.9h4.8v-2.1l4.3,4.3l-4.3,4.3v-2.2h-4.8v-4.3Z" class="g9_24"/>
<path fill-rule="evenodd" d="M1348.6,316.5l-.2,-4.8l-2.1,.2l4.1,-4.5l4.5,4l-2.2,.2l.2,4.8l-4.3,.1Z" class="gj_24"/>
<path d="M1348.6,316.5l-.2,-4.8l-2.1,.2l4.1,-4.5l4.5,4l-2.2,.2l.2,4.8l-4.3,.1Z" class="g9_24"/>
<path fill-rule="evenodd" d="M1241.3,257.2h-4.8v2.1l-4.3,-4.3l4.3,-4.3v2.2h4.8v4.3Z" class="gj_24"/>
<path d="M1241.3,257.2h-4.8v2.1l-4.3,-4.3l4.3,-4.3v2.2h4.8v4.3Z" class="g9_24"/>
<path fill-rule="evenodd" d="M1132.5,312.7v4.8h2.1l-4.2,4.3l-4.3,-4.3h2.1v-4.8h4.3Z" class="gj_24"/>
<path d="M1132.5,312.7v4.8h2.1l-4.2,4.3l-4.3,-4.3h2.1v-4.8h4.3Z" class="g9_24"/>
<path d="M140.1,432.1v12.2m0,3.8v12.3m0,3.8v11.9m0,-1.4v12.2m0,3.8V503m0,3.8v11.9" class="g4_24"/>
<path fill-rule="evenodd" d="M1308.8,273.1h-33.7V259.8h67.3v13.3h-33.6Z" class="ge_24"/>
<path d="M1308.8,273.1h-3.4m-1.1,0h-3.4m-1.1,0h-3.4m-1.1,0h-3.4m-1.1,0h-3.4m-1.1,0h-3.4m-1.1,0h-3.4m-1.1,0h-2.2v-1.2m0,-1.1v-3.4m0,-1.1v-3.4m0,-1.1v-2h1.5m1.1,0h3.4m1.1,0h3.4m1.1,0h3.4m1.1,0h3.4m1.1,0h3.4m1.1,0h3.4m1.1,0h3.4m1.1,0h3.4m1.1,0h3.4m1.1,0h3.4m1.1,0h3.4m1.1,0h3.4m1.1,0h3.4m1.1,0h3.4m1.1,0h1.7v1.7m0,1.2V266m0,1.2v3.3m0,1.2v1.4h-1.8m-1.2,0h-3.3m-1.2,0h-3.3m-1.2,0h-3.3m-1.2,0h-3.3m-1.2,0h-3.3m-1.2,0h-3.4m-1.1,0H1309" class="gk_24"/>
<path d="M140.1,549.2v12.2m0,3.8v12.3m0,3.8v12.2m0,3.8v12.2m0,3.9v12.2" class="g4_24"/>
<path d="M93.7,540.3H410.4" class="g6_24"/>
<path d="M140.1,620.2v12.2m0,3.8v12.3m0,3.8v12.2m0,3.8v12.2m0,3.9v12.2" class="g4_24"/>
<path fill-rule="evenodd" d="M1197.3,596.1c0,15,-12.1,27.3,-26.9,27.3c-14.8,0,-26.9,-12.3,-26.9,-27.3c0,-15,12.1,-27.2,26.9,-27.2c14.8,0,26.9,12.2,26.9,27.2Z" class="gl_24"/>
<path fill-rule="evenodd" d="M1052.7,587.5c0,-.9,.2,-1.7,.6,-2.4c.4,-.7,1,-1.3,1.7,-1.7c.7,-.4,1.5,-.6,2.3,-.6h58.1c.8,0,1.6,.2,2.3,.6c.7,.5,1.3,1.1,1.7,1.8c.4,.7,.7,1.5,.7,2.3v18.7c0,.8,-.3,1.6,-.7,2.3c-.4,.7,-1,1.3,-1.7,1.7c-.7,.4,-1.5,.6,-2.3,.6h-58.1c-.8,0,-1.6,-.2,-2.3,-.6c-.7,-.4,-1.3,-1,-1.7,-1.7c-.5,-.7,-.7,-1.5,-.7,-2.3l.1,-18.7Z" class="g8_24"/>
<path d="M1052.7,587.5c0,-.9,.2,-1.7,.6,-2.4c.4,-.7,1,-1.3,1.7,-1.7c.7,-.4,1.5,-.6,2.3,-.6h58.1c.8,0,1.6,.2,2.3,.6c.7,.5,1.3,1.1,1.7,1.8c.4,.7,.7,1.5,.7,2.3v18.7c0,.8,-.3,1.6,-.7,2.3c-.4,.7,-1,1.3,-1.7,1.7c-.7,.4,-1.5,.6,-2.3,.6h-58.1c-.8,0,-1.6,-.2,-2.3,-.6c-.7,-.4,-1.3,-1,-1.7,-1.7c-.5,-.7,-.7,-1.5,-.7,-2.3l.1,-18.7Z" class="g9_24"/>
<path fill-rule="evenodd" d="M1279.4,596.1c0,15,-12.1,27.3,-26.9,27.3c-14.9,0,-26.9,-12.3,-26.9,-27.3c0,-15,12,-27.2,26.9,-27.2c14.8,0,26.9,12.2,26.9,27.2Z" class="g7_24"/>
<path d="M1086.4,582.8V533.3m-.3,0l166,.1" class="gd_24"/>
<path d="M1252.1,533.4l.3,27" class="ga_24"/>
<path fill-rule="evenodd" d="M1252.5,568.9l-4.6,-9.1l4.6,3.6l4.5,-3.7l-4.5,9.2Z" class="gb_24"/>
<path d="M1171.2,533.4l.3,27" class="ga_24"/>
<path fill-rule="evenodd" d="M1171.5,568.9l-4.6,-9.1l4.6,3.6l4.5,-3.7l-4.5,9.2Z" class="gb_24"/>
<image clip-path="url(#c0_24)" preserveAspectRatio="none" x="1182" y="604" width="25" height="26" xlink:href="img/1.png"/>
<path fill-rule="evenodd" d="M1175.7,651.2c0,-1.1,.3,-2.2,.9,-3.1c.5,-.9,1.3,-1.7,2.2,-2.2c.9,-.5,2,-.8,3,-.8h64c1.1,0,2.1,.3,3,.8c1,.5,1.7,1.3,2.3,2.2c.5,1,.8,2,.8,3.1v24.3c0,1,-.2,2.1,-.8,3c-.5,.9,-1.3,1.7,-2.2,2.2c-1,.6,-2,.8,-3,.8l-64.1,.1c-1.1,0,-2.1,-.3,-3,-.9c-1,-.5,-1.7,-1.3,-2.3,-2.2c-.5,-.9,-.8,-2,-.8,-3V651.2Z" class="g8_24"/>
<path d="M1175.7,651.2c0,-1.1,.3,-2.2,.9,-3.1c.5,-.9,1.3,-1.7,2.2,-2.2c.9,-.5,2,-.8,3,-.8h64c1.1,0,2.1,.3,3,.8c1,.5,1.7,1.3,2.3,2.2c.5,1,.8,2,.8,3.1v24.3c0,1,-.2,2.1,-.8,3c-.5,.9,-1.3,1.7,-2.2,2.2c-1,.6,-2,.8,-3,.8l-64.1,.1c-1.1,0,-2.1,-.3,-3,-.9c-1,-.5,-1.7,-1.3,-2.3,-2.2c-.5,-.9,-.8,-2,-.8,-3V651.2Z" class="g9_24"/>
<path d="M140.1,691.1v12.2m0,3.8v11.5" class="g4_24"/>
<path d="M1170.4,623.3h27.4v10.9h-49.6v29.1h19" class="ga_24"/>
<path fill-rule="evenodd" d="M1175.7,663.3l-9.1,4.6l3.6,-4.6l-3.6,-4.5l9.1,4.5Z" class="gb_24"/>
<path d="M1253.7,624.1h12v40.1h-4.1" class="ga_24"/>
<path fill-rule="evenodd" d="M1253.1,664.2l9.1,-4.6l-3.7,4.6l3.7,4.5l-9.1,-4.5Z" class="gb_24"/>
<path fill-rule="evenodd" d="M1341.4,641.2c0,13.6,-10.9,24.7,-24.4,24.7c-13.5,0,-24.5,-11.1,-24.5,-24.7c0,-13.7,11,-24.7,24.5,-24.7c13.5,0,24.4,11,24.4,24.7Z" class="gc_24"/>
<path fill-rule="evenodd" d="M1362.9,594.7h-33.7V570.9h67.3v23.8h-33.6Z" class="ge_24"/>
<path d="M1362.9,594.7h-33.7V570.9h67.3v23.8h-33.6Z" class="gf_24"/>
<path fill-rule="evenodd" d="M1352.4,652.9h20.8v20.8h-20.8V652.9Z" class="g0_24"/>
<image clip-path="url(#c0_24)" preserveAspectRatio="none" x="1352" y="653" width="21" height="21" xlink:href="img/2.png"/>
<path d="M1341.4,641.2h21.5V594.6" class="gd_24"/>
<path d="M140.1,716.3v12.3m0,3.8v12.2m0,3.8v12" class="g4_24"/>
<path d="M1275.1,641.2h8.9" class="ga_24"/>
<path fill-rule="evenodd" d="M1292.5,641.3l-9.2,4.5l3.7,-4.6l-3.6,-4.5l9.1,4.6Z" class="gb_24"/>
<path d="M1264.8,619l10.9,22.2" class="gd_24"/>
<path d="M99,796.1h40.6" class="gm_24"/>
</svg>