<?xml version="1.0" encoding="UTF-8" standalone="no"?>
<!DOCTYPE svg PUBLIC "-//W3C//DTD SVG 1.1//EN"
"http://www.w3.org/Graphics/SVG/1.1/DTD/svg11.dtd">
<svg viewBox="0 0 1466 825" version="1.1" xmlns="http://www.w3.org/2000/svg" xmlns:xlink="http://www.w3.org/1999/xlink">
<defs>
<clipPath id="c0_27"><path d="M0,825V0H1466.6V825Z"/></clipPath>
<style type="text/css"><![CDATA[
.g0_27{
fill: #FFF;
}
.g1_27{
fill: #BFBFBF;
}
.g2_27{
fill: none;
stroke: #A6A6A6;
stroke-width: 0.389;
stroke-linejoin: round;
}
.g3_27{
fill: none;
stroke: #AFABAB;
stroke-width: 0.692;
stroke-linejoin: round;
}
.g4_27{
fill: #F8CBAD;
}
.g5_27{
fill: #D9D9D9;
}
.g6_27{
fill: #808080;
}
.g7_27{
fill: none;
stroke: #D9D9D9;
stroke-width: 1.515;
stroke-miterlimit: 3;
}
.g8_27{
fill: #ED7D31;
}
.g9_27{
fill: #548235;
}
.ga_27{
fill: #FFDF79;
}
.gb_27{
fill: none;
stroke: #BF9000;
stroke-width: 1.515;
stroke-miterlimit: 3;
}
.gc_27{
fill: none;
stroke: #A6A6A6;
stroke-width: 0.779;
stroke-miterlimit: 10;
}
.gd_27{
fill: #A6A6A6;
}
.ge_27{
fill: #DBDBDB;
}
.gf_27{
fill: none;
stroke: #BFBFBF;
stroke-width: 1.515;
stroke-miterlimit: 3;
}
.gg_27{
fill: #F2F2F2;
}
.gh_27{
fill: none;
stroke: #000;
stroke-width: 0.909;
stroke-miterlimit: 10;
}
.gi_27{
fill: none;
stroke: #A6A6A6;
stroke-width: 0.389;
stroke-miterlimit: 3;
}
.gj_27{
fill: #D8BDED;
}
.gk_27{
fill: none;
stroke: #7030A0;
stroke-width: 0.779;
stroke-miterlimit: 3;
}
.gl_27{
fill: #7030A0;
}
.gm_27{
fill: #FFF2CC;
}
.gn_27{
fill: none;
stroke: #808080;
stroke-width: 0.779;
stroke-miterlimit: 3;
}
.go_27{
fill: none;
stroke: #7030A0;
stroke-width: 1.125;
stroke-miterlimit: 3;
}
]]></style>
</defs>
<g clip-path="url(#c0_27)">
<path fill-rule="evenodd" d="M0,0H1466.6V825H0V0Z" class="g0_27"/>
<path fill-rule="evenodd" d="M0,0H1466.7V825H0V0Z" class="g0_27"/>
</g>
<path fill-rule="evenodd" d="M1170.1,42.1L1138.5,24.9c-2,-1.1,-1,-3.4,1.5,-3.4h218.9c.6,0,1.1,.1,1.5,.4l37.7,20.2c1.4,.7,1.5,2.2,.1,2.9l-37.8,20.7c-.4,.3,-.9,.5,-1.5,.5H1139.8c-2.4,0,-3.4,-2.3,-1.5,-3.4L1170.2,45c1.3,-.7,1.3,-2.2,-.1,-2.9Z" class="g1_27"/>
<path d="M748.8,258.5H76.5V77.2H1421V258.5H748.8Z" class="g2_27"/>
<path d="M189.9,267.4v12.2m0,3.8v12.3m0,3.8v12m0,.6v12.2m0,3.8v12.3m0,3.8v12m0,-1v12.2m0,3.8v12.2m0,3.9v12.2m0,3.8v12.2m0,3.8v12.3" class="g3_27"/>
<path fill-rule="evenodd" d="M1217.3,296.7c0,15,-12.1,27.2,-26.9,27.2c-14.8,0,-26.9,-12.2,-26.9,-27.2c0,-15.1,12.1,-27.2,26.9,-27.2c14.8,0,26.9,12.1,26.9,27.2Z" class="g4_27"/>
<path fill-rule="evenodd" d="M1060.3,410.4h-53.2V320.6h106.5v89.8h-53.3Z" class="g5_27"/>
<path fill-rule="evenodd" d="M1060.4,343.1h-53.3V321.6h106.7v21.5h-53.4Z" class="g6_27"/>
<path fill-rule="evenodd" d="M1084.9,374.5h-23.4V351.4h46.9v23.1h-23.5Z" class="g0_27"/>
<path d="M1061.5,376.5c13.5,-4,24.8,3.3,46.9,0c2.4,5.1,-.9,18,0,22.8c-20.8,2,-32.8,-4.1,-46.9,0c-1.9,-8.1,.7,-15.5,0,-22.8Z" class="g7_27"/>
<path fill-rule="evenodd" d="M1061.5,376.5c18.2,-3.1,27.4,3,46.9,0c.6,4.6,-1.4,17.5,0,22.8c-15.5,4.3,-36.5,-4.3,-46.9,0c-1.3,-5.5,.8,-14.6,0,-22.8Z" class="g0_27"/>
<path fill-rule="evenodd" d="M1078.6,359.7h-14.9v-3.9h29.8v3.9h-14.9Z" class="g8_27"/>
<path fill-rule="evenodd" d="M1078.6,365.1h-14.9v-3.9h29.8v3.9h-14.9Z" class="g8_27"/>
<path fill-rule="evenodd" d="M1076,370.8h-12.3v-3.9h24.6v3.9H1076Z" class="g8_27"/>
<path fill-rule="evenodd" d="M1078.6,386.8h-14.9v-3.9h29.8v3.9h-14.9Z" class="g9_27"/>
<path fill-rule="evenodd" d="M1076,392.5h-12.3v-3.8h24.6v3.8H1076Z" class="g9_27"/>
<path fill-rule="evenodd" d="M1196.8,395.4h-47.3V347.8h94.6v47.6h-47.3Z" class="ga_27"/>
<path d="M1196.8,395.4h-47.3V347.8h94.6v47.6h-47.3Z" class="gb_27"/>
<path d="M1184.4,323.9l.1,15.5" class="gc_27"/>
<path fill-rule="evenodd" d="M1184.5,347.9l-4.6,-9.1l4.6,3.7l4.5,-3.7l-4.5,9.1Z" class="gd_27"/>
<path d="M1199.4,346.2V330.6" class="gc_27"/>
<path fill-rule="evenodd" d="M1199.3,322.2l4.6,9.1l-4.6,-3.7l-4.5,3.7l4.5,-9.1Z" class="gd_27"/>
<path d="M1119.4,371.6l20.3,.1" class="gc_27"/>
<path fill-rule="evenodd" d="M1148.2,371.7l-9.1,4.5l3.6,-4.5l-3.6,-4.6l9.1,4.6Z" class="gd_27"/>
<path d="M1145.7,380.6l-20.2,-.1" class="gc_27"/>
<path fill-rule="evenodd" d="M1117,380.5l9.1,-4.5l-3.7,4.5l3.7,4.6l-9.1,-4.6Z" class="gd_27"/>
<path fill-rule="evenodd" d="M1348.5,371h-67.1V316.6h134.3V371h-67.2Z" class="ge_27"/>
<path d="M1348.5,371h-67.1V316.6h134.3V371h-67.2Z" class="gf_27"/>
<path fill-rule="evenodd" d="M1348.2,422.3h-67.4V374.8h134.9v47.5h-67.5Z" class="gg_27"/>
<path d="M1348.2,422.3h-67.4V374.8h134.9v47.5h-67.5Z" class="gf_27"/>
<g clip-path="url(#c0_27)">
<image preserveAspectRatio="none" x="1290" y="335" width="20" height="20" xlink:href="img/1.png"/>
<image preserveAspectRatio="none" x="1343" y="335" width="21" height="20" xlink:href="img/2.png"/>
<image preserveAspectRatio="none" x="1387" y="335" width="20" height="20" xlink:href="img/3.png"/>
</g>
<path d="M1246.7,354.9l16.1,-8" class="gc_27"/>
<path fill-rule="evenodd" d="M1270.4,343.1l-6.1,8.1l1.2,-5.7l-5.3,-2.4h10.2Z" class="gd_27"/>
<path d="M1273.8,393.1l-18,-8.9" class="gc_27"/>
<path fill-rule="evenodd" d="M1248.2,380.5l10.2,-.1l-5.3,2.5l1.2,5.7l-6.1,-8.1Z" class="gd_27"/>
<path d="M1269.2,354.1l-16,8" class="gc_27"/>
<path fill-rule="evenodd" d="M1245.6,365.9l6.1,-8.1l-1.3,5.6l5.3,2.5h-10.1Z" class="gd_27"/>
<path d="M1245.7,391.4l18,8.9" class="gc_27"/>
<path fill-rule="evenodd" d="M1271.3,404.1h-10.2l5.3,-2.4l-1.2,-5.7l6.1,8.1Z" class="gd_27"/>
<path d="M89.5,454.6H402.4" class="gh_27"/>
<path d="M748.8,429.8H76.5V263.7H1421V429.8H748.8Zm0,245.3H76.5V433.5H1421V675.1H748.8Z" class="gi_27"/>
<path d="M111.9,459.6v12.2m0,3.8v12.3m0,3.8v11.9m0,-2.7v12.2m0,3.8v12.3m0,3.8v11.9m0,-.4v12.3m0,3.8v12.2m0,3.8v12m0,-1.1v12.2m0,3.8v12.2m0,3.9v11.9m0,-3.1v12.2m0,3.9v12.2m0,3.8v12" class="g3_27"/>
<path fill-rule="evenodd" d="M1091.5,544.2h-53.3V453.4h106.5v90.8h-53.2Z" class="g5_27"/>
<path fill-rule="evenodd" d="M1091.6,475.9h-53.4V454.4h106.7v21.5h-53.3Z" class="g6_27"/>
<path fill-rule="evenodd" d="M1116.1,507.2h-23.5v-23h46.9v23h-23.4Z" class="g0_27"/>
<path fill-rule="evenodd" d="M1109.7,492.4h-14.9v-3.8h29.8v3.8h-14.9Z" class="g8_27"/>
<path fill-rule="evenodd" d="M1109.7,497.9h-14.9V494h29.8v3.9h-14.9Z" class="g8_27"/>
<path fill-rule="evenodd" d="M1107.1,503.6h-12.3v-3.9h24.6v3.9h-12.3Z" class="g8_27"/>
<path fill-rule="evenodd" d="M1159.1,492.9l10,-20h28.4l10.1,20l-10.1,20h-28.4l-10,-20Z" class="gj_27"/>
<path d="M1159.1,492.9l10,-20h28.4l10.1,20l-10.1,20h-28.4l-10,-20Z" class="gk_27"/>
<path fill-rule="evenodd" d="M1240.7,514.6H1218V472.9h45.4v41.7h-22.7Z" class="ge_27"/>
<path d="M1240.7,514.6H1218V472.9h45.4v41.7h-22.7Z" class="gf_27"/>
<image clip-path="url(#c0_27)" preserveAspectRatio="none" x="1232" y="492" width="20" height="20" xlink:href="img/4.png"/>
<path fill-rule="evenodd" d="M1317.1,514.9h-18.2V480.8h36.3v34.1h-18.1Z" class="g0_27"/>
<path d="M1317.1,514.9h-18.2V480.8h36.3v34.1h-18.1Z" class="gi_27"/>
<path fill-rule="evenodd" d="M1317.1,488.6h-14.9v-3.8H1332v3.8h-14.9Z" class="g8_27"/>
<path fill-rule="evenodd" d="M1317.1,494h-14.9v-3.8H1332V494h-14.9Z" class="g8_27"/>
<path fill-rule="evenodd" d="M1314.5,499.8h-12.3v-3.9h24.6v3.9h-12.3Z" class="g8_27"/>
<path fill-rule="evenodd" d="M1316.7,505.2h-14.9v-3.9h29.8v3.9h-14.9Z" class="gl_27"/>
<path fill-rule="evenodd" d="M1314.1,511h-12.4v-3.9h24.7V511h-12.3Z" class="gl_27"/>
<path fill-rule="evenodd" d="M1247.5,639.5c0,15,-12,27.2,-26.8,27.2c-14.9,0,-26.9,-12.2,-26.9,-27.2c0,-15.1,12,-27.2,26.9,-27.2c14.8,0,26.8,12.1,26.8,27.2Z" class="g4_27"/>
<path fill-rule="evenodd" d="M1223.3,583.3H1181V551.9h84.6v31.4h-42.3Z" class="ga_27"/>
<path d="M1223.3,583.3H1181V551.9h84.6v31.4h-42.3Z" class="gb_27"/>
<path d="M1139.6,495.7h13.1v72.1h19.8" class="gc_27"/>
<path fill-rule="evenodd" d="M1181,567.8l-9.1,4.5l3.7,-4.5l-3.7,-4.6l9.1,4.6Z" class="gd_27"/>
<path d="M1189.3,550.6l.1,-27.6" class="gc_27"/>
<path fill-rule="evenodd" d="M1189.4,514.5l4.5,9.1l-4.5,-3.7l-4.6,3.7l4.6,-9.1Z" class="gd_27"/>
<path d="M1196.8,585.3l-.1,31.3" class="gc_27"/>
<path fill-rule="evenodd" d="M1196.7,625.1l-4.5,-9.1l4.5,3.6l4.6,-3.6l-4.6,9.1Z" class="gd_27"/>
<path fill-rule="evenodd" d="M1126.8,484.9c0,-1,.3,-2,.8,-2.8c.5,-.8,1.3,-1.6,2.3,-2c.9,-.5,2,-.8,3.1,-.8c1.1,0,2.1,.3,3.1,.8c.9,.4,1.7,1.2,2.3,2c.5,.8,.8,1.8,.8,2.8c0,.9,-.3,1.9,-.8,2.7c-.6,.9,-1.4,1.6,-2.3,2.1c-1,.4,-2,.7,-3.1,.7c-1.1,0,-2.2,-.3,-3.1,-.7c-1,-.5,-1.8,-1.2,-2.3,-2.1c-.5,-.8,-.8,-1.8,-.8,-2.7Z" class="gm_27"/>
<path d="M1126.8,484.9c0,-1,.3,-2,.8,-2.8c.5,-.8,1.3,-1.6,2.3,-2c.9,-.5,2,-.8,3.1,-.8c1.1,0,2.1,.3,3.1,.8c.9,.4,1.7,1.2,2.3,2c.5,.8,.8,1.8,.8,2.8c0,.9,-.3,1.9,-.8,2.7c-.6,.9,-1.4,1.6,-2.3,2.1c-1,.4,-2,.7,-3.1,.7c-1.1,0,-2.2,-.3,-3.1,-.7c-1,-.5,-1.8,-1.2,-2.3,-2.1c-.5,-.8,-.8,-1.8,-.8,-2.7Z" class="gb_27"/>
<path fill-rule="evenodd" d="M1182.5,533.7c0,-1,.3,-2,.8,-2.8c.6,-.8,1.4,-1.6,2.3,-2c1,-.5,2,-.8,3.1,-.8c1.1,0,2.2,.3,3.1,.8c1,.4,1.7,1.2,2.3,2c.5,.8,.8,1.8,.8,2.8c0,.9,-.3,1.9,-.8,2.7c-.6,.9,-1.3,1.6,-2.3,2.1c-.9,.5,-2,.7,-3.1,.7c-1.1,0,-2.1,-.2,-3.1,-.7c-.9,-.5,-1.7,-1.2,-2.3,-2.1c-.5,-.8,-.8,-1.8,-.8,-2.7Z" class="gm_27"/>
<path d="M1182.5,533.7c0,-1,.3,-2,.8,-2.8c.6,-.8,1.4,-1.6,2.3,-2c1,-.5,2,-.8,3.1,-.8c1.1,0,2.2,.3,3.1,.8c1,.4,1.7,1.2,2.3,2c.5,.8,.8,1.8,.8,2.8c0,.9,-.3,1.9,-.8,2.7c-.6,.9,-1.3,1.6,-2.3,2.1c-.9,.5,-2,.7,-3.1,.7c-1.1,0,-2.1,-.2,-3.1,-.7c-.9,-.5,-1.7,-1.2,-2.3,-2.1c-.5,-.8,-.8,-1.8,-.8,-2.7Z" class="gb_27"/>
<path fill-rule="evenodd" d="M1190.8,599.6c0,-1,.3,-2,.8,-2.8c.6,-.8,1.3,-1.5,2.3,-2c.9,-.5,2,-.8,3.1,-.8c1.1,0,2.1,.3,3.1,.8c.9,.5,1.7,1.2,2.3,2c.5,.8,.8,1.8,.8,2.8c0,.9,-.3,1.9,-.8,2.8c-.6,.8,-1.4,1.5,-2.3,2c-1,.5,-2,.7,-3.1,.7c-1.1,0,-2.2,-.2,-3.1,-.7c-1,-.5,-1.7,-1.2,-2.3,-2c-.5,-.9,-.8,-1.9,-.8,-2.8Z" class="gm_27"/>
<path d="M1190.8,599.6c0,-1,.3,-2,.8,-2.8c.6,-.8,1.3,-1.5,2.3,-2c.9,-.5,2,-.8,3.1,-.8c1.1,0,2.1,.3,3.1,.8c.9,.5,1.7,1.2,2.3,2c.5,.8,.8,1.8,.8,2.8c0,.9,-.3,1.9,-.8,2.8c-.6,.8,-1.4,1.5,-2.3,2c-1,.5,-2,.7,-3.1,.7c-1.1,0,-2.2,-.2,-3.1,-.7c-1,-.5,-1.7,-1.2,-2.3,-2c-.5,-.9,-.8,-1.9,-.8,-2.8Z" class="gb_27"/>
<path d="M1220.7,613.3V591.9" class="gc_27"/>
<path fill-rule="evenodd" d="M1220.7,583.4l4.5,9.1l-4.5,-3.7l-4.6,3.7l4.6,-9.1Z" class="gd_27"/>
<path fill-rule="evenodd" d="M1215,600.7c0,-1,.3,-2,.8,-2.8c.6,-.8,1.3,-1.6,2.3,-2c1,-.5,2,-.8,3.1,-.8c1.1,0,2.1,.3,3.1,.8c.9,.4,1.7,1.2,2.3,2c.5,.8,.8,1.8,.8,2.8c0,.9,-.3,1.9,-.8,2.7c-.6,.9,-1.4,1.6,-2.3,2.1c-1,.5,-2,.7,-3.1,.7c-1.1,0,-2.1,-.2,-3.1,-.7c-1,-.5,-1.7,-1.2,-2.3,-2.1c-.5,-.8,-.8,-1.8,-.8,-2.7Z" class="gm_27"/>
<path d="M1215,600.7c0,-1,.3,-2,.8,-2.8c.6,-.8,1.3,-1.6,2.3,-2c1,-.5,2,-.8,3.1,-.8c1.1,0,2.1,.3,3.1,.8c.9,.4,1.7,1.2,2.3,2c.5,.8,.8,1.8,.8,2.8c0,.9,-.3,1.9,-.8,2.7c-.6,.9,-1.4,1.6,-2.3,2.1c-1,.5,-2,.7,-3.1,.7c-1.1,0,-2.1,-.2,-3.1,-.7c-1,-.5,-1.7,-1.2,-2.3,-2.1c-.5,-.8,-.8,-1.8,-.8,-2.7Z" class="gb_27"/>
<path d="M1175.2,470.6c0,-1.5,0,-2.9,.2,-4.1c.1,-1.3,.3,-2.4,.5,-3.1c.2,-.8,.4,-1.1,.7,-1.1h32.6c.3,0,.5,-.4,.7,-1.2c.2,-.7,.4,-1.7,.5,-3c.2,-1.3,.2,-2.7,.2,-4.2c0,1.5,.1,2.9,.2,4.2c.1,1.3,.3,2.3,.5,3c.2,.8,.5,1.2,.7,1.2h32.6c.3,0,.5,.3,.7,1.1c.3,.7,.4,1.8,.6,3c.1,1.3,.1,2.7,.1,4.2" class="gn_27"/>
<path d="M1254.4,596.9c16.8,-4,28.1,3.8,39.4,0c2.4,5.1,-.9,18.1,0,22.9c-18,1.8,-30.5,-4.6,-39.4,0c-1.9,-8.1,.8,-15.6,0,-22.9Z" class="go_27"/>
<path fill-rule="evenodd" d="M1254.4,596.9c19,-2.1,22.9,2.2,39.4,0c.6,4.6,-1.4,17.5,0,22.9c-10.1,2.7,-27.7,-2.6,-39.4,0c-1.2,-5.5,.8,-14.6,0,-22.9Z" class="ge_27"/>
<path d="M1244.1,646.1H1275V628.9" class="gc_27"/>
<path fill-rule="evenodd" d="M1275,620.4l4.6,9.1l-4.6,-3.6l-4.5,3.6l4.5,-9.1Z" class="gd_27"/>
<path fill-rule="evenodd" d="M1268.3,637.9c0,-.9,.3,-1.9,.8,-2.8c.6,-.8,1.4,-1.5,2.3,-2c1,-.5,2,-.7,3.1,-.7c1.1,0,2.1,.2,3.1,.7c1,.5,1.7,1.2,2.3,2c.5,.9,.8,1.9,.8,2.8c0,1,-.3,2,-.8,2.8c-.6,.8,-1.3,1.5,-2.3,2c-1,.5,-2,.8,-3.1,.8c-1.1,0,-2.1,-.3,-3.1,-.8c-.9,-.5,-1.7,-1.2,-2.3,-2c-.5,-.8,-.8,-1.8,-.8,-2.8Z" class="gm_27"/>
<path d="M1268.3,637.9c0,-.9,.3,-1.9,.8,-2.8c.6,-.8,1.4,-1.5,2.3,-2c1,-.5,2,-.7,3.1,-.7c1.1,0,2.1,.2,3.1,.7c1,.5,1.7,1.2,2.3,2c.5,.9,.8,1.9,.8,2.8c0,1,-.3,2,-.8,2.8c-.6,.8,-1.3,1.5,-2.3,2c-1,.5,-2,.8,-3.1,.8c-1.1,0,-2.1,-.3,-3.1,-.8c-.9,-.5,-1.7,-1.2,-2.3,-2c-.5,-.8,-.8,-1.8,-.8,-2.8Z" class="gb_27"/>
<path d="M1226.5,550.2V524.9" class="gc_27"/>
<path fill-rule="evenodd" d="M1226.5,516.4l4.5,9.1l-4.5,-3.6l-4.5,3.6l4.5,-9.1Z" class="gd_27"/>
<path d="M1244.1,517.4v25.4" class="gc_27"/>
<path fill-rule="evenodd" d="M1244,551.3l-4.5,-9.1l4.5,3.6l4.6,-3.6l-4.6,9.1Z" class="gd_27"/>
<path fill-rule="evenodd" d="M1219.7,535.1c0,-.9,.3,-1.9,.9,-2.7c.5,-.8,1.3,-1.6,2.3,-2.1c.9,-.4,2,-.7,3.1,-.7c1.1,0,2.1,.3,3.1,.7c.9,.5,1.7,1.3,2.3,2.1c.5,.8,.8,1.8,.8,2.7c0,1,-.3,2,-.8,2.8c-.6,.8,-1.4,1.6,-2.3,2.1c-1,.4,-2,.7,-3.1,.7c-1.1,0,-2.2,-.3,-3.1,-.7c-1,-.5,-1.8,-1.3,-2.3,-2.1c-.6,-.8,-.9,-1.8,-.9,-2.8Z" class="gm_27"/>
<path d="M1219.7,535.1c0,-.9,.3,-1.9,.9,-2.7c.5,-.8,1.3,-1.6,2.3,-2.1c.9,-.4,2,-.7,3.1,-.7c1.1,0,2.1,.3,3.1,.7c.9,.5,1.7,1.3,2.3,2.1c.5,.8,.8,1.8,.8,2.7c0,1,-.3,2,-.8,2.8c-.6,.8,-1.4,1.6,-2.3,2.1c-1,.4,-2,.7,-3.1,.7c-1.1,0,-2.2,-.3,-3.1,-.7c-1,-.5,-1.8,-1.3,-2.3,-2.1c-.6,-.8,-.9,-1.8,-.9,-2.8Z" class="gb_27"/>
<path fill-rule="evenodd" d="M1237.4,534.5c0,-.9,.3,-1.9,.8,-2.7c.6,-.9,1.4,-1.6,2.3,-2.1c1,-.4,2,-.7,3.1,-.7c1.1,0,2.2,.3,3.1,.7c1,.5,1.8,1.2,2.3,2.1c.5,.8,.8,1.8,.8,2.7c0,1,-.3,2,-.8,2.8c-.5,.8,-1.3,1.6,-2.3,2c-.9,.5,-2,.8,-3.1,.8c-1.1,0,-2.1,-.3,-3.1,-.8c-.9,-.4,-1.7,-1.2,-2.3,-2c-.5,-.8,-.8,-1.8,-.8,-2.8Z" class="gm_27"/>
<path d="M1237.4,534.5c0,-.9,.3,-1.9,.8,-2.7c.6,-.9,1.4,-1.6,2.3,-2.1c1,-.4,2,-.7,3.1,-.7c1.1,0,2.2,.3,3.1,.7c1,.5,1.8,1.2,2.3,2.1c.5,.8,.8,1.8,.8,2.7c0,1,-.3,2,-.8,2.8c-.5,.8,-1.3,1.6,-2.3,2c-.9,.5,-2,.8,-3.1,.8c-1.1,0,-2.1,-.3,-3.1,-.8c-.9,-.4,-1.7,-1.2,-2.3,-2c-.5,-.8,-.8,-1.8,-.8,-2.8Z" class="gb_27"/>
<path d="M1264.7,497.5l25.4,.1" class="gc_27"/>
<path fill-rule="evenodd" d="M1298.6,497.6l-9.1,4.5l3.6,-4.5l-3.6,-4.6l9.1,4.6Z" class="gd_27"/>
<path fill-rule="evenodd" d="M1274.9,496.4c0,-.9,.3,-1.9,.8,-2.7c.6,-.9,1.4,-1.6,2.3,-2.1c1,-.5,2,-.7,3.2,-.7c1,0,2.1,.2,3,.7c1,.5,1.8,1.2,2.3,2.1c.5,.8,.8,1.8,.8,2.7c0,1,-.3,2,-.8,2.8c-.5,.8,-1.3,1.6,-2.3,2c-.9,.5,-2,.8,-3,.8c-1.2,0,-2.2,-.3,-3.2,-.8c-.9,-.4,-1.7,-1.2,-2.3,-2c-.5,-.8,-.8,-1.8,-.8,-2.8Z" class="gm_27"/>
<path d="M1274.9,496.4c0,-.9,.3,-1.9,.8,-2.7c.6,-.9,1.4,-1.6,2.3,-2.1c1,-.5,2,-.7,3.2,-.7c1,0,2.1,.2,3,.7c1,.5,1.8,1.2,2.3,2.1c.5,.8,.8,1.8,.8,2.7c0,1,-.3,2,-.8,2.8c-.5,.8,-1.3,1.6,-2.3,2c-.9,.5,-2,.8,-3,.8c-1.2,0,-2.2,-.3,-3.2,-.8c-.9,-.4,-1.7,-1.2,-2.3,-2c-.5,-.8,-.8,-1.8,-.8,-2.8Z" class="gb_27"/>
<path d="M1317.1,515v52.7h-43" class="gc_27"/>
<path fill-rule="evenodd" d="M1265.6,567.7l9.1,-4.5l-3.6,4.5l3.6,4.6l-9.1,-4.6Z" class="gd_27"/>
<path fill-rule="evenodd" d="M1309.4,545.5c0,-.9,.3,-1.9,.9,-2.7c.5,-.9,1.3,-1.6,2.3,-2.1c.9,-.4,1.9,-.7,3.1,-.7c1.1,0,2.1,.3,3,.7c1,.5,1.8,1.2,2.3,2.1c.6,.8,.9,1.8,.9,2.7c0,1,-.3,2,-.9,2.8c-.5,.8,-1.3,1.6,-2.3,2c-.9,.5,-1.9,.8,-3,.8c-1.2,0,-2.2,-.3,-3.1,-.8c-1,-.4,-1.8,-1.2,-2.3,-2c-.6,-.8,-.9,-1.8,-.9,-2.8Z" class="gm_27"/>
<path d="M1309.4,545.5c0,-.9,.3,-1.9,.9,-2.7c.5,-.9,1.3,-1.6,2.3,-2.1c.9,-.4,1.9,-.7,3.1,-.7c1.1,0,2.1,.3,3,.7c1,.5,1.8,1.2,2.3,2.1c.6,.8,.9,1.8,.9,2.7c0,1,-.3,2,-.9,2.8c-.5,.8,-1.3,1.6,-2.3,2c-.9,.5,-1.9,.8,-3,.8c-1.2,0,-2.2,-.3,-3.1,-.8c-1,-.4,-1.8,-1.2,-2.3,-2c-.6,-.8,-.9,-1.8,-.9,-2.8Z" class="gb_27"/>
<path d="M1241.9,614.7l.1,-31.3" class="gc_27"/>
<path fill-rule="evenodd" d="M1241.9,623.1l-4.6,-9l4.6,3.6l4.5,-3.6l-4.5,9Z" class="gd_27"/>
<path fill-rule="evenodd" d="M1235.3,602.9c0,-1,.3,-2,.9,-2.8c.5,-.8,1.3,-1.6,2.3,-2c.9,-.5,1.9,-.8,3.1,-.8c1.1,0,2.1,.3,3,.8c1,.4,1.8,1.2,2.3,2c.6,.8,.9,1.8,.9,2.8c0,.9,-.3,1.9,-.9,2.7c-.5,.9,-1.3,1.6,-2.3,2.1c-.9,.5,-1.9,.7,-3,.7c-1.2,0,-2.2,-.2,-3.1,-.7c-1,-.5,-1.8,-1.2,-2.3,-2.1c-.6,-.8,-.9,-1.8,-.9,-2.7Z" class="gm_27"/>
<path d="M1235.3,602.9c0,-1,.3,-2,.9,-2.8c.5,-.8,1.3,-1.6,2.3,-2c.9,-.5,1.9,-.8,3.1,-.8c1.1,0,2.1,.3,3,.8c1,.4,1.8,1.2,2.3,2c.6,.8,.9,1.8,.9,2.8c0,.9,-.3,1.9,-.9,2.7c-.5,.9,-1.3,1.6,-2.3,2.1c-.9,.5,-1.9,.7,-3,.7c-1.2,0,-2.2,-.2,-3.1,-.7c-1,-.5,-1.8,-1.2,-2.3,-2.1c-.6,-.8,-.9,-1.8,-.9,-2.7Z" class="gb_27"/>
<path d="M1093.3,511c13.6,-4,24.9,3.2,47,0c2.4,5,-.9,18,0,22.8c-20.9,2,-32.8,-4.2,-47,0c-1.9,-8.1,.8,-15.5,0,-22.8Z" class="g7_27"/>
<path fill-rule="evenodd" d="M1093.3,511c18.3,-3.2,27.5,2.9,47,0c.5,4.5,-1.4,17.5,0,22.8c-15.5,4.2,-36.5,-4.3,-47,0c-1.2,-5.5,.9,-14.6,0,-22.8Z" class="g0_27"/>
<path fill-rule="evenodd" d="M1110.5,521.2h-14.9v-3.8h29.8v3.8h-14.9Z" class="g9_27"/>
<path fill-rule="evenodd" d="M1107.9,527h-12.4v-3.8h24.7V527h-12.3Z" class="g9_27"/>
<path d="M1193.8,639.5h-78v-63h.1V549.3" class="gc_27"/>
<path fill-rule="evenodd" d="M1115.9,540.8l4.5,9.1l-4.5,-3.7l-4.6,3.7l4.6,-9.1Z" class="gd_27"/>
<path fill-rule="evenodd" d="M1108.9,562.5c0,-.9,.3,-1.9,.8,-2.8c.6,-.8,1.3,-1.5,2.3,-2c.9,-.5,2,-.7,3.1,-.7c1.1,0,2.1,.2,3.1,.7c.9,.5,1.7,1.2,2.3,2c.5,.9,.8,1.9,.8,2.8c0,1,-.3,2,-.8,2.8c-.6,.8,-1.4,1.5,-2.3,2c-1,.5,-2,.8,-3.1,.8c-1.1,0,-2.2,-.3,-3.1,-.8c-1,-.5,-1.7,-1.2,-2.3,-2c-.5,-.8,-.8,-1.8,-.8,-2.8Z" class="gm_27"/>
<path d="M1108.9,562.5c0,-.9,.3,-1.9,.8,-2.8c.6,-.8,1.3,-1.5,2.3,-2c.9,-.5,2,-.7,3.1,-.7c1.1,0,2.1,.2,3.1,.7c.9,.5,1.7,1.2,2.3,2c.5,.9,.8,1.9,.8,2.8c0,1,-.3,2,-.8,2.8c-.6,.8,-1.4,1.5,-2.3,2c-1,.5,-2,.8,-3.1,.8c-1.1,0,-2.2,-.3,-3.1,-.8c-1,-.5,-1.7,-1.2,-2.3,-2c-.5,-.8,-.8,-1.8,-.8,-2.8Z" class="gb_27"/>
<path fill-rule="evenodd" d="M1147.6,536.9c0,-.9,.3,-1.9,.8,-2.8c.5,-.8,1.3,-1.5,2.3,-2c.9,-.5,2,-.7,3.1,-.7c1.1,0,2.1,.2,3.1,.7c.9,.5,1.7,1.2,2.3,2c.5,.9,.8,1.9,.8,2.8c0,1,-.3,2,-.8,2.8c-.6,.8,-1.4,1.6,-2.3,2c-1,.5,-2,.8,-3.1,.8c-1.1,0,-2.2,-.3,-3.1,-.8c-1,-.4,-1.8,-1.2,-2.3,-2c-.5,-.8,-.8,-1.8,-.8,-2.8Z" class="gm_27"/>
<path d="M1147.6,536.9c0,-.9,.3,-1.9,.8,-2.8c.5,-.8,1.3,-1.5,2.3,-2c.9,-.5,2,-.7,3.1,-.7c1.1,0,2.1,.2,3.1,.7c.9,.5,1.7,1.2,2.3,2c.5,.9,.8,1.9,.8,2.8c0,1,-.3,2,-.8,2.8c-.6,.8,-1.4,1.6,-2.3,2c-1,.5,-2,.8,-3.1,.8c-1.1,0,-2.2,-.3,-3.1,-.8c-1,-.4,-1.8,-1.2,-2.3,-2c-.5,-.8,-.8,-1.8,-.8,-2.8Z" class="gb_27"/>
<path d="M81.9,700.3H242.5" class="gh_27"/>
<path d="M114.8,719.4v12.2m0,3.8v11.5m0,-3.1v12.3m0,3.8v11.5" class="g3_27"/>
<path d="M748.8,770.9H76.5V681H1421v89.9H748.8Z" class="gi_27"/>
</svg>