<?xml version="1.0" encoding="UTF-8" standalone="no"?>
<!DOCTYPE svg PUBLIC "-//W3C//DTD SVG 1.1//EN"
"http://www.w3.org/Graphics/SVG/1.1/DTD/svg11.dtd">
<svg viewBox="0 0 1466 825" version="1.1" xmlns="http://www.w3.org/2000/svg" xmlns:xlink="http://www.w3.org/1999/xlink">
<defs>
<clipPath id="c0_17"><path d="M0,825V0H1466.6V825Z"/></clipPath>
<style type="text/css"><![CDATA[
.g0_17{
fill: #FFF;
}
.g1_17{
fill: #D9D9D9;
}
.g2_17{
fill: none;
stroke: #FFF;
stroke-width: 1.298;
stroke-linejoin: round;
}
.g3_17{
fill: none;
stroke: #AFABAB;
stroke-width: 0.692;
stroke-linejoin: round;
}
.g4_17{
fill: none;
stroke: #AFABAB;
stroke-width: 0.779;
stroke-miterlimit: 3;
}
.g5_17{
fill: #F8CBAD;
}
.g6_17{
fill: none;
stroke: #808080;
stroke-width: 0.779;
stroke-miterlimit: 10;
}
.g7_17{
fill: #808080;
}
.g8_17{
fill: none;
stroke: #D9D9D9;
stroke-width: 1.515;
stroke-miterlimit: 3;
}
.g9_17{
fill: none;
stroke: #AFABAB;
stroke-width: 1.515;
stroke-miterlimit: 10;
}
.ga_17{
fill: none;
stroke: #AFABAB;
stroke-width: 0.389;
stroke-linejoin: round;
}
.gb_17{
fill: none;
stroke: #AFABAB;
stroke-width: 1.515;
stroke-miterlimit: 3;
}
.gc_17{
fill: #FBE5D6;
}
.gd_17{
fill: #E2F0D9;
}
.ge_17{
fill: none;
stroke: #333;
stroke-width: 0.909;
stroke-miterlimit: 10;
}
.gf_17{
fill: #BFBFBF;
}
]]></style>
</defs>
<g clip-path="url(#c0_17)">
<path fill-rule="evenodd" d="M0,0H1466.6V825H0V0Z" class="g0_17"/>
<path fill-rule="evenodd" d="M0,0H1466.7V825H0V0Z" class="g0_17"/>
</g>
<path fill-rule="evenodd" d="M69.8,102.7H192.3V132H69.8V102.7Z" class="g1_17"/>
<path fill-rule="evenodd" d="M192.3,102.7H881.9V132H192.3V102.7Z" class="g1_17"/>
<path d="M69.1,102.7H882.5M69.8,102v57.9" class="g2_17"/>
<path d="M192.3,102v12.2m0,3.9v12.2m0,3.8v12.2m0,3.8v9.8" class="g3_17"/>
<path d="M881.9,102v57.9" class="g2_17"/>
<path d="M69.1,132H81.3m3.8,0H97.4m3.8,0h12.2m3.8,0h12.2m3.9,0h12.2m3.8,0h12.2m3.9,0h12.2m3.8,0h12.2m3.8,0h12.3m3.8,0h12.2m3.8,0h12.2m3.9,0h12.2m3.8,0h12.2m3.8,0h12.3m3.8,0h12.2m3.8,0h12.2m3.9,0H338m3.8,0H354m3.9,0h12.2m3.8,0h12.2m3.8,0h12.3m3.8,0h12.2m3.8,0h12.2m3.9,0h12.2m3.8,0h12.2m3.8,0h12.3m3.8,0h12.2m3.8,0h12.2m3.9,0h12.2m3.8,0h12.2m3.9,0h12.2m3.8,0h12.2m3.8,0h12.3m3.8,0h12.2m3.8,0h12.2m3.9,0h12.2m3.8,0h12.2m3.8,0h12.3m3.8,0h12.2m3.8,0h12.2m3.9,0H723m3.8,0H739m3.9,0h12.2m3.8,0h12.2m3.8,0h12.3m3.8,0h12.2m3.8,0h12.2m3.9,0h12.2m3.8,0h12.2m3.8,0h12.3m3.8,0h11.3M69.1,159.6H81.3m3.8,0H97.4m3.8,0h12.2m3.8,0h12.2m3.9,0h12.2m3.8,0h12.2m3.9,0h12.2m3.8,0h12.2m3.8,0h12.3m3.8,0h12.2m3.8,0h12.2m3.9,0h12.2m3.8,0h12.2m3.8,0h12.3m3.8,0h12.2m3.8,0h12.2m3.9,0H338m3.8,0H354m3.9,0h12.2m3.8,0h12.2m3.8,0h12.3m3.8,0h12.2m3.8,0h12.2m3.9,0h12.2m3.8,0h12.2m3.8,0h12.3m3.8,0h12.2m3.8,0h12.2m3.9,0h12.2m3.8,0h12.2m3.9,0h12.2m3.8,0h12.2m3.8,0h12.3m3.8,0h12.2m3.8,0h12.2m3.9,0h12.2m3.8,0h12.2m3.8,0h12.3m3.8,0h12.2m3.8,0h12.2m3.9,0H723m3.8,0H739m3.9,0h12.2m3.8,0h12.2m3.8,0h12.3m3.8,0h12.2m3.8,0h12.2m3.9,0h12.2m3.8,0h12.2m3.8,0h12.3m3.8,0h11.3" class="g3_17"/>
<path d="M908,134.2c30.3,-3.8,41.2,2.9,66.5,0c25.2,-3,32.1,6.1,60.6,0c28.5,-6.2,49,5.5,66.5,0c5.9,24.8,-4.8,48.9,0,64.1c4.8,15.2,-.8,44.3,0,66.8c-19,.6,-33.3,-3.6,-62.6,0c-29.4,3.6,-37,-1.6,-64.5,0c-27.6,1.6,-45.3,-1.2,-66.5,0c-3,-15.8,3.3,-41.7,0,-65.5c-3.3,-23.8,1,-48.2,0,-65.4Z" class="g4_17"/>
<path fill-rule="evenodd" d="M908,134.2c14.8,-5,41.3,.7,64.5,0c23.2,-.7,52.2,6,66.5,0c14.2,-6.1,44.6,5.1,62.6,0c1,23.2,-7.5,48.7,0,65.4c7.5,16.8,-3.6,39,0,65.5c-19.7,6.7,-42.8,-.6,-58.8,0c-15.9,.6,-47.9,-5.4,-64.5,0c-16.6,5.4,-54.1,-8.2,-70.3,0c-5.5,-24.6,1.7,-46,0,-68.1c-1.7,-22.1,6.8,-33.6,0,-62.8Z" class="g0_17"/>
<path fill-rule="evenodd" d="M1216.5,192.2c0,18.8,-15.1,34.1,-33.6,34.1c-18.6,0,-33.6,-15.3,-33.6,-34.1c0,-18.9,15,-34.2,33.6,-34.2c18.5,0,33.6,15.3,33.6,34.2Z" class="g5_17"/>
<path d="M1104.2,195l33,.3" class="g6_17"/>
<path fill-rule="evenodd" d="M1145.6,195.3l-9.1,4.5l3.7,-4.5l-3.6,-4.6l9,4.6Z" class="g7_17"/>
<path d="M1272.8,135.1c11.9,-5.2,27.8,2.3,49.4,0c21.5,-2.3,37.2,3.9,47.8,0c10.5,-3.9,43.3,6.6,60.4,0c7.1,20.5,-4.1,43.5,0,67.6c4.1,24.1,-.7,36.4,0,62.4c-12.1,1.7,-39.6,-4.5,-51,0c-11.3,4.5,-24.9,-3,-47.8,0c-22.9,3.1,-36.6,-.4,-58.8,0c-3.8,-19.7,.4,-36.5,0,-61.1c-.4,-24.6,4.9,-37.6,0,-68.9Z" class="g8_17"/>
<path fill-rule="evenodd" d="M1272.8,135.1c26.9,-3.1,39.6,6.3,55.6,0c16.1,-6.3,33.7,1.8,52.6,0c18.9,-1.8,34.3,5.3,49.4,0c5.4,22.1,-4,43.2,0,66.3c3.9,23.1,-7.4,36.9,0,63.7c-10.5,5.5,-30.5,-3.9,-51,0c-20.5,3.9,-37.3,-5.3,-54.1,0c-16.8,5.4,-27.6,-5.4,-52.5,0c-3.6,-18.4,3.1,-36.2,0,-62.4c-3.1,-26.2,6.7,-53.6,0,-67.6Z" class="g0_17"/>
<path d="M1224.1,195l33,.3" class="g6_17"/>
<path fill-rule="evenodd" d="M1265.6,195.3l-9.2,4.5l3.7,-4.5l-3.6,-4.6l9.1,4.6Z" class="g7_17"/>
<path d="M1006.6,298.4h-6m-4.6,0h-6m-4.6,0h-6.1m-4.5,0h-6.1m-4.5,0h-6.1m-4.5,0h-6.1m-4.5,0h-6.1m-4.5,0h-6.1m-4.6,0h-6m-4.6,0H908v-2.9m0,-4.5v-6.1m0,-4.5v-6.1m0,-4.5v-6.1m0,-4.6v-6m0,-4.6v-6m0,-4.6v-6m0,-4.6v-6m0,-4.6v-6.1m0,-4.5V200m0,-4.5v-6.1m0,-4.5v-6.1m0,-4.5v-6.1m0,-4.5v-6.1m0,-4.6v-6m0,-4.6v-6m3.3,-1.2h6.1m4.5,0H928m4.5,0h6.1m4.5,0h6.1m4.6,0h6m4.6,0h6m4.6,0h6m4.6,0h6m4.6,0h6.1m4.5,0h6.1m4.5,0h6.1m4.5,0h6.1m4.5,0h6.1m4.5,0h6.1m4.6,0h6m4.6,0h6m4.6,0h6m4.6,0h6m4.6,0h3v3m0,4.6v6m0,4.6v6.1m0,4.5v6.1m0,4.5v6.1m0,4.5v6.1m0,4.5v6.1m0,4.5v6.1m0,4.6v6m0,4.6v6m0,4.6v6m0,4.6v6m0,4.6v6.1m0,4.5v6.1m0,4.5v6.1m0,4.5v6.1m-3.5,1h-6.1m-4.5,0h-6.1m-4.5,0h-6.1m-4.6,0h-6m-4.6,0h-6m-4.6,0h-6m-4.6,0h-6m-4.6,0h-6.1m-4.5,0h-6.1" class="g9_17"/>
<path d="M70.2,187.4H82.4m3.8,0H98.5m3.8,0h12.2m3.8,0h12.2m3.9,0h12.2m3.8,0h12.2m3.8,0h12.3m3.8,0h12.2m3.8,0h12.3m3.8,0h12.2m3.8,0h12.2m3.9,0h12.2m3.8,0h12.2m3.8,0H291m3.8,0H307m3.8,0H323m3.9,0h12.2m3.8,0h12.2m3.9,0h12.2m3.8,0h12.2m3.8,0h12.3m3.8,0h12.2m3.8,0h12.2m3.9,0h12.2m3.8,0h12.2m3.8,0h12.3m3.8,0h12.2m3.8,0h12.2m3.9,0h12.2m3.8,0h12.2m3.9,0h12.2m3.8,0h12.2m3.8,0h12.3m3.8,0h12.2m3.8,0h12.2m3.9,0h12.2m3.8,0h12.2m3.8,0H676m3.8,0H692m3.8,0H708m3.9,0h12.2m3.8,0h12.2m3.9,0h12.2m3.8,0h12.2m3.8,0h12.3m3.8,0h12.2m3.8,0h12.2m3.9,0h12.2m3.8,0h12.2m3.8,0h12.3m3.8,0h10M192.8,159.8v12.3m0,3.8v11.8m-122.4,27H82.6m3.8,0H98.7m3.8,0h12.2m3.8,0h12.2m3.9,0h12.2m3.8,0h12.2m3.8,0h12.3m3.8,0h12.2m3.8,0H211m3.8,0H227m3.8,0H243m3.9,0h12.2m3.8,0h12.2m3.8,0h12.3m3.8,0h12.2m3.8,0h12.2m3.9,0h12.2m3.8,0h12.2m3.9,0h12.2m3.8,0h12.2m3.8,0h12.3m3.8,0h12.2m3.8,0h12.2m3.9,0h12.2m3.8,0h12.2m3.8,0h12.3m3.8,0h12.2m3.8,0h12.2m3.9,0h12.2m3.8,0h12.2m3.9,0h12.2m3.8,0h12.2m3.8,0H596m3.8,0H612m3.8,0H628m3.9,0h12.2m3.8,0h12.2m3.8,0h12.3m3.8,0h12.2m3.8,0h12.2m3.9,0h12.2m3.8,0h12.2m3.9,0h12.2m3.8,0h12.2m3.8,0h12.3m3.8,0h12.2m3.8,0h12.2m3.9,0h12.2m3.8,0h12.2m3.8,0h12.3m3.8,0h10M193,187.2v12.2m0,3.8v11.9m-122.2,35H83m3.8,0H99m3.9,0h12.2m3.8,0h12.2m3.8,0h12.3m3.8,0h12.2m3.8,0h12.2m3.9,0h12.2m3.8,0h12.2m3.8,0h12.3m3.8,0h12.2m3.8,0h12.3m3.8,0h12.2m3.8,0h12.2m3.9,0h12.2m3.8,0h12.2m3.8,0h12.3m3.8,0h12.2m3.8,0h12.2m3.9,0h12.2m3.8,0h12.2m3.8,0h12.3m3.8,0h12.2m3.8,0H452m3.8,0H468m3.8,0H484m3.9,0h12.2m3.8,0h12.2m3.8,0h12.3m3.8,0h12.2m3.8,0h12.2m3.9,0h12.2m3.8,0h12.2m3.8,0h12.3m3.8,0h12.2m3.8,0h12.3m3.8,0h12.2m3.8,0h12.2m3.9,0h12.2m3.8,0h12.2m3.8,0h12.3m3.8,0h12.2m3.8,0h12.2m3.9,0h12.2m3.8,0h12.2m3.8,0h12.3m3.8,0h12.2m3.8,0H837m3.8,0H853m3.8,0H869m3.9,0h10M193.3,215.2v12.2m0,3.8v12.3m0,3.8v3.1M70.8,310.7H83m3.8,0H99m3.9,0h12.2m3.8,0h12.2m3.8,0h12.3m3.8,0h12.2m3.8,0h12.2m3.9,0h12.2m3.8,0h12.2m3.8,0h12.3m3.8,0h12.2m3.8,0h12.3m3.8,0h12.2m3.8,0h12.2m3.9,0h12.2m3.8,0h12.2m3.8,0h12.3m3.8,0h12.2m3.8,0h12.2m3.9,0h12.2m3.8,0h12.2m3.8,0h12.3m3.8,0h12.2m3.8,0H452m3.8,0H468m3.8,0H484m3.9,0h12.2m3.8,0h12.2m3.8,0h12.3m3.8,0h12.2m3.8,0h12.2m3.9,0h12.2m3.8,0h12.2m3.8,0h12.3m3.8,0h12.2m3.8,0h12.3m3.8,0h12.2m3.8,0h12.2m3.9,0h12.2m3.8,0h12.2m3.8,0h12.3m3.8,0h12.2m3.8,0h12.2m3.9,0h12.2m3.8,0h12.2m3.8,0h12.3m3.8,0h12.2m3.8,0H837m3.8,0H853m3.8,0H869m3.9,0h10M193.3,250.2v12.2m0,3.8v12.3m0,3.8v12.2m0,3.8v12.2m0,-.2v12.2m0,3.8v12.3m0,3.8v11.9m-5.7,12.1v12.2m0,3.8v12.3m0,3.8v12.2m0,3.8v12.2m0,3.9v12.2" class="g3_17"/>
<path fill-rule="evenodd" d="M1186.9,413.9c0,18.8,-15.1,34.2,-33.6,34.2c-18.6,0,-33.6,-15.4,-33.6,-34.2c0,-18.9,15,-34.2,33.6,-34.2c18.5,0,33.6,15.3,33.6,34.2Z" class="g5_17"/>
<path d="M908.7,383.4c21.4,-1.1,36.2,0,58.9,0c22.6,0,39.1,4.8,57.1,0c18,-4.8,43.3,3.3,55.5,0c.7,9.5,-.3,26.1,0,43.9c-16,2.6,-33.5,-5.1,-53.8,0c-20.3,5,-38.5,-5.7,-57.1,0c-18.7,5.7,-35.8,-1.7,-60.6,0c-.8,-14.6,2.7,-32.4,0,-43.9ZM1224.1,376c14.8,-.9,35.1,.4,53.9,0c18.8,-.4,37.3,2.7,52.3,0c15,-2.6,31.2,1.5,50.8,0c2.5,15.9,-3,32.9,0,41.3c3,8.4,-4.3,28.3,0,42.9c-19.5,3.7,-38.9,-5.7,-53.9,0c-15,5.7,-38.1,-3.7,-55.5,0c-17.4,3.7,-31.3,-2.9,-47.6,0c-1.2,-19.8,1,-30.7,0,-40.4c-1,-9.7,4.9,-28.2,0,-43.8Z" class="ga_17"/>
<path d="M1083.8,404.9l22.7,.2" class="g6_17"/>
<path fill-rule="evenodd" d="M1114.9,405.2l-9.1,4.5l3.7,-4.5l-3.6,-4.6l9,4.6Z" class="g7_17"/>
<path d="M1189.6,406.4l22.7,.3" class="g6_17"/>
<path fill-rule="evenodd" d="M1220.8,406.7l-9.1,4.5l3.7,-4.5l-3.6,-4.6l9,4.6Z" class="g7_17"/>
<path d="M194.1,496.9v12.2m0,3.8v12.2m0,3.9v12.2m0,3.8v12.2m0,3.8v12.3" class="g3_17"/>
<path fill-rule="evenodd" d="M1187.5,528.9c0,18.8,-15,34.1,-33.5,34.1c-18.6,0,-33.6,-15.3,-33.6,-34.1c0,-18.9,15,-34.2,33.6,-34.2c18.5,0,33.5,15.3,33.5,34.2Z" class="g5_17"/>
<path d="M909.4,498.4c21.4,-1.1,36.2,0,58.8,0c22.6,-.1,39.1,4.8,57.1,0c18.1,-4.8,43.4,3.3,55.5,0c.8,9.5,-.2,26,0,43.9c-15.9,2.5,-33.4,-5.1,-53.7,0c-20.3,5,-38.5,-5.7,-57.2,0c-18.7,5.7,-35.8,-1.7,-60.5,0c-.9,-14.6,2.6,-32.4,0,-43.9ZM1230.2,494c12.9,-3.3,35.5,4.8,58.3,0c22.7,-4.8,44.1,.2,56.5,0c12.4,-.3,28.8,1,54.9,0c2.2,10.4,-.7,17.4,0,29.2c-18.7,1.3,-32.6,-1.1,-53.2,0c-20.6,1,-28.5,-6.5,-56.5,0c-28.1,6.4,-40.4,-3.1,-60,0c-2.3,-10.9,1.1,-19.5,0,-29.2Z" class="ga_17"/>
<path d="M1084.2,531.8l22.7,.2" class="g6_17"/>
<path fill-rule="evenodd" d="M1115.4,532.1l-9.2,4.4l3.7,-4.5l-3.6,-4.6l9.1,4.7Z" class="g7_17"/>
<path d="M1189.9,532.9l22.7,.2" class="g6_17"/>
<path fill-rule="evenodd" d="M1221.1,533.2l-9.2,4.5l3.7,-4.5l-3.6,-4.6l9.1,4.6Z" class="g7_17"/>
<path d="M909,549.7c21.4,-1.1,36.2,0,58.8,0c22.6,0,39.1,4.8,57.1,0c18.1,-4.8,43.4,3.3,55.5,0c.8,9.5,-.2,26.1,0,43.9c-15.9,2.6,-33.4,-5.1,-53.7,0c-20.3,5,-38.5,-5.7,-57.2,0c-18.6,5.7,-35.8,-1.7,-60.5,0c-.9,-14.6,2.7,-32.4,0,-43.9Zm321.4,-16.8c12.9,-3.3,35.6,4.8,58.3,0c22.7,-4.8,44.2,.2,56.5,0c12.4,-.2,28.8,1,54.9,0c2.2,10.5,-.7,17.4,0,29.2c-18.7,1.4,-32.5,-1.1,-53.2,0c-20.6,1.1,-28.5,-6.4,-56.5,0c-28.1,6.4,-40.3,-3,-60,0c-2.3,-10.8,1.1,-19.4,0,-29.2Z" class="ga_17"/>
<path d="M996.8,597.3h-6.1m-4.6,0h-6m-4.6,0h-6m-4.6,0h-6m-4.6,0h-6m-4.6,0h-6.1m-4.5,0H927m-4.5,0h-6.1m-4.5,0h-4.4v-1.7m0,-4.5V585m0,-4.5v-6.1m0,-4.5v-6.1m0,-4.5v-6.1m0,-4.5v-6.1m0,-4.6v-6m0,-4.6v-6m0,-4.6v-6m0,-4.6v-6m0,-4.6v-1.7h4.3m4.6,0h6m4.6,0h6.1m4.5,0h6.1m4.5,0h6.1m4.5,0h6.1m4.5,0h6.1m4.5,0h6.1m4.5,0h6.1m4.6,0h6m4.6,0h6m4.6,0h6m4.6,0h6.1m4.5,0h6.1m4.5,0h6.1m4.5,0h6.1m4.5,0h6.1m4.4,.1v6.1m0,4.5v6.1m0,4.5v6.1m0,4.5v6.1m0,4.5v6.1m0,4.6v6m0,4.6v6m0,4.6v6m0,4.6v6m0,4.6v6.1m-2.8,1.7h-6m-4.6,0h-6m-4.6,0h-6m-4.6,0h-6.1m-4.5,0h-6.1m-4.5,0h-6.1m-4.5,0h-6.1m-4.5,0h-6.1m-4.5,0h-1.6" class="g9_17"/>
<path d="M1225.7,490.1c23.5,-5.5,49,3.3,61.3,0c12.3,-3.3,34.5,.2,59.5,0c25.1,-.2,34.4,6.1,57.8,0c4.6,17.6,-3.6,20.9,0,40.4c3.6,19.5,-2.1,22,0,43.8c-20.8,.9,-34.8,-6,-63.1,0c-28.3,6,-33.9,-7.1,-59.5,0c-25.7,7.1,-43.2,-6,-56,0c-1.1,-17.2,2.7,-33.6,0,-42.9c-2.6,-9.4,3.6,-30,0,-41.3Z" class="gb_17"/>
<path d="M192.1,608v12.2m0,3.9v12.2m0,3.8v12" class="g3_17"/>
<path fill-rule="evenodd" d="M1187.7,665.7c0,18.9,-15,34.2,-33.5,34.2c-18.6,0,-33.6,-15.3,-33.6,-34.2c0,-18.9,15,-34.2,33.6,-34.2c18.5,0,33.5,15.3,33.5,34.2Z" class="g5_17"/>
<path d="M909.6,635.2c21.4,-1.1,36.2,.1,58.8,0c22.6,0,39.1,4.8,57.2,0c18,-4.8,43.3,3.3,55.4,0c.8,9.6,-.2,26.1,0,43.9c-15.9,2.6,-33.4,-5,-53.7,0c-20.3,5.1,-38.5,-5.7,-57.2,0c-18.6,5.7,-35.7,-1.7,-60.5,0c-.8,-14.6,2.7,-32.4,0,-43.9Zm302.7,-4.4c12.8,-3.3,35.5,4.8,58.2,0c22.7,-4.8,44.2,.2,56.6,0c12.3,-.2,28.7,1,54.8,0c2.2,10.4,-.7,17.4,0,29.2c-18.7,1.3,-32.5,-1.1,-53.2,0c-20.6,1,-28.4,-6.5,-56.5,0c-28.1,6.4,-40.3,-3.1,-59.9,0c-2.4,-10.9,1,-19.4,0,-29.2Z" class="ga_17"/>
<path d="M1084.4,668.6l22.7,.2" class="g6_17"/>
<path fill-rule="evenodd" d="M1115.6,668.9l-9.1,4.4l3.6,-4.5l-3.6,-4.6l9.1,4.7Z" class="g7_17"/>
<path d="M1190.1,669.7l22.7,.3" class="g6_17"/>
<path fill-rule="evenodd" d="M1221.3,670l-9.1,4.5l3.6,-4.5l-3.5,-4.6l9,4.6Z" class="g7_17"/>
<path d="M909.2,686.5c21.4,-1,36.2,.1,58.8,0c22.6,0,39.1,4.9,57.2,0c18,-4.8,43.3,3.3,55.4,0c.8,9.6,-.2,26.1,0,44c-15.9,2.5,-33.4,-5.1,-53.7,0c-20.3,5,-38.5,-5.8,-57.2,0c-18.6,5.6,-35.7,-1.8,-60.5,0c-.8,-14.7,2.7,-32.5,0,-44Zm303.3,-16.8c12.8,-3.2,35.5,4.9,58.2,0c22.8,-4.8,44.2,.3,56.6,0c12.3,-.2,28.7,1,54.8,0c2.3,10.5,-.6,17.5,0,29.3c-18.7,1.3,-32.5,-1.1,-53.1,0c-20.7,1,-28.5,-6.5,-56.6,0c-28.1,6.4,-40.3,-3.1,-59.9,0c-2.4,-10.9,1.1,-19.5,0,-29.3Z" class="ga_17"/>
<path d="M996.9,781.4h-6.1m-4.5,0h-6.1m-4.5,0h-6.1m-4.5,0H959m-4.6,0h-6m-4.6,0h-6m-4.6,0h-6m-4.6,0h-6m-4.6,0h-4.5v-1.5m0,-4.6v-6m0,-4.6v-6m0,-4.6V748m0,-4.5v-6.1m0,-4.5v-6.1m0,-4.5v-6.1m0,-4.5v-6.1m0,-4.5V695m0,-4.6v-6m0,-4.6v-6m0,-4.6v-6m0,-4.6v-6m0,-4.6v-6.1m0,-4.5v-6.1m3.9,-.6h6.1m4.6,0h6m4.6,0h6m4.6,0h6m4.6,0h6m4.6,0h6.1m4.5,0h6.1m4.5,0h6.1m4.5,0h6.1m4.5,0h6.1m4.5,0h6.1m4.6,0h6m4.6,0h6m4.6,0h6m4.6,0h6m4.6,0h6.1m4.5,0h5.1v1m0,4.6v6m0,4.6v6m0,4.6v6.1m0,4.5v6.1m0,4.5v6.1m0,4.5v6.1m0,4.5V706m0,4.5v6.1m0,4.5v6.1m0,4.6v6m0,4.6v6m0,4.6v6m0,4.6v6.1m0,4.5v6.1m-3.4,1.1h-6.1m-4.5,0h-6.1m-4.5,0h-6.1m-4.5,0H1045m-4.5,0h-6.1m-4.6,0h-6m-4.6,0h-6m-4.6,0h-6m-4.6,0h-1.1" class="g9_17"/>
<path d="M1207.8,627c17.5,-4,36.4,5.3,57.7,0c21.4,-5.4,36.9,.5,59.6,0c22.6,-.6,42.8,4,61.3,0c3,26.1,-5.5,43.5,0,55.4c5.4,12,-2.6,26.5,0,51.3c-17.4,5.8,-40.3,-5.1,-59.6,0c-19.2,5,-32.7,-2.8,-54.1,0c-21.5,2.8,-41.1,-7.6,-64.9,0c-1,-21.8,2,-31.3,0,-53.4c-2,-22,.2,-30.7,0,-53.3Z" class="gb_17"/>
<path d="M750.9,465.5H71.5V349.7H1430.3V465.5H750.9ZM749.8,602H70.4V468.6H1429.1V602H749.8Z" class="g4_17"/>
<path d="M909.7,734c21.4,-1.1,36.2,0,58.9,0c22.6,-.1,39.1,4.8,57.1,0c18,-4.8,43.3,3.3,55.5,0c.7,9.5,-.3,26,0,43.9c-16,2.5,-33.5,-5.1,-53.8,0c-20.3,5,-38.5,-5.7,-57.1,0c-18.7,5.7,-35.8,-1.8,-60.6,0c-.8,-14.7,2.7,-32.5,0,-43.9Zm301.8,-32.6c12.8,-3.3,35.5,4.8,58.2,0c22.8,-4.8,44.2,.2,56.6,0c12.3,-.2,28.7,1,54.8,0c2.3,10.5,-.6,17.5,0,29.2c-18.7,1.4,-32.5,-1,-53.1,0c-20.7,1.1,-28.5,-6.4,-56.6,0c-28.1,6.4,-40.3,-3,-59.9,0c-2.4,-10.8,1.1,-19.4,0,-29.2Z" class="ga_17"/>
<path d="M748.9,789.1H69.5v-185H1428.3v185H748.9Z" class="g4_17"/>
<path fill-rule="evenodd" d="M480.2,715.6H83.4V655.2H877.1v60.4H480.2Z" class="gc_17"/>
<path fill-rule="evenodd" d="M480.8,767H83.4V721H878.1v46H480.8Z" class="gd_17"/>
<path d="M141.2,760.2H857.1" class="ge_17"/>
<path fill-rule="evenodd" d="M1174.8,35.3L1143.2,18.1c-2,-1.1,-.9,-3.4,1.5,-3.4h218.9c.6,0,1.1,.1,1.5,.4l37.7,20.2c1.4,.7,1.5,2.2,.1,2.9l-37.7,20.7c-.5,.3,-1,.5,-1.6,.5H1144.5c-2.4,0,-3.4,-2.3,-1.5,-3.4l31.9,-17.8c1.4,-.7,1.3,-2.2,-.1,-2.9Z" class="gf_17"/>
</svg>