<?xml version="1.0" encoding="UTF-8" standalone="no"?>
<!DOCTYPE svg PUBLIC "-//W3C//DTD SVG 1.1//EN"
"http://www.w3.org/Graphics/SVG/1.1/DTD/svg11.dtd">
<svg viewBox="0 0 1466 825" version="1.1" xmlns="http://www.w3.org/2000/svg" xmlns:xlink="http://www.w3.org/1999/xlink">
<defs>
<clipPath id="c0_30"><path d="M0,825V0H1466.6V825Z"/></clipPath>
<style type="text/css"><![CDATA[
.g0_30{
fill: #FFF;
}
.g1_30{
fill: none;
stroke: #A6A6A6;
stroke-width: 0.692;
stroke-linejoin: round;
}
.g2_30{
fill: none;
stroke: #AFABAB;
stroke-width: 0.692;
stroke-linejoin: round;
}
.g3_30{
fill: none;
stroke: #2E75B6;
stroke-width: 0.779;
stroke-miterlimit: 3;
}
.g4_30{
fill: #DBDBDB;
}
.g5_30{
fill: #F2F2F2;
}
.g6_30{
fill: #F8CBAD;
}
.g7_30{
fill: #808080;
}
.g8_30{
fill: #D8BDED;
}
.g9_30{
fill: none;
stroke: #D9D9D9;
stroke-width: 1.515;
stroke-miterlimit: 3;
}
.ga_30{
fill: #ED7D31;
}
.gb_30{
fill: #548235;
}
]]></style>
</defs>
<g clip-path="url(#c0_30)">
<path fill-rule="evenodd" d="M0,0H1466.6V825H0V0Z" class="g0_30"/>
<path fill-rule="evenodd" d="M0,0H1466.7V825H0V0Z" class="g0_30"/>
</g>
<path d="M94.9,223h12.2m3.9,0h12.2m3.8,0h12.2m3.8,0h12.3m3.8,0h12.2m3.8,0h12.2m3.9,0h12.2m3.8,0h12.2m3.8,0h12.3m3.8,0h12.2m3.8,0h12.3m3.8,0h12.2m3.8,0h12.2m3.9,0h12.2m3.8,0h12.2m3.8,0h12.3m3.8,0h12.2m3.8,0h12.2m3.9,0h12.2m3.8,0h12.2m3.8,0H428m3.8,0H444m3.8,0h12.3m3.8,0h12.2m3.8,0h12.2m3.9,0h12.2m3.8,0h12.2m3.8,0h12.3m3.8,0h12.2m3.8,0h12.2m3.9,0h12.2m3.8,0h12.2m3.8,0h12.3m3.8,0h12.2m3.8,0h12.3m3.8,0h12.2m3.8,0h12.2m3.9,0h12.2m3.8,0h12.2m3.8,0h12.3m3.8,0h12.2m3.8,0h12.2m3.9,0h12.2m3.8,0h12.2m3.8,0H813m3.8,0H829m3.8,0h12.3m3.8,0h12.2m3.8,0H869" class="g1_30"/>
<path d="M208.9,178.9v12.3m0,3.8v12.2m0,3.8v12.2" class="g2_30"/>
<path d="M1170.2,478.1H928.7V434.2h483.1v43.9H1170.2Z" class="g3_30"/>
<image clip-path="url(#c0_30)" preserveAspectRatio="none" x="949" y="434" width="45" height="45" xlink:href="img/1.png"/>
<path d="M94.9,300.9h12.2m3.9,0h12.2m3.8,0h12.2m3.8,0h12.3m3.8,0h12.2m3.8,0h12.2m3.9,0h12.2m3.8,0h12.2m3.8,0h12.3m3.8,0h12.2m3.8,0h12.3m3.8,0h12.2m3.8,0h12.2m3.9,0h12.2m3.8,0h12.2m3.8,0h12.3m3.8,0h12.2m3.8,0h12.2m3.9,0h12.2m3.8,0h12.2m3.8,0H428m3.8,0H444m3.8,0h12.3m3.8,0h12.2m3.8,0h12.2m3.9,0h12.2m3.8,0h12.2m3.8,0h12.3m3.8,0h12.2m3.8,0h12.2m3.9,0h12.2m3.8,0h12.2m3.8,0h12.3m3.8,0h12.2m3.8,0h12.3m3.8,0h12.2m3.8,0h12.2m3.9,0h12.2m3.8,0h12.2m3.8,0h12.3m3.8,0h12.2m3.8,0h12.2m3.9,0h12.2m3.8,0h12.2m3.8,0H813m3.8,0H829m3.8,0h12.3m3.8,0h12.2m3.8,0H869" class="g1_30"/>
<path d="M208.9,223.9v12.2m0,3.8v12.3m0,3.8v12.2m0,3.8v12.2m0,3.9v12.2" class="g2_30"/>
<path fill-rule="evenodd" d="M996,401.9H928.9V347.5h134.2v54.4H996Z" class="g4_30"/>
<path d="M996,401.9H928.9V347.5h134.2v54.4H996Z" class="g3_30"/>
<path fill-rule="evenodd" d="M995.7,427.3H928.2V403.8h135v23.5H995.7Z" class="g5_30"/>
<path d="M995.7,427.3H928.2V403.8h135v23.5H995.7Z" class="g3_30"/>
<g clip-path="url(#c0_30)">
<image preserveAspectRatio="none" x="938" y="365" width="20" height="21" xlink:href="img/2.png"/>
<image preserveAspectRatio="none" x="991" y="365" width="20" height="21" xlink:href="img/3.png"/>
<image preserveAspectRatio="none" x="1034" y="365" width="21" height="21" xlink:href="img/4.png"/>
</g>
<path d="M1108.4,427.3h-40.9V348h81.8v79.3h-40.9Z" class="g3_30"/>
<path fill-rule="evenodd" d="M1132.8,396.2c0,15,-12.1,27.3,-26.9,27.3c-14.9,0,-26.9,-12.3,-26.9,-27.3c0,-15,12,-27.2,26.9,-27.2c14.8,0,26.9,12.2,26.9,27.2Z" class="g6_30"/>
<path d="M94.9,345.9h12.2m3.9,0h12.2m3.8,0h12.2m3.8,0h12.3m3.8,0h12.2m3.8,0h12.2m3.9,0h12.2m3.8,0h12.2m3.8,0h12.3m3.8,0h12.2m3.8,0h12.3m3.8,0h12.2m3.8,0h12.2m3.9,0h12.2m3.8,0h12.2m3.8,0h12.3m3.8,0h12.2m3.8,0h12.2m3.9,0h12.2m3.8,0h12.2m3.8,0H428m3.8,0H444m3.8,0h12.3m3.8,0h12.2m3.8,0h12.2m3.9,0h12.2m3.8,0h12.2m3.8,0h12.3m3.8,0h12.2m3.8,0h12.2m3.9,0h12.2m3.8,0h12.2m3.8,0h12.3m3.8,0h12.2m3.8,0h12.3m3.8,0h12.2m3.8,0h12.2m3.9,0h12.2m3.8,0h12.2m3.8,0h12.3m3.8,0h12.2m3.8,0h12.2m3.9,0h12.2m3.8,0h12.2m3.8,0H813m3.8,0H829m3.8,0h12.3m3.8,0h12.2m3.8,0H869" class="g1_30"/>
<path d="M208.9,301.9v12.2m0,3.8v12.3m0,3.8v12.2" class="g2_30"/>
<path d="M1246.9,422.3h-87.2V365.9h174.4v56.4h-87.2Z" class="g3_30"/>
<path fill-rule="evenodd" d="M1282.4,362.1H1153.2V347.3h258.3v14.8H1282.4Z" class="g7_30"/>
<path fill-rule="evenodd" d="M1244.8,417.7h-25.3V393.2h50.6v24.5h-25.3Z" class="g8_30"/>
<path d="M1244.8,417.7h-25.3V393.2h50.6v24.5h-25.3Z" class="g9_30"/>
<path fill-rule="evenodd" d="M1239.1,399.2h-14.9v-3.5H1254v3.5h-14.9Z" class="ga_30"/>
<path fill-rule="evenodd" d="M1239.1,403.6h-14.9v-3.5H1254v3.5h-14.9Z" class="ga_30"/>
<path fill-rule="evenodd" d="M1236.5,408.3h-12.3v-3.5h24.6v3.5h-12.3Z" class="ga_30"/>
<path fill-rule="evenodd" d="M1239.1,412.8h-14.9v-3.5H1254v3.5h-14.9Z" class="gb_30"/>
<path fill-rule="evenodd" d="M1236.5,417.1h-12.3v-3.5h24.6v3.5h-12.3Z" class="gb_30"/>
<path d="M1282.6,427.3H1153.5V348.4h258.3v78.9H1282.6Zm90.5,-5.1h-30.8V365.8h61.5v56.4h-30.7Z" class="g3_30"/>
<image clip-path="url(#c0_30)" preserveAspectRatio="none" x="1356" y="387" width="34" height="33" xlink:href="img/5.png"/>
<path d="M94.9,424.5h12.2m3.9,0h12.2m3.8,0h12.2m3.8,0h12.3m3.8,0h12.2m3.8,0h12.2m3.9,0h12.2m3.8,0h12.2m3.8,0h12.3m3.8,0h12.2m3.8,0h12.3m3.8,0h12.2m3.8,0h12.2m3.9,0h12.2m3.8,0h12.2m3.8,0h12.3m3.8,0h12.2m3.8,0h12.2m3.9,0h12.2m3.8,0h12.2m3.8,0H428m3.8,0H444m3.8,0h12.3m3.8,0h12.2m3.8,0h12.2m3.9,0h12.2m3.8,0h12.2m3.8,0h12.3m3.8,0h12.2m3.8,0h12.2m3.9,0h12.2m3.8,0h12.2m3.8,0h12.3m3.8,0h12.2m3.8,0h12.3m3.8,0h12.2m3.8,0h12.2m3.9,0h12.2m3.8,0h12.2m3.8,0h12.3m3.8,0h12.2m3.8,0h12.2m3.9,0h12.2m3.8,0h12.2m3.8,0H813m3.8,0H829m3.8,0h12.3m3.8,0h12.2m3.8,0H869" class="g1_30"/>
<path d="M208.9,347.4v12.2m0,3.8v12.3m0,3.8v12.2m0,3.8v12.2m0,3.9v12.2" class="g2_30"/>
<path d="M94.9,468.4h12.2m3.9,0h12.2m3.8,0h12.2m3.8,0h12.3m3.8,0h12.2m3.8,0h12.2m3.9,0h12.2m3.8,0h12.2m3.8,0h12.3m3.8,0h12.2m3.8,0h12.3m3.8,0h12.2m3.8,0h12.2m3.9,0h12.2m3.8,0h12.2m3.8,0h12.3m3.8,0h12.2m3.8,0h12.2m3.9,0h12.2m3.8,0h12.2m3.8,0H428m3.8,0H444m3.8,0h12.3m3.8,0h12.2m3.8,0h12.2m3.9,0h12.2m3.8,0h12.2m3.8,0h12.3m3.8,0h12.2m3.8,0h12.2m3.9,0h12.2m3.8,0h12.2m3.8,0h12.3m3.8,0h12.2m3.8,0h12.3m3.8,0h12.2m3.8,0h12.2m3.9,0h12.2m3.8,0h12.2m3.8,0h12.3m3.8,0h12.2m3.8,0h12.2m3.9,0h12.2m3.8,0h12.2m3.8,0H813m3.8,0H829m3.8,0h12.3m3.8,0h12.2m3.8,0H869" class="g1_30"/>
<path d="M208.9,424.4v12.2m0,3.8v12.2m0,3.9v12.2" class="g2_30"/>
<path d="M94.9,531.5h12.2m3.9,0h12.2m3.8,0h12.2m3.8,0h12.3m3.8,0h12.2m3.8,0h12.2m3.9,0h12.2m3.8,0h12.2m3.8,0h12.3m3.8,0h12.2m3.8,0h12.3m3.8,0h12.2m3.8,0h12.2m3.9,0h12.2m3.8,0h12.2m3.8,0h12.3m3.8,0h12.2m3.8,0h12.2m3.9,0h12.2m3.8,0h12.2m3.8,0H428m3.8,0H444m3.8,0h12.3m3.8,0h12.2m3.8,0h12.2m3.9,0h12.2m3.8,0h12.2m3.8,0h12.3m3.8,0h12.2m3.8,0h12.2m3.9,0h12.2m3.8,0h12.2m3.8,0h12.3m3.8,0h12.2m3.8,0h12.3m3.8,0h12.2m3.8,0h12.2m3.9,0h12.2m3.8,0h12.2m3.8,0h12.3m3.8,0h12.2m3.8,0h12.2m3.9,0h12.2m3.8,0h12.2m3.8,0H813m3.8,0H829m3.8,0h12.3m3.8,0h12.2m3.8,0H869" class="g1_30"/>
<path d="M208.9,471v12.2m0,3.8v12.2m0,3.9v12.2m0,3.8v12.2" class="g2_30"/>
<path d="M1170.7,340.9H929.2V305.2h483v35.7H1170.7Z" class="g3_30"/>
<image clip-path="url(#c0_30)" preserveAspectRatio="none" x="1184" y="309" width="140" height="27" xlink:href="img/6.jpg"/>
<path d="M94.9,576.3h12.2m3.9,0h12.2m3.8,0h12.2m3.8,0h12.3m3.8,0h12.2m3.8,0h12.2m3.9,0h12.2m3.8,0h12.2m3.8,0h12.3m3.8,0h12.2m3.8,0h12.3m3.8,0h12.2m3.8,0h12.2m3.9,0h12.2m3.8,0h12.2m3.8,0h12.3m3.8,0h12.2m3.8,0h12.2m3.9,0h12.2m3.8,0h12.2m3.8,0H428m3.8,0H444m3.8,0h12.3m3.8,0h12.2m3.8,0h12.2m3.9,0h12.2m3.8,0h12.2m3.8,0h12.3m3.8,0h12.2m3.8,0h12.2m3.9,0h12.2m3.8,0h12.2m3.8,0h12.3m3.8,0h12.2m3.8,0h12.3m3.8,0h12.2m3.8,0h12.2m3.9,0h12.2m3.8,0h12.2m3.8,0h12.3m3.8,0h12.2m3.8,0h12.2m3.9,0h12.2m3.8,0h12.2m3.8,0H813m3.8,0H829m3.8,0h12.3m3.8,0h12.2m3.8,0H869" class="g1_30"/>
<path d="M208.9,532.2v12.3m0,3.8v12.2m0,3.8v12.2" class="g2_30"/>
<path d="M1170.7,300.6H929.2V264.9h483v35.7H1170.7Z" class="g3_30"/>
</svg>