<?xml version="1.0" encoding="UTF-8" standalone="no"?>
<!DOCTYPE svg PUBLIC "-//W3C//DTD SVG 1.1//EN"
"http://www.w3.org/Graphics/SVG/1.1/DTD/svg11.dtd">
<svg viewBox="0 0 1466 825" version="1.1" xmlns="http://www.w3.org/2000/svg" xmlns:xlink="http://www.w3.org/1999/xlink">
<defs>
<clipPath id="c0_6"><path d="M0,825V0H1466.6V825Z"/></clipPath>
<style type="text/css"><![CDATA[
.g0_6{
fill: #FFF;
}
.g1_6{
fill: none;
stroke: #BFBFBF;
stroke-width: 0.152;
stroke-linejoin: round;
}
.g2_6{
fill: none;
stroke: #A6A6A6;
stroke-width: 0.692;
stroke-linejoin: round;
}
.g3_6{
fill: #A6A6A6;
}
.g4_6{
fill: none;
stroke: #F4B183;
stroke-width: 1.515;
stroke-miterlimit: 10;
}
]]></style>
</defs>
<g clip-path="url(#c0_6)">
<path fill-rule="evenodd" d="M0,0H1466.6V825H0V0Z" class="g0_6"/>
<path fill-rule="evenodd" d="M0,0H1466.7V825H0V0Z" class="g0_6"/>
</g>
<path d="M726,211.1H237.1v-31h977.8v31H726Z" class="g1_6"/>
<path d="M400.1,260.9v12.2m0,3.8v12.3m0,3.8v12.2m0,3.8v12.2m0,3.9v12.2m0,3.8v12.2m0,3.9v12.2m0,3.8v12.2m0,3.8v12.3m0,3.8v12.2m0,3.8v12.2m0,3.9v12.2m0,3.8v12.2m0,3.8v12.3m0,3.8v12.2m0,3.8v12.2m0,3.9v12.2m0,3.8v12.2m0,3.9v12.2m0,3.8v12.2m0,3.8V594m0,3.8V610m0,3.8V626m0,3.9v12.2m0,3.8v12.2m0,3.8v12.3m0,3.8v12.2M237.1,332.3h12.3m3.8,0h12.2m3.8,0h12.3m3.8,0h12.2m3.8,0h12.2m3.9,0h12.2m3.8,0h12.2m3.8,0h12.3m3.8,0h12.2m3.8,0h12.2m3.9,0h2.8M237.1,423.9h12.3m3.8,0h12.2m3.8,0h12.3m3.8,0h12.2m3.8,0h12.2m3.9,0h12.2m3.8,0h12.2m3.8,0h12.3m3.8,0h12.2m3.8,0h12.2m3.9,0h2.8M237.1,535.7h12.3m3.8,0h12.2m3.8,0h12.3m3.8,0h12.2m3.8,0h12.2m3.9,0h12.2m3.8,0h12.2m3.8,0h12.3m3.8,0h12.2m3.8,0h12.2m3.9,0h2.8M237.1,647.4h12.3m3.8,0h12.2m3.8,0h12.3m3.8,0h12.2m3.8,0h12.2m3.9,0h12.2m3.8,0h12.2m3.8,0h12.3m3.8,0h12.2m3.8,0h12.2m3.9,0h2.8" class="g2_6"/>
<image clip-path="url(#c0_6)" preserveAspectRatio="none" x="459" y="653" width="37" height="37" xlink:href="img/1.png"/>
<path fill-rule="evenodd" d="M180.7,136.1V466.8l-47.5,33.7L85.9,466.8V136.1h94.8Z" class="g3_6"/>
<g clip-path="url(#c0_6)">
<image preserveAspectRatio="none" x="134" y="155" width="34" height="34" xlink:href="img/2.png"/>
<image preserveAspectRatio="none" x="97" y="155" width="33" height="34" xlink:href="img/3.png"/>
</g>
<path d="M564.6,260.9v12.2m0,3.8v12.3m0,3.8v12.2m0,3.8v12.2m0,3.9v12.2m0,3.8v12.2m0,3.9v12.2m0,3.8v12.2m0,3.8v12.3m0,3.8v12.2m0,3.8v12.2m0,3.9v12.2m0,3.8v12.2m0,3.8v12.3m0,3.8v12.2m0,3.8v12.2m0,3.9v12.2m0,3.8v12.2m0,3.9v12.2m0,3.8v12.2m0,3.8V594m0,3.8V610m0,3.8V626m0,3.9v3.4M401.6,322.5h12.2m3.9,0h12.2m3.8,0h12.2m3.8,0H462m3.8,0H478m3.8,0H494m3.9,0h12.2m3.8,0h12.2m3.8,0h12.3m3.8,0h12.2m3.8,0h2.9M401.6,400.9h12.2m3.9,0h12.2m3.8,0h12.2m3.8,0H462m3.8,0H478m3.8,0H494m3.9,0h12.2m3.8,0h12.2m3.8,0h12.3m3.8,0h12.2m3.8,0h2.9M401.6,496.2h12.2m3.9,0h12.2m3.8,0h12.2m3.8,0H462m3.8,0H478m3.8,0H494m3.9,0h12.2m3.8,0h12.2m3.8,0h12.3m3.8,0h12.2m3.8,0h2.9M401.6,591.4h12.2m3.9,0h12.2m3.8,0h12.2m3.8,0H462m3.8,0H478m3.8,0H494m3.9,0h12.2m3.8,0h12.2m3.8,0h12.3m3.8,0h12.2m3.8,0h2.9" class="g2_6"/>
<path d="M481.5,693.7h-4.6m-1.5,0h-4.5m-1.5,0h-4.6m-1.5,0h-4.5m-1.6,0h-4.5m-1.5,0h-4.6m-1.5,0h-4.5m-1.6,0h-4.5m-1.5,0h-4.6m-1.5,0h-4.5m-1.5,0h-4.6m-1.5,0h-4.1v-.4m0,-1.6v-4.5m0,-1.5v-4.6m0,-1.5v-4.5m0,-1.5V669m0,-1.5v-4.6m0,-1.5v-4.5m0,-1.5v-4.2h.4m1.5,0h4.5m1.5,0h4.6m1.5,0h4.6m1.5,0h4.5m1.5,0h4.6m1.5,0h4.5m1.6,0h4.5m1.5,0h4.6m1.5,0h4.5m1.6,0h4.5m1.5,0h4.6m1.5,0h4.5m1.5,0h4.6m1.5,0H496m1.5,0H502m1.5,0h4.6m1.5,0h4.5m1.6,0h4.5m1.5,0h4.6m1.5,0h4.5m1.5,0h4.6m1.5,0h4.6m1.5,0h4.5m1.5,0h.3v4.3m0,1.5v4.6m0,1.5v4.5m0,1.5v4.6m0,1.5v4.5m0,1.6v4.5m0,1.5v4.6m0,1.5v.3h-4.2m-1.6,0H542m-1.5,0h-4.6m-1.5,0h-4.5m-1.6,0h-4.5m-1.5,0h-4.6m-1.5,0h-4.5m-1.5,0h-4.6m-1.5,0h-4.6m-1.5,0h-4.5m-1.5,0h-4.6m-1.5,0h-4.4" class="g4_6"/>
<path d="M728.4,260.9v12.2m0,3.8v12.3m0,3.8v12.2m0,3.8v12.2m0,3.9v12.2m0,3.8v12.2m0,3.9v12.2m0,3.8v12.2m0,3.8v12.3m0,3.8v12.2m0,3.8v12.2m0,3.9v12.2m0,3.8v12.2m0,3.8v12.3m0,3.8v12.2m0,3.8v12.2m0,3.9v12.2m0,3.8v12.2m0,3.9v12.2m0,3.8v12.2m0,3.8V594m0,3.8V610m0,3.8V626m0,3.9v3.4M565.5,322.5h12.2m3.8,0h12.2m3.9,0h12.2m3.8,0h12.2m3.8,0h12.3m3.8,0h12.2m3.8,0h12.2m3.9,0H690m3.8,0H706m3.8,0h12.3m3.8,0h2.8M565.5,400.9h12.2m3.8,0h12.2m3.9,0h12.2m3.8,0h12.2m3.8,0h12.3m3.8,0h12.2m3.8,0h12.2m3.9,0H690m3.8,0H706m3.8,0h12.3m3.8,0h2.8M565.5,496.2h12.2m3.8,0h12.2m3.9,0h12.2m3.8,0h12.2m3.8,0h12.3m3.8,0h12.2m3.8,0h12.2m3.9,0H690m3.8,0H706m3.8,0h12.3m3.8,0h2.8M565.5,591.4h12.2m3.8,0h12.2m3.9,0h12.2m3.8,0h12.2m3.8,0h12.3m3.8,0h12.2m3.8,0h12.2m3.9,0H690m3.8,0H706m3.8,0h12.3m3.8,0h2.8" class="g2_6"/>
<image clip-path="url(#c0_6)" preserveAspectRatio="none" x="625" y="653" width="43" height="43" xlink:href="img/4.png"/>
<path d="M892.6,261.1v12.2m0,3.8v12.3m0,3.8v12.2m0,3.8v12.2m0,3.9v12.2m0,3.8v12.2m0,3.9v12.2m0,3.8v12.2m0,3.8v12.3m0,3.8v12.2m0,3.8v12.2m0,3.9v12.2m0,3.8v12.2m0,3.8v12.3m0,3.8v12.2m0,3.8v12.2m0,3.9V530m0,3.8V546m0,3.9v12.2m0,3.8v12.2m0,3.8v12.3m0,3.8v12.2m0,3.8v12.2m0,3.9v3.4M729.7,322.7h12.2m3.8,0H758m3.8,0H774m3.8,0H790m3.9,0h12.2m3.8,0h12.2m3.9,0h12.2m3.8,0h12.2m3.8,0h12.3m3.8,0h12.2m3.8,0h2.8M729.7,401.1h12.2m3.8,0H758m3.8,0H774m3.8,0H790m3.9,0h12.2m3.8,0h12.2m3.9,0h12.2m3.8,0h12.2m3.8,0h12.3m3.8,0h12.2m3.8,0h2.8M729.7,496.4h12.2m3.8,0H758m3.8,0H774m3.8,0H790m3.9,0h12.2m3.8,0h12.2m3.9,0h12.2m3.8,0h12.2m3.8,0h12.3m3.8,0h12.2m3.8,0h2.8M729.7,591.7h12.2m3.8,0H758m3.8,0H774m3.8,0H790m3.9,0h12.2m3.8,0h12.2m3.9,0h12.2m3.8,0h12.2m3.8,0h12.3m3.8,0h12.2m3.8,0h2.8" class="g2_6"/>
<image clip-path="url(#c0_6)" preserveAspectRatio="none" x="793" y="655" width="33" height="34" xlink:href="img/5.png"/>
<path d="M647.4,693.3h-4.6m-1.5,0h-4.6m-1.5,0h-4.5m-1.5,0h-4.6m-1.5,0h-4.5m-1.6,0h-4.5m-1.5,0h-4.6m-1.5,0h-4.5m-1.5,0h-4.6m-1.5,0h-4.6m-1.5,0h-4.5m-1.5,0h-4.2v-.4m0,-1.5v-4.6m0,-1.5v-4.6m0,-1.5v-4.5m0,-1.5v-4.6m0,-1.5v-4.5m0,-1.6v-4.5m0,-1.5v-4.2h.4m1.6,0H583m1.5,0h4.6m1.5,0h4.5m1.5,0h4.6m1.5,0h4.6m1.5,0h4.5m1.5,0h4.6m1.5,0h4.5m1.6,0h4.5m1.5,0h4.6m1.5,0h4.5m1.5,0h4.6m1.5,0h4.6m1.5,0h4.5m1.5,0h4.6m1.5,0h4.5m1.6,0H680m1.5,0h4.6m1.5,0h4.5m1.5,0h4.6m1.5,0h4.6m1.5,0h4.5m1.5,0h4.6m1.5,0h.2v4.3m0,1.5v4.6m0,1.5v4.5m0,1.5v4.6m0,1.5v4.6m0,1.5v4.5m0,1.5v4.6m0,1.5v.3h-4.2m-1.5,0h-4.5m-1.6,0h-4.5m-1.5,0h-4.6m-1.5,0h-4.5m-1.6,0h-4.5m-1.5,0h-4.6m-1.5,0h-4.5m-1.5,0h-4.6m-1.5,0h-4.5m-1.6,0h-4.5m-1.5,0h-4.4m164.2,.2H807m-1.5,0H801m-1.6,0h-4.5m-1.5,0h-4.6m-1.5,0h-4.5m-1.5,0h-4.6m-1.5,0h-4.6m-1.5,0h-4.5m-1.5,0h-4.6m-1.5,0h-4.5m-1.6,0h-4.5m-1.5,0h-4.1v-.4m0,-1.5V687m0,-1.5V681m0,-1.6v-4.5m0,-1.5v-4.6m0,-1.5v-4.5m0,-1.5v-4.6m0,-1.5V651h.4m1.5,0h4.5m1.5,0h4.6m1.5,0h4.5m1.6,0h4.5m1.5,0h4.6m1.5,0h4.5m1.6,0h4.5m1.5,0h4.6m1.5,0h4.5m1.5,0h4.6m1.5,0h4.6m1.5,0h4.5m1.5,0H820m1.5,0H826m1.6,0h4.5m1.5,0h4.6m1.5,0h4.5m1.5,0h4.6m1.5,0h4.6m1.5,0h4.5m1.5,0h4.6m1.5,0h4.5m1.6,0h4.5m1.5,0h.2v4.3m0,1.5v4.6m0,1.5v4.5m0,1.6v4.5m0,1.5v4.6m0,1.5v4.5m0,1.6v4.5m0,1.5v.3h-4.2m-1.5,0h-4.5m-1.5,0H866m-1.5,0h-4.6m-1.5,0h-4.5m-1.5,0h-4.6m-1.5,0h-4.5m-1.6,0h-4.5m-1.5,0h-4.6m-1.5,0h-4.5m-1.5,0h-4.6m-1.5,0h-4.4" class="g4_6"/>
<path d="M1057.5,260.4v12.2m0,3.8v12.2m0,3.9v12.2m0,3.8v12.2m0,3.8v12.3m0,3.8v12.2m0,3.8v12.2m0,3.9v12.2m0,3.8v12.2m0,3.8V417m0,3.8V433m0,3.8v12.3m0,3.8v12.2m0,3.8v12.2m0,3.9v12.2m0,3.8v12.2m0,3.8v12.3m0,3.8v12.2m0,3.8v12.2m0,3.9v12.2m0,3.8v12.2m0,3.8v12.3m0,3.8v12.2m0,3.8v3.5M894.6,321.9h12.2m3.8,0h12.3m3.8,0h12.2m3.8,0h12.2m3.9,0H971m3.8,0H987m3.9,0h12.2m3.8,0h12.2m3.8,0h12.3m3.8,0h12.2m3.8,0h2.9M894.6,400.4h12.2m3.8,0h12.3m3.8,0h12.2m3.8,0h12.2m3.9,0H971m3.8,0H987m3.9,0h12.2m3.8,0h12.2m3.8,0h12.3m3.8,0h12.2m3.8,0h2.9M894.6,495.6h12.2m3.8,0h12.3m3.8,0h12.2m3.8,0h12.2m3.9,0H971m3.8,0H987m3.9,0h12.2m3.8,0h12.2m3.8,0h12.3m3.8,0h12.2m3.8,0h2.9M894.6,590.9h12.2m3.8,0h12.3m3.8,0h12.2m3.8,0h12.2m3.9,0H971m3.8,0H987m3.9,0h12.2m3.8,0h12.2m3.8,0h12.3m3.8,0h12.2m3.8,0h2.9" class="g2_6"/>
<path d="M976.5,692.8h-4.6m-1.5,0h-4.5m-1.5,0h-4.6m-1.5,0h-4.5m-1.6,0h-4.5m-1.5,0h-4.6m-1.5,0h-4.5m-1.6,0h-4.5m-1.5,0h-4.6m-1.5,0h-4.5m-1.5,0h-4.6m-1.5,0h-4.1v-.4m0,-1.6v-4.5m0,-1.5v-4.6m0,-1.5v-4.5m0,-1.6v-4.5m0,-1.5V662m0,-1.5V656m0,-1.5v-4.2h.4m1.5,0h4.5m1.5,0h4.6m1.5,0h4.6m1.5,0h4.5m1.5,0h4.6m1.5,0h4.5m1.6,0h4.5m1.5,0h4.6m1.5,0h4.5m1.6,0h4.5m1.5,0h4.6m1.5,0h4.5m1.5,0h4.6m1.5,0H991m1.5,0H997m1.5,0h4.6m1.5,0h4.5m1.6,0h4.5m1.5,0h4.6m1.5,0h4.5m1.5,0h4.6m1.5,0h4.6m1.5,0h4.5m1.5,0h.3v4.3m0,1.5v4.5m0,1.6v4.5m0,1.5v4.6m0,1.5v4.5m0,1.6v4.5m0,1.5V691m0,1.5v.3h-4.2m-1.6,0H1037m-1.5,0h-4.6m-1.5,0h-4.5m-1.6,0h-4.5m-1.5,0h-4.6m-1.5,0h-4.5m-1.5,0h-4.6m-1.5,0h-4.6m-1.5,0h-4.5m-1.5,0h-4.6m-1.5,0h-4.4" class="g4_6"/>
<image clip-path="url(#c0_6)" preserveAspectRatio="none" x="958" y="647" width="44" height="45" xlink:href="img/6.png"/>
<path d="M1223,260.4v12.2m0,3.8v12.2m0,3.9v12.2m0,3.8v12.2m0,3.8v12.3m0,3.8v12.2m0,3.8v12.2m0,3.9v12.2m0,3.8v12.2m0,3.8V417m0,3.8V433m0,3.8v12.3m0,3.8v12.2m0,3.8v12.2m0,3.9v12.2m0,3.8v12.2m0,3.8v12.3m0,3.8v12.2m0,3.8v12.2m0,3.9v12.2m0,3.8v12.2m0,3.8v12.3m0,3.8v2.6m-162.9,-294h12.2m3.8,0h12.3m3.8,0h12.2m3.8,0h12.2m3.9,0h12.2m3.8,0h12.2m3.9,0h12.2m3.8,0h12.2m3.8,0h12.3m3.8,0h12.2m3.8,0h2.9m-163.3,61.6h12.2m3.8,0h12.3m3.8,0h12.2m3.8,0h12.2m3.9,0h12.2m3.8,0h12.2m3.9,0h12.2m3.8,0h12.2m3.8,0h12.3m3.8,0h12.2m3.8,0h2.9m-163.3,95.3h12.2m3.8,0h12.3m3.8,0h12.2m3.8,0h12.2m3.9,0h12.2m3.8,0h12.2m3.9,0h12.2m3.8,0h12.2m3.8,0h12.3m3.8,0h12.2m3.8,0h2.9m-163.3,95.3h12.2m3.8,0h12.3m3.8,0h12.2m3.8,0h12.2m3.9,0h12.2m3.8,0h12.2m3.9,0h12.2m3.8,0h12.2m3.8,0h12.3m3.8,0h12.2m3.8,0h2.9" class="g2_6"/>
<path d="M1142,692.8h-4.5m-1.6,0h-4.5m-1.5,0h-4.6m-1.5,0h-4.5m-1.5,0h-4.6m-1.5,0h-4.6m-1.5,0h-4.5m-1.5,0H1095m-1.5,0H1089m-1.6,0h-4.5m-1.5,0h-4.6m-1.5,0h-4.1v-.4m0,-1.6v-4.5m0,-1.5v-4.6m0,-1.5v-4.5m0,-1.6v-4.5m0,-1.5V662m0,-1.5V656m0,-1.5v-4.2h.4m1.5,0h4.6m1.5,0h4.5m1.5,0h4.6m1.5,0h4.5m1.6,0h4.5m1.5,0h4.6m1.5,0h4.5m1.5,0h4.6m1.5,0h4.6m1.5,0h4.5m1.5,0h4.6m1.5,0h4.5m1.6,0h4.5m1.5,0h4.6m1.5,0h4.5m1.6,0h4.5m1.5,0h4.6m1.5,0h4.5m1.5,0h4.6m1.5,0h4.6m1.5,0h4.5m1.5,0h4.6m1.5,0h4.5m1.6,0h.2v4.3m0,1.5v4.5m0,1.6v4.5m0,1.5v4.6m0,1.5v4.5m0,1.6v4.5m0,1.5V691m0,1.5v.3h-4.2m-1.5,0h-4.6m-1.5,0h-4.6m-1.5,0h-4.5m-1.5,0h-4.6m-1.5,0h-4.5m-1.6,0h-4.5m-1.5,0h-4.6m-1.5,0h-4.5m-1.5,0H1154m-1.5,0h-4.6m-1.5,0H1142" class="g4_6"/>
<image clip-path="url(#c0_6)" preserveAspectRatio="none" x="1125" y="655" width="33" height="33" xlink:href="img/7.png"/>
</svg>