<?xml version="1.0" encoding="UTF-8" standalone="no"?>
<!DOCTYPE svg PUBLIC "-//W3C//DTD SVG 1.1//EN"
"http://www.w3.org/Graphics/SVG/1.1/DTD/svg11.dtd">
<svg viewBox="0 0 1466 825" version="1.1" xmlns="http://www.w3.org/2000/svg" xmlns:xlink="http://www.w3.org/1999/xlink">
<defs>
<clipPath id="c0_20"><path d="M0,825V0H1466.6V825Z"/></clipPath>
<style type="text/css"><![CDATA[
.g0_20{
fill: #FFF;
}
.g1_20{
fill: none;
stroke: #BFBFBF;
stroke-width: 0.779;
stroke-linejoin: round;
}
.g2_20{
fill: none;
stroke: #BFBFBF;
stroke-width: 0.779;
stroke-miterlimit: 3;
}
.g3_20{
fill: none;
stroke: #000;
stroke-width: 0.909;
stroke-miterlimit: 10;
}
.g4_20{
fill: none;
stroke: #AFABAB;
stroke-width: 0.692;
stroke-linejoin: round;
}
.g5_20{
fill: #F8CBAD;
}
.g6_20{
fill: #B4C7E7;
}
.g7_20{
fill: none;
stroke: #808080;
stroke-width: 0.779;
stroke-miterlimit: 10;
}
.g8_20{
fill: #808080;
}
.g9_20{
fill: #C55A11;
}
.ga_20{
fill: #548235;
}
.gb_20{
fill: #C39BE1;
}
.gc_20{
fill: none;
stroke: #C55A11;
stroke-width: 4.59;
stroke-miterlimit: 3;
}
.gd_20{
fill: none;
stroke: #548235;
stroke-width: 4.59;
stroke-miterlimit: 3;
}
.ge_20{
fill: none;
stroke: #C39BE1;
stroke-width: 4.59;
stroke-miterlimit: 3;
}
.gf_20{
fill: none;
stroke: #A6A6A6;
stroke-width: 0.779;
stroke-miterlimit: 10;
}
.gg_20{
fill: #A6A6A6;
}
.gh_20{
fill: none;
stroke: #F4B183;
stroke-width: 1.515;
stroke-miterlimit: 3;
}
.gi_20{
fill: #D9D9D9;
}
.gj_20{
fill: none;
stroke: #A6A6A6;
stroke-width: 1.515;
stroke-miterlimit: 3;
}
.gk_20{
fill: #C5E0B4;
}
.gl_20{
fill: none;
stroke: #548235;
stroke-width: 1.515;
stroke-miterlimit: 3;
}
.gm_20{
fill: #D5B8EA;
}
.gn_20{
fill: none;
stroke: #7030A0;
stroke-width: 1.515;
stroke-miterlimit: 3;
}
.go_20{
fill: #E8D8F4;
}
.gp_20{
fill: none;
stroke: #7030A0;
stroke-width: 0.779;
stroke-miterlimit: 3;
}
.gq_20{
fill: #BF9AC2;
}
.gr_20{
fill: none;
stroke: #0563C1;
stroke-width: 0.476;
stroke-miterlimit: 10;
}
.gs_20{
fill: none;
stroke: #C55A11;
stroke-width: 1.515;
stroke-miterlimit: 3;
}
.gt_20{
fill: #BFBFBF;
}
.gu_20{
fill: none;
stroke: #0563C1;
stroke-width: 0.909;
stroke-miterlimit: 10;
}
]]></style>
</defs>
<g clip-path="url(#c0_20)">
<path fill-rule="evenodd" d="M0,0H1466.6V825H0V0Z" class="g0_20"/>
<path fill-rule="evenodd" d="M0,0H1466.7V825H0V0Z" class="g0_20"/>
</g>
<path d="M757.4,117.5H111.9V84.7h1291v32.8H757.4Z" class="g1_20"/>
<path d="M757.4,296.3H111.9v-174h1291v174H757.4Z" class="g2_20"/>
<path d="M123.8,143H234.1" class="g3_20"/>
<path d="M265.8,154.8V167m0,3.8v12.3m0,3.8v11.9m0,18.4v12.2m0,3.8v12.3m0,3.8v12.2m0,3.8v12.2" class="g4_20"/>
<path fill-rule="evenodd" d="M1104.6,210.3c0,15.1,-12,27.3,-26.9,27.3c-14.8,0,-26.9,-12.2,-26.9,-27.3c0,-15,12.1,-27.2,26.9,-27.2c14.9,0,26.9,12.2,26.9,27.2Z" class="g5_20"/>
<path fill-rule="evenodd" d="M1138.8,167.6c0,-.8,.3,-1.6,.7,-2.3c.4,-.7,.9,-1.3,1.7,-1.7c.7,-.5,1.5,-.7,2.3,-.7l85.2,.1c.8,0,1.6,.2,2.3,.6c.7,.4,1.3,1,1.7,1.7c.5,.7,.7,1.5,.7,2.3v18.6c0,.8,-.2,1.6,-.6,2.4c-.5,.7,-1,1.3,-1.8,1.6c-.6,.5,-1.5,.7,-2.3,.7h-85.2c-.8,0,-1.6,-.2,-2.4,-.6c-.7,-.4,-1.3,-1,-1.6,-1.7c-.5,-.7,-.7,-1.6,-.7,-2.4V167.6Z" class="g6_20"/>
<path fill-rule="evenodd" d="M1138.8,201.2c0,-.9,.3,-1.6,.7,-2.4c.4,-.7,.9,-1.3,1.7,-1.7c.7,-.4,1.5,-.6,2.3,-.6h85.2c.8,0,1.6,.2,2.3,.6c.7,.5,1.3,1,1.7,1.8c.5,.7,.7,1.5,.7,2.3v18.6c0,.8,-.2,1.6,-.6,2.3c-.5,.7,-1,1.3,-1.8,1.7c-.6,.4,-1.5,.7,-2.3,.7h-85.2c-.8,0,-1.6,-.3,-2.4,-.6c-.7,-.5,-1.3,-1,-1.6,-1.8c-.5,-.7,-.7,-1.5,-.7,-2.3V201.2Z" class="g6_20"/>
<path fill-rule="evenodd" d="M1138.8,234c0,-.8,.3,-1.6,.7,-2.4c.4,-.6,.9,-1.2,1.7,-1.6c.7,-.5,1.5,-.7,2.3,-.7l85.2,.1c.8,0,1.6,.2,2.3,.6c.7,.4,1.3,1,1.7,1.7c.5,.7,.7,1.5,.7,2.3v18.6c0,.8,-.2,1.6,-.6,2.3c-.5,.7,-1,1.3,-1.8,1.7c-.6,.5,-1.5,.7,-2.3,.7h-85.2c-.8,0,-1.6,-.2,-2.4,-.6c-.7,-.5,-1.3,-1,-1.6,-1.8c-.5,-.6,-.7,-1.5,-.7,-2.3V234Z" class="g6_20"/>
<path d="M1104.7,210.3c8.5,0,17,-8.4,17,-16.7c0,-8.4,3.9,-11.3,9.1,-14.4" class="g7_20"/>
<path fill-rule="evenodd" d="M1138.8,176.9l-7.3,7l2.1,-5.4l-4.8,-3.3l10,1.7Z" class="g8_20"/>
<path d="M1104.7,210.3c8.5,0,17,0,17,.1c0,0,3.7,0,8.6,0" class="g7_20"/>
<path fill-rule="evenodd" d="M1138.8,210.4l-9,4.6l3.6,-4.6l-3.6,-4.5l9,4.5Z" class="g8_20"/>
<path d="M1104.7,210.4c8.5,0,17,8.2,17,16.4c0,8.3,3.9,11.2,9.1,14.2" class="g7_20"/>
<path fill-rule="evenodd" d="M1138.8,243.3l-10,1.7l4.8,-3.3l-2.1,-5.4l7.3,7Z" class="g8_20"/>
<path fill-rule="evenodd" d="M1258.4,190.9h-2.7V163h5.4v27.9h-2.7Z" class="g9_20"/>
<path d="M1233.4,177l13.8,-.1" class="g7_20"/>
<path fill-rule="evenodd" d="M1255.7,176.9l-9.1,4.6l3.6,-4.6l-3.6,-4.5l9.1,4.5Z" class="g8_20"/>
<path fill-rule="evenodd" d="M1258.4,224.8h-2.7V196.9h5.4v27.9h-2.7Z" class="ga_20"/>
<path d="M1233.4,210.9l13.8,-.1" class="g7_20"/>
<path fill-rule="evenodd" d="M1255.7,210.8l-9.1,4.6l3.6,-4.6l-3.6,-4.5l9.1,4.5Z" class="g8_20"/>
<path fill-rule="evenodd" d="M1258.4,259h-2.7V231.1h5.4V259h-2.7Z" class="gb_20"/>
<path d="M1233.4,245h13.8" class="g7_20"/>
<path fill-rule="evenodd" d="M1255.7,244.9l-9.1,4.6l3.6,-4.6l-3.6,-4.5l9.1,4.5Z" class="g8_20"/>
<path fill-rule="evenodd" d="M1380,156.4c0,12.5,-10,22.5,-22.2,22.5c-12.3,0,-22.3,-10,-22.3,-22.5c0,-12.4,10,-22.5,22.3,-22.5c12.2,0,22.2,10.1,22.2,22.5Z" class="g5_20"/>
<path d="M1380,156.4c0,12.5,-10,22.5,-22.2,22.5c-12.3,0,-22.3,-10,-22.3,-22.5c0,-12.4,10,-22.5,22.3,-22.5c12.2,0,22.2,10.1,22.2,22.5Z" class="gc_20"/>
<path fill-rule="evenodd" d="M1379.3,210.6c0,12.5,-9.9,22.6,-22.2,22.6c-12.3,0,-22.2,-10.1,-22.2,-22.6c0,-12.4,9.9,-22.4,22.2,-22.4c12.3,0,22.2,10,22.2,22.4Z" class="g5_20"/>
<path d="M1379.3,210.6c0,12.5,-9.9,22.6,-22.2,22.6c-12.3,0,-22.2,-10.1,-22.2,-22.6c0,-12.4,9.9,-22.4,22.2,-22.4c12.3,0,22.2,10,22.2,22.4Z" class="gd_20"/>
<path fill-rule="evenodd" d="M1380.1,264.7c0,12.5,-10,22.6,-22.2,22.6c-12.3,0,-22.3,-10.1,-22.3,-22.6c0,-12.4,10,-22.4,22.3,-22.4c12.2,0,22.2,10,22.2,22.4Z" class="g5_20"/>
<path d="M1380.1,264.7c0,12.5,-10,22.6,-22.2,22.6c-12.3,0,-22.3,-10.1,-22.3,-22.6c0,-12.4,10,-22.4,22.3,-22.4c12.2,0,22.2,10,22.2,22.4Z" class="ge_20"/>
<path d="M1261.2,176.9c1,0,2.1,0,3.1,0m2.3,-.2c1.1,0,2.1,-.1,3.2,-.2m2.3,-.3c1,-.1,2.1,-.2,3.1,-.4m2.3,-.4c1.1,-.2,2.1,-.4,3,-.6m2.3,-.6c1.1,-.3,2.1,-.6,3,-.9m2.2,-.8c1,-.4,2,-.8,2.9,-1.3m2,-1.2c1,-.7,1.7,-1.5,2.1,-2.3m.4,-2.2c.3,-.8,1,-1.7,2,-2.4m1.9,-1.3c.9,-.4,1.8,-.8,2.9,-1.2m2.2,-.8c.9,-.3,1.9,-.6,3,-.8m2.3,-.5c1,-.3,2,-.4,3.1,-.6m2.3,-.4c1,-.1,2,-.3,3,-.4m2.4,-.2c.1,0,.2,0,.3,-.1" class="gf_20"/>
<path fill-rule="evenodd" d="M1329.2,156.4l-8.8,5l3.4,-4.7l-3.9,-4.3l9.3,4Z" class="gg_20"/>
<path d="M1261.2,210.8c1,0,2.1,0,3.1,0m2.3,0c1.1,0,2.2,0,3.2,0m2.3,0c1.1,0,2.1,0,3.2,0m2.3,0c1,0,2.1,0,3.1,0m2.4,0c1,0,2.1,0,3.1,0m2.3,0c1.1,0,2.2,0,3.1,0m2.4,0c1.4,-.1,2.3,-.1,2.3,-.1c0,0,.2,0,.7,0m2.4,0c.9,0,1.9,0,3.1,0m2.3,-.1c1,0,2,0,3.1,0m2.4,0c1,0,2,0,3.1,0m2.3,0c1.1,0,2.1,0,3.2,0m2.3,0c.6,0,1.1,0,1.7,0" class="gf_20"/>
<path fill-rule="evenodd" d="M1331.4,210.6l-9.1,4.5l3.6,-4.5l-3.6,-4.5l9.1,4.5Z" class="gg_20"/>
<path d="M1261.2,245c1,0,2.1,.1,3.1,.1m2.3,.1c1.1,.1,2.1,.2,3.2,.4m2.3,.3c1,.1,2,.3,3.1,.5m2.3,.5c1,.2,2,.4,3,.7m2.3,.6c1,.4,1.9,.7,2.9,1.1m2.1,.9c1.1,.5,2,.9,2.8,1.5m2,1.3c.9,.6,1.6,1.4,2.2,2.2m.8,2.1c.1,.1,.1,.3,.1,.4c0,.9,.2,1.8,.7,2.5m1.3,1.9c.7,.6,1.6,1.3,2.6,1.9m2,1.1c.9,.4,1.8,.8,2.8,1.2m2.3,.8c1,.3,1.9,.6,3,.8m2.2,.6c1,.2,2.1,.4,3.1,.6m2.4,.4c.9,.1,2,.3,3,.4" class="gf_20"/>
<path fill-rule="evenodd" d="M1330.2,270.5l-9.4,3.9l3.9,-4.3l-3.3,-4.8l8.8,5.2Z" class="gg_20"/>
<path d="M757.4,399.7H111.9V291.5h1291V399.7H757.4Z" class="g2_20"/>
<path d="M265.8,302.5v12.3m0,3.8v12.2m0,3.8v12" class="g4_20"/>
<image clip-path="url(#c0_20)" preserveAspectRatio="none" x="1176" y="330" width="35" height="35" xlink:href="img/1.png"/>
<path fill-rule="evenodd" d="M1133.5,385.6h-51.3V371h102.6v14.6h-51.3Z" class="g5_20"/>
<path d="M1133.5,385.6h-51.3V371h102.6v14.6h-51.3Z" class="gh_20"/>
<path fill-rule="evenodd" d="M1255.6,385.6h-51.2V371h102.5v14.6h-51.3Z" class="g5_20"/>
<path d="M1255.6,385.6h-51.2V371h102.5v14.6h-51.3Z" class="gh_20"/>
<path fill-rule="evenodd" d="M1277.1,347.8h-51.3V333.1h102.6v14.7h-51.3Z" class="g5_20"/>
<path d="M1277.1,347.8h-51.3V333.1h102.6v14.7h-51.3Z" class="gh_20"/>
<path fill-rule="evenodd" d="M1113.8,335.8h-51.3V321.1h102.6v14.7h-51.3Z" class="g5_20"/>
<path d="M1113.8,335.8h-51.3V321.1h102.6v14.7h-51.3Z" class="gh_20"/>
<path fill-rule="evenodd" d="M1206.2,313.6H1155V298.9h102.5v14.7h-51.3Z" class="g5_20"/>
<path d="M1206.2,313.6H1155V298.9h102.5v14.7h-51.3Z" class="gh_20"/>
<path d="M757.4,585.2H111.9V402.1h1291V585.2H757.4Z" class="g2_20"/>
<path d="M123.6,425.9H213" class="g3_20"/>
<path d="M265.8,430.5v12.2m0,3.8v12.3m0,3.8v12" class="g4_20"/>
<path fill-rule="evenodd" d="M1056.8,431.2h82.9c2.6,0,5.2,.7,7.5,2c2.3,1.3,4.2,3.2,5.5,5.5c1.3,2.3,2,4.9,2,7.6v75.2H1041.8V446.2c0,-2.6,.6,-5.2,2,-7.5c1.3,-2.3,3.2,-4.2,5.5,-5.5c2.3,-1.3,4.9,-2,7.5,-2Z" class="gi_20"/>
<path d="M1056.8,431.2h82.9c2.6,0,5.2,.7,7.5,2c2.3,1.3,4.2,3.2,5.5,5.5c1.3,2.3,2,4.9,2,7.6v75.2H1041.8V446.2c0,-2.6,.6,-5.2,2,-7.5c1.3,-2.3,3.2,-4.2,5.5,-5.5c2.3,-1.3,4.9,-2,7.5,-2Z" class="gj_20"/>
<path fill-rule="evenodd" d="M1174.8,430.5h82.9c2.7,0,5.3,.7,7.6,2.1c2.3,1.3,4.2,3.2,5.5,5.5c1.3,2.2,2,4.8,2,7.5v75.3h-113V445.5c0,-2.6,.7,-5.2,2,-7.5c1.3,-2.3,3.2,-4.2,5.5,-5.5c2.3,-1.3,4.9,-2,7.6,-2h-.1Z" class="gk_20"/>
<path d="M1174.8,430.5h82.9c2.7,0,5.3,.7,7.6,2.1c2.3,1.3,4.2,3.2,5.5,5.5c1.3,2.2,2,4.8,2,7.5v75.3h-113V445.5c0,-2.6,.7,-5.2,2,-7.5c1.3,-2.3,3.2,-4.2,5.5,-5.5c2.3,-1.3,4.9,-2,7.6,-2h-.1Z" class="gl_20"/>
<path fill-rule="evenodd" d="M1292.5,429.2h82.8c2.7,0,5.3,.7,7.6,2c2.3,1.3,4.2,3.2,5.5,5.5c1.3,2.3,2,4.9,2,7.5v75.3h-113V444.2c0,-2.6,.7,-5.2,2.1,-7.5c1.3,-2.3,3.2,-4.2,5.5,-5.5c2.3,-1.4,4.9,-2.1,7.5,-2.1v.1Z" class="gm_20"/>
<path d="M1292.5,429.2h82.8c2.7,0,5.3,.7,7.6,2c2.3,1.3,4.2,3.2,5.5,5.5c1.3,2.3,2,4.9,2,7.5v75.3h-113V444.2c0,-2.6,.7,-5.2,2.1,-7.5c1.3,-2.3,3.2,-4.2,5.5,-5.5c2.3,-1.4,4.9,-2.1,7.5,-2.1v.1Z" class="gn_20"/>
<path d="M265.8,474.3v12.3m0,3.8v12.2m0,3.8v12.2m0,3.9v12.2m0,.6v12.2m0,3.8v12.3m0,3.8v11.9" class="g4_20"/>
<path fill-rule="evenodd" d="M1283.3,471.2h100.3c.5,0,.9,.2,1.3,.4c.4,.2,.7,.5,1,.9c.2,.5,.3,.9,.3,1.4V487H1280.7V473.8c0,-.5,.1,-.9,.3,-1.3c.2,-.4,.6,-.7,1,-1c.4,-.2,.8,-.3,1.3,-.3Z" class="go_20"/>
<path d="M1283.3,471.2h100.3c.5,0,.9,.2,1.3,.4c.4,.2,.7,.5,1,.9c.2,.5,.3,.9,.3,1.4V487H1280.7V473.8c0,-.5,.1,-.9,.3,-1.3c.2,-.4,.6,-.7,1,-1c.4,-.2,.8,-.3,1.3,-.3Z" class="gp_20"/>
<path fill-rule="evenodd" d="M1284.2,493.5h100.3c.5,0,.9,.1,1.3,.3c.5,.2,.8,.6,1,1c.2,.4,.4,.8,.4,1.3v13.1H1281.6V496.1c0,-.5,.2,-.9,.4,-1.3c.2,-.4,.5,-.8,.9,-1c.5,-.2,.9,-.4,1.4,-.4l-.1,.1Z" class="gq_20"/>
<path d="M1284.2,493.5h100.3c.5,0,.9,.1,1.3,.3c.5,.2,.8,.6,1,1c.2,.4,.4,.8,.4,1.3v13.1H1281.6V496.1c0,-.5,.2,-.9,.4,-1.3c.2,-.4,.5,-.8,.9,-1c.5,-.2,.9,-.4,1.4,-.4l-.1,.1Z" class="gp_20"/>
<path d="M759.6,776.6h-648V588.8h1296V776.6h-648Z" class="g2_20"/>
<path d="M121.9,611.7H596.4" class="g3_20"/>
<image clip-path="url(#c0_20)" preserveAspectRatio="none" x="1099" y="591" width="184" height="166" xlink:href="img/2.jpg"/>
<path d="M1075.6,770.3h283.1" class="gr_20"/>
<path d="M1221.6,652.7h-15.8v-13h31.6v13h-15.8Zm38.4,13.8h-19.1V651.9h38.2v14.6H1260Zm-89.4,72.8h-15.7V664.8h31.4v74.5h-15.7Zm-50.9,-48.5c-.3,0,-.7,-.1,-1,-.2c-.3,-.2,-.6,-.5,-.8,-.8c-.1,-.3,-.2,-.7,-.2,-1V668.4c0,-.4,-.1,-.7,-.3,-1.1c-.2,-.3,-.4,-.5,-.8,-.7c-.3,-.2,-.6,-.3,-1,-.3c.4,0,.7,-.1,1,-.3c.4,-.2,.6,-.4,.8,-.7c.2,-.3,.3,-.7,.3,-1V643.8c0,-.3,.1,-.6,.2,-1c.2,-.3,.5,-.6,.8,-.7c.3,-.2,.7,-.3,1,-.3m16.4,0c.3,0,.7,.1,1,.3c.3,.1,.6,.4,.8,.8c.1,.3,.2,.6,.2,.9v20.4c0,.4,.1,.7,.3,1.1c.1,.3,.4,.5,.7,.7c.4,.2,.7,.3,1,.3c-.3,0,-.6,.1,-1,.3c-.3,.2,-.6,.4,-.7,.7c-.2,.3,-.3,.7,-.3,1v20.5c0,.3,-.1,.6,-.2,1c-.2,.3,-.5,.6,-.8,.7c-.3,.2,-.7,.3,-1,.3" class="gs_20"/>
<path fill-rule="evenodd" d="M1179.5,37.2L1147.9,20c-2,-1,-1,-3.3,1.5,-3.3h218.9c.6,0,1.1,.1,1.5,.3l37.7,20.2c1.4,.7,1.5,2.2,.1,2.9l-37.8,20.8c-.4,.2,-.9,.4,-1.5,.4H1149.2c-2.4,0,-3.4,-2.3,-1.5,-3.4l31.9,-17.8c1.3,-.7,1.3,-2.2,-.1,-2.9Z" class="gt_20"/>
<path d="M99,796.1h40.6" class="gu_20"/>
</svg>