<?xml version="1.0" encoding="UTF-8" standalone="no"?>
<!DOCTYPE svg PUBLIC "-//W3C//DTD SVG 1.1//EN"
"http://www.w3.org/Graphics/SVG/1.1/DTD/svg11.dtd">
<svg viewBox="0 0 1466 825" version="1.1" xmlns="http://www.w3.org/2000/svg" xmlns:xlink="http://www.w3.org/1999/xlink">
<defs>
<clipPath id="c0_25"><path d="M0,825V0H1466.6V825Z"/></clipPath>
<style type="text/css"><![CDATA[
.g0_25{
fill: #FFF;
}
.g1_25{
fill: none;
stroke: #A6A6A6;
stroke-width: 0.779;
stroke-miterlimit: 3;
}
.g2_25{
fill: #BFBFBF;
}
.g3_25{
fill: none;
stroke: #BFBFBF;
stroke-width: 0.779;
stroke-miterlimit: 3;
}
.g4_25{
fill: none;
stroke: #000;
stroke-width: 0.909;
stroke-miterlimit: 10;
}
.g5_25{
fill: #D9D9D9;
}
.g6_25{
fill: none;
stroke: #FFF;
stroke-width: 1.298;
stroke-linejoin: round;
}
.g7_25{
fill: none;
stroke: #AFABAB;
stroke-width: 0.692;
stroke-linejoin: round;
}
.g8_25{
fill: #C5E0B4;
}
.g9_25{
fill: #D8BDED;
}
.ga_25{
fill: none;
stroke: #BFBFBF;
stroke-width: 1.515;
stroke-miterlimit: 3;
}
.gb_25{
fill: none;
stroke: #808080;
stroke-width: 0.779;
stroke-miterlimit: 10;
}
.gc_25{
fill: #B4C7E7;
}
.gd_25{
fill: none;
stroke: #8FAADC;
stroke-width: 1.515;
stroke-miterlimit: 3;
}
.ge_25{
fill: none;
stroke: #A6A6A6;
stroke-width: 0.779;
stroke-miterlimit: 10;
}
.gf_25{
fill: #A6A6A6;
}
.gg_25{
fill: none;
stroke: #A6A6A6;
stroke-width: 1.515;
stroke-miterlimit: 3;
}
.gh_25{
fill: #7030A0;
}
.gi_25{
fill: #F8CBAD;
}
.gj_25{
fill: none;
stroke: #0563C1;
stroke-width: 0.909;
stroke-miterlimit: 10;
}
]]></style>
</defs>
<g clip-path="url(#c0_25)">
<path fill-rule="evenodd" d="M0,0H1466.6V825H0V0Z" class="g0_25"/>
<path fill-rule="evenodd" d="M0,0H1466.7V825H0V0Z" class="g0_25"/>
</g>
<path d="M1309.5,338.3l-.2,-46m-115.8,44.9l.2,-44.9" class="g1_25"/>
<path fill-rule="evenodd" d="M1167.3,37.9L1135.6,20.7c-2,-1,-.9,-3.3,1.6,-3.3H1356c.6,0,1.1,.1,1.5,.3l37.8,20.2c1.4,.7,1.4,2.2,0,2.9l-37.7,20.8c-.5,.2,-1,.4,-1.6,.4H1136.9c-2.3,0,-3.4,-2.3,-1.4,-3.4l31.8,-17.8c1.4,-.7,1.3,-2.2,0,-2.9Z" class="g2_25"/>
<path d="M744.6,221.3H60.6V94h1368V221.3h-684Zm0,544.1H60.6V233.6h1368V765.4h-684Z" class="g3_25"/>
<path d="M85.6,261.7H376.3" class="g4_25"/>
<path fill-rule="evenodd" d="M87.2,274.1H193.1v29.4H87.2V274.1Z" class="g5_25"/>
<path fill-rule="evenodd" d="M193.1,274.1h863.6v29.4H193.1V274.1Z" class="g5_25"/>
<path d="M558.6,320.6h42.3" class="g4_25"/>
<path d="M86.5,274.1h970.9M87.2,273.4V413.8" class="g6_25"/>
<path d="M193.1,273.4v12.3m0,3.8v12.2m0,3.8v12.2m0,3.9v12.2m0,3.8v12.2m0,3.8v12.3m0,3.8v12.2m0,3.8v12.2m0,3.9v12" class="g7_25"/>
<path d="M1056.7,273.4V413.8" class="g6_25"/>
<path d="M86.5,303.5H98.7m3.9,0h12.2m3.8,0h12.2m3.8,0h12.3m3.8,0h12.2m3.8,0h12.2m3.9,0H195m3.8,0H211m3.8,0h12.3m3.8,0h12.2m3.8,0h12.2m3.9,0h12.2m3.8,0h12.2m3.9,0h12.2m3.8,0h12.2m3.8,0h12.3m3.8,0h12.2m3.8,0h12.2m3.9,0h12.2m3.8,0h12.2m3.8,0h12.3m3.8,0h12.2m3.8,0h12.2m3.9,0h12.2m3.8,0h12.2m3.9,0h12.2m3.8,0h12.2m3.8,0h12.3m3.8,0h12.2m3.8,0h12.2m3.9,0H580m3.8,0H596m3.8,0h12.3m3.8,0h12.2m3.8,0h12.2m3.9,0h12.2m3.8,0h12.2m3.9,0h12.2m3.8,0h12.2m3.8,0h12.3m3.8,0h12.2m3.8,0h12.2m3.9,0h12.2m3.8,0h12.2m3.8,0h12.3m3.8,0h12.2m3.8,0h12.2m3.9,0h12.2m3.8,0h12.2m3.9,0h12.2m3.8,0h12.2m3.8,0h12.3m3.8,0h12.2m3.8,0h12.2m3.9,0H965m3.8,0H981m3.8,0h12.3m3.8,0h12.2m3.8,0h12.2m3.9,0h12.2m3.8,0h8.4M86.5,413.5H98.7m3.9,0h12.2m3.8,0h12.2m3.8,0h12.3m3.8,0h12.2m3.8,0h12.2m3.9,0H195m3.8,0H211m3.8,0h12.3m3.8,0h12.2m3.8,0h12.2m3.9,0h12.2m3.8,0h12.2m3.9,0h12.2m3.8,0h12.2m3.8,0h12.3m3.8,0h12.2m3.8,0h12.2m3.9,0h12.2m3.8,0h12.2m3.8,0h12.3m3.8,0h12.2m3.8,0h12.2m3.9,0h12.2m3.8,0h12.2m3.9,0h12.2m3.8,0h12.2m3.8,0h12.3m3.8,0h12.2m3.8,0h12.2m3.9,0H580m3.8,0H596m3.8,0h12.3m3.8,0h12.2m3.8,0h12.2m3.9,0h12.2m3.8,0h12.2m3.9,0h12.2m3.8,0h12.2m3.8,0h12.3m3.8,0h12.2m3.8,0h12.2m3.9,0h12.2m3.8,0h12.2m3.8,0h12.3m3.8,0h12.2m3.8,0h12.2m3.9,0h12.2m3.8,0h12.2m3.9,0h12.2m3.8,0h12.2m3.8,0h12.3m3.8,0h12.2m3.8,0h12.2m3.9,0H965m3.8,0H981m3.8,0h12.3m3.8,0h12.2m3.8,0h12.2m3.9,0h12.2m3.8,0h8.4" class="g7_25"/>
<path fill-rule="evenodd" d="M1220.4,364.5c0,15,-12.1,27.2,-26.9,27.2c-14.9,0,-26.9,-12.2,-26.9,-27.2c0,-15.1,12,-27.2,26.9,-27.2c14.8,0,26.9,12.1,26.9,27.2Z" class="g8_25"/>
<image clip-path="url(#c0_25)" preserveAspectRatio="none" x="1205" y="373" width="25" height="25" xlink:href="img/1.png"/>
<path fill-rule="evenodd" d="M1333.9,363c0,13.6,-10.9,24.7,-24.4,24.7c-13.5,0,-24.4,-11.1,-24.4,-24.7c0,-13.7,10.9,-24.7,24.4,-24.7c13.5,0,24.4,11,24.4,24.7Z" class="g9_25"/>
<path fill-rule="evenodd" d="M1193.6,328h-27.8V311.2h55.6V328h-27.8Z" class="g5_25"/>
<path d="M1193.6,328h-27.8V311.2h55.6V328h-27.8Z" class="ga_25"/>
<path fill-rule="evenodd" d="M1193.6,292.3h-27.8V275.5h55.6v16.8h-27.8Z" class="g5_25"/>
<path d="M1193.6,292.3h-27.8V275.5h55.6v16.8h-27.8Z" class="ga_25"/>
<path d="M1220.4,364.4l3.1,-.1m2.4,0l3.1,-.1m2.3,0l3.1,-.1m2.4,-.1h3.1m2.3,-.1h3.1m2.4,-.1l3.1,-.1m2.3,0l3.2,-.1m2.3,0l3.1,-.1m2.3,-.1h3.2m2.3,-.1h3.1m2.4,-.1l3.1,-.1m2.3,0l3.1,-.1" class="gb_25"/>
<path fill-rule="evenodd" d="M1309.2,328h-27.8V311.2H1337V328h-27.8Z" class="g5_25"/>
<path d="M1309.2,328h-27.8V311.2H1337V328h-27.8Z" class="ga_25"/>
<path fill-rule="evenodd" d="M1221.5,413.6c0,-.6,.1,-1.2,.5,-1.7c.3,-.6,.6,-1,1.2,-1.3c.5,-.3,1.1,-.4,1.7,-.4h60.5c.6,0,1.2,.1,1.7,.4c.5,.3,.9,.7,1.2,1.3c.3,.5,.5,1.1,.5,1.7l.1,13.6c0,.6,-.2,1.2,-.5,1.8c-.3,.5,-.7,.9,-1.3,1.2c-.5,.3,-1.1,.4,-1.7,.4l-60.5,.1c-.6,0,-1.2,-.2,-1.7,-.5c-.6,-.3,-.9,-.7,-1.2,-1.2c-.4,-.6,-.5,-1.1,-.5,-1.7V413.6Z" class="gc_25"/>
<path d="M1221.5,413.6c0,-.6,.1,-1.2,.5,-1.7c.3,-.6,.6,-1,1.2,-1.3c.5,-.3,1.1,-.4,1.7,-.4h60.5c.6,0,1.2,.1,1.7,.4c.5,.3,.9,.7,1.2,1.3c.3,.5,.5,1.1,.5,1.7l.1,13.6c0,.6,-.2,1.2,-.5,1.8c-.3,.5,-.7,.9,-1.3,1.2c-.5,.3,-1.1,.4,-1.7,.4l-60.5,.1c-.6,0,-1.2,-.2,-1.7,-.5c-.6,-.3,-.9,-.7,-1.2,-1.2c-.4,-.6,-.5,-1.1,-.5,-1.7V413.6Z" class="gd_25"/>
<path d="M1221.5,420.5h-29V398" class="ge_25"/>
<path fill-rule="evenodd" d="M1192.5,389.5l4.5,9.1l-4.5,-3.6l-4.6,3.6l4.6,-9.1Z" class="gf_25"/>
<path d="M1288.8,420.4h20.8V396.1" class="ge_25"/>
<path fill-rule="evenodd" d="M1309.4,387.7l4.7,9l-4.6,-3.5l-4.5,3.7l4.4,-9.2Z" class="gf_25"/>
<path d="M1230,283.9l42.9,.1" class="ge_25"/>
<path fill-rule="evenodd" d="M1221.5,283.9l9.1,-4.5l-3.7,4.5l3.7,4.6l-9.1,-4.6Z" class="gf_25"/>
<path fill-rule="evenodd" d="M1281.4,284l-9.1,4.6L1276,284l-3.7,-4.5l9.1,4.5Z" class="gf_25"/>
<path fill-rule="evenodd" d="M1309.2,292.3h-27.8V275.5H1337v16.8h-27.8Z" class="g5_25"/>
<path d="M1309.2,292.3h-27.8V275.5H1337v16.8h-27.8Z" class="ga_25"/>
<path d="M89.2,453.6h12.2m3.8,0h12.3m3.8,0h12.2m3.8,0h12.2m3.9,0h12.2m3.8,0h12.2m3.9,0h12.2m3.8,0h12.2m3.8,0h12.3m3.8,0h12.2m3.8,0h12.2m3.9,0h12.2m3.8,0h12.2m3.8,0H310m3.8,0H326m3.8,0H342m3.9,0h12.2m3.8,0h12.2m3.9,0h12.2m3.8,0h12.2m3.8,0h12.3m3.8,0h12.2m3.8,0h12.2m3.9,0h12.2m3.8,0h12.2m3.8,0h12.3m3.8,0h12.2m3.8,0h12.2m3.9,0h12.2m3.8,0h12.2m3.9,0h12.2m3.8,0h12.2m3.8,0h12.3m3.8,0h12.2m3.8,0h12.2m3.9,0h12.2m3.8,0h12.2m3.8,0H695m3.8,0H711m3.8,0H727m3.9,0h12.2m3.8,0h12.2m3.9,0h12.2m3.8,0h12.2m3.8,0h12.3m3.8,0h12.2m3.8,0h12.2m3.9,0h12.2m3.8,0h12.2m3.8,0h12.3m3.8,0h12.2m3.8,0h12.2m3.9,0h12.2m3.8,0h12.2m3.9,0h12.2m3.8,0h12.2m3.8,0h12.3m3.8,0h12.2m3.8,0h12.2m3.9,0h12.2m3.8,0h8.4M89.2,547.1h12.2m3.8,0h12.3m3.8,0h12.2m3.8,0h12.2m3.9,0h12.2m3.8,0h12.2m3.9,0h12.2m3.8,0h12.2m3.8,0h12.3m3.8,0h12.2m3.8,0h12.2m3.9,0h12.2m3.8,0h12.2m3.8,0H310m3.8,0H326m3.8,0H342m3.9,0h12.2m3.8,0h12.2m3.9,0h12.2m3.8,0h12.2m3.8,0h12.3m3.8,0h12.2m3.8,0h12.2m3.9,0h12.2m3.8,0h12.2m3.8,0h12.3m3.8,0h12.2m3.8,0h12.2m3.9,0h12.2m3.8,0h12.2m3.9,0h12.2m3.8,0h12.2m3.8,0h12.3m3.8,0h12.2m3.8,0h12.2m3.9,0h12.2m3.8,0h12.2m3.8,0H695m3.8,0H711m3.8,0H727m3.9,0h12.2m3.8,0h12.2m3.9,0h12.2m3.8,0h12.2m3.8,0h12.3m3.8,0h12.2m3.8,0h12.2m3.9,0h12.2m3.8,0h12.2m3.8,0h12.3m3.8,0h12.2m3.8,0h12.2m3.9,0h12.2m3.8,0h12.2m3.9,0h12.2m3.8,0h12.2m3.8,0h12.3m3.8,0h12.2m3.8,0h12.2m3.9,0h12.2m3.8,0h8.4" class="g7_25"/>
<path d="M89.9,453.3v94.2" class="g6_25"/>
<path d="M195.8,453.3v12.2m0,3.8v12.2m0,3.8v12.3m0,3.8v12.2m0,3.8v12.2m0,3.9v12.2" class="g7_25"/>
<path d="M1059.4,453.3v94.2" class="g6_25"/>
<path fill-rule="evenodd" d="M1119.5,459h31.9v25h-31.9V459Z" class="g2_25"/>
<path fill-rule="evenodd" d="M1151.4,459h51.2v25h-51.2V459Z" class="g2_25"/>
<path fill-rule="evenodd" d="M1202.6,459h41v25h-41V459Z" class="g2_25"/>
<path fill-rule="evenodd" d="M1243.6,459h70v25h-70V459Z" class="g2_25"/>
<path fill-rule="evenodd" d="M1313.6,459h96.9v25h-96.9V459Z" class="g2_25"/>
<path d="M1119.5,459v12.2m0,3.8v12.2m0,3.9v12.2m0,3.8v12.2m0,3.8v12.3m0,3.8v8.6M1151.4,459v12.2m0,3.8v12.2m0,3.9v12.2m0,3.8v12.2m0,3.8v12.3m0,3.8v8.6M1202.6,459v12.2m0,3.8v12.2m0,3.9v12.2m0,3.8v12.2m0,3.8v12.3m0,3.8v8.6m41,-88.8v12.2m0,3.8v12.2m0,3.9v12.2m0,3.8v12.2m0,3.8v12.3m0,3.8v8.6m70,-88.8v12.2m0,3.8v12.2m0,3.9v12.2m0,3.8v12.2m0,3.8v12.3m0,3.8v8.6" class="g7_25"/>
<path fill-rule="evenodd" d="M1405.6,550.6h.9V489.9h2v60.7h1l-2,2l-1.9,-2Z" class="g2_25"/>
<path d="M1405.6,550.6h.9V489.9h2v60.7h1l-2,2l-1.9,-2Z" class="gg_25"/>
<path fill-rule="evenodd" d="M1402.5,489.6c0,-.8,.2,-1.7,.6,-2.4c.5,-.8,1.2,-1.4,2,-1.9c.7,-.4,1.6,-.7,2.6,-.7c.9,0,1.8,.3,2.6,.7c.7,.5,1.4,1.1,1.9,1.9c.4,.7,.7,1.6,.7,2.4c0,.9,-.3,1.8,-.7,2.5c-.5,.8,-1.2,1.4,-1.9,1.9c-.8,.4,-1.7,.6,-2.6,.6c-1,0,-1.9,-.2,-2.6,-.6c-.8,-.5,-1.5,-1.1,-2,-1.9c-.4,-.7,-.6,-1.6,-.6,-2.5Z" class="gh_25"/>
<path fill-rule="evenodd" d="M1403.4,508.1c0,-.8,.2,-1.5,.5,-2.1c.4,-.6,.9,-1.1,1.6,-1.5c.7,-.4,1.4,-.5,2.2,-.5c.7,0,1.4,.1,2.1,.5c.7,.4,1.2,.9,1.6,1.5c.3,.6,.5,1.3,.5,2.1c0,.7,-.2,1.4,-.5,2c-.4,.7,-.9,1.2,-1.6,1.5c-.7,.4,-1.4,.6,-2.1,.6c-.8,0,-1.5,-.2,-2.2,-.6c-.7,-.3,-1.2,-.8,-1.6,-1.5c-.3,-.6,-.5,-1.3,-.5,-2Z" class="gh_25"/>
<path fill-rule="evenodd" d="M1403.2,522.8c0,-.8,.2,-1.5,.6,-2.1c.3,-.6,.9,-1.1,1.6,-1.5c.6,-.4,1.3,-.6,2.1,-.6c.7,0,1.5,.2,2.1,.6c.7,.4,1.2,.9,1.6,1.5c.4,.6,.6,1.3,.6,2.1c0,.7,-.2,1.4,-.6,2c-.4,.6,-.9,1.2,-1.6,1.5c-.6,.4,-1.4,.6,-2.1,.6c-.8,0,-1.5,-.2,-2.1,-.6c-.7,-.3,-1.3,-.9,-1.6,-1.5c-.4,-.6,-.6,-1.3,-.6,-2Z" class="gh_25"/>
<path fill-rule="evenodd" d="M1404.1,539.3c0,-.6,.1,-1.1,.4,-1.6c.3,-.4,.7,-.8,1.2,-1.1c.5,-.2,1,-.4,1.6,-.4c.6,0,1.1,.2,1.6,.4c.5,.3,.9,.7,1.2,1.1c.3,.5,.4,1,.4,1.6c0,.6,-.1,1.1,-.4,1.6c-.3,.4,-.7,.8,-1.2,1.1c-.5,.2,-1,.4,-1.6,.4c-.6,0,-1.1,-.2,-1.6,-.4c-.5,-.3,-.9,-.7,-1.2,-1.1c-.3,-.5,-.4,-1,-.4,-1.6Z" class="gh_25"/>
<path d="M799.3,591.3h236.5M205.6,605h87.8" class="g4_25"/>
<path d="M88.1,574.1h12.2m3.9,0h12.2m3.8,0h12.2m3.8,0h12.3m3.8,0h12.2m3.8,0h12.2m3.9,0h12.2m3.8,0h12.2m3.8,0h12.3m3.8,0h12.2m3.8,0h12.3m3.8,0h12.2m3.8,0h12.2m3.9,0h12.2m3.8,0h12.2m3.8,0H341m3.8,0H357m3.8,0H373m3.9,0h12.2m3.8,0h12.2m3.8,0h12.3m3.8,0h12.2m3.8,0h12.3m3.8,0h12.2m3.8,0h12.2m3.9,0h12.2m3.8,0h12.2m3.8,0h12.3m3.8,0h12.2m3.8,0h12.2m3.9,0h12.2m3.8,0h12.2m3.8,0h12.3m3.8,0h12.2m3.8,0h12.3m3.8,0h12.2m3.8,0h12.2m3.9,0h12.2m3.8,0h12.2m3.8,0H726m3.8,0H742m3.8,0H758m3.9,0h12.2m3.8,0h12.2m3.8,0h12.3m3.8,0h12.2m3.8,0h12.3m3.8,0h12.2m3.8,0h12.2m3.9,0h12.2m3.8,0h12.2m3.8,0h12.3m3.8,0h12.2m3.8,0h12.2m3.9,0h12.2m3.8,0h12.2m3.8,0h12.3m3.8,0h12.2m3.8,0h12.3m3.8,0h12.2m3.8,0h8.4M88.1,750.2h12.2m3.9,0h12.2m3.8,0h12.2m3.8,0h12.3m3.8,0h12.2m3.8,0h12.2m3.9,0h12.2m3.8,0h12.2m3.8,0h12.3m3.8,0h12.2m3.8,0h12.3m3.8,0h12.2m3.8,0h12.2m3.9,0h12.2m3.8,0h12.2m3.8,0H341m3.8,0H357m3.8,0H373m3.9,0h12.2m3.8,0h12.2m3.8,0h12.3m3.8,0h12.2m3.8,0h12.3m3.8,0h12.2m3.8,0h12.2m3.9,0h12.2m3.8,0h12.2m3.8,0h12.3m3.8,0h12.2m3.8,0h12.2m3.9,0h12.2m3.8,0h12.2m3.8,0h12.3m3.8,0h12.2m3.8,0h12.3m3.8,0h12.2m3.8,0h12.2m3.9,0h12.2m3.8,0h12.2m3.8,0H726m3.8,0H742m3.8,0H758m3.9,0h12.2m3.8,0h12.2m3.8,0h12.3m3.8,0h12.2m3.8,0h12.3m3.8,0h12.2m3.8,0h12.2m3.9,0h12.2m3.8,0h12.2m3.8,0h12.3m3.8,0h12.2m3.8,0h12.2m3.9,0h12.2m3.8,0h12.2m3.8,0h12.3m3.8,0h12.2m3.8,0h12.3m3.8,0h12.2m3.8,0h8.4" class="g7_25"/>
<path d="M88.8,573.8V750.5" class="g6_25"/>
<path d="M194.7,573.8V586m0,3.8v12.3m0,3.8v12.2m0,3.8v12.2m0,3.9v12.2m0,3.8v12.2m0,3.8v12.3m0,3.8v12.2m0,3.8v12.3m0,3.8v12.2m0,3.8v12.2m0,3.9v.2" class="g7_25"/>
<path d="M1058.3,573.8V750.5" class="g6_25"/>
<path fill-rule="evenodd" d="M1268.2,619.8c0,15,-12.1,27.2,-26.9,27.2c-14.9,0,-26.9,-12.2,-26.9,-27.2c0,-15.1,12,-27.2,26.9,-27.2c14.8,0,26.9,12.1,26.9,27.2Z" class="gi_25"/>
<path fill-rule="evenodd" d="M1263.7,703.1c0,12.4,-10,22.5,-22.3,22.5c-12.3,0,-22.2,-10.1,-22.2,-22.5c0,-12.4,9.9,-22.5,22.2,-22.5c12.3,0,22.3,10.1,22.3,22.5Z" class="g9_25"/>
<path d="M1241.3,647v3.1m.1,2.3v3.1m0,2.4V661m0,2.3v3.2m0,2.3v3.1m0,2.3l.1,3.2m0,2.3v.9" class="ge_25"/>
<g clip-path="url(#c0_25)">
<image preserveAspectRatio="none" x="1289" y="680" width="37" height="37" xlink:href="img/2.png"/>
<image preserveAspectRatio="none" x="1281" y="597" width="45" height="45" xlink:href="img/3.png"/>
</g>
<path d="M1304.1,645.8v3.1m.1,2.3v3.1m0,2.4v3.1m0,2.3l.1,3.1m0,2.4v3.1m0,2.3l.1,3.2m0,2.3v.9" class="ge_25"/>
<path d="M99,796.1h40.6" class="gj_25"/>
</svg>