<?xml version="1.0" encoding="UTF-8" standalone="no"?>
<!DOCTYPE svg PUBLIC "-//W3C//DTD SVG 1.1//EN"
"http://www.w3.org/Graphics/SVG/1.1/DTD/svg11.dtd">
<svg viewBox="0 0 1466 825" version="1.1" xmlns="http://www.w3.org/2000/svg" xmlns:xlink="http://www.w3.org/1999/xlink">
<defs>
<clipPath id="c0_10"><path d="M0,825V0H1466.6V825Z"/></clipPath>
<style type="text/css"><![CDATA[
.g0_10{
fill: #FFF;
}
.g1_10{
fill: none;
stroke: #808080;
stroke-width: 0.692;
stroke-linejoin: round;
}
.g2_10{
fill: #D9D9D9;
}
.g3_10{
fill: #808080;
}
.g4_10{
fill: #AFABAB;
}
.g5_10{
fill: none;
stroke: #AFABAB;
stroke-width: 0.152;
stroke-linejoin: round;
}
.g6_10{
fill: none;
stroke: #A6A6A6;
stroke-width: 0.996;
stroke-linejoin: round;
}
.g7_10{
fill: none;
stroke: #D9D9D9;
stroke-width: 1.515;
stroke-miterlimit: 3;
}
.g8_10{
fill: none;
stroke: #DADCE0;
stroke-width: 0.687;
stroke-linejoin: round;
}
.g9_10{
fill: none;
stroke: #0563C1;
stroke-width: 0.909;
stroke-miterlimit: 10;
}
]]></style>
</defs>
<g clip-path="url(#c0_10)">
<path fill-rule="evenodd" d="M0,0H1466.6V825H0V0Z" class="g0_10"/>
<path fill-rule="evenodd" d="M0,0H1466.7V825H0V0Z" class="g0_10"/>
</g>
<path d="M731.7,92.5v12.2m0,3.8v12.2m0,3.9v12.2m0,3.8v12.2m0,3.8v12.3m0,3.8v12.2m0,3.8v12.2m0,3.9V217m0,3.8V233m0,3.8v12.3m0,3.8v12.2m0,3.8v12.2m0,3.9v12.2m0,3.8v12.2M109.6,137.1h12.2m3.8,0h12.2m3.9,0h12.2m3.8,0h12.2m3.8,0H186m3.8,0H202m3.8,0h12.3m3.8,0h12.2m3.8,0h12.2m3.9,0h12.2m3.8,0h12.2m3.8,0h12.3m3.8,0h12.2m3.8,0h12.2m3.9,0h12.2m3.8,0h12.2m3.8,0h12.3m3.8,0h12.2m3.8,0h12.3m3.8,0h12.2m3.8,0h12.2m3.9,0h12.2m3.8,0h12.2m3.8,0h12.3m3.8,0h12.2m3.8,0h12.2m3.9,0h12.2m3.8,0h12.2m3.8,0H571m3.8,0H587m3.8,0h12.3m3.8,0h12.2m3.8,0h12.2m3.9,0h12.2m3.8,0h12.2m3.8,0h12.3m3.8,0h12.2m3.8,0h12.2m3.9,0h12.2m3.8,0h12.2m3.8,0h12.3m3.8,0h12.2m3.8,0h12.3m3.8,0h12.2m3.8,0h12.2m3.9,0h12.2m3.8,0h12.2m3.8,0h12.3m3.8,0h12.2m3.8,0h12.2m3.9,0h12.2m3.8,0h12.2m3.8,0H956m3.8,0H972m3.8,0h12.3m3.8,0h12.2m3.8,0h12.2m3.9,0h12.2m3.8,0h12.2m3.8,0h12.3m3.8,0h12.2m3.8,0h12.2m3.9,0h12.2m3.8,0h12.2m3.8,0h12.3m3.8,0h12.2m3.8,0h12.3m3.8,0h12.2m3.8,0h12.2m3.9,0h12.2m3.8,0h12.2m3.8,0h12.3m3.8,0h12.2m3.8,0h12.2m3.9,0h12.2m3.8,0h12.2m3.8,0h.8M109.6,314.1h12.2m3.8,0h12.2m3.9,0h12.2m3.8,0h12.2m3.8,0H186m3.8,0H202m3.8,0h12.3m3.8,0h12.2m3.8,0h12.2m3.9,0h12.2m3.8,0h12.2m3.8,0h12.3m3.8,0h12.2m3.8,0h12.2m3.9,0h12.2m3.8,0h12.2m3.8,0h12.3m3.8,0h12.2m3.8,0h12.3m3.8,0h12.2m3.8,0h12.2m3.9,0h12.2m3.8,0h12.2m3.8,0h12.3m3.8,0h12.2m3.8,0h12.2m3.9,0h12.2m3.8,0h12.2m3.8,0H571m3.8,0H587m3.8,0h12.3m3.8,0h12.2m3.8,0h12.2m3.9,0h12.2m3.8,0h12.2m3.8,0h12.3m3.8,0h12.2m3.8,0h12.2m3.9,0h12.2m3.8,0h12.2m3.8,0h12.3m3.8,0h12.2m3.8,0h12.3m3.8,0h12.2m3.8,0h12.2m3.9,0h12.2m3.8,0h12.2m3.8,0h12.3m3.8,0h12.2m3.8,0h12.2m3.9,0h12.2m3.8,0h12.2m3.8,0H956m3.8,0H972m3.8,0h12.3m3.8,0h12.2m3.8,0h12.2m3.9,0h12.2m3.8,0h12.2m3.8,0h12.3m3.8,0h12.2m3.8,0h12.2m3.9,0h12.2m3.8,0h12.2m3.8,0h12.3m3.8,0h12.2m3.8,0h12.3m3.8,0h12.2m3.8,0h12.2m3.9,0h12.2m3.8,0h12.2m3.8,0h12.3m3.8,0h12.2m3.8,0h12.2m3.9,0h12.2m3.8,0h12.2m3.8,0h.8" class="g1_10"/>
<path fill-rule="evenodd" d="M1026.1,339.7H747.5V141.3h557.1V339.7H1026.1Z" class="g2_10"/>
<path fill-rule="evenodd" d="M1026.1,173.6H747.5V142.2h557.1v31.4H1026.1Z" class="g3_10"/>
<path fill-rule="evenodd" d="M884.3,323.9H812.4V182.3H956.3V323.9h-72Z" class="g0_10"/>
<path fill-rule="evenodd" d="M1021.2,269.8H984.5V242.4h73.3v27.4h-36.6Z" class="g4_10"/>
<path d="M1021.2,269.8H984.5V242.4h73.3v27.4h-36.6Z" class="g5_10"/>
<image clip-path="url(#c0_10)" preserveAspectRatio="none" x="1098" y="177" width="186" height="153" xlink:href="img/1.jpg"/>
<path d="M109.6,589.3h12.2m3.8,0h12.2m3.9,0h12.2m3.8,0h12.2m3.8,0H186m3.8,0H202m3.8,0h12.3m3.8,0h12.2m3.8,0h12.2m3.9,0h12.2m3.8,0h12.2m3.8,0h12.3m3.8,0h12.2m3.8,0h12.2m3.9,0h12.2m3.8,0h12.2m3.8,0h12.3m3.8,0h12.2m3.8,0h12.3m3.8,0h12.2m3.8,0h12.2m3.9,0h12.2m3.8,0h12.2m3.8,0h12.3m3.8,0h12.2m3.8,0h12.2m3.9,0h12.2m3.8,0h12.2m3.8,0H571m3.8,0H587m3.8,0h12.3m3.8,0h12.2m3.8,0h12.2m3.9,0h12.2m3.8,0h12.2m3.8,0h12.3m3.8,0h12.2m3.8,0h12.2m3.9,0h12.2m3.8,0h12.2m3.8,0h12.3m3.8,0h12.2m3.8,0h12.3m3.8,0h12.2m3.8,0h12.2m3.9,0h12.2m3.8,0h12.2m3.8,0h12.3m3.8,0h12.2m3.8,0h12.2m3.9,0h12.2m3.8,0h12.2m3.8,0H956m3.8,0H972m3.8,0h12.3m3.8,0h12.2m3.8,0h12.2m3.9,0h12.2m3.8,0h12.2m3.8,0h12.3m3.8,0h12.2m3.8,0h12.2m3.9,0h12.2m3.8,0h12.2m3.8,0h12.3m3.8,0h12.2m3.8,0h12.3m3.8,0h12.2m3.8,0h12.2m3.9,0h12.2m3.8,0h12.2m3.8,0h12.3m3.8,0h12.2m3.8,0h12.2m3.9,0h12.2m3.8,0h12.2m3.8,0h.8M731.7,347.3v12.2m0,3.8v12.3m0,3.8v12.2m0,3.8v12.2m0,3.9v12.2m0,3.8v12.2m0,3.9v12.2m0,3.8v12.2m0,3.8v12.3m0,3.8v12.2m0,3.8v12.2m0,3.9V536m0,3.8V552m0,3.8v12.3m0,3.8v12.2m0,3.8v1.9" class="g6_10"/>
<path fill-rule="evenodd" d="M1028.9,567.1H750.3V349.7h557.1V567.1H1028.9Z" class="g2_10"/>
<path fill-rule="evenodd" d="M1028.9,382.1H750.3V350.7h557.1v31.4H1028.9Z" class="g3_10"/>
<path fill-rule="evenodd" d="M914.3,558.1H809.4V386.7h209.8V558.1H914.3Z" class="g0_10"/>
<path fill-rule="evenodd" d="M1073.5,440.2h-36.7V412.8h73.3v27.4h-36.6Z" class="g4_10"/>
<path d="M1073.5,440.2h-36.7V412.8h73.3v27.4h-36.6Z" class="g5_10"/>
<path d="M1140.2,385.8c12,-5.2,27.9,2.3,49.4,0c21.5,-2.3,37.2,3.9,47.8,0c10.6,-3.9,43.4,6.6,60.4,0c7.1,20.6,-4.1,43.5,0,67.6c4.1,24.1,-.7,36.4,0,62.4c-12.1,1.7,-39.6,-4.5,-50.9,0c-11.4,4.5,-25,-3,-47.9,0c-22.8,3.1,-36.6,-.4,-58.8,0c-3.7,-19.7,.4,-36.5,0,-61.1c-.4,-24.6,5,-37.6,0,-68.9Z" class="g7_10"/>
<path fill-rule="evenodd" d="M1140.2,385.8c26.9,-3.1,39.7,6.3,55.7,0c16,-6.3,33.6,1.8,52.5,0c19,-1.8,34.4,5.3,49.4,0c5.5,22.1,-3.9,43.2,0,66.3c3.9,23.2,-7.3,36.9,0,63.7c-10.5,5.5,-30.4,-3.9,-50.9,0c-20.6,3.9,-37.3,-5.3,-54.1,0c-16.9,5.4,-27.6,-5.4,-52.6,0c-3.5,-18.4,3.2,-36.2,0,-62.4c-3.1,-26.2,6.7,-53.5,0,-67.6Z" class="g0_10"/>
<path d="M109.6,768.4h12.2m3.8,0h12.2m3.9,0h12.2m3.8,0h12.2m3.8,0H186m3.8,0H202m3.8,0h12.3m3.8,0h12.2m3.8,0h12.2m3.9,0h12.2m3.8,0h12.2m3.8,0h12.3m3.8,0h12.2m3.8,0h12.2m3.9,0h12.2m3.8,0h12.2m3.8,0h12.3m3.8,0h12.2m3.8,0h12.3m3.8,0h12.2m3.8,0h12.2m3.9,0h12.2m3.8,0h12.2m3.8,0h12.3m3.8,0h12.2m3.8,0h12.2m3.9,0h12.2m3.8,0h12.2m3.8,0H571m3.8,0H587m3.8,0h12.3m3.8,0h12.2m3.8,0h12.2m3.9,0h12.2m3.8,0h12.2m3.8,0h12.3m3.8,0h12.2m3.8,0h12.2m3.9,0h12.2m3.8,0h12.2m3.8,0h12.3m3.8,0h12.2m3.8,0h12.3m3.8,0h12.2m3.8,0h12.2m3.9,0h12.2m3.8,0h12.2m3.8,0h12.3m3.8,0h12.2m3.8,0h12.2m3.9,0h12.2m3.8,0h12.2m3.8,0H956m3.8,0H972m3.8,0h12.3m3.8,0h12.2m3.8,0h12.2m3.9,0h12.2m3.8,0h12.2m3.8,0h12.3m3.8,0h12.2m3.8,0h12.2m3.9,0h12.2m3.8,0h12.2m3.8,0h12.3m3.8,0h12.2m3.8,0h12.3m3.8,0h12.2m3.8,0h12.2m3.9,0h12.2m3.8,0h12.2m3.8,0h12.3m3.8,0h12.2m3.8,0h12.2m3.9,0h12.2m3.8,0h12.2m3.8,0h.8M731.7,592.4v12.2m0,3.8v12.3m0,3.8v12.2m0,3.8v12.2m0,3.9v12.2m0,3.8v12.2m0,3.9v12.2m0,3.8v12.2m0,3.8V733m0,3.8V749m0,3.8V765" class="g6_10"/>
<path fill-rule="evenodd" d="M1028.9,764.5H750.3V593.3h557.1V764.5H1028.9Z" class="g2_10"/>
<path fill-rule="evenodd" d="M1028.9,625.6H750.3V594.2h557.1v31.4H1028.9Z" class="g3_10"/>
<path fill-rule="evenodd" d="M1005.6,669.7H812.5V632h386.2v37.7H1005.6Z" class="g0_10"/>
<path fill-rule="evenodd" d="M1253.1,660.3h-36.7V632.9h73.3v27.4h-36.6Z" class="g4_10"/>
<path d="M1253.1,660.3h-36.7V632.9h73.3v27.4h-36.6Z" class="g5_10"/>
<path fill-rule="evenodd" d="M775.8,704.8H887.7v26.9H775.8V704.8Z" class="g0_10"/>
<path fill-rule="evenodd" d="M887.7,704.8h237.9v26.9H887.7V704.8Z" class="g0_10"/>
<path fill-rule="evenodd" d="M1125.6,704.8h172.1v26.9H1125.6V704.8Z" class="g0_10"/>
<path fill-rule="evenodd" d="M775.8,731.7H887.7v26.9H775.8V731.7Z" class="g0_10"/>
<path fill-rule="evenodd" d="M887.7,731.7h237.9v26.9H887.7V731.7Z" class="g0_10"/>
<path fill-rule="evenodd" d="M1125.6,731.7h172.1v26.9H1125.6V731.7Z" class="g0_10"/>
<path d="M775.8,731.7h521.9M775.8,758.6h521.9" class="g8_10"/>
<path d="M99,796.1h40.6" class="g9_10"/>
</svg>