<?xml version="1.0" encoding="UTF-8" standalone="no"?>
<!DOCTYPE svg PUBLIC "-//W3C//DTD SVG 1.1//EN"
"http://www.w3.org/Graphics/SVG/1.1/DTD/svg11.dtd">
<svg viewBox="0 0 1466 825" version="1.1" xmlns="http://www.w3.org/2000/svg" xmlns:xlink="http://www.w3.org/1999/xlink">
<defs>
<clipPath id="c0_26"><path d="M0,825V0H1466.6V825Z"/></clipPath>
<style type="text/css"><![CDATA[
.g0_26{
fill: #FFF;
}
.g1_26{
fill: #D9D9D9;
}
.g2_26{
fill: none;
stroke: #FFF;
stroke-width: 1.298;
stroke-linejoin: round;
}
.g3_26{
fill: none;
stroke: #AFABAB;
stroke-width: 0.692;
stroke-linejoin: round;
}
]]></style>
</defs>
<g clip-path="url(#c0_26)">
<path fill-rule="evenodd" d="M0,0H1466.6V825H0V0Z" class="g0_26"/>
<path fill-rule="evenodd" d="M0,0H1466.7V825H0V0Z" class="g0_26"/>
</g>
<path fill-rule="evenodd" d="M255.4,231.7H464.5v41.4H255.4V231.7Z" class="g1_26"/>
<path fill-rule="evenodd" d="M123.8,273.1H255.4v26.5H123.8V273.1Z" class="g1_26"/>
<path fill-rule="evenodd" d="M123.8,299.6H255.4V407H123.8V299.6Z" class="g1_26"/>
<path fill-rule="evenodd" d="M123.8,407H255.4v38.6H123.8V407Z" class="g1_26"/>
<path fill-rule="evenodd" d="M123.8,445.6H255.4V472H123.8V445.6Z" class="g1_26"/>
<path d="M123.1,231.7H464.8m-341,-.7V472.4" class="g2_26"/>
<path d="M255.4,231v12.3m0,3.8v12.2m0,3.8v12.2m0,3.9v12.2m0,3.8v12.2m0,3.8v12.3m0,3.8v12.2m0,3.8v12.3m0,3.8v12.2m0,3.8v12.2m0,3.9v12.2m0,3.8v12.2m0,3.8v12.3m0,3.8v12.2m0,3.8v12.2m0,3.9v.7M464.5,231v12.3m0,3.8v12.2m0,3.8v12.2m0,3.9v12.2m0,3.8v12.2m0,3.8v12.3m0,3.8v12.2m0,3.8v12.3m0,3.8v12.2m0,3.8v12.2m0,3.9v12.2m0,3.8v12.2m0,3.8v12.3m0,3.8v12.2m0,3.8v12.2m0,3.9v.7M123.1,273.1h12.2m3.8,0h12.3m3.8,0h12.2m3.8,0h12.2m3.9,0h12.2m3.8,0h12.2m3.9,0h12.2m3.8,0h12.2m3.8,0h12.3m3.8,0h12.2m3.8,0h12.2m3.9,0h12.2m3.8,0h12.2m3.8,0h12.3m3.8,0h12.2m3.8,0h12.2m3.9,0H392m3.8,0H408m3.9,0h12.2m3.8,0h12.2m3.8,0h12.3m3.8,0h4.8M123.1,299.6h12.2m3.8,0h12.3m3.8,0h12.2m3.8,0h12.2m3.9,0h12.2m3.8,0h12.2m3.9,0h12.2m3.8,0h12.2m3.8,0h12.3m3.8,0h12.2m3.8,0h12.2m3.9,0h12.2m3.8,0h12.2m3.8,0h12.3m3.8,0h12.2m3.8,0h12.2m3.9,0H392m3.8,0H408m3.9,0h12.2m3.8,0h12.2m3.8,0h12.3m3.8,0h4.8M123.1,407h12.2m3.8,0h12.3m3.8,0h12.2m3.8,0h12.2m3.9,0h12.2m3.8,0h12.2m3.9,0h12.2m3.8,0h12.2m3.8,0h12.3m3.8,0h12.2m3.8,0h12.2m3.9,0h12.2m3.8,0h12.2m3.8,0h12.3m3.8,0h12.2m3.8,0h12.2m3.9,0H392m3.8,0H408m3.9,0h12.2m3.8,0h12.2m3.8,0h12.3m3.8,0h4.8M123.1,445.6h12.2m3.8,0h12.3m3.8,0h12.2m3.8,0h12.2m3.9,0h12.2m3.8,0h12.2m3.9,0h12.2m3.8,0h12.2m3.8,0h12.3m3.8,0h12.2m3.8,0h12.2m3.9,0h12.2m3.8,0h12.2m3.8,0h12.3m3.8,0h12.2m3.8,0h12.2m3.9,0H392m3.8,0H408m3.9,0h12.2m3.8,0h12.2m3.8,0h12.3m3.8,0h4.8M123.1,472h12.2m3.8,0h12.3m3.8,0h12.2m3.8,0h12.2m3.9,0h12.2m3.8,0h12.2m3.9,0h12.2m3.8,0h12.2m3.8,0h12.3m3.8,0h12.2m3.8,0h12.2m3.9,0h12.2m3.8,0h12.2m3.8,0h12.3m3.8,0h12.2m3.8,0h12.2m3.9,0H392m3.8,0H408m3.9,0h12.2m3.8,0h12.2m3.8,0h12.3m3.8,0h4.8" class="g3_26"/>
<path fill-rule="evenodd" d="M467.6,232.3H676.5v41.4H467.6V232.3Z" class="g1_26"/>
<path d="M467.2,232.3H676.8" class="g2_26"/>
<path d="M467.6,231.6v12.2m0,3.8v12.3m0,3.8v12.2m0,3.8v12.2m0,3.9V308m0,3.8V324m0,3.9v12.2m0,3.8v12.2m0,3.8v12.3m0,3.8v12.2m0,3.8v12.2m0,3.9v12.2m0,3.8v12.2m0,3.8v12.3m0,3.8v12.2m0,3.8v.7M676.5,231.6v12.2m0,3.8v12.3m0,3.8v12.2m0,3.8v12.2m0,3.9V308m0,3.8V324m0,3.9v12.2m0,3.8v12.2m0,3.8v12.3m0,3.8v12.2m0,3.8v12.2m0,3.9v12.2m0,3.8v12.2m0,3.8v12.3m0,3.8v12.2m0,3.8v.7M467.2,273.7h12.3m3.8,0h12.2m3.8,0h12.2m3.9,0h12.2m3.8,0h12.2m3.8,0h12.3m3.8,0h12.2m3.8,0h12.2m3.9,0h12.2m3.8,0h12.2m3.8,0h12.3m3.8,0h12.2m3.8,0H672m3.8,0h1M467.2,300.1h12.3m3.8,0h12.2m3.8,0h12.2m3.9,0h12.2m3.8,0h12.2m3.8,0h12.3m3.8,0h12.2m3.8,0h12.2m3.9,0h12.2m3.8,0h12.2m3.8,0h12.3m3.8,0h12.2m3.8,0H672m3.8,0h1M467.2,407.6h12.3m3.8,0h12.2m3.8,0h12.2m3.9,0h12.2m3.8,0h12.2m3.8,0h12.3m3.8,0h12.2m3.8,0h12.2m3.9,0h12.2m3.8,0h12.2m3.8,0h12.3m3.8,0h12.2m3.8,0H672m3.8,0h1M467.2,446.1h12.3m3.8,0h12.2m3.8,0h12.2m3.9,0h12.2m3.8,0h12.2m3.8,0h12.3m3.8,0h12.2m3.8,0h12.2m3.9,0h12.2m3.8,0h12.2m3.8,0h12.3m3.8,0h12.2m3.8,0H672m3.8,0h1M467.2,472.6h12.3m3.8,0h12.2m3.8,0h12.2m3.9,0h12.2m3.8,0h12.2m3.8,0h12.3m3.8,0h12.2m3.8,0h12.2m3.9,0h12.2m3.8,0h12.2m3.8,0h12.3m3.8,0h12.2m3.8,0H672m3.8,0h1" class="g3_26"/>
<path fill-rule="evenodd" d="M680.9,231.7H888.1v41.4H680.9V231.7Z" class="g1_26"/>
<path d="M680.5,231.7h208" class="g2_26"/>
<path d="M680.9,231v12.3m0,3.8v12.2m0,3.8v12.2m0,3.9v12.2m0,3.8v12.2m0,3.8v12.3m0,3.8v12.2m0,3.8v12.3m0,3.8v12.2m0,3.8v12.2m0,3.9v12.2m0,3.8v12.2m0,3.8v12.3m0,3.8v12.2m0,3.8v12.2m0,3.9v.7M888.1,231v12.3m0,3.8v12.2m0,3.8v12.2m0,3.9v12.2m0,3.8v12.2m0,3.8v12.3m0,3.8v12.2m0,3.8v12.3m0,3.8v12.2m0,3.8v12.2m0,3.9v12.2m0,3.8v12.2m0,3.8v12.3m0,3.8v12.2m0,3.8v12.2m0,3.9v.7M680.5,273.1h12.2m3.9,0h12.2m3.8,0h12.2m3.8,0h12.3m3.8,0h12.2m3.8,0h12.2m3.9,0H789m3.8,0H805m3.8,0h12.3m3.8,0h12.2m3.8,0h12.2m3.9,0h12.2m3.8,0h12.2M680.5,299.6h12.2m3.9,0h12.2m3.8,0h12.2m3.8,0h12.3m3.8,0h12.2m3.8,0h12.2m3.9,0H789m3.8,0H805m3.8,0h12.3m3.8,0h12.2m3.8,0h12.2m3.9,0h12.2m3.8,0h12.2M680.5,407h12.2m3.9,0h12.2m3.8,0h12.2m3.8,0h12.3m3.8,0h12.2m3.8,0h12.2m3.9,0H789m3.8,0H805m3.8,0h12.3m3.8,0h12.2m3.8,0h12.2m3.9,0h12.2m3.8,0h12.2M680.5,445.6h12.2m3.9,0h12.2m3.8,0h12.2m3.8,0h12.3m3.8,0h12.2m3.8,0h12.2m3.9,0H789m3.8,0H805m3.8,0h12.3m3.8,0h12.2m3.8,0h12.2m3.9,0h12.2m3.8,0h12.2M680.5,472h12.2m3.9,0h12.2m3.8,0h12.2m3.8,0h12.3m3.8,0h12.2m3.8,0h12.2m3.9,0H789m3.8,0H805m3.8,0h12.3m3.8,0h12.2m3.8,0h12.2m3.9,0h12.2m3.8,0h12.2" class="g3_26"/>
<path fill-rule="evenodd" d="M891,231.7h207.7v41.4H891V231.7Z" class="g1_26"/>
<path d="M890.6,231.7H1099" class="g2_26"/>
<path d="M891,231v12.3m0,3.8v12.2m0,3.8v12.2m0,3.9v12.2m0,3.8v12.2m0,3.8v12.3m0,3.8v12.2m0,3.8v12.3m0,3.8v12.2m0,3.8v12.2m0,3.9v12.2m0,3.8v12.2m0,3.8v12.3m0,3.8v12.2m0,3.8v12.2M1098.7,231v12.3m0,3.8v12.2m0,3.8v12.2m0,3.9v12.2m0,3.8v12.2m0,3.8v12.3m0,3.8v12.2m0,3.8v12.3m0,3.8v12.2m0,3.8v12.2m0,3.9v12.2m0,3.8v12.2m0,3.8v12.3m0,3.8v12.2m0,3.8v12.2M890.6,273.1h12.2m3.8,0h12.3m3.8,0h12.2m3.8,0H951m3.8,0H967m3.8,0H983m3.9,0h12.2m3.8,0h12.2m3.8,0h12.3m3.8,0h12.2m3.8,0h12.2m3.9,0h12.2m3.8,0h12.2M890.6,298h12.2m3.8,0h12.3m3.8,0h12.2m3.8,0H951m3.8,0H967m3.8,0H983m3.9,0h12.2m3.8,0h12.2m3.8,0h12.3m3.8,0h12.2m3.8,0h12.2m3.9,0h12.2m3.8,0h12.2M890.6,405.4h12.2m3.8,0h12.3m3.8,0h12.2m3.8,0H951m3.8,0H967m3.8,0H983m3.9,0h12.2m3.8,0h12.2m3.8,0h12.3m3.8,0h12.2m3.8,0h12.2m3.9,0h12.2m3.8,0h12.2M890.6,444h12.2m3.8,0h12.3m3.8,0h12.2m3.8,0H951m3.8,0H967m3.8,0H983m3.9,0h12.2m3.8,0h12.2m3.8,0h12.3m3.8,0h12.2m3.8,0h12.2m3.9,0h12.2m3.8,0h12.2M890.6,468.8h12.2m3.8,0h12.3m3.8,0h12.2m3.8,0H951m3.8,0H967m3.8,0H983m3.9,0h12.2m3.8,0h12.2m3.8,0h12.3m3.8,0h12.2m3.8,0h12.2m3.9,0h12.2m3.8,0h12.2" class="g3_26"/>
<path fill-rule="evenodd" d="M1101.7,231.7h208.1v41.4H1101.7V231.7Z" class="g1_26"/>
<path d="M1101.3,231.7h208.8" class="g2_26"/>
<path d="M1101.7,231v12.3m0,3.8v12.2m0,3.8v12.2m0,3.9v12.2m0,3.8v12.2m0,3.8v12.3m0,3.8v12.2m0,3.8v12.3m0,3.8v12.2m0,3.8v12.2m0,3.9v12.2m0,3.8v12.2m0,3.8v12.3m0,3.8v12.2m0,3.8v12.2M1309.8,231v12.3m0,3.8v12.2m0,3.8v12.2m0,3.9v12.2m0,3.8v12.2m0,3.8v12.3m0,3.8v12.2m0,3.8v12.3m0,3.8v12.2m0,3.8v12.2m0,3.9v12.2m0,3.8v12.2m0,3.8v12.3m0,3.8v12.2m0,3.8v12.2M1101.3,273.1h12.3m3.8,0h12.2m3.8,0h12.2m3.9,0h12.2m3.8,0h12.2m3.8,0h12.3m3.8,0h12.2m3.8,0h12.3m3.8,0h12.2m3.8,0h12.2m3.9,0H1274m3.8,0H1290m3.8,0h12.3m3.8,0h.2M1101.3,298h12.3m3.8,0h12.2m3.8,0h12.2m3.9,0h12.2m3.8,0h12.2m3.8,0h12.3m3.8,0h12.2m3.8,0h12.3m3.8,0h12.2m3.8,0h12.2m3.9,0H1274m3.8,0H1290m3.8,0h12.3m3.8,0h.2M1101.3,405.4h12.3m3.8,0h12.2m3.8,0h12.2m3.9,0h12.2m3.8,0h12.2m3.8,0h12.3m3.8,0h12.2m3.8,0h12.3m3.8,0h12.2m3.8,0h12.2m3.9,0H1274m3.8,0H1290m3.8,0h12.3m3.8,0h.2M1101.3,444h12.3m3.8,0h12.2m3.8,0h12.2m3.9,0h12.2m3.8,0h12.2m3.8,0h12.3m3.8,0h12.2m3.8,0h12.3m3.8,0h12.2m3.8,0h12.2m3.9,0H1274m3.8,0H1290m3.8,0h12.3m3.8,0h.2m-208.8,24.8h12.3m3.8,0h12.2m3.8,0h12.2m3.9,0h12.2m3.8,0h12.2m3.8,0h12.3m3.8,0h12.2m3.8,0h12.3m3.8,0h12.2m3.8,0h12.2m3.9,0H1274m3.8,0H1290m3.8,0h12.3m3.8,0h.2" class="g3_26"/>
</svg>