<?xml version="1.0" encoding="UTF-8" standalone="no"?>
<!DOCTYPE svg PUBLIC "-//W3C//DTD SVG 1.1//EN"
"http://www.w3.org/Graphics/SVG/1.1/DTD/svg11.dtd">
<svg viewBox="0 0 1466 825" version="1.1" xmlns="http://www.w3.org/2000/svg" xmlns:xlink="http://www.w3.org/1999/xlink">
<defs>
<clipPath id="c0_18"><path d="M0,825V0H1466.6V825Z"/></clipPath>
<style type="text/css"><![CDATA[
.g0_18{
fill: #FFF;
}
.g1_18{
fill: none;
stroke: #808080;
stroke-width: 0.779;
stroke-miterlimit: 3;
}
.g2_18{
fill: none;
stroke: #AFABAB;
stroke-width: 0.152;
stroke-linejoin: round;
}
.g3_18{
fill: #BFBFBF;
}
.g4_18{
fill: #00B050;
}
.g5_18{
fill: none;
stroke: #D9D9D9;
stroke-width: 1.515;
stroke-miterlimit: 3;
}
.g6_18{
fill: #D9D9D9;
}
.g7_18{
fill: none;
stroke: #FFF;
stroke-width: 1.298;
stroke-linejoin: round;
}
.g8_18{
fill: none;
stroke: #AFABAB;
stroke-width: 0.692;
stroke-linejoin: round;
}
]]></style>
</defs>
<g clip-path="url(#c0_18)">
<path fill-rule="evenodd" d="M0,0H1466.6V825H0V0Z" class="g0_18"/>
<path fill-rule="evenodd" d="M0,0H1466.7V825H0V0Z" class="g0_18"/>
</g>
<path d="M1026.5,646.8H970.2V374h112.5V646.8h-56.2Zm165.4,0h-96.4V374h192.8V646.8h-96.4Z" class="g1_18"/>
<path d="M1232,410.9h-24.4V385.4h48.7v25.5H1232Z" class="g2_18"/>
<path fill-rule="evenodd" d="M1112,421.7c0,-.1,0,-.3,.1,-.5c.1,-.1,.2,-.2,.4,-.3c.1,0,.2,-.1,.4,-.1h142.6c.1,0,.3,.1,.4,.1c.2,.1,.3,.2,.4,.4c0,.1,.1,.3,.1,.4v3.7c0,.1,0,.3,-.1,.4c-.1,.2,-.2,.3,-.4,.3c-.1,.1,-.2,.2,-.4,.2H1112.9c-.2,0,-.3,0,-.5,-.1c-.1,-.1,-.2,-.2,-.3,-.4c-.1,-.1,-.1,-.2,-.1,-.4v-3.7Z" class="g3_18"/>
<path fill-rule="evenodd" d="M1239.2,423.5c0,3.8,-3.2,6.9,-7.2,6.9c-4,0,-7.2,-3.1,-7.2,-6.9c0,-3.7,3.2,-6.8,7.2,-6.8c4,0,7.2,3.1,7.2,6.8Z" class="g4_18"/>
<path d="M1104.3,387.6c0,-1.6,.4,-3.2,1.2,-4.5c.8,-1.4,2,-2.6,3.4,-3.4c1.4,-.8,3,-1.2,4.6,-1.2h147.8c1.6,0,3.2,.4,4.6,1.2c1.4,.8,2.6,2,3.3,3.4c.9,1.4,1.3,3,1.3,4.6v36.6c0,1.6,-.4,3.2,-1.2,4.6c-.8,1.4,-2,2.6,-3.4,3.3c-1.4,.9,-3,1.3,-4.6,1.3H1113.4c-1.6,0,-3.2,-.4,-4.6,-1.2c-1.4,-.8,-2.5,-2,-3.3,-3.4c-.8,-1.4,-1.3,-3,-1.3,-4.6l.1,-36.7Z" class="g5_18"/>
<path d="M1232,474.5h-24.4V449h48.7v25.5H1232Z" class="g2_18"/>
<path fill-rule="evenodd" d="M1112,485.4c0,-.2,0,-.3,.1,-.5c.1,-.1,.2,-.2,.4,-.3c.1,-.1,.2,-.1,.4,-.1h142.6c.1,0,.3,0,.4,.1c.2,.1,.3,.2,.4,.4c0,.1,.1,.2,.1,.4V489c0,.2,0,.3,-.1,.5c-.1,.1,-.2,.2,-.4,.3c-.1,.1,-.2,.1,-.4,.1l-142.6,.1c-.2,0,-.3,-.1,-.5,-.2c-.1,0,-.2,-.1,-.3,-.3c-.1,-.1,-.1,-.3,-.1,-.4v-3.7Z" class="g3_18"/>
<path fill-rule="evenodd" d="M1162.8,487.2c0,3.8,-3.2,6.8,-7.2,6.8c-4,0,-7.2,-3,-7.2,-6.8c0,-3.8,3.2,-6.8,7.2,-6.8c4,0,7.2,3,7.2,6.8Z" class="g4_18"/>
<path d="M1232,525.4h-24.4V499.9h48.7v25.5H1232Z" class="g2_18"/>
<path fill-rule="evenodd" d="M1112,536.3c0,-.2,0,-.3,.1,-.5c.1,-.1,.2,-.2,.4,-.3c.1,-.1,.2,-.1,.4,-.1h142.6c.1,0,.3,0,.4,.1c.2,.1,.3,.2,.4,.4c0,.1,.1,.2,.1,.4V540c0,.1,0,.3,-.1,.4c-.1,.2,-.2,.2,-.4,.3c-.1,.1,-.2,.2,-.4,.2H1112.9c-.2,0,-.3,0,-.5,-.1c-.1,-.1,-.2,-.2,-.3,-.4c-.1,-.1,-.1,-.2,-.1,-.4v-3.7Z" class="g3_18"/>
<path fill-rule="evenodd" d="M1133.6,537.5c0,3.8,-3.2,6.8,-7.2,6.8c-4,0,-7.2,-3,-7.2,-6.8c0,-3.8,3.2,-6.8,7.2,-6.8c4,0,7.2,3,7.2,6.8Z" class="g4_18"/>
<path d="M1104.3,457.1c0,-3.4,.9,-6.7,2.5,-9.6c1.7,-2.9,4.1,-5.2,7,-6.9c2.9,-1.7,6.2,-2.6,9.5,-2.6l128.1,.1c3.4,0,6.7,.8,9.6,2.5c2.9,1.7,5.3,4.1,6.9,7c1.7,2.9,2.6,6.1,2.6,9.5v76.1c0,3.3,-.9,6.6,-2.6,9.5c-1.6,2.9,-4,5.3,-6.9,7c-2.9,1.6,-6.2,2.6,-9.6,2.6H1123.3c-3.3,0,-6.6,-.9,-9.5,-2.6c-2.9,-1.6,-5.3,-4.1,-7,-7c-1.6,-2.9,-2.6,-6.1,-2.6,-9.5l.1,-76.1Z" class="g5_18"/>
<path d="M1239.2,589.1h-24.4V563.6h48.7v25.5h-24.3Z" class="g2_18"/>
<path fill-rule="evenodd" d="M1119.2,600c0,-.2,.1,-.3,.2,-.5c0,-.1,.1,-.2,.3,-.3c.1,-.1,.3,-.1,.4,-.1h142.6c.2,0,.3,0,.5,.1c.1,.1,.2,.2,.3,.3c.1,.2,.1,.3,.1,.5l.1,3.6c0,.2,-.1,.3,-.2,.5c-.1,.1,-.1,.2,-.3,.3c-.1,.1,-.3,.1,-.5,.1l-142.6,.1c-.1,0,-.3,-.1,-.4,-.2c-.2,0,-.3,-.1,-.3,-.3c-.1,-.1,-.2,-.3,-.2,-.4V600Z" class="g3_18"/>
<path fill-rule="evenodd" d="M1170.1,601.8c0,3.8,-3.3,6.8,-7.3,6.8c-4,0,-7.2,-3,-7.2,-6.8c0,-3.8,3.2,-6.8,7.2,-6.8c4,0,7.3,3,7.3,6.8Z" class="g4_18"/>
<path d="M1103.8,567.3c0,-1.6,.4,-3.2,1.2,-4.6c.8,-1.4,2,-2.6,3.4,-3.3c1.4,-.9,3,-1.3,4.6,-1.3h147.8c1.6,0,3.2,.5,4.6,1.3c1.4,.8,2.6,1.9,3.4,3.3c.8,1.4,1.2,3,1.2,4.6V604c0,1.6,-.4,3.2,-1.2,4.6c-.8,1.3,-2,2.5,-3.4,3.3c-1.4,.8,-3,1.2,-4.6,1.2H1112.9c-1.6,0,-3.2,-.4,-4.5,-1.2c-1.4,-.8,-2.6,-2,-3.4,-3.3c-.8,-1.4,-1.2,-3,-1.2,-4.6V567.3Z" class="g5_18"/>
<path fill-rule="evenodd" d="M1155.6,626.4c0,-.5,.1,-.9,.4,-1.3c.2,-.4,.5,-.7,.9,-1c.4,-.2,.8,-.3,1.3,-.3h64.1c.4,0,.8,.2,1.2,.4c.4,.2,.7,.5,1,.9c.2,.4,.3,.9,.3,1.3v10.2c0,.4,-.1,.8,-.3,1.2c-.3,.4,-.6,.8,-.9,1c-.4,.2,-.9,.3,-1.3,.3h-64.2c-.4,0,-.8,-.1,-1.2,-.3c-.4,-.2,-.8,-.5,-1,-.9c-.2,-.4,-.3,-.9,-.3,-1.3V626.4Z" class="g6_18"/>
<path d="M1155.6,626.4c0,-.5,.1,-.9,.4,-1.3c.2,-.4,.5,-.7,.9,-1c.4,-.2,.8,-.3,1.3,-.3h64.1c.4,0,.8,.2,1.2,.4c.4,.2,.7,.5,1,.9c.2,.4,.3,.9,.3,1.3v10.2c0,.4,-.1,.8,-.3,1.2c-.3,.4,-.6,.8,-.9,1c-.4,.2,-.9,.3,-1.3,.3h-64.2c-.4,0,-.8,-.1,-1.2,-.3c-.4,-.2,-.8,-.5,-1,-.9c-.2,-.4,-.3,-.9,-.3,-1.3V626.4Z" class="g5_18"/>
<path fill-rule="evenodd" d="M107.3,430.9H229.8v29.4H107.3V430.9Z" class="g6_18"/>
<path fill-rule="evenodd" d="M229.8,430.9H919.4v29.4H229.8V430.9Z" class="g6_18"/>
<path d="M106.6,430.9H920m-812.7,-.6v74.4" class="g7_18"/>
<path d="M229.8,430.3v12.2m0,3.8v12.3m0,3.8v12.2m0,3.8v12.2m0,3.9v10.2" class="g8_18"/>
<path d="M919.4,430.3v74.4" class="g7_18"/>
<path d="M106.6,460.3h12.2m3.8,0h12.3m3.8,0h12.2m3.8,0h12.2m3.9,0H183m3.8,0H199m3.9,0h12.2m3.8,0h12.2m3.8,0h12.3m3.8,0h12.2m3.8,0h12.2m3.9,0h12.2m3.8,0h12.2m3.8,0h12.3m3.8,0h12.2m3.8,0h12.2m3.9,0h12.2m3.8,0h12.2m3.9,0h12.2m3.8,0h12.2m3.8,0h12.3m3.8,0h12.2m3.8,0h12.2m3.9,0h12.2m3.8,0h12.2m3.8,0h12.3m3.8,0h12.2m3.8,0h12.2m3.9,0H568m3.8,0H584m3.9,0h12.2m3.8,0h12.2m3.8,0h12.3m3.8,0h12.2m3.8,0h12.2m3.9,0h12.2m3.8,0h12.2m3.8,0h12.3m3.8,0h12.2m3.8,0h12.2m3.9,0h12.2m3.8,0h12.2m3.9,0h12.2m3.8,0h12.2m3.8,0h12.3m3.8,0h12.2m3.8,0h12.2m3.9,0h12.2m3.8,0h12.2m3.8,0h12.3m3.8,0H920M106.6,504.4h12.2m3.8,0h12.3m3.8,0h12.2m3.8,0h12.2m3.9,0H183m3.8,0H199m3.9,0h12.2m3.8,0h12.2m3.8,0h12.3m3.8,0h12.2m3.8,0h12.2m3.9,0h12.2m3.8,0h12.2m3.8,0h12.3m3.8,0h12.2m3.8,0h12.2m3.9,0h12.2m3.8,0h12.2m3.9,0h12.2m3.8,0h12.2m3.8,0h12.3m3.8,0h12.2m3.8,0h12.2m3.9,0h12.2m3.8,0h12.2m3.8,0h12.3m3.8,0h12.2m3.8,0h12.2m3.9,0H568m3.8,0H584m3.9,0h12.2m3.8,0h12.2m3.8,0h12.3m3.8,0h12.2m3.8,0h12.2m3.9,0h12.2m3.8,0h12.2m3.8,0h12.3m3.8,0h12.2m3.8,0h12.2m3.9,0h12.2m3.8,0h12.2m3.9,0h12.2m3.8,0h12.2m3.8,0h12.3m3.8,0h12.2m3.8,0h12.2m3.9,0h12.2m3.8,0h12.2m3.8,0h12.3m3.8,0H920M107.3,549h12.2m3.8,0h12.3m3.8,0h12.2m3.8,0h12.2m3.9,0h12.2m3.8,0h12.2m3.8,0h12.3m3.8,0h12.2m3.8,0h12.2m3.9,0h12.2m3.8,0h12.2m3.8,0H296m3.8,0H312m3.8,0h12.3m3.8,0h12.2m3.8,0h12.2m3.9,0h12.2m3.8,0h12.2m3.8,0h12.3m3.8,0h12.2m3.8,0h12.2m3.9,0h12.2m3.8,0h12.2m3.8,0h12.3m3.8,0h12.2m3.8,0h12.3m3.8,0h12.2m3.8,0h12.2m3.9,0h12.2m3.8,0h12.2m3.8,0h12.3m3.8,0h12.2m3.8,0h12.2m3.9,0h12.2m3.8,0h12.2m3.8,0H681m3.8,0H697m3.8,0h12.3m3.8,0h12.2m3.8,0h12.2m3.9,0h12.2m3.8,0h12.2m3.8,0h12.3m3.8,0h12.2m3.8,0h12.2m3.9,0h12.2m3.8,0h12.2m3.8,0h12.3m3.8,0h12.2m3.8,0h12.3m3.8,0h10M229.8,505v12.2m0,3.8v12.3m0,3.8v12.2M107.3,585.6h12.2m3.8,0h12.3m3.8,0h12.2m3.8,0h12.2m3.9,0h12.2m3.8,0h12.2m3.8,0h12.3m3.8,0h12.2m3.8,0h12.2m3.9,0h12.2m3.8,0h12.2m3.8,0H296m3.8,0H312m3.8,0h12.3m3.8,0h12.2m3.8,0h12.2m3.9,0h12.2m3.8,0h12.2m3.8,0h12.3m3.8,0h12.2m3.8,0h12.2m3.9,0h12.2m3.8,0h12.2m3.8,0h12.3m3.8,0h12.2m3.8,0h12.3m3.8,0h12.2m3.8,0h12.2m3.9,0h12.2m3.8,0h12.2m3.8,0h12.3m3.8,0h12.2m3.8,0h12.2m3.9,0h12.2m3.8,0h12.2m3.8,0H681m3.8,0H697m3.8,0h12.3m3.8,0h12.2m3.8,0h12.2m3.9,0h12.2m3.8,0h12.2m3.8,0h12.3m3.8,0h12.2m3.8,0h12.2m3.9,0h12.2m3.8,0h12.2m3.8,0h12.3m3.8,0h12.2m3.8,0h12.3m3.8,0h10M229.8,550.7v12.2m0,3.9V579m0,3.8V586M107.6,662h12.2m3.8,0h12.3m3.8,0h12.2m3.8,0h12.2m3.9,0H184m3.8,0H200m3.9,0h12.2m3.8,0h12.2m3.8,0h12.3m3.8,0h12.2m3.8,0h12.2m3.9,0h12.2m3.8,0h12.2m3.8,0h12.3m3.8,0h12.2m3.8,0h12.2m3.9,0h12.2m3.8,0h12.2m3.9,0h12.2m3.8,0h12.2m3.8,0h12.3m3.8,0h12.2m3.8,0h12.2m3.9,0h12.2m3.8,0h12.2m3.8,0h12.3m3.8,0h12.2m3.8,0h12.2m3.9,0H569m3.8,0H585m3.9,0h12.2m3.8,0h12.2m3.8,0h12.3m3.8,0h12.2m3.8,0h12.2m3.9,0h12.2m3.8,0h12.2m3.8,0h12.3m3.8,0h12.2m3.8,0h12.2m3.9,0h12.2m3.8,0h12.2m3.9,0h12.2m3.8,0h12.2m3.8,0h12.3m3.8,0h12.2m3.8,0h12.2m3.9,0h12.2m3.8,0h12.2m3.8,0h12.3m3.8,0h10M230.2,584.9v12.3m0,3.8v12.2m0,3.8v12.3m0,3.8v12.2m0,3.8v12.2" class="g8_18"/>
<path d="M1353.3,646.8H1297V374h112.6V646.8h-56.3Z" class="g1_18"/>
<path fill-rule="evenodd" d="M1166.3,34L1134.7,16.8c-2,-1,-.9,-3.3,1.5,-3.3h218.9c.6,0,1.1,.1,1.5,.4L1394.4,34c1.3,.8,1.4,2.2,0,3l-37.7,20.7c-.5,.3,-1,.5,-1.6,.5H1136c-2.4,0,-3.4,-2.3,-1.4,-3.4L1166.4,37c1.4,-.8,1.3,-2.2,-.1,-3Z" class="g3_18"/>
</svg>