<?xml version="1.0" encoding="UTF-8" standalone="no"?>
<!DOCTYPE svg PUBLIC "-//W3C//DTD SVG 1.1//EN"
"http://www.w3.org/Graphics/SVG/1.1/DTD/svg11.dtd">
<svg viewBox="0 0 1466 825" version="1.1" xmlns="http://www.w3.org/2000/svg" xmlns:xlink="http://www.w3.org/1999/xlink">
<defs>
<clipPath id="c0_13"><path d="M0,825V0H1466.6V825Z"/></clipPath>
<style type="text/css"><![CDATA[
.g0_13{
fill: #FFF;
}
.g1_13{
fill: none;
stroke: #A6A6A6;
stroke-width: 0.389;
stroke-miterlimit: 1;
}
.g2_13{
fill: #A6A6A6;
}
.g3_13{
fill: none;
stroke: #AFABAB;
stroke-width: 0.692;
stroke-linejoin: round;
}
.g4_13{
fill: #F8CBAD;
}
.g5_13{
fill: #C5E0B4;
}
.g6_13{
fill: none;
stroke: #BFBFBF;
stroke-width: 0.779;
stroke-miterlimit: 3;
}
.g7_13{
fill: none;
stroke: #0563C1;
stroke-width: 0.909;
stroke-miterlimit: 10;
}
.g8_13{
fill: none;
stroke: #A6A6A6;
stroke-width: 0.779;
stroke-miterlimit: 3;
}
.g9_13{
fill: none;
stroke: #AFABAB;
stroke-width: 0.389;
stroke-linejoin: round;
}
.ga_13{
fill: #E2F0D9;
}
.gb_13{
fill: none;
stroke: #325490;
stroke-width: 0.779;
stroke-miterlimit: 3;
}
.gc_13{
fill: none;
stroke: #A9D18E;
stroke-width: 0.779;
stroke-miterlimit: 3;
}
.gd_13{
fill: #DEEBF7;
}
.ge_13{
fill: none;
stroke: #E2F0D9;
stroke-width: 6.885;
stroke-miterlimit: 3;
}
.gf_13{
fill: none;
stroke: #FFF;
stroke-width: 1.125;
stroke-miterlimit: 3;
}
.gg_13{
fill: none;
stroke: #000;
stroke-width: 0.909;
stroke-miterlimit: 10;
}
.gh_13{
fill: #BFBFBF;
}
]]></style>
</defs>
<g clip-path="url(#c0_13)">
<path fill-rule="evenodd" d="M0,0H1466.6V825H0V0Z" class="g0_13"/>
<path fill-rule="evenodd" d="M0,0H1466.7V825H0V0Z" class="g0_13"/>
</g>
<path d="M1154.8,557.1h1.5m1.2,0h1.6m1.1,0h1.6m1.2,0h1.5m1.2,0h1.6m1.1,0h1.6m1.2,0h1.5m1.2,0h1.5m1.2,0h1.6m1.1,0h1.6m1.2,0h1.5m1.2,0h1.6m1.1,0h1.6m1.2,0h1.5m1.2,0h1.5m1.2,0h1.6m1.1,0h1.6m1.2,0h1.5m1.2,0h1.6m1.1,0h1.6m1.2,0h1.5m1.2,0h1.5m1.2,0h1.6m1.1,0h1.6m1.2,0h1.5m1.2,0h1.6m1.1,0h1.6m1.1,0h1.6m1.2,0h1.5m1.2,0h1.6m1.1,0h1.6m1.2,0h1.5m1.2,0h1.5m1.2,0h1.6m1.1,0h1.6m1.2,0h1.5m1.2,0h1.6" class="g1_13"/>
<path fill-rule="evenodd" d="M1263.1,557.1l-9.1,4.5l3.7,-4.5l-3.7,-4.6l9.1,4.6Z" class="g2_13"/>
<path d="M269.9,161.2v12.2m0,3.9v12.2m0,3.8v6.5" class="g3_13"/>
<path fill-rule="evenodd" d="M1055.8,195.6c0,17.8,-15.3,32.2,-34.2,32.2c-18.8,0,-34.1,-14.4,-34.1,-32.2c0,-17.9,15.3,-32.3,34.1,-32.3c18.9,0,34.2,14.4,34.2,32.3Z" class="g4_13"/>
<path fill-rule="evenodd" d="M1155.8,196c0,17.8,-15.4,32.3,-34.2,32.3c-18.8,0,-34.1,-14.5,-34.1,-32.3c0,-17.8,15.3,-32.3,34.1,-32.3c18.8,0,34.2,14.5,34.2,32.3Z" class="g5_13"/>
<path d="M769.1,235.3H123.6V131.1h1291V235.3H769.1Z" class="g6_13"/>
<path d="M778.6,330.5H941.5" class="g7_13"/>
<path d="M273.8,244.5v12.2m0,3.8v12.3m0,3.8v12.2m0,3.8v12.2m0,3.9v12.2m0,3.8v12.2m0,3.9V353" class="g3_13"/>
<image clip-path="url(#c0_13)" preserveAspectRatio="none" x="975" y="240" width="168" height="103" xlink:href="img/1.jpg"/>
<path d="M769.1,356.5H123.6V240.1h1291V356.5H769.1Z" class="g6_13"/>
<path d="M267.9,383.4v12.2m0,3.8v12.3m0,3.8v12.2m0,3.8v12.2" class="g3_13"/>
<path d="M769.1,759.2H123.6V361.9h1291V759.2H769.1Z" class="g8_13"/>
<path d="M269.8,504.6v12.2m0,3.8v12.3m0,3.8v12.2m0,3.8v12.2" class="g3_13"/>
<path d="M912.4,622.9c12.3,-1.3,36.4,4.1,48.4,0c12,-4.1,28,3.1,46.5,0c.9,12.5,-4.8,28.2,0,43.9c-10.8,2.7,-24.7,-5.2,-46.5,0c-21.9,5.3,-35.9,-5.1,-48.4,0c-.9,-9.3,.6,-25.4,0,-43.9Z" class="g9_13"/>
<path fill-rule="evenodd" d="M1235.9,556.4c0,14.7,-12.1,26.7,-27.1,26.7c-15,0,-27.2,-12,-27.2,-26.7c0,-14.7,12.2,-26.6,27.2,-26.6c15,0,27.1,11.9,27.1,26.6Z" class="ga_13"/>
<path d="M1108,576.8h-46.8V537.4h93.5v39.4H1108Z" class="gb_13"/>
<path d="M1007.4,645.1c13.4,0,26.9,-22,26.9,-44c0,-22,8.6,-35.2,19,-41.5" class="g1_13"/>
<path fill-rule="evenodd" d="M1061.3,557.1l-7.2,7.1l2,-5.4l-4.9,-3.2l10.1,1.5Z" class="g2_13"/>
<path fill-rule="evenodd" d="M1329.9,576.9h-66.8V537.4h133.5v39.5h-66.7Z" class="ga_13"/>
<path d="M1329.9,576.9h-66.8V537.4h133.5v39.5h-66.7Z" class="gc_13"/>
<path d="M1007.4,645.1c13.4,0,26.9,-.1,26.9,-.2c0,-.1,8.4,-.1,18.5,-.1" class="g1_13"/>
<path fill-rule="evenodd" d="M1061.3,644.8l-9.1,4.5l3.6,-4.5l-3.6,-4.6l9.1,4.6Z" class="g2_13"/>
<path d="M1154.8,718h1.5m1.2,0h1.6m1.1,0h1.6m1.2,0h1.5m1.2,0h1.6m1.1,0h1.6m1.2,0h1.5m1.2,0h1.5m1.2,0h1.6m1.1,0h1.6m1.2,0h1.5m1.2,0h1.6m1.1,0h1.6m1.2,0h1.5m1.2,0h1.5m1.2,.1h1.6m1.1,0h1.6m1.2,0h1.5m1.2,0h1.6m1.1,0h1.6m1.2,0h1.5m1.2,0h1.5m1.2,0h1.6m1.1,0h1.6m1.2,0h1.5m1.2,0h1.6m1.1,0h1.6m1.1,0h1.6m1.2,0h1.5m1.2,0h1.6m1.1,0h1.6m1.2,0h1.5m1.2,0h1.5m1.2,0h1.6m1.1,0h1.6m1.2,.1h1.5m1.2,0h1.6" class="g1_13"/>
<path fill-rule="evenodd" d="M1263.1,718.2l-9.1,4.5l3.6,-4.5l-3.6,-4.6l9.1,4.6Z" class="g2_13"/>
<path fill-rule="evenodd" d="M1241.5,716.9c0,14.7,-12.1,26.6,-27.1,26.6c-15.1,0,-27.2,-11.9,-27.2,-26.6c0,-14.8,12.1,-26.7,27.2,-26.7c15,0,27.1,11.9,27.1,26.7Z" class="gd_13"/>
<path d="M1241.5,716.9c0,14.7,-12.1,26.6,-27.1,26.6c-15.1,0,-27.2,-11.9,-27.2,-26.6c0,-14.8,12.1,-26.7,27.2,-26.7c15,0,27.1,11.9,27.1,26.7Z" class="ge_13"/>
<path d="M1007.4,645.2c13.4,0,26.9,18.2,26.9,36.4c0,18.2,8.6,29,18.9,34.3" class="g1_13"/>
<path fill-rule="evenodd" d="M1061.3,718l-10,1.9l4.7,-3.3l-2.3,-5.4l7.6,6.8Z" class="g2_13"/>
<path fill-rule="evenodd" d="M1329.8,740.5h-66.7V695.8h133.4v44.7h-66.7Z" class="gd_13"/>
<path d="M1329.8,740.5h-66.7V695.8h133.4v44.7h-66.7Z" class="ge_13"/>
<path d="M270,574.4v12.2m0,3.8v12.3m0,3.8v12.2m0,3.8v12.2" class="g3_13"/>
<path d="M1154.8,639.6h1.5m1.2,0h1.6m1.1,0h1.6m1.2,0h1.5m1.2,0h1.6m1.1,0h1.6m1.2,0h1.5m1.2,0h1.5m1.2,0h1.6m1.1,0h1.6m1.2,0h1.5m1.2,0h1.6m1.1,0h1.6m1.2,0h1.5m1.2,0h1.5m1.2,0h1.6m1.1,0h1.6m1.2,0h1.5m1.2,0h1.6m1.1,0h1.6m1.2,0h1.5m1.2,0h1.5m1.2,0h1.6m1.1,0h1.6m1.2,0h1.5m1.2,0h1.6m1.1,0h1.6m1.1,0h1.6m1.2,0h1.5m1.2,0h1.6m1.1,0h1.6m1.2,0h1.5m1.2,0h1.5m1.2,0h1.6m1.1,0h1.6m1.2,0h1.5m1.2,0h1.6" class="g1_13"/>
<path fill-rule="evenodd" d="M1263.1,639.6l-9.1,4.6l3.7,-4.6l-3.7,-4.5l9.1,4.5Z" class="g2_13"/>
<path d="M1108,659.2h-46.8V619.9h93.5v39.3H1108Z" class="gb_13"/>
<path fill-rule="evenodd" d="M1329.9,659.2h-66.8V619.9h133.5v39.3h-66.7Z" class="gd_13"/>
<path d="M1329.9,659.2h-66.8V619.9h133.5v39.3h-66.7Z" class="gc_13"/>
<path fill-rule="evenodd" d="M1239.4,643c0,14.7,-12.2,26.7,-27.1,26.7c-15.1,0,-27.2,-12,-27.2,-26.7c0,-14.7,12.1,-26.7,27.2,-26.7c14.9,0,27.1,12,27.1,26.7Z" class="gd_13"/>
<path d="M1239.4,643c0,14.7,-12.2,26.7,-27.1,26.7c-15.1,0,-27.2,-12,-27.2,-26.7c0,-14.7,12.1,-26.7,27.2,-26.7c14.9,0,27.1,12,27.1,26.7Z" class="gf_13"/>
<path d="M1108,736.3h-46.8V696.9h93.5v39.4H1108Z" class="gb_13"/>
<path d="M271.1,647.3v12.2m0,3.8v12.3m0,3.8v12.2m0,3.8v12.2m0,3.9v12.2" class="g3_13"/>
<image clip-path="url(#c0_13)" preserveAspectRatio="none" x="969" y="366" width="227" height="142" xlink:href="img/2.jpg"/>
<path d="M144.1,480H403.4" class="gg_13"/>
<path fill-rule="evenodd" d="M1198.9,31.6L1167.3,14.4c-2,-1,-1,-3.3,1.5,-3.3h218.9c.6,0,1.1,.1,1.5,.3l37.7,20.2c1.4,.8,1.5,2.2,.1,3l-37.8,20.7c-.4,.3,-.9,.4,-1.5,.4H1168.6c-2.4,0,-3.4,-2.3,-1.5,-3.3L1199,34.6c1.3,-.8,1.3,-2.2,-.1,-3Z" class="gh_13"/>
</svg>