<?xml version="1.0" encoding="UTF-8" standalone="no"?>
<!DOCTYPE svg PUBLIC "-//W3C//DTD SVG 1.1//EN"
"http://www.w3.org/Graphics/SVG/1.1/DTD/svg11.dtd">
<svg viewBox="0 0 1466 825" version="1.1" xmlns="http://www.w3.org/2000/svg" xmlns:xlink="http://www.w3.org/1999/xlink">
<defs>
<clipPath id="c0_15"><path d="M0,825V0H1466.6V825Z"/></clipPath>
<style type="text/css"><![CDATA[
.g0_15{
fill: #FFF;
}
.g1_15{
fill: none;
stroke: #A6A6A6;
stroke-width: 0.779;
stroke-linejoin: round;
}
.g2_15{
fill: #E6F2DE;
}
.g3_15{
fill: none;
stroke: #AFABAB;
stroke-width: 0.692;
stroke-linejoin: round;
}
.g4_15{
fill: none;
stroke: #FFF;
stroke-width: 1.298;
stroke-linejoin: round;
}
.g5_15{
fill: #DCE5F4;
}
.g6_15{
fill: none;
stroke: #081819;
stroke-width: 1.083;
stroke-miterlimit: 10;
}
.g7_15{
fill: none;
stroke: #0563C1;
stroke-width: 1.083;
stroke-miterlimit: 10;
}
.g8_15{
fill: none;
stroke: #646464;
stroke-width: 0.779;
stroke-miterlimit: 10;
}
.g9_15{
fill: #646464;
}
.ga_15{
fill: #F8CBAD;
}
.gb_15{
fill: #C5E0B4;
}
.gc_15{
fill: none;
stroke: #696969;
stroke-width: 0.779;
stroke-miterlimit: 10;
}
.gd_15{
fill: #696969;
}
.ge_15{
fill: #BFBFBF;
}
]]></style>
</defs>
<g clip-path="url(#c0_15)">
<path fill-rule="evenodd" d="M0,0H1466.6V825H0V0Z" class="g0_15"/>
<path fill-rule="evenodd" d="M0,0H1466.7V825H0V0Z" class="g0_15"/>
</g>
<path d="M761.5,124.1H100.8V69.3H1422.2v54.8H761.5Z" class="g1_15"/>
<path fill-rule="evenodd" d="M761.5,227.8H100.8V129.1H1422.2v98.7H761.5Z" class="g2_15"/>
<path d="M761.5,227.8H100.8V129.1H1422.2v98.7H761.5Zm0,35.2H100.8V232H1422.2v31H761.5Z" class="g1_15"/>
<path d="M98.8,268.9H111m3.8,0h12.3m3.8,0h12.2m3.8,0h12.2m3.9,0h12.2m3.8,0h12.2m3.9,0h12.2m3.8,0h12.2m3.8,0h12.3m3.8,0h12.2m3.8,0h12.2m3.9,0h12.2m3.8,0h12.2m3.8,0h12.3m3.8,0h12.2m3.8,0h12.2m3.9,0h12.2m3.8,0h12.2m3.9,0h12.2m3.8,0h12.2m3.8,0h12.3m3.8,0h12.2m3.8,0h12.2m3.9,0H480m3.8,0H496m3.8,0h12.3m3.8,0h12.2m3.8,0h12.2m3.9,0h12.2m3.8,0h12.2m3.9,0h12.2m3.8,0h12.2m3.8,0h12.3m3.8,0h12.2m3.8,0h12.2m3.9,0h12.2m3.8,0h12.2m3.8,0h12.3m3.8,0h12.2m3.8,0h12.2m3.9,0h12.2m3.8,0h12.2m3.9,0h12.2m3.8,0h12.2m3.8,0h12.3m3.8,0h12.2m3.8,0h12.2m3.9,0H865m3.8,0H881m3.8,0h12.3m3.8,0h12.2m3.8,0h12.2m3.9,0h12.2m3.8,0h12.2m3.9,0h12.2m3.8,0h12.2m3.8,0h12.3m3.8,0h12.2m3.8,0h12.2m3.9,0h12.2m3.8,0h12.2m3.8,0h12.3m3.8,0h12.2m3.8,0h12.2m3.9,0h12.2m3.8,0h12.2m3.9,0h12.2m3.8,0h12.2m3.8,0h12.3m3.8,0h12.2m3.8,0h12.2m3.9,0H1250m3.8,0H1266m3.8,0h12.3m3.8,0h12.2m3.8,0h12.2m3.9,0h12.2m3.8,0h12.2m3.9,0h12.2m3.8,0h12.2m3.8,0h12.3m3.8,0h12.2m3.8,0h7.3" class="g3_15"/>
<path d="M99.4,268.5v93.9" class="g4_15"/>
<path d="M245.7,268.5v12.2m0,3.8v12.3m0,3.8v12.2m0,3.8v12.3m0,3.8v12.2m0,3.8v12.2" class="g3_15"/>
<path d="M1420.9,268.5v93.9" class="g4_15"/>
<path d="M98.8,295.3H111m3.8,0h12.3m3.8,0h12.2m3.8,0h12.2m3.9,0h12.2m3.8,0h12.2m3.9,0h12.2m3.8,0h12.2m3.8,0h12.3m3.8,0h12.2m3.8,0h12.2m3.9,0h12.2m3.8,0h12.2m3.8,0h12.3m3.8,0h12.2m3.8,0h12.2m3.9,0h12.2m3.8,0h12.2m3.9,0h12.2m3.8,0h12.2m3.8,0h12.3m3.8,0h12.2m3.8,0h12.2m3.9,0H480m3.8,0H496m3.8,0h12.3m3.8,0h12.2m3.8,0h12.2m3.9,0h12.2m3.8,0h12.2m3.9,0h12.2m3.8,0h12.2m3.8,0h12.3m3.8,0h12.2m3.8,0h12.2m3.9,0h12.2m3.8,0h12.2m3.8,0h12.3m3.8,0h12.2m3.8,0h12.2m3.9,0h12.2m3.8,0h12.2m3.9,0h12.2m3.8,0h12.2m3.8,0h12.3m3.8,0h12.2m3.8,0h12.2m3.9,0H865m3.8,0H881m3.8,0h12.3m3.8,0h12.2m3.8,0h12.2m3.9,0h12.2m3.8,0h12.2m3.9,0h12.2m3.8,0h12.2m3.8,0h12.3m3.8,0h12.2m3.8,0h12.2m3.9,0h12.2m3.8,0h12.2m3.8,0h12.3m3.8,0h12.2m3.8,0h12.2m3.9,0h12.2m3.8,0h12.2m3.9,0h12.2m3.8,0h12.2m3.8,0h12.3m3.8,0h12.2m3.8,0h12.2m3.9,0H1250m3.8,0H1266m3.8,0h12.3m3.8,0h12.2m3.8,0h12.2m3.9,0h12.2m3.8,0h12.2m3.9,0h12.2m3.8,0h12.2m3.8,0h12.3m3.8,0h12.2m3.8,0h7.3M98.8,335.6H111m3.8,0h12.3m3.8,0h12.2m3.8,0h12.2m3.9,0h12.2m3.8,0h12.2m3.9,0h12.2m3.8,0h12.2m3.8,0h12.3m3.8,0h12.2m3.8,0h12.2m3.9,0h12.2m3.8,0h12.2m3.8,0h12.3m3.8,0h12.2m3.8,0h12.2m3.9,0h12.2m3.8,0h12.2m3.9,0h12.2m3.8,0h12.2m3.8,0h12.3m3.8,0h12.2m3.8,0h12.2m3.9,0H480m3.8,0H496m3.8,0h12.3m3.8,0h12.2m3.8,0h12.2m3.9,0h12.2m3.8,0h12.2m3.9,0h12.2m3.8,0h12.2m3.8,0h12.3m3.8,0h12.2m3.8,0h12.2m3.9,0h12.2m3.8,0h12.2m3.8,0h12.3m3.8,0h12.2m3.8,0h12.2m3.9,0h12.2m3.8,0h12.2m3.9,0h12.2m3.8,0h12.2m3.8,0h12.3m3.8,0h12.2m3.8,0h12.2m3.9,0H865m3.8,0H881m3.8,0h12.3m3.8,0h12.2m3.8,0h12.2m3.9,0h12.2m3.8,0h12.2m3.9,0h12.2m3.8,0h12.2m3.8,0h12.3m3.8,0h12.2m3.8,0h12.2m3.9,0h12.2m3.8,0h12.2m3.8,0h12.3m3.8,0h12.2m3.8,0h12.2m3.9,0h12.2m3.8,0h12.2m3.9,0h12.2m3.8,0h12.2m3.8,0h12.3m3.8,0h12.2m3.8,0h12.2m3.9,0H1250m3.8,0H1266m3.8,0h12.3m3.8,0h12.2m3.8,0h12.2m3.9,0h12.2m3.8,0h12.2m3.9,0h12.2m3.8,0h12.2m3.8,0h12.3m3.8,0h12.2m3.8,0h7.3M98.8,362H111m3.8,0h12.3m3.8,0h12.2m3.8,0h12.2m3.9,0h12.2m3.8,0h12.2m3.9,0h12.2m3.8,0h12.2m3.8,0h12.3m3.8,0h12.2m3.8,0h12.2m3.9,0h12.2m3.8,0h12.2m3.8,0h12.3m3.8,0h12.2m3.8,0h12.2m3.9,0h12.2m3.8,0h12.2m3.9,0h12.2m3.8,0h12.2m3.8,0h12.3m3.8,0h12.2m3.8,0h12.2m3.9,0H480m3.8,0H496m3.8,0h12.3m3.8,0h12.2m3.8,0h12.2m3.9,0h12.2m3.8,0h12.2m3.9,0h12.2m3.8,0h12.2m3.8,0h12.3m3.8,0h12.2m3.8,0h12.2m3.9,0h12.2m3.8,0h12.2m3.8,0h12.3m3.8,0h12.2m3.8,0h12.2m3.9,0h12.2m3.8,0h12.2m3.9,0h12.2m3.8,0h12.2m3.8,0h12.3m3.8,0h12.2m3.8,0h12.2m3.9,0H865m3.8,0H881m3.8,0h12.3m3.8,0h12.2m3.8,0h12.2m3.9,0h12.2m3.8,0h12.2m3.9,0h12.2m3.8,0h12.2m3.8,0h12.3m3.8,0h12.2m3.8,0h12.2m3.9,0h12.2m3.8,0h12.2m3.8,0h12.3m3.8,0h12.2m3.8,0h12.2m3.9,0h12.2m3.8,0h12.2m3.9,0h12.2m3.8,0h12.2m3.8,0h12.3m3.8,0h12.2m3.8,0h12.2m3.9,0H1250m3.8,0H1266m3.8,0h12.3m3.8,0h12.2m3.8,0h12.2m3.9,0h12.2m3.8,0h12.2m3.9,0h12.2m3.8,0h12.2m3.8,0h12.3m3.8,0h12.2m3.8,0h7.3" class="g3_15"/>
<path fill-rule="evenodd" d="M761.5,486.9H100.8V366.3H1422.2V486.9H761.5Z" class="g5_15"/>
<path d="M761.5,486.9H100.8V366.3H1422.2V486.9H761.5Zm0,135.5H100.8V490.7H1422.2V622.4H761.5Z" class="g1_15"/>
<path d="M111.5,615.4h70" class="g6_15"/>
<path d="M761.3,615.4h38.2" class="g7_15"/>
<path d="M550.2,687.4V677.3" class="g8_15"/>
<path fill-rule="evenodd" d="M550.3,668.8l4.5,9.1l-4.6,-3.7l-4.5,3.7l4.6,-9.1Z" class="g9_15"/>
<path fill-rule="evenodd" d="M550.2,668.8h-46V631.4h91.9v37.4H550.2Z" class="ga_15"/>
<path fill-rule="evenodd" d="M550.2,724.9h-46V687.5h91.9v37.4H550.2Z" class="ga_15"/>
<path fill-rule="evenodd" d="M550.2,781.6h-46V744.2h91.9v37.4H550.2Z" class="ga_15"/>
<path d="M550.2,743.5V733.4" class="g8_15"/>
<path fill-rule="evenodd" d="M550.3,724.9l4.5,9.1l-4.6,-3.7l-4.5,3.7l4.6,-9.1Z" class="g9_15"/>
<path d="M810.1,686.8V676.7" class="g8_15"/>
<path fill-rule="evenodd" d="M810.2,668.2l4.5,9.1l-4.6,-3.7l-4.5,3.7l4.6,-9.1Z" class="g9_15"/>
<path fill-rule="evenodd" d="M810.1,668.2H764.2V630.8H856v37.4H810.1Z" class="gb_15"/>
<path fill-rule="evenodd" d="M810.1,724.2H764.2V686.8H856v37.4H810.1Z" class="gb_15"/>
<path fill-rule="evenodd" d="M810.1,781H764.2V743.6H856V781H810.1Z" class="gb_15"/>
<path d="M810.1,742.8V732.7" class="g8_15"/>
<path fill-rule="evenodd" d="M810.2,724.2l4.5,9.1l-4.6,-3.6l-4.5,3.6l4.6,-9.1Z" class="g9_15"/>
<path d="M596.1,706.2l159.6,-.6" class="gc_15"/>
<path fill-rule="evenodd" d="M764.2,705.5l-9.1,4.6l3.6,-4.6L755.1,701l9.1,4.5Z" class="gd_15"/>
<path fill-rule="evenodd" d="M679.1,723.7H624.8V683.5H733.4v40.2H679.1Z" class="g0_15"/>
<path fill-rule="evenodd" d="M1191.4,35.3L1159.7,18.1c-1.9,-1.1,-.9,-3.4,1.6,-3.4h218.9c.5,0,1,.1,1.5,.4l37.7,20.2c1.4,.7,1.4,2.2,0,2.9l-37.7,20.7c-.5,.3,-1,.5,-1.5,.5H1161.1c-2.4,0,-3.5,-2.3,-1.5,-3.4l31.8,-17.8c1.4,-.7,1.4,-2.2,0,-2.9Z" class="ge_15"/>
</svg>