<?xml version="1.0" encoding="UTF-8" standalone="no"?>
<!DOCTYPE svg PUBLIC "-//W3C//DTD SVG 1.1//EN"
"http://www.w3.org/Graphics/SVG/1.1/DTD/svg11.dtd">
<svg viewBox="0 0 1466 825" version="1.1" xmlns="http://www.w3.org/2000/svg" xmlns:xlink="http://www.w3.org/1999/xlink">
<defs>
<clipPath id="c0_8"><path d="M0,825V0H1466.6V825Z"/></clipPath>
<style type="text/css"><![CDATA[
.g0_8{
fill: #FFF;
}
.g1_8{
fill: #D9E6F8;
}
.g2_8{
fill: #EBF6D9;
}
.g3_8{
fill: #EAB8EE;
}
.g4_8{
fill: #F8CBAD;
}
.g5_8{
fill: none;
stroke: #A6A6A6;
stroke-width: 0.779;
stroke-miterlimit: 10;
}
.g6_8{
fill: none;
stroke: #000;
stroke-width: 0.389;
stroke-linejoin: round;
}
.g7_8{
fill: none;
stroke: #808080;
stroke-width: 0.779;
stroke-miterlimit: 10;
}
.g8_8{
fill: #808080;
}
.g9_8{
fill: none;
stroke: #0563C1;
stroke-width: 0.909;
stroke-miterlimit: 10;
}
]]></style>
</defs>
<g clip-path="url(#c0_8)">
<path fill-rule="evenodd" d="M0,0H1466.6V825H0V0Z" class="g0_8"/>
<path fill-rule="evenodd" d="M0,0H1466.7V825H0V0Z" class="g0_8"/>
</g>
<path fill-rule="evenodd" d="M1080.3,190.6c0,32.1,-26.5,58.2,-59.1,58.2c-32.7,0,-59.1,-26.1,-59.1,-58.2c0,-32.1,26.4,-58.2,59.1,-58.2c32.6,0,59.1,26.1,59.1,58.2Z" class="g1_8"/>
<path fill-rule="evenodd" d="M1143.7,279.4c0,27.5,-23.7,49.8,-52.8,49.8c-29.1,0,-52.7,-22.3,-52.7,-49.8c0,-27.5,23.6,-49.7,52.7,-49.7c29.1,0,52.8,22.2,52.8,49.7Z" class="g2_8"/>
<path fill-rule="evenodd" d="M1169.7,188.6c0,23.4,-18.3,42.5,-40.9,42.5c-22.6,0,-40.8,-19.1,-40.8,-42.5c0,-23.6,18.2,-42.6,40.8,-42.6c22.6,0,40.9,19,40.9,42.6Z" class="g3_8"/>
<path fill-rule="evenodd" d="M1279.1,174.3c0,27.5,-24.5,49.8,-54.7,49.8c-30.2,0,-54.6,-22.3,-54.6,-49.8c0,-27.6,24.4,-49.9,54.6,-49.9c30.2,0,54.7,22.3,54.7,49.9Z" class="g1_8"/>
<path fill-rule="evenodd" d="M1024.9,284.8c0,21.8,-19.4,39.5,-43.3,39.5c-23.9,0,-43.2,-17.7,-43.2,-39.5c0,-21.8,19.3,-39.5,43.2,-39.5c23.9,0,43.3,17.7,43.3,39.5Z" class="g3_8"/>
<path fill-rule="evenodd" d="M1224.5,257.4c0,23.5,-18.4,42.6,-40.9,42.6c-22.6,0,-40.9,-19.1,-40.9,-42.6c0,-23.5,18.3,-42.6,40.9,-42.6c22.5,0,40.9,19.1,40.9,42.6Z" class="g4_8"/>
<path d="M387.6,571h-3.2m-2.3,0H379m-2.4,0h-3.1m-2.3,0h-3.1m-2.4,0h-3.1m-2.3,0h-3.1m-2.4,0h-3.1m-2.3,0h-3.2m-2.3,0h-3.1m-2.4,0h-3.1m-2.3,0h-3.1m-2.4,0h-3.1m-2.3,0H319m-2.4,0h-3.1m-2.3,0H308m-2.3,0h-3.1m-2.4,0h-3.1m-2.3,0h-3.1m-2.4,0h-3.1m-2.3,0h-3.1m-2.4,0h-3.1m-2.3,0h-3.2m-2.3,0h-3.1m-2.3,0h-3.2m-2.3,0h-3.1m-2.4,0H248m-2.3,0h-3.1m-2.4,0h-3.1m-2.3,0h-3.2m-2.3,0h-3.1m-2.3,0h-3.2m-2.3,0h-3.1m-2.4,0h-3.1m-2.3,0h-3.1m-2.4,0h-3.1m-2.3,0h-3.1m-2.4,0H188m-2.3,0h-3.2m-2.3,0h-3.1m-2.4,0h-3.1m-2.3,0h-3.1m-2.4,0h-3.1m-2.3,0h-3.1m-2.4,0h-3.1m-2.3,0h-3.2m-2.3,0h-3.1m-2.4,0h-3.1m-2.3,0H128m-2.4,0h-3.1m-2.3,0h-3.1m-2.4,0h-3.1m-2.3,0h-3.2m-2.3,0h-3.1m-1,-1.3v-3.2m0,-2.3v-3.1m0,-2.4v-3.1m0,-2.3v-3.1m0,-2.4v-3.1m0,-2.3v-3.1m0,-2.4v-3.1m0,-2.3v-3.2m0,-2.3v-3.1m0,-2.3v-3.2m0,-2.3V512m0,-2.4v-3.1m0,-2.3v-3.1m0,-2.4v-3.1m0,-2.3v-3.2m0,-2.3v-3.1m0,-2.3v-3.2m0,-2.3v-3.1m0,-2.4v-3.1m0,-2.3v-3.1m0,-2.4v-3.1m0,-2.3V452m0,-2.4v-3.1m0,-2.3V441m0,-2.3v-3.1m0,-2.4v-3.1m0,-2.3v-3.1m0,-2.4v-3.1m0,-2.3v-3.1m0,-2.4v-3.1m0,-2.3v-3.2m0,-2.3v-3.1m0,-2.4v-3.1m0,-2.3v-3.1m0,-2.4V381m0,-2.3v-3.1m0,-2.4v-3.1m1.9,-.5h3.2m2.3,0h3.1m2.4,0h3.1m2.3,0h3.1m2.4,0h3.1m2.3,0H132m2.4,0h3.1m2.3,0H143m2.3,0h3.1m2.4,0h3.1m2.3,0h3.1m2.4,0h3.1m2.3,0h3.1m2.4,0h3.1m2.3,0h3.2m2.3,0h3.1m2.3,0h3.2m2.3,0h3.1m2.4,0H203m2.3,0h3.1m2.4,0h3.1m2.3,0h3.2m2.3,0h3.1m2.3,0h3.2m2.3,0h3.1m2.4,0h3.1m2.3,0h3.1m2.4,0h3.1m2.3,0h3.1m2.4,0H263m2.3,0h3.2m2.3,0h3.1m2.4,0h3.1m2.3,0h3.1m2.4,0h3.1m2.3,0h3.1m2.4,0h3.1m2.3,0h3.2m2.3,0h3.1m2.4,0h3.1m2.3,0H323m2.4,0h3.1m2.3,0h3.1m2.4,0h3.1m2.3,0h3.2m2.3,0h3.1m2.3,0h3.2m2.3,0h3.1m2.4,0h3.1m2.3,0h3.1m2.4,0h3.1m2.3,0h3.2m2.3,0h3.1m2.3,0H394m2.3,0h3.1m2.4,0h3.1m2.3,0h3.1m2.4,0h3.1m2.3,0h3.1m2.4,0h3.1m2.3,0h3.2m2.3,0h3.1m2.4,0h3.1m2.3,0h3.1m2.4,0H454m2.3,0h3.1m2.4,0h3.1m2.3,0h3.2m2.3,0h3.1m2.4,0h3.1m2.3,0h3.1m2.4,0h3.1m2.3,0h3.1m2.4,0h3.1m2.3,0h3.2m2.3,0H514m2.4,0h3.1m2.3,0h3.1m2.4,0h3.1m2.3,0h3.1m2.4,0h3.1m2.3,0h3.2m2.3,0h3.1m2.3,0h3.2m2.3,0h3.1m2.4,0h3.1m2.3,0H574m2.4,0h3.1m2.3,0h3.1m2.4,0h3.1m2.3,0h3.2m2.3,0h3.1m2.4,0h3.1m2.3,0h3.1m2.4,0h3.1m2.3,0h3.1m2.4,0h3.1m2.3,0h3.2m2.3,0h3.1m2.4,0H645m2.3,0h3.1m2.4,0h3.1m2.3,0h3.1m2.4,0h3.1m2.3,0h3.2m2.3,0h.7V372m0,2.3v3.2m0,2.3v3.1m0,2.4v3.1m0,2.3v3.1m0,2.4v3.1m0,2.3v3.1m0,2.4v3.1m0,2.3v3.2m0,2.3v3.1m0,2.4v3.1m0,2.3V432m0,2.4v3.1m0,2.3v3.1m0,2.4v3.1m0,2.3v3.2m0,2.3v3.1m0,2.4v3.1m0,2.3v3.1m0,2.4v3.1m0,2.3v3.1m0,2.4v3.1m0,2.3v3.2m0,2.3v3.1m0,2.4V503m0,2.3v3.1m0,2.4v3.1m0,2.3v3.1m0,2.4v3.1m0,2.3v3.2m0,2.3v3.1m0,2.3v3.2m0,2.3v3.1m0,2.4v3.1m0,2.3v3.1m0,2.4V563m0,2.3v3.1m0,2.4v.2h-2.8m-2.3,0h-3.1m-2.4,0h-3.1m-2.3,0h-3.2m-2.3,0h-3.1m-2.3,0h-3.2m-2.3,0h-3.1m-2.4,0h-3.1m-2.3,0h-3.1m-2.4,0h-3.1m-2.3,0h-3.2m-2.3,0h-3.1m-2.3,0H607m-2.3,0h-3.1m-2.4,0h-3.1m-2.3,0h-3.1m-2.4,0h-3.1m-2.3,0h-3.1m-2.4,0h-3.1m-2.3,0h-3.2m-2.3,0h-3.1m-2.4,0h-3.1m-2.3,0h-3.1m-2.4,0H547m-2.3,0h-3.1m-2.4,0h-3.1m-2.3,0h-3.2m-2.3,0h-3.1m-2.4,0h-3.1m-2.3,0h-3.1m-2.4,0h-3.1m-2.3,0h-3.1m-2.4,0h-3.1m-2.3,0h-3.2m-2.3,0H487m-2.4,0h-3.1m-2.3,0h-3.1m-2.4,0h-3.1m-2.3,0h-3.1m-2.4,0h-3.1m-2.3,0h-3.2m-2.3,0h-3.1m-2.3,0h-3.2m-2.3,0h-3.1m-2.4,0h-3.1m-2.3,0H427m-2.4,0h-3.1m-2.3,0h-3.1m-2.4,0h-3.1m-2.3,0h-3.2m-2.3,0h-3.1m-2.4,0h-3.1m-2.3,0h-3.1" class="g5_8"/>
<path fill-rule="evenodd" d="M1085.7,661.6c0,20.7,-16.5,37.6,-36.9,37.6c-20.4,0,-36.9,-16.9,-36.9,-37.6c0,-20.8,16.5,-37.6,36.9,-37.6c20.4,0,36.9,16.8,36.9,37.6Z" class="g4_8"/>
<path d="M805.2,628.4c14.7,-1,35,.4,53.8,0c18.9,-.4,37.4,2.7,52.4,0c15,-2.7,31.1,1.5,50.8,0c6.1,14.4,-5.6,38.2,0,65.9c-20,4.1,-36,-1.9,-49.2,0c-13.3,1.8,-37.6,-1.1,-52.4,0c-14.8,1,-38.1,-3.7,-55.4,0c-.9,-19.8,2.7,-51.2,0,-65.9Zm335.4,-1.7c14.8,-1,35.1,.3,53.9,0c18.8,-.4,37.3,2.6,52.3,0c15,-2.7,31.2,1.4,50.8,0c.2,13.7,-1.9,37.1,0,50.1c1.8,13.2,-4.1,30.7,0,52.4c-19.5,3.7,-38.9,-5.8,-53.9,0c-15,5.7,-38.1,-3.7,-55.5,0c-17.4,3.6,-31.3,-3,-47.6,0c-4.6,-21,2.4,-34.6,0,-49.3c-2.4,-14.6,2.1,-31.2,0,-53.2Z" class="g6_8"/>
<path d="M966.2,664.5l33,.2" class="g7_8"/>
<path fill-rule="evenodd" d="M1007.7,664.8l-9.2,4.4l3.7,-4.5l-3.6,-4.6l9.1,4.7Z" class="g8_8"/>
<path d="M1092.2,660.6l33,.2" class="g7_8"/>
<path fill-rule="evenodd" d="M1133.7,660.9l-9.1,4.4l3.7,-4.5l-3.6,-4.6l9,4.7Z" class="g8_8"/>
<path d="M1019.8,571h-3.1m-2.4,0h-3.1m-2.3,0h-3.1m-2.4,0h-3.1m-2.3,0h-3.1m-2.4,0h-3.1m-2.3,0h-3.2m-2.3,0h-3.1m-2.4,0H973m-2.3,0h-3.1m-2.4,0h-3.1m-2.3,0h-3.1m-2.4,0h-3.1m-2.3,0h-3.2m-2.3,0h-3.1m-2.4,0h-3.1m-2.3,0h-3.1m-2.4,0h-3.1m-2.3,0h-3.1m-2.4,0H913m-2.3,0h-3.2m-2.3,0h-3.1m-2.4,0h-3.1m-2.3,0h-3.1m-2.4,0h-3.1m-2.3,0h-3.1m-2.4,0h-3.1m-2.3,0h-3.2m-2.3,0h-3.1m-2.3,0h-3.2m-2.3,0H853m-2.4,0h-3.1m-2.3,0h-3.1m-2.4,0h-3.1m-2.3,0h-3.2m-2.3,0h-3.1m-2.3,0h-3.2m-2.3,0h-3.1m-2.4,0h-3.1m-2.3,0h-3.1m-2.4,0h-3.1m-2.3,0H793m-2.4,0h-3.1m-2.3,0H782m-2.3,0h-3.1m-2.4,0h-3.1m-2.3,0h-3.1m-2.4,0h-3.1m-2.3,0h-3.1m-2.4,0h-3.1m-2.3,0h-3.2m-2.3,0h-3.1m-2.4,0h-3.1m-2.3,0h-3.1m-2.4,0H722m-2.3,0h-3.1m-2.4,0h-3.1m-2.3,0h-3.2m-2.3,0h-3.1m-2.3,0h-3.2m-2.3,0h-3.1m-2.4,0h-3.1m-2.3,0h-3.1m-2.4,0h-.7v-2.3m0,-2.4v-3.1m0,-2.3v-3.1m0,-2.4v-3.1m0,-2.3v-3.2m0,-2.3v-3.1m0,-2.4v-3.1m0,-2.3v-3.1m0,-2.4V525m0,-2.3v-3.1m0,-2.4v-3.1m0,-2.3v-3.2m0,-2.3v-3.1m0,-2.4v-3.1m0,-2.3v-3.1m0,-2.4v-3.1m0,-2.3v-3.1m0,-2.4v-3.1m0,-2.3v-3.2m0,-2.3V465m0,-2.4v-3.1m0,-2.3v-3.1m0,-2.4v-3.1m0,-2.3v-3.1m0,-2.4v-3.1m0,-2.3v-3.2m0,-2.3v-3.1m0,-2.3v-3.2m0,-2.3v-3.1m0,-2.4v-3.1m0,-2.3V405m0,-2.4v-3.1m0,-2.3v-3.1m0,-2.4v-3.1m0,-2.3v-3.2m0,-2.3v-3.1m0,-2.4v-3.1m0,-2.3v-.3h2.9m2.3,0h3.1m2.4,0h3.1m2.3,0h3.2m2.3,0H700m2.4,0h3.1m2.3,0h3.1m2.4,0h3.1m2.3,0h3.1m2.4,0h3.1m2.3,0h3.2m2.3,0h3.1m2.4,0h3.1m2.3,0h3.1m2.4,0h3.1m2.3,0H760m2.4,0h3.1m2.3,0H771m2.3,0h3.1m2.3,0h3.2m2.3,0h3.1m2.4,0h3.1m2.3,0h3.1m2.4,0h3.1m2.3,0h3.1m2.4,0h3.1m2.3,0h3.2m2.3,0h3.1m2.4,0H831m2.3,0h3.1m2.4,0h3.1m2.3,0h3.1m2.4,0h3.1m2.3,0h3.2m2.3,0h3.1m2.4,0h3.1m2.3,0h3.1m2.4,0h3.1m2.3,0h3.1m2.4,0H891m2.3,0h3.2m2.3,0h3.1m2.4,0h3.1m2.3,0h3.1m2.4,0h3.1m2.3,0h3.1m2.4,0h3.1m2.3,0h3.2m2.3,0h3.1m2.3,0h3.2m2.3,0H951m2.4,0h3.1m2.3,0h3.1m2.4,0h3.1m2.3,0h3.2m2.3,0h3.1m2.3,0h3.2m2.3,0h3.1m2.4,0h3.1m2.3,0h3.1m2.4,0h3.1m2.3,0h3.1m2.4,0h3.1m2.3,0h3.2m2.3,0h3.1m2.4,0h3.1m2.3,0h3.1m2.4,0h3.1m2.3,0h3.1m2.4,0h3.1m2.3,0h3.2m2.3,0h3.1m2.4,0h3.1m2.3,0h3.1m2.4,0h3.1m2.3,0h3.1m2.4,0h3.1m2.3,0h3.2m2.3,0h3.1m2.3,0h3.2m2.3,0h3.1m2.4,0h3.1m2.3,0h3.1m2.4,0h3.1m2.3,0h3.2m2.3,0h3.1m2.3,0h3.2m2.3,0h3.1m2.4,0h3.1m2.3,0h3.1m2.4,0h3.1m2.3,0h3.1m2.4,0h3.1m2.3,0h3.2m2.3,0h3.1m2.4,0h3.1m2.3,0h3.1m2.4,0h3.1m2.3,0h3.1m2.4,0h3.1m2.3,0h3.2m2.3,0h3.1m2.4,0h3.1m2.3,0h3.1m2.4,0h3.1m2.3,0h3.1m2.4,0h3.1m2.3,0h3.2m2.3,0h3.1m2.4,0h3.1m2.3,0h3.1m2.4,0h3.1m2.3,0h3.1m2.4,0h3.1m2.3,0h3.2m2.3,0h3.1m2.3,0h3.2m2.3,0h3.1m2.4,0h3.1m2.3,0h3.1m2.4,0h3.1m2.3,0h3.1m2.4,0h3.1m2.3,0h3.2m2.3,0h3.1m2.4,0h3.1m2.3,0h1.7v1.5m0,2.3v3.2m0,2.3V382m0,2.4v3.1m0,2.3v3.1m0,2.4v3.1m0,2.3v3.1m0,2.4v3.1m0,2.3v3.2m0,2.3v3.1m0,2.3v3.2m0,2.3v3.1m0,2.4v3.1m0,2.3V442m0,2.4v3.1m0,2.3v3.1m0,2.4v3.1m0,2.3v3.2m0,2.3v3.1m0,2.4v3.1m0,2.3v3.1m0,2.4v3.1m0,2.3v3.1m0,2.4v3.1m0,2.3v3.2m0,2.3v3.1m0,2.4V513m0,2.3v3.1m0,2.4v3.1m0,2.3v3.1m0,2.4v3.1m0,2.3v3.2m0,2.3v3.1m0,2.4v3.1m0,2.3v3.1m0,2.4v3.1m0,2.3v3.1m0,2.4V571h-1.9m-2.4,0h-3.1m-2.3,0h-3.2m-2.3,0H1346m-2.4,0h-3.1m-2.3,0h-3.1m-2.4,0h-3.1m-2.3,0h-3.1m-2.4,0h-3.1m-2.3,0h-3.2m-2.3,0h-3.1m-2.4,0h-3.1m-2.3,0h-3.1m-2.4,0h-3.1m-2.3,0H1286m-2.4,0h-3.1m-2.3,0H1275m-2.3,0h-3.1m-2.3,0h-3.2m-2.3,0h-3.1m-2.4,0h-3.1m-2.3,0h-3.1m-2.4,0h-3.1m-2.3,0h-3.1m-2.4,0h-3.1m-2.3,0h-3.2m-2.3,0h-3.1m-2.4,0H1215m-2.3,0h-3.1m-2.4,0h-3.1m-2.3,0h-3.1m-2.4,0h-3.1m-2.3,0h-3.2m-2.3,0h-3.1m-2.4,0h-3.1m-2.3,0h-3.1m-2.4,0h-3.1m-2.3,0h-3.1m-2.4,0H1155m-2.3,0h-3.2m-2.3,0h-3.1m-2.4,0h-3.1m-2.3,0h-3.1m-2.4,0h-3.1m-2.3,0h-3.1m-2.4,0h-3.1m-2.3,0h-3.2m-2.3,0h-3.1m-2.3,0h-3.2m-2.3,0H1095m-2.4,0h-3.1m-2.3,0h-3.1m-2.4,0h-3.1m-2.3,0h-3.2m-2.3,0h-3.1m-2.3,0h-3.2m-2.3,0h-3.1m-2.4,0h-3.1m-2.3,0h-3.1m-2.4,0h-3.1m-2.3,0H1035m-2.4,0h-3.1m-2.3,0H1024m-2.3,0h-1.9M387.6,366.6h-3.2m-2.3,0H379m-2.4,0h-3.1m-2.3,0h-3.1m-2.4,0h-3.1m-2.3,0h-3.1m-2.4,0h-3.1m-2.3,0h-3.2m-2.3,0h-3.1m-2.4,0h-3.1m-2.3,0h-3.1m-2.4,0h-3.1m-2.3,0H319m-2.4,0h-3.1m-2.3,0H308m-2.3,0h-3.1m-2.4,0h-3.1m-2.3,0h-3.1m-2.4,0h-3.1m-2.3,0h-3.1m-2.4,0h-3.1m-2.3,0h-3.2m-2.3,0h-3.1m-2.3,0h-3.2m-2.3,0h-3.1m-2.4,0H248m-2.3,0h-3.1m-2.4,0h-3.1m-2.3,0h-3.2m-2.3,0h-3.1m-2.3,0h-3.2m-2.3,0h-3.1m-2.4,0h-3.1m-2.3,0h-3.1m-2.4,0h-3.1m-2.3,0h-3.1m-2.4,0H188m-2.3,0h-3.2m-2.3,0h-3.1m-2.4,0h-3.1m-2.3,0h-3.1m-2.4,0h-3.1m-2.3,0h-3.1m-2.4,0h-3.1m-2.3,0h-3.2m-2.3,0h-3.1m-2.4,0h-3.1m-2.3,0H128m-2.4,0h-3.1m-2.3,0h-3.1m-2.4,0h-3.1m-2.3,0h-3.2m-2.3,0h-3.1m-1,-1.4V362m0,-2.3v-3.1m0,-2.3v-3.2m0,-2.3v-3.1m0,-2.4v-3.1m0,-2.3v-3.1m0,-2.4v-3.1m0,-2.3v-3.1m0,-2.4v-3.1m0,-2.3v-3.2m0,-2.3v-3.1m0,-2.4V302m0,-2.3v-3.1m0,-2.4v-3.1m0,-2.3v-3.1m0,-2.4v-3.1m0,-2.3v-3.2m0,-2.3v-3.1m0,-2.4v-3.1m0,-2.3v-3.1m0,-2.4v-3.1m0,-2.3v-3.1m0,-2.4V242m0,-2.3v-3.2m0,-2.3v-3.1m0,-2.4v-3.1m0,-2.3v-3.1m0,-2.4v-3.1m0,-2.3v-3.1m0,-2.4v-3.1m0,-2.3v-3.2m0,-2.3v-3.1m0,-2.3v-3.2m0,-2.3V182m0,-2.4v-3.1m0,-2.3v-3.1m0,-2.4v-3.1m0,-2.3v-3.2m0,-2.3v-3.1m0,-2.3v-3.2m0,-2.3v-3.1m0,-2.4v-3.1m0,-2.3v-3.1m0,-2.4v-3.1m0,-2.3V122m0,-2.4v-.9h2.2m2.4,0h3.1m2.3,0h3.2m2.3,0h3.1m2.4,0h3.1m2.3,0h3.1m2.4,0h3.1m2.3,0h3.1m2.4,0h3.1m2.3,0h3.2m2.3,0h3.1m2.4,0H162m2.3,0h3.1m2.4,0h3.1m2.3,0h3.1m2.4,0h3.1m2.3,0h3.2m2.3,0h3.1m2.3,0h3.2m2.3,0h3.1m2.4,0h3.1m2.3,0h3.1m2.4,0H222m2.3,0h3.1m2.4,0h3.1m2.3,0h3.2m2.3,0h3.1m2.4,0h3.1m2.3,0h3.1m2.4,0h3.1m2.3,0h3.1m2.4,0h3.1m2.3,0h3.2m2.3,0H282m2.4,0h3.1m2.3,0h3.1m2.4,0h3.1m2.3,0h3.1m2.4,0h3.1m2.3,0h3.2m2.3,0h3.1m2.4,0h3.1m2.3,0h3.1m2.4,0h3.1m2.3,0H342m2.4,0h3.1m2.3,0H353m2.3,0h3.1m2.3,0h3.2m2.3,0h3.1m2.4,0h3.1m2.3,0h3.1m2.4,0h3.1m2.3,0h3.1m2.4,0h3.1m2.3,0h3.2m2.3,0h3.1m2.4,0H413m2.3,0h3.1m2.4,0h3.1m2.3,0h3.1m2.4,0h3.1m2.3,0h3.2m2.3,0h3.1m2.4,0h3.1m2.3,0h3.1m2.4,0h3.1m2.3,0h3.1m2.4,0H473m2.3,0h3.2m2.3,0h3.1m2.4,0h3.1m2.3,0h3.1m2.4,0h3.1m2.3,0h3.1m2.4,0h3.1m2.3,0h3.2m2.3,0h3.1m2.3,0h3.2m2.3,0H533m2.4,0h3.1m2.3,0h3.1m2.4,0h3.1m2.3,0h3.2m2.3,0h3.1m2.3,0h3.2m2.3,0h3.1m2.4,0h3.1m2.3,0h3.1m2.4,0h3.1m2.3,0H593m2.4,0h3.1m2.3,0H604m2.3,0h3.1m2.4,0h3.1m2.3,0h3.1m2.4,0h3.1m2.3,0h3.1m2.4,0h3.1m2.3,0h3.2m2.3,0h3.1m2.4,0h3.1m2.3,0h3.1m2.4,0H664m2.3,0h3.1m2.4,0h3.1m.4,1.9v3.1m0,2.3v3.1m0,2.4v3.1m0,2.3v3.2m0,2.3v3.1m0,2.4V151m0,2.3v3.1m0,2.4v3.1m0,2.3v3.1m0,2.4v3.1m0,2.3v3.2m0,2.3v3.1m0,2.3v3.2m0,2.3v3.1m0,2.4v3.1m0,2.3v3.1m0,2.4V211m0,2.3v3.1m0,2.4v3.1m0,2.3v3.2m0,2.3v3.1m0,2.4v3.1m0,2.3v3.1m0,2.4v3.1m0,2.3v3.1m0,2.4v3.1m0,2.3v3.2m0,2.3V271m0,2.4v3.1m0,2.3v3.1m0,2.4v3.1m0,2.3v3.1m0,2.4v3.1m0,2.3v3.2m0,2.3v3.1m0,2.4v3.1m0,2.3v3.1m0,2.4v3.1m0,2.3V331m0,2.4v3.1m0,2.3V342m0,2.3v3.1m0,2.3v3.2m0,2.3v3.1m0,2.4v3.1m0,2.3v.5h-2.6m-2.3,0h-3.2m-2.3,0h-3.1m-2.4,0h-3.1m-2.3,0h-3.1m-2.4,0h-3.1m-2.3,0h-3.2m-2.3,0h-3.1m-2.3,0H629m-2.3,0h-3.1m-2.4,0h-3.1m-2.3,0h-3.1m-2.4,0h-3.1m-2.3,0h-3.1m-2.4,0h-3.1m-2.3,0h-3.2m-2.3,0h-3.1m-2.4,0h-3.1m-2.3,0h-3.1m-2.4,0H569m-2.3,0h-3.1m-2.4,0h-3.1m-2.3,0h-3.2m-2.3,0h-3.1m-2.4,0h-3.1m-2.3,0h-3.1m-2.4,0h-3.1m-2.3,0h-3.1m-2.4,0h-3.1m-2.3,0h-3.2m-2.3,0H509m-2.4,0h-3.1m-2.3,0h-3.1m-2.4,0h-3.1m-2.3,0h-3.1m-2.4,0h-3.1m-2.3,0h-3.2m-2.3,0h-3.1m-2.3,0h-3.2m-2.3,0h-3.1m-2.4,0h-3.1m-2.3,0H449m-2.4,0h-3.1m-2.3,0h-3.1m-2.4,0h-3.1m-2.3,0h-3.2m-2.3,0h-3.1m-2.4,0h-3.1m-2.3,0h-3.1m-2.4,0h-3.1m-2.3,0h-3.1m-2.4,0h-3.1m-2.3,0h-3.2m630.9,0h-3.1m-2.4,0h-3.1m-2.3,0h-3.1m-2.4,0h-3.1m-2.3,0h-3.1m-2.4,0h-3.1m-2.3,0h-3.2m-2.3,0h-3.1m-2.4,0H973m-2.3,0h-3.1m-2.4,0h-3.1m-2.3,0h-3.1m-2.4,0h-3.1m-2.3,0h-3.2m-2.3,0h-3.1m-2.4,0h-3.1m-2.3,0h-3.1m-2.4,0h-3.1m-2.3,0h-3.1m-2.4,0H913m-2.3,0h-3.2m-2.3,0h-3.1m-2.4,0h-3.1m-2.3,0h-3.1m-2.4,0h-3.1m-2.3,0h-3.1m-2.4,0h-3.1m-2.3,0h-3.2m-2.3,0h-3.1m-2.3,0h-3.2m-2.3,0H853m-2.4,0h-3.1m-2.3,0h-3.1m-2.4,0h-3.1m-2.3,0h-3.2m-2.3,0h-3.1m-2.3,0h-3.2m-2.3,0h-3.1m-2.4,0h-3.1m-2.3,0h-3.1m-2.4,0h-3.1m-2.3,0H793m-2.4,0h-3.1m-2.3,0H782m-2.3,0h-3.1m-2.4,0h-3.1m-2.3,0h-3.1m-2.4,0h-3.1m-2.3,0h-3.1m-2.4,0h-3.1m-2.3,0h-3.2m-2.3,0h-3.1m-2.4,0h-3.1m-2.3,0h-3.1m-2.4,0H722m-2.3,0h-3.1m-2.4,0h-3.1m-2.3,0h-3.2m-2.3,0h-3.1m-2.3,0h-3.2m-2.3,0h-3.1m-2.4,0h-3.1m-2.3,0h-3.1m-2.4,0h-.7v-2.4m0,-2.3v-3.1m0,-2.4v-3.1m0,-2.3v-3.2m0,-2.3v-3.1m0,-2.4v-3.1m0,-2.3v-3.1m0,-2.4V326m0,-2.3v-3.1m0,-2.4v-3.1m0,-2.3v-3.2m0,-2.3v-3.1m0,-2.3v-3.2m0,-2.3v-3.1m0,-2.4v-3.1m0,-2.3v-3.1m0,-2.4v-3.1m0,-2.3v-3.2m0,-2.3V266m0,-2.3v-3.2m0,-2.3v-3.1m0,-2.4v-3.1m0,-2.3v-3.1m0,-2.4v-3.1m0,-2.3v-3.1m0,-2.4v-3.1m0,-2.3v-3.2m0,-2.3v-3.1m0,-2.4v-3.1m0,-2.3V206m0,-2.4v-3.1m0,-2.3v-3.1m0,-2.4v-3.1m0,-2.3v-3.2m0,-2.3v-3.1m0,-2.4v-3.1m0,-2.3v-3.1m0,-2.4v-3.1m0,-2.3v-3.1m0,-2.4v-3.1m0,-2.3v-3.2m0,-2.3v-3.1m0,-2.4V135m0,-2.3v-3.1m0,-2.4v-3.1m0,-2.3v-3.1h.1m2.3,0h3.1m2.4,0h3.1m2.3,0h3.1m2.4,0h3.1m2.3,0h3.2m2.3,0h3.1m2.4,0h3.1m2.3,0H719m2.4,0h3.1m2.3,0h3.1m2.4,0h3.1m2.3,0h3.2m2.3,0h3.1m2.3,0h3.2m2.3,0h3.1m2.4,0h3.1m2.3,0h3.1m2.4,0h3.1m2.3,0h3.2m2.3,0h3.1m2.3,0H790m2.3,0h3.1m2.4,0h3.1m2.3,0h3.1m2.4,0h3.1m2.3,0h3.1m2.4,0h3.1m2.3,0h3.2m2.3,0h3.1m2.4,0h3.1m2.3,0h3.1m2.4,0H850m2.3,0h3.1m2.4,0h3.1m2.3,0h3.2m2.3,0h3.1m2.4,0h3.1m2.3,0h3.1m2.4,0h3.1m2.3,0h3.1m2.4,0h3.1m2.3,0h3.2m2.3,0H910m2.4,0h3.1m2.3,0h3.1m2.4,0h3.1m2.3,0h3.1m2.4,0h3.1m2.3,0h3.2m2.3,0h3.1m2.3,0h3.2m2.3,0h3.1m2.4,0h3.1m2.3,0H970m2.4,0h3.1m2.3,0h3.1m2.4,0h3.1m2.3,0h3.2m2.3,0h3.1m2.4,0h3.1m2.3,0h3.1m2.4,0h3.1m2.3,0h3.1m2.4,0h3.1m2.3,0h3.2m2.3,0h3.1m2.4,0h3.1m2.3,0h3.1m2.4,0h3.1m2.3,0h3.1m2.4,0h3.1m2.3,0h3.2m2.3,0h3.1m2.4,0h3.1m2.3,0h3.1m2.4,0h3.1m2.3,0h3.1m2.4,0h3.1m2.3,0h3.2m2.3,0h3.1m2.3,0h3.2m2.3,0h3.1m2.4,0h3.1m2.3,0h3.1m2.4,0h3.1m2.3,0h3.1m2.4,0h3.1m2.3,0h3.2m2.3,0h3.1m2.4,0h3.1m2.3,0h3.1m2.4,0h3.1m2.3,0h3.1m2.4,0h3.1m2.3,0h3.2m2.3,0h3.1m2.4,0h3.1m2.3,0h3.1m2.4,0h3.1m2.3,0h3.1m2.4,0h3.1m2.3,0h3.2m2.3,0h3.1m2.4,0h3.1m2.3,0h3.1m2.4,0h3.1m2.3,0h3.1m2.4,0h3.1m2.3,0h3.2m2.3,0h3.1m2.3,0h3.2m2.3,0h3.1m2.4,0h3.1m2.3,0h3.1m2.4,0h3.1m2.3,0h3.2m2.3,0h3.1m2.3,0h3.2m2.3,0h3.1m2.4,0h3.1m2.3,0h3.1m2.4,0h3.1m2.3,0h3.1m2.4,0h3.1m2.3,0h3.2m2.3,0h3.1m1.4,1v3.1m0,2.4v3.1m0,2.3v3.1m0,2.4v3.1m0,2.3v3.1m0,2.4v3.1m0,2.3v3.2m0,2.3V161m0,2.4v3.1m0,2.3v3.1m0,2.4v3.1m0,2.3v3.1m0,2.4v3.1m0,2.3v3.2m0,2.3v3.1m0,2.4v3.1m0,2.3v3.1m0,2.4v3.1m0,2.3V221m0,2.4v3.1m0,2.3V232m0,2.3v3.1m0,2.3v3.2m0,2.3v3.1m0,2.4v3.1m0,2.3v3.1m0,2.4v3.1m0,2.3v3.1m0,2.4v3.1m0,2.3v3.2m0,2.3v3.1m0,2.4V292m0,2.3v3.1m0,2.4v3.1m0,2.3v3.1m0,2.4v3.1m0,2.3v3.2m0,2.3v3.1m0,2.4v3.1m0,2.3v3.1m0,2.4v3.1m0,2.3v3.1m0,2.4V352m0,2.3v3.2m0,2.3v3.1m0,2.4v1.3h-1.8m-2.3,0h-3.1m-2.4,0h-3.1m-2.3,0h-3.1m-2.4,0h-3.1m-2.3,0h-3.2m-2.3,0h-3.1m-2.4,0h-3.1m-2.3,0h-3.1m-2.4,0h-3.1m-2.3,0H1308m-2.4,0h-3.1m-2.3,0H1297m-2.3,0h-3.1m-2.3,0h-3.2m-2.3,0h-3.1m-2.4,0h-3.1m-2.3,0h-3.1m-2.4,0h-3.1m-2.3,0h-3.1m-2.4,0h-3.1m-2.3,0h-3.2m-2.3,0h-3.1m-2.4,0H1237m-2.3,0h-3.1m-2.4,0h-3.1m-2.3,0h-3.1m-2.4,0h-3.1m-2.3,0h-3.2m-2.3,0h-3.1m-2.4,0h-3.1m-2.3,0h-3.1m-2.4,0h-3.1m-2.3,0h-3.1m-2.4,0H1177m-2.3,0h-3.2m-2.3,0h-3.1m-2.4,0h-3.1m-2.3,0h-3.1m-2.4,0h-3.1m-2.3,0h-3.1m-2.4,0h-3.1m-2.3,0h-3.2m-2.3,0h-3.1m-2.3,0h-3.2m-2.3,0H1117m-2.4,0h-3.1m-2.3,0h-3.1m-2.4,0h-3.1m-2.3,0h-3.2m-2.3,0h-3.1m-2.3,0h-3.2m-2.3,0h-3.1m-2.4,0h-3.1m-2.3,0h-3.1m-2.4,0h-3.1m-2.3,0H1057m-2.4,0h-3.1m-2.3,0H1046m-2.3,0h-3.1m-2.4,0h-3.1m-2.3,0h-3.1m-2.4,0h-3.1m-2.3,0h-2.1M387.7,774.9h-3.1m-2.4,0h-3.1m-2.3,0h-3.1m-2.4,0h-3.1m-2.3,0h-3.2m-2.3,0h-3.1m-2.4,0h-3.1m-2.3,0h-3.1m-2.4,0h-3.1m-2.3,0h-3.1m-2.4,0H330m-2.3,0h-3.2m-2.3,0h-3.1m-2.4,0h-3.1m-2.3,0h-3.1m-2.4,0h-3.1m-2.3,0h-3.1m-2.4,0h-3.1m-2.3,0h-3.2m-2.3,0h-3.1m-2.3,0h-3.2m-2.3,0H270m-2.4,0h-3.1m-2.3,0h-3.1m-2.4,0h-3.1m-2.3,0h-3.2m-2.3,0h-3.1m-2.3,0h-3.2m-2.3,0h-3.1m-2.4,0h-3.1m-2.3,0h-3.1m-2.4,0h-3.1m-2.3,0H210m-2.4,0h-3.1m-2.3,0H199m-2.3,0h-3.1m-2.4,0h-3.1m-2.3,0h-3.1m-2.4,0h-3.1m-2.3,0h-3.1m-2.4,0h-3.1m-2.3,0h-3.2m-2.3,0h-3.1m-2.4,0h-3.1m-2.3,0h-3.1m-2.4,0H139m-2.3,0h-3.1m-2.4,0h-3.1m-2.3,0h-3.2m-2.3,0h-3.1m-2.3,0h-3.2m-2.3,0h-3.1m-2.4,0h-3.1m-.9,-1.3v-3.2m0,-2.3V765m0,-2.4v-3.1m0,-2.3v-3.1m0,-2.4v-3.1m0,-2.3v-3.2m0,-2.3v-3.1m0,-2.3v-3.2m0,-2.3v-3.1m0,-2.4v-3.1m0,-2.3v-3.1m0,-2.4v-3.1m0,-2.3V705m0,-2.4v-3.1m0,-2.3V694m0,-2.3v-3.1m0,-2.4v-3.1m0,-2.3v-3.1m0,-2.4v-3.1m0,-2.3v-3.1m0,-2.4v-3.1m0,-2.3v-3.2m0,-2.3v-3.1m0,-2.4v-3.1m0,-2.3v-3.1m0,-2.4V634m0,-2.3v-3.1m0,-2.4v-3.1m0,-2.3v-3.2m0,-2.3v-3.1m0,-2.3v-3.2m0,-2.3v-3.1m0,-2.4v-3.1m0,-2.3v-3.1m0,-2.4v-3.1m0,-2.3v-3.2m0,-2.3V574m1.9,-.5h3.1m2.3,0h3.1m2.4,0h3.1m2.3,0h3.2m2.3,0h3.1m2.4,0h3.1m2.3,0h3.1m2.4,0h3.1m2.3,0h3.1m2.4,0H154m2.3,0h3.2m2.3,0h3.1m2.4,0h3.1m2.3,0h3.1m2.4,0h3.1m2.3,0h3.1m2.4,0h3.1m2.3,0h3.2m2.3,0h3.1m2.3,0h3.2m2.3,0H214m2.4,0h3.1m2.3,0h3.1m2.4,0h3.1m2.3,0h3.2m2.3,0h3.1m2.3,0h3.2m2.3,0h3.1m2.4,0h3.1m2.3,0h3.1m2.4,0h3.1m2.3,0H274m2.4,0h3.1m2.3,0H285m2.3,0h3.1m2.4,0h3.1m2.3,0h3.1m2.4,0h3.1m2.3,0h3.1m2.4,0h3.1m2.3,0h3.2m2.3,0h3.1m2.4,0h3.1m2.3,0h3.1m2.4,0H345m2.3,0h3.1m2.4,0h3.1m2.3,0h3.2m2.3,0h3.1m2.3,0h3.2m2.3,0h3.1m2.4,0h3.1m2.3,0h3.1m2.4,0h3.1m2.3,0h3.2m2.3,0H405m2.3,0h3.2m2.3,0h3.1m2.4,0h3.1m2.3,0h3.1m2.4,0h3.1m2.3,0h3.1m2.4,0h3.1m2.3,0h3.2m2.3,0h3.1m2.4,0h3.1m2.3,0H465m2.4,0h3.1m2.3,0h3.1m2.4,0h3.1m2.3,0h3.2m2.3,0h3.1m2.4,0h3.1m2.3,0h3.1m2.4,0h3.1m2.3,0h3.1m2.4,0h3.1m2.3,0h3.2m2.3,0h3.1m2.4,0H536m2.3,0h3.1m2.4,0h3.1m2.3,0h3.1m2.4,0h3.1m2.3,0h3.2m2.3,0h3.1m2.3,0h3.2m2.3,0h3.1m2.4,0h3.1m2.3,0h3.1m2.4,0H596m2.3,0h3.1m2.4,0h3.1m2.3,0h3.2m2.3,0h3.1m2.4,0h3.1m2.3,0h3.1m2.4,0h3.1m2.3,0h3.1m2.4,0h3.1m2.3,0h3.2m2.3,0H656m2.4,0h3.1m2.3,0h3.1m2.4,0h3.1m2.3,0h.8v2.4m0,2.3v3.2m0,2.3v3.1m0,2.3v3.2m0,2.3v3.1m0,2.4v3.1m0,2.3v3.1m0,2.4v3.1m0,2.3v3.2m0,2.3V625m0,2.3v3.2m0,2.3v3.1m0,2.4v3.1m0,2.3v3.1m0,2.4v3.1m0,2.3v3.1m0,2.4v3.1m0,2.3v3.2m0,2.3v3.1m0,2.4v3.1m0,2.3V685m0,2.4v3.1m0,2.3v3.1m0,2.4v3.1m0,2.3v3.2m0,2.3v3.1m0,2.4v3.1m0,2.3v3.1m0,2.4v3.1m0,2.3v3.1m0,2.4v3.1m0,2.3v3.2m0,2.3v3.1m0,2.4V756m0,2.3v3.1m0,2.4v3.1m0,2.3v3.1m0,2.4v.2h-2.9m-2.3,0h-3.1m-2.3,0h-3.2m-2.3,0h-3.1m-2.4,0h-3.1m-2.3,0h-3.1m-2.4,0h-3.1m-2.3,0h-3.2m-2.3,0H629m-2.3,0h-3.2m-2.3,0h-3.1m-2.4,0h-3.1m-2.3,0h-3.1m-2.4,0h-3.1m-2.3,0h-3.1m-2.4,0h-3.1m-2.3,0h-3.2m-2.3,0h-3.1m-2.4,0h-3.1m-2.3,0H569m-2.4,0h-3.1m-2.3,0h-3.1m-2.4,0h-3.1m-2.3,0h-3.2m-2.3,0h-3.1m-2.4,0h-3.1m-2.3,0h-3.1m-2.4,0h-3.1m-2.3,0h-3.1m-2.4,0h-3.1m-2.3,0h-3.2m-2.3,0h-3.1m-2.4,0H498m-2.3,0h-3.1m-2.4,0h-3.1m-2.3,0h-3.1m-2.4,0h-3.1m-2.3,0h-3.2m-2.3,0h-3.1m-2.3,0h-3.2m-2.3,0h-3.1m-2.4,0h-3.1m-2.3,0h-3.1m-2.4,0H438m-2.3,0h-3.1m-2.4,0h-3.1m-2.3,0h-3.2m-2.3,0h-3.1m-2.4,0h-3.1m-2.3,0h-3.1m-2.4,0h-3.1m-2.3,0h-3.1m-2.4,0h-3.1m631,0h-3.1m-2.3,0h-3.1m-2.4,0h-3.1m-2.3,0h-3.2m-2.3,0H995m-2.4,0h-3.1m-2.3,0h-3.1m-2.4,0h-3.1m-2.3,0h-3.1m-2.4,0h-3.1m-2.3,0h-3.2m-2.3,0h-3.1m-2.4,0h-3.1m-2.3,0h-3.1m-2.4,0h-3.1m-2.3,0H935m-2.4,0h-3.1m-2.3,0H924m-2.3,0h-3.1m-2.4,0h-3.1m-2.3,0h-3.1m-2.4,0h-3.1m-2.3,0h-3.1m-2.4,0h-3.1m-2.3,0h-3.2m-2.3,0h-3.1m-2.3,0h-3.2m-2.3,0h-3.1m-2.4,0H864m-2.3,0h-3.1m-2.4,0h-3.1m-2.3,0h-3.2m-2.3,0h-3.1m-2.3,0h-3.2m-2.3,0h-3.1m-2.4,0h-3.1m-2.3,0h-3.1m-2.4,0h-3.1m-2.3,0h-3.1m-2.4,0H804m-2.3,0h-3.2m-2.3,0h-3.1m-2.4,0h-3.1m-2.3,0h-3.1m-2.4,0h-3.1m-2.3,0h-3.1m-2.4,0h-3.1m-2.3,0h-3.2m-2.3,0h-3.1m-2.4,0h-3.1m-2.3,0H744m-2.4,0h-3.1m-2.3,0h-3.1m-2.4,0h-3.1m-2.3,0h-3.2m-2.3,0h-3.1m-2.3,0h-3.2m-2.3,0h-3.1m-2.4,0h-3.1m-2.3,0h-3.1m-2.4,0h-3.1m-2.3,0h-3.2m-2.3,0h-3.1m-2.3,0h-.8v-2.3m0,-2.4v-3.1m0,-2.3v-3.2m0,-2.3v-3.1m0,-2.4v-3.1m0,-2.3v-3.1m0,-2.4v-3.1m0,-2.3v-3.1m0,-2.4v-3.1m0,-2.3v-3.2m0,-2.3V718m0,-2.4v-3.1m0,-2.3v-3.1m0,-2.4v-3.1m0,-2.3v-3.1m0,-2.4v-3.1m0,-2.3v-3.2m0,-2.3v-3.1m0,-2.3v-3.2m0,-2.3v-3.1m0,-2.4v-3.1m0,-2.3V658m0,-2.4v-3.1m0,-2.3v-3.1m0,-2.4v-3.1m0,-2.3v-3.2m0,-2.3v-3.1m0,-2.4v-3.1m0,-2.3v-3.1m0,-2.4v-3.1m0,-2.3v-3.1m0,-2.4v-3.1m0,-2.3v-3.2m0,-2.3v-3.1m0,-2.4V587m0,-2.3v-3.1m0,-2.4v-3.1m0,-2.3v-.3h2.9m2.4,0h3.1m2.3,0h3.1m2.4,0h3.1m2.3,0h3.1m2.4,0h3.1m2.3,0h3.2m2.3,0h3.1m2.4,0H722m2.3,0h3.1m2.4,0h3.1m2.3,0h3.1m2.4,0h3.1m2.3,0h3.2m2.3,0h3.1m2.4,0h3.1m2.3,0h3.1m2.4,0h3.1m2.3,0h3.1m2.4,0H782m2.3,0h3.2m2.3,0h3.1m2.3,0h3.2m2.3,0h3.1m2.4,0h3.1m2.3,0h3.1m2.4,0h3.1m2.3,0h3.1m2.4,0h3.1m2.3,0h3.2m2.3,0H842m2.4,0h3.1m2.3,0h3.1m2.4,0h3.1m2.3,0h3.1m2.4,0h3.1m2.3,0h3.2m2.3,0h3.1m2.4,0h3.1m2.3,0h3.1m2.4,0h3.1m2.3,0H902m2.4,0h3.1m2.3,0H913m2.3,0h3.1m2.4,0h3.1m2.3,0h3.1m2.4,0h3.1m2.3,0h3.1m2.4,0h3.1m2.3,0h3.2m2.3,0h3.1m2.3,0h3.2m2.3,0h3.1m2.4,0H973m2.3,0h3.1m2.4,0h3.1m2.3,0h3.2m2.3,0h3.1m2.3,0h3.2m2.3,0h3.1m2.4,0h3.1m2.3,0h3.1m2.4,0h3.1m2.3,0h3.1m2.4,0h3.1m2.3,0h3.2m2.3,0h3.1m2.4,0h3.1m2.3,0h3.1m2.4,0h3.1m2.3,0h3.1m2.4,0h3.1m2.3,0h3.2m2.3,0h3.1m2.4,0h3.1m2.3,0h3.1m2.4,0h3.1m2.3,0h3.1m2.4,0h3.1m2.3,0h3.2m2.3,0h3.1m2.3,0h3.2m2.3,0h3.1m2.4,0h3.1m2.3,0h3.1m2.4,0h3.1m2.3,0h3.2m2.3,0h3.1m2.3,0h3.2m2.3,0h3.1m2.4,0h3.1m2.3,0h3.1m2.4,0h3.1m2.3,0h3.1m2.4,0h3.1m2.3,0h3.2m2.3,0h3.1m2.4,0h3.1m2.3,0h3.1m2.4,0h3.1m2.3,0h3.1m2.4,0h3.1m2.3,0h3.2m2.3,0h3.1m2.4,0h3.1m2.3,0h3.1m2.4,0h3.1m2.3,0h3.1m2.4,0h3.1m2.3,0h3.2m2.3,0h3.1m2.4,0h3.1m2.3,0h3.1m2.4,0h3.1m2.3,0h3.1m2.4,0h3.1m2.3,0h3.2m2.3,0h3.1m2.3,0h3.2m2.3,0h3.1m2.4,0h3.1m2.3,0h3.1m2.4,0h3.1m2.3,0h3.1m2.4,0h3.1m2.3,0h1.7V575m0,2.3v3.1m0,2.4v3.1m0,2.3v3.2m0,2.3v3.1m0,2.4v3.1m0,2.3v3.1m0,2.4v3.1m0,2.3v3.1m0,2.4v3.1m0,2.3v3.2m0,2.3V635m0,2.4v3.1m0,2.3v3.1m0,2.4v3.1m0,2.3v3.1m0,2.4v3.1m0,2.3v3.2m0,2.3v3.1m0,2.3v3.2m0,2.3v3.1m0,2.4v3.1m0,2.3V695m0,2.4v3.1m0,2.3v3.1m0,2.4v3.1m0,2.3v3.2m0,2.3v3.1m0,2.4v3.1m0,2.3v3.1m0,2.4v3.1m0,2.3v3.1m0,2.4v3.1m0,2.3v3.2m0,2.3v3.1m0,2.4V766m0,2.3v3.1m0,2.4v1.1h-1.9m-2.4,0H1357m-2.3,0h-3.1m-2.4,0h-3.1m-2.3,0h-3.1m-2.4,0h-3.1m-2.3,0h-3.2m-2.3,0h-3.1m-2.4,0h-3.1m-2.3,0h-3.1m-2.4,0h-3.1m-2.3,0h-3.1m-2.4,0H1297m-2.3,0h-3.2m-2.3,0h-3.1m-2.3,0h-3.2m-2.3,0h-3.1m-2.4,0h-3.1m-2.3,0h-3.1m-2.4,0h-3.1m-2.3,0h-3.1m-2.4,0h-3.1m-2.3,0h-3.2m-2.3,0H1237m-2.4,0h-3.1m-2.3,0h-3.1m-2.4,0h-3.1m-2.3,0h-3.1m-2.4,0h-3.1m-2.3,0h-3.2m-2.3,0h-3.1m-2.4,0h-3.1m-2.3,0h-3.1m-2.4,0h-3.1m-2.3,0H1177m-2.4,0h-3.1m-2.3,0H1166m-2.3,0h-3.1m-2.4,0h-3.1m-2.3,0h-3.1m-2.4,0h-3.1m-2.3,0h-3.1m-2.4,0h-3.1m-2.3,0h-3.2m-2.3,0h-3.1m-2.3,0h-3.2m-2.3,0h-3.1m-2.4,0H1106m-2.3,0h-3.1m-2.4,0h-3.1m-2.3,0h-3.2m-2.3,0h-3.1m-2.3,0h-3.2m-2.3,0h-3.1m-2.4,0h-3.1m-2.3,0h-3.1m-2.4,0h-3.1m-2.3,0h-3.1m-2.4,0H1046m-2.3,0h-3.2m-2.3,0h-3.1m-2.4,0h-3.1m-2.3,0h-3.1m-2.4,0h-1.9" class="g5_8"/>
<path d="M99,796.1h40.6" class="g9_8"/>
</svg>