<?xml version="1.0" encoding="UTF-8" standalone="no"?>
<!DOCTYPE svg PUBLIC "-//W3C//DTD SVG 1.1//EN"
"http://www.w3.org/Graphics/SVG/1.1/DTD/svg11.dtd">
<svg viewBox="0 0 1466 825" version="1.1" xmlns="http://www.w3.org/2000/svg" xmlns:xlink="http://www.w3.org/1999/xlink">
<defs>
<clipPath id="c0_14"><path d="M0,825V0H1466.6V825Z"/></clipPath>
<style type="text/css"><![CDATA[
.g0_14{
fill: #FFF;
}
.g1_14{
fill: none;
stroke: #A6A6A6;
stroke-width: 0.779;
stroke-linejoin: round;
}
.g2_14{
fill: #AEB9C6;
}
.g3_14{
fill: none;
stroke: #BFBFBF;
stroke-width: 0.779;
stroke-linejoin: round;
}
.g4_14{
fill: #D9D9D9;
}
.g5_14{
fill: none;
stroke: #FFF;
stroke-width: 1.298;
stroke-linejoin: round;
}
.g6_14{
fill: none;
stroke: #AFABAB;
stroke-width: 0.692;
stroke-linejoin: round;
}
.g7_14{
fill: none;
stroke: #A6A6A6;
stroke-width: 0.692;
stroke-linejoin: round;
}
.g8_14{
fill: none;
stroke: #0563C1;
stroke-width: 0.779;
stroke-miterlimit: 10;
}
.g9_14{
fill: #BFBFBF;
}
]]></style>
</defs>
<g clip-path="url(#c0_14)">
<path fill-rule="evenodd" d="M0,0H1466.6V825H0V0Z" class="g0_14"/>
<path fill-rule="evenodd" d="M0,0H1466.7V825H0V0Z" class="g0_14"/>
</g>
<path d="M761.5,164.5H100.8V109.7H1422.2v54.8H761.5Zm0,62.9H100.8V172.6H1422.2v54.8H761.5Z" class="g1_14"/>
<path fill-rule="evenodd" d="M506.9,292.3H100.8v-31H912.9v31h-406Z" class="g2_14"/>
<path d="M506.9,292.3H100.8v-31H912.9v31h-406Z" class="g3_14"/>
<path fill-rule="evenodd" d="M100.8,298.9h82.3v27.5H100.8V298.9Z" class="g4_14"/>
<path fill-rule="evenodd" d="M183.1,298.9H540v27.5H183.1V298.9Z" class="g4_14"/>
<path fill-rule="evenodd" d="M540,298.9H912.9v27.5H540V298.9Z" class="g4_14"/>
<path d="M100.2,298.9H913.6m-812.8,-.6v68.8" class="g5_14"/>
<path d="M183.1,298.3v12.2m0,3.8v12.2m0,3.8v12.3m0,3.8v12.2m0,3.8v4.7M540,298.3v12.2m0,3.8v12.2m0,3.8v12.3m0,3.8v12.2m0,3.8v4.7" class="g6_14"/>
<path d="M912.9,298.3v68.8" class="g5_14"/>
<path d="M100.2,326.4h12.2m3.8,0h12.2m3.9,0h12.2m3.8,0h12.2m3.9,0h12.2m3.8,0h12.2m3.8,0h12.3m3.8,0h12.2m3.8,0h12.2m3.9,0h12.2m3.8,0h12.2m3.8,0h12.3m3.8,0h12.2m3.8,0h12.2m3.9,0H337m3.8,0H353m3.9,0h12.2m3.8,0h12.2m3.8,0h12.3m3.8,0h12.2m3.8,0h12.2m3.9,0h12.2m3.8,0h12.2m3.8,0h12.3m3.8,0h12.2m3.8,0h12.2m3.9,0h12.2m3.8,0h12.2m3.9,0h12.2m3.8,0h12.2m3.8,0h12.3m3.8,0h12.2m3.8,0h12.2m3.9,0h12.2m3.8,0h12.2m3.8,0h12.3m3.8,0h12.2m3.8,0h12.2m3.9,0H722m3.8,0H738m3.9,0h12.2m3.8,0h12.2m3.8,0h12.3m3.8,0h12.2m3.8,0h12.2m3.9,0h12.2m3.8,0h12.2m3.8,0h12.3m3.8,0h12.2m3.8,0h12.2m3.9,0h11.3M100.2,366.8h12.2m3.8,0h12.2m3.9,0h12.2m3.8,0h12.2m3.9,0h12.2m3.8,0h12.2m3.8,0h12.3m3.8,0h12.2m3.8,0h12.2m3.9,0h12.2m3.8,0h12.2m3.8,0h12.3m3.8,0h12.2m3.8,0h12.2m3.9,0H337m3.8,0H353m3.9,0h12.2m3.8,0h12.2m3.8,0h12.3m3.8,0h12.2m3.8,0h12.2m3.9,0h12.2m3.8,0h12.2m3.8,0h12.3m3.8,0h12.2m3.8,0h12.2m3.9,0h12.2m3.8,0h12.2m3.9,0h12.2m3.8,0h12.2m3.8,0h12.3m3.8,0h12.2m3.8,0h12.2m3.9,0h12.2m3.8,0h12.2m3.8,0h12.3m3.8,0h12.2m3.8,0h12.2m3.9,0H722m3.8,0H738m3.9,0h12.2m3.8,0h12.2m3.8,0h12.3m3.8,0h12.2m3.8,0h12.2m3.9,0h12.2m3.8,0h12.2m3.8,0h12.3m3.8,0h12.2m3.8,0h12.2m3.9,0h11.3" class="g6_14"/>
<path d="M100.8,411.8H113m3.8,0h12.3m3.8,0h12.2m3.8,0h12.2m3.9,0h12.2m3.8,0h12.2m3.9,0h12.2m3.8,0h12.2m3.8,0h12.3m3.8,0h12.2m3.8,0h12.2m3.9,0h12.2m3.8,0h12.2m3.8,0h12.3m3.8,0h12.2m3.8,0h12.2m3.9,0h12.2m3.8,0h12.2m3.9,0h12.2m3.8,0h12.2m3.8,0h12.3m3.8,0h12.2m3.8,0h12.2m3.9,0H482m3.8,0H498m3.8,0h12.3m3.8,0h12.2m3.8,0h12.2m3.9,0h12.2m3.8,0h12.2m3.9,0h12.2m3.8,0h12.2m3.8,0h12.3m3.8,0h12.2m3.8,0h12.2m3.9,0h12.2m3.8,0h12.2m3.8,0h12.3m3.8,0h12.2m3.8,0h12.2m3.9,0h12.2m3.8,0h12.2m3.9,0h12.2m3.8,0h12.2m3.8,0h12.3m3.8,0h12.2m3.8,0h12.2m3.9,0H867m3.8,0H883m3.8,0h12.3m3.8,0h10M183.1,371.4v12.3m0,3.8v12.2m0,3.8v8.6M540,371.4v12.3m0,3.8v12.2m0,3.8v8.6M100.8,452.8H113m3.8,0h12.3m3.8,0h12.2m3.8,0h12.2m3.9,0h12.2m3.8,0h12.2m3.9,0h12.2m3.8,0h12.2m3.8,0h12.3m3.8,0h12.2m3.8,0h12.2m3.9,0h12.2m3.8,0h12.2m3.8,0h12.3m3.8,0h12.2m3.8,0h12.2m3.9,0h12.2m3.8,0h12.2m3.9,0h12.2m3.8,0h12.2m3.8,0h12.3m3.8,0h12.2m3.8,0h12.2m3.9,0H482m3.8,0H498m3.8,0h12.3m3.8,0h12.2m3.8,0h12.2m3.9,0h12.2m3.8,0h12.2m3.9,0h12.2m3.8,0h12.2m3.8,0h12.3m3.8,0h12.2m3.8,0h12.2m3.9,0h12.2m3.8,0h12.2m3.8,0h12.3m3.8,0h12.2m3.8,0h12.2m3.9,0h12.2m3.8,0h12.2m3.9,0h12.2m3.8,0h12.2m3.8,0h12.3m3.8,0h12.2m3.8,0h12.2m3.9,0H867m3.8,0H883m3.8,0h12.3m3.8,0h10M183.1,412.5v12.2m0,3.8v12.2m0,3.8v8.6M540,412.5v12.2m0,3.8v12.2m0,3.8v8.6M100.8,510.6H113m3.8,0h12.3m3.8,0h12.2m3.8,0h12.2m3.9,0h12.2m3.8,0h12.2m3.9,0h12.2m3.8,0h12.2m3.8,0h12.3m3.8,0h12.2m3.8,0h12.2m3.9,0h12.2m3.8,0h12.2m3.8,0h12.3m3.8,0h12.2m3.8,0h12.2m3.9,0h12.2m3.8,0h12.2m3.9,0h12.2m3.8,0h12.2m3.8,0h12.3m3.8,0h12.2m3.8,0h12.2m3.9,0H482m3.8,0H498m3.8,0h12.3m3.8,0h12.2m3.8,0h12.2m3.9,0h12.2m3.8,0h12.2m3.9,0h12.2m3.8,0h12.2m3.8,0h12.3m3.8,0h12.2m3.8,0h12.2m3.9,0h12.2m3.8,0h12.2m3.8,0h12.3m3.8,0h12.2m3.8,0h12.2m3.9,0h12.2m3.8,0h12.2m3.9,0h12.2m3.8,0h12.2m3.8,0h12.3m3.8,0h12.2m3.8,0h12.2m3.9,0H867m3.8,0H883m3.8,0h12.3m3.8,0h10m-729.8,-55v12.2m0,3.9v12.2m0,3.8v12.2m0,3.8v7.2M540,455.6v12.2m0,3.9v12.2m0,3.8v12.2m0,3.8v7.2M100.8,553.2H113m3.8,0h12.3m3.8,0h12.2m3.8,0h12.2m3.9,0h12.2m3.8,0h12.2m3.9,0h12.2m3.8,0h12.2m3.8,0h12.3m3.8,0h12.2m3.8,0h12.2m3.9,0h12.2m3.8,0h12.2m3.8,0h12.3m3.8,0h12.2m3.8,0h12.2m3.9,0h12.2m3.8,0h12.2m3.9,0h12.2m3.8,0h12.2m3.8,0h12.3m3.8,0h12.2m3.8,0h12.2m3.9,0H482m3.8,0H498m3.8,0h12.3m3.8,0h12.2m3.8,0h12.2m3.9,0h12.2m3.8,0h12.2m3.9,0h12.2m3.8,0h12.2m3.8,0h12.3m3.8,0h12.2m3.8,0h12.2m3.9,0h12.2m3.8,0h12.2m3.8,0h12.3m3.8,0h12.2m3.8,0h12.2m3.9,0h12.2m3.8,0h12.2m3.9,0h12.2m3.8,0h12.2m3.8,0h12.3m3.8,0h12.2m3.8,0h12.2m3.9,0H867m3.8,0H883m3.8,0h12.3m3.8,0h10M183.1,512.8v12.3m0,3.8v12.2m0,3.8v8.6M540,512.8v12.3m0,3.8v12.2m0,3.8v8.6m-439.2,40H113m3.8,0h12.3m3.8,0h12.2m3.8,0h12.2m3.9,0h12.2m3.8,0h12.2m3.9,0h12.2m3.8,0h12.2m3.8,0h12.3m3.8,0h12.2m3.8,0h12.2m3.9,0h12.2m3.8,0h12.2m3.8,0h12.3m3.8,0h12.2m3.8,0h12.2m3.9,0h12.2m3.8,0h12.2m3.9,0h12.2m3.8,0h12.2m3.8,0h12.3m3.8,0h12.2m3.8,0h12.2m3.9,0H482m3.8,0H498m3.8,0h12.3m3.8,0h12.2m3.8,0h12.2m3.9,0h12.2m3.8,0h12.2m3.9,0h12.2m3.8,0h12.2m3.8,0h12.3m3.8,0h12.2m3.8,0h12.2m3.9,0h12.2m3.8,0h12.2m3.8,0h12.3m3.8,0h12.2m3.8,0h12.2m3.9,0h12.2m3.8,0h12.2m3.9,0h12.2m3.8,0h12.2m3.8,0h12.3m3.8,0h12.2m3.8,0h12.2m3.9,0H867m3.8,0H883m3.8,0h12.3m3.8,0h10M183.1,553.2v12.2m0,3.8v12.3m0,3.8v8.6M540,553.2v12.2m0,3.8v12.3m0,3.8v8.6M100.8,632.2H113m3.8,0h12.3m3.8,0h12.2m3.8,0h12.2m3.9,0h12.2m3.8,0h12.2m3.9,0h12.2m3.8,0h12.2m3.8,0h12.3m3.8,0h12.2m3.8,0h12.2m3.9,0h12.2m3.8,0h12.2m3.8,0h12.3m3.8,0h12.2m3.8,0h12.2m3.9,0h12.2m3.8,0h12.2m3.9,0h12.2m3.8,0h12.2m3.8,0h12.3m3.8,0h12.2m3.8,0h12.2m3.9,0H482m3.8,0H498m3.8,0h12.3m3.8,0h12.2m3.8,0h12.2m3.9,0h12.2m3.8,0h12.2m3.9,0h12.2m3.8,0h12.2m3.8,0h12.3m3.8,0h12.2m3.8,0h12.2m3.9,0h12.2m3.8,0h12.2m3.8,0h12.3m3.8,0h12.2m3.8,0h12.2m3.9,0h12.2m3.8,0h12.2m3.9,0h12.2m3.8,0h12.2m3.8,0h12.3m3.8,0h12.2m3.8,0h12.2m3.9,0H867m3.8,0H883m3.8,0h12.3m3.8,0h10M183.1,591.9v12.2m0,3.8v12.3m0,3.8v8.6M540,591.9v12.2m0,3.8v12.3m0,3.8v8.6" class="g7_14"/>
<path fill-rule="evenodd" d="M925.3,298.4h116.4V326H925.3V298.4Z" class="g4_14"/>
<path fill-rule="evenodd" d="M1041.7,298.4h380.6V326H1041.7V298.4Z" class="g4_14"/>
<path d="M936.2,342.1h74.4m-74.4,84.2h63.3m239.7,36.9H1298M936.2,510.5h40.6m-40.6,55H971" class="g8_14"/>
<path d="M924.6,298.4h498.3m-497.6,-.6V634" class="g5_14"/>
<path d="M1041.7,297.8V310m0,3.8v12.3m0,3.8v12.2m0,3.8v12.2m0,3.9v12.2m0,3.8v12.2m0,3.9v12.2m0,3.8v12.2m0,3.8v12.3m0,3.8v12.2m0,3.8v12.2m0,3.9v12.2m0,3.8v12.2m0,3.8v12.3m0,3.8v12.2m0,3.8v12.2m0,3.9v12.2m0,3.8v12.2m0,3.9v12.2m0,3.8v12.2m0,3.8v12.3" class="g6_14"/>
<path d="M1422.3,297.8V634" class="g5_14"/>
<path d="M924.6,326h12.2m3.8,0h12.3m3.8,0h12.2m3.8,0h12.2m3.9,0H1001m3.8,0H1017m3.9,0h12.2m3.8,0h12.2m3.8,0h12.3m3.8,0h12.2m3.8,0h12.2m3.9,0h12.2m3.8,0h12.2m3.8,0h12.3m3.8,0h12.2m3.8,0h12.2m3.9,0h12.2m3.8,0h12.2m3.9,0h12.2m3.8,0h12.2m3.8,0h12.3m3.8,0h12.2m3.8,0h12.2m3.9,0h12.2m3.8,0h12.2m3.8,0h12.3m3.8,0h12.2m3.8,0h12.2m3.9,0H1386m3.8,0H1402m3.9,0h12.2m3.8,0h1M924.6,410.2h12.2m3.8,0h12.3m3.8,0h12.2m3.8,0h12.2m3.9,0H1001m3.8,0H1017m3.9,0h12.2m3.8,0h12.2m3.8,0h12.3m3.8,0h12.2m3.8,0h12.2m3.9,0h12.2m3.8,0h12.2m3.8,0h12.3m3.8,0h12.2m3.8,0h12.2m3.9,0h12.2m3.8,0h12.2m3.9,0h12.2m3.8,0h12.2m3.8,0h12.3m3.8,0h12.2m3.8,0h12.2m3.9,0h12.2m3.8,0h12.2m3.8,0h12.3m3.8,0h12.2m3.8,0h12.2m3.9,0H1386m3.8,0H1402m3.9,0h12.2m3.8,0h1M924.6,494.4h12.2m3.8,0h12.3m3.8,0h12.2m3.8,0h12.2m3.9,0H1001m3.8,0H1017m3.9,0h12.2m3.8,0h12.2m3.8,0h12.3m3.8,0h12.2m3.8,0h12.2m3.9,0h12.2m3.8,0h12.2m3.8,0h12.3m3.8,0h12.2m3.8,0h12.2m3.9,0h12.2m3.8,0h12.2m3.9,0h12.2m3.8,0h12.2m3.8,0h12.3m3.8,0h12.2m3.8,0h12.2m3.9,0h12.2m3.8,0h12.2m3.8,0h12.3m3.8,0h12.2m3.8,0h12.2m3.9,0H1386m3.8,0H1402m3.9,0h12.2m3.8,0h1m-498.3,55h12.2m3.8,0h12.3m3.8,0h12.2m3.8,0h12.2m3.9,0H1001m3.8,0H1017m3.9,0h12.2m3.8,0h12.2m3.8,0h12.3m3.8,0h12.2m3.8,0h12.2m3.9,0h12.2m3.8,0h12.2m3.8,0h12.3m3.8,0h12.2m3.8,0h12.2m3.9,0h12.2m3.8,0h12.2m3.9,0h12.2m3.8,0h12.2m3.8,0h12.3m3.8,0h12.2m3.8,0h12.2m3.9,0h12.2m3.8,0h12.2m3.8,0h12.3m3.8,0h12.2m3.8,0h12.2m3.9,0H1386m3.8,0H1402m3.9,0h12.2m3.8,0h1M924.6,633.6h12.2m3.8,0h12.3m3.8,0h12.2m3.8,0h12.2m3.9,0H1001m3.8,0H1017m3.9,0h12.2m3.8,0h12.2m3.8,0h12.3m3.8,0h12.2m3.8,0h12.2m3.9,0h12.2m3.8,0h12.2m3.8,0h12.3m3.8,0h12.2m3.8,0h12.2m3.9,0h12.2m3.8,0h12.2m3.9,0h12.2m3.8,0h12.2m3.8,0h12.3m3.8,0h12.2m3.8,0h12.2m3.9,0h12.2m3.8,0h12.2m3.8,0h12.3m3.8,0h12.2m3.8,0h12.2m3.9,0H1386m3.8,0H1402m3.9,0h12.2m3.8,0h1" class="g6_14"/>
<path fill-rule="evenodd" d="M1175.2,292.9h-247v-31h494v31h-247Z" class="g2_14"/>
<path d="M1175.2,292.9h-247v-31h494v31h-247Z" class="g3_14"/>
<path fill-rule="evenodd" d="M1192.8,37.2L1161.1,20c-1.9,-1.1,-.9,-3.4,1.6,-3.4h218.8c.6,0,1.1,.1,1.6,.4l37.7,20.2c1.4,.7,1.4,2.2,0,2.9l-37.7,20.7c-.5,.3,-1,.5,-1.6,.5H1162.4c-2.3,0,-3.4,-2.3,-1.4,-3.4l31.8,-17.8c1.4,-.7,1.3,-2.2,0,-2.9Z" class="g9_14"/>
</svg>