<?xml version="1.0" encoding="UTF-8" standalone="no"?>
<!DOCTYPE svg PUBLIC "-//W3C//DTD SVG 1.1//EN"
"http://www.w3.org/Graphics/SVG/1.1/DTD/svg11.dtd">
<svg viewBox="0 0 1466 825" version="1.1" xmlns="http://www.w3.org/2000/svg" xmlns:xlink="http://www.w3.org/1999/xlink">
<defs>
<clipPath id="c0_5"><path d="M0,825V0H1466.6V825Z"/></clipPath>
<style type="text/css"><![CDATA[
.g0_5{
fill: #FFF;
}
.g1_5{
fill: #E2F0D9;
}
.g2_5{
fill: none;
stroke: #F2F2F2;
stroke-width: 0.779;
stroke-miterlimit: 3;
}
.g3_5{
fill: #359CDB;
}
.g4_5{
fill: #CFD5E9;
}
.g5_5{
fill: none;
stroke: #000;
stroke-width: 0.909;
stroke-miterlimit: 10;
}
.g6_5{
fill: #E8EBF4;
}
.g7_5{
fill: none;
stroke: #333;
stroke-width: 0.909;
stroke-miterlimit: 10;
}
.g8_5{
fill: none;
stroke: #FFF;
stroke-width: 1.298;
stroke-linejoin: round;
}
.g9_5{
fill: none;
stroke: #FFF;
stroke-width: 4.048;
stroke-linejoin: round;
}
.ga_5{
fill: #A6A6A6;
}
.gb_5{
fill: #548235;
}
.gc_5{
fill: #70AD47;
}
.gd_5{
fill: none;
stroke: #0563C1;
stroke-width: 0.909;
stroke-miterlimit: 10;
}
]]></style>
</defs>
<g clip-path="url(#c0_5)">
<path fill-rule="evenodd" d="M0,0H1466.6V825H0V0Z" class="g0_5"/>
<path fill-rule="evenodd" d="M0,0H1466.7V825H0V0Z" class="g0_5"/>
</g>
<path fill-rule="evenodd" d="M781,657.1H152.1V532.8H1409.9V657.1H781Z" class="g1_5"/>
<path d="M781,657.1H152.1V532.8H1409.9V657.1H781Z" class="g2_5"/>
<path fill-rule="evenodd" d="M152.1,150.1H367.5v44.7H152.1V150.1Z" class="g3_5"/>
<path fill-rule="evenodd" d="M367.5,150.1H943.3v44.7H367.5V150.1Z" class="g3_5"/>
<path fill-rule="evenodd" d="M943.3,150.1h466.6v44.7H943.3V150.1Z" class="g3_5"/>
<path fill-rule="evenodd" d="M152.1,194.8H367.5v79.9H152.1V194.8Z" class="g4_5"/>
<path fill-rule="evenodd" d="M367.5,194.8H943.3v79.9H367.5V194.8Z" class="g4_5"/>
<path d="M378.4,211.9H895.9M378.4,225.7H546" class="g5_5"/>
<path fill-rule="evenodd" d="M943.3,194.8h466.6v79.9H943.3V194.8Z" class="g4_5"/>
<path fill-rule="evenodd" d="M152.1,274.7H367.5V388.3H152.1V274.7Z" class="g6_5"/>
<path fill-rule="evenodd" d="M367.5,274.7H943.3V388.3H367.5V274.7Z" class="g6_5"/>
<path d="M375.7,288.6H662.3" class="g7_5"/>
<path fill-rule="evenodd" d="M943.3,274.7h466.6V388.3H943.3V274.7Z" class="g6_5"/>
<path fill-rule="evenodd" d="M152.1,388.3H367.5v66.1H152.1V388.3Z" class="g4_5"/>
<path fill-rule="evenodd" d="M367.5,388.3H943.3v66.1H367.5V388.3Z" class="g4_5"/>
<path d="M378.4,405.5H810.8" class="g5_5"/>
<path fill-rule="evenodd" d="M943.3,388.3h466.6v66.1H943.3V388.3Z" class="g4_5"/>
<path d="M151.4,150.1H1410.5M152.1,149.4V455.1M367.5,149.4V455.1M943.3,149.4V455.1M1409.9,149.4V455.1" class="g8_5"/>
<path d="M151.4,194.8H1410.5" class="g9_5"/>
<path d="M151.4,274.7H1410.5M151.4,388.3H1410.5M151.4,454.4H1410.5" class="g8_5"/>
<path fill-rule="evenodd" d="M144.4,149.1V479.8L96.8,513.4L49.5,479.8V149.1h94.9Z" class="ga_5"/>
<image clip-path="url(#c0_5)" preserveAspectRatio="none" x="69" y="231" width="49" height="49" xlink:href="img/1.png"/>
<path fill-rule="evenodd" d="M559,588.8H356.7V552.6H761.3v36.2H559Z" class="gb_5"/>
<path fill-rule="evenodd" d="M981.9,588.8H779.7V552.6h404.5v36.2H981.9Z" class="gc_5"/>
<path d="M99,796.1h40.6" class="gd_5"/>
</svg>